#N canvas 67 83 1366 714 10;
#X declare -lib gridflow;
#X obj -1182 -236 metro 33.333;
#X obj -1182 -113 # inv+ 255;
#X obj -1133 -136 tgl 15 0 empty empty empty 18 8 0 8 -261682 -1 -1
0 1;
#X obj -1182 -136 shunt;
#X obj -1182 -169 #in;
#X obj -1182 -257 tgl 15 0 empty start start_video 17 7 0 8 -257985
-1 -258113 0 1;
#N canvas 442 437 450 300 color_wrapping 0;
#X obj -155 136 # %;
#X obj -154 179 # /;
#X obj -155 158 # * 255;
#X obj -219 111 shunt;
#X obj -219 75 inlet;
#X obj -148 75 inlet;
#X obj -218 218 outlet;
#X obj -133 106 inlet;
#X obj -116 127 inlet;
#X connect 0 0 2 1;
#X connect 1 0 6 0;
#X connect 2 0 1 1;
#X connect 3 0 6 0;
#X connect 3 1 0 1;
#X connect 4 0 3 1;
#X coords 0 0 1 1 30 160 0;
#X restore -1183 239 pd color_wrapping;
#X obj -1182 -43 tgl 15 0 empty empty colour_wrapping 18 7 0 8 -258113
-1 -1 0 1;
#X obj -1182 49 vsl 15 128 0 255 0 0 empty empty empty 0 -9 0 10 -258113
-1 -1 0 1;
#N canvas 501 216 450 300 posterize 0;
#X obj -164 149 #posterize;
#X obj -212 123 shunt;
#X obj -210 68 inlet;
#X obj -180 82 inlet;
#X obj -109 114 inlet;
#X obj -186 191 outlet;
#X connect 0 0 5 0;
#X connect 1 0 5 0;
#X connect 1 1 0 1;
#X connect 2 0 1 1;
#X restore -1183 262 pd posterize;
#X obj -1152 -20 tgl 15 0 empty empty posterise 18 8 0 8 -257985 -1
-1 0 1;
#X obj -1152 49 vsl 15 128 0 8 0 0 empty empty empty 0 -9 0 10 -257985
-1 -1 0 1;
#N canvas 30 220 450 300 gamma 0;
#X obj 136 153 shunt;
#X obj 136 122 inlet;
#X obj 188 119 inlet;
#X obj 221 149 inlet;
#X obj 136 252 outlet;
#X obj 164 199 # - 0;
#X obj 162 227 #clip;
#X connect 0 0 4 0;
#X connect 0 1 5 1;
#X connect 1 0 0 1;
#X connect 5 0 6 1;
#X connect 6 0 4 0;
#X restore -1069 216 pd gamma;
#X obj -878 5 tgl 15 0 empty empty fade 18 7 0 8 -4032 -1 -1 0 1;
#X obj -878 49 vsl 15 128 0 255 0 0 empty fadeout empty 0 -9 0 10 -4032
-1 -1 0 1;
#N canvas 371 227 450 300 redim 0;
#X obj -199 140 shunt;
#X obj -172 163 #redim;
#X msg -73 137 576 \$1 3;
#X obj -199 108 inlet;
#X obj -153 105 inlet;
#X obj -72 110 inlet;
#X obj -199 222 outlet;
#X obj -174 186 #scale_to (480 640);
#X connect 0 0 6 0;
#X connect 0 1 1 1;
#X connect 1 0 7 1;
#X connect 3 0 0 1;
#X connect 5 0 2 0;
#X connect 7 0 6 0;
#X restore -1069 239 pd redim;
#X obj -1026 26 tgl 15 0 empty empty redim 18 8 0 8 -159808 -1 -1 0
1;
#X obj -1026 49 vsl 15 128 0 640 0 0 empty empty empty 0 -9 0 10 -159808
-1 -1 0 1;
#X obj -1183 216 r continue1;
#X obj -925 -216 #see;
#X text -1187 -289 Video 1;
#X obj -663 -153 hsl 128 30 0 256 0 0 empty empty empty -2 -8 0 10
-260097 -1 -1 0 1;
#X obj -925 -262 r preview1;
#X obj -1069 318 s preview1;
#X obj -666 -84 #see;
#N canvas 5 169 450 300 rotate 0;
#X obj -13 37 #rotate;
#X obj -113 37 #remap_image;
#X obj -142 -7 shunt;
#X obj -139 73 outlet;
#X obj -142 -40 inlet;
#X obj -94 -41 inlet;
#X obj 25 0 inlet;
#X obj 99 28 f;
#X obj 103 56 pingpong 35999;
#X obj 117 -36 inlet;
#X floatatom 164 89 5 0 0 0 - - -;
#X obj 146 28 + 10;
#X obj 103 89 outlet;
#X obj 117 -11 metro 33.333;
#X obj 226 -1 inlet;
#X obj 196 28 inlet;
#X connect 1 0 3 0;
#X connect 1 1 0 1;
#X connect 2 0 3 0;
#X connect 2 1 1 1;
#X connect 4 0 2 1;
#X connect 7 0 8 1;
#X connect 7 0 10 0;
#X connect 7 0 11 0;
#X connect 8 0 12 0;
#X connect 9 0 13 0;
#X connect 11 0 7 1;
#X connect 13 0 7 0;
#X connect 14 0 11 1;
#X connect 15 0 8 1;
#X restore -1069 262 pd rotate;
#X obj -990 49 vsl 15 128 0 35999 0 0 empty empty empty 0 -9 0 10 -204786
-1 -1 0 1;
#X obj -990 -38 tgl 15 0 empty empty rotate_start 17 7 0 8 -204786
-1 -1 0 1;
#X obj -990 -17 tgl 15 0 empty empty bounce 18 8 0 8 -204786 -1 -1
0 1;
#X floatatom -968 162 5 0 0 0 - - -;
#X msg -968 139 0;
#X obj -1095 -210 openpanel;
#X obj -1095 -288 bng 25 250 50 0 empty empty open_video 30 7 0 10
-258113 -1 -1;
#X obj -667 137 #store;
#X obj -667 114 #finished;
#X obj -667 91 t a a;
#X obj -668 -257 tgl 30 0 start empty start 35 15 0 10 -258113 -1 -1
0 1;
#X msg -1095 -187 open \$1 int32;
#X obj -667 68 #cast int32;
#X obj -590 106 # -;
#X obj -668 -221 metro 33.3333;
#X obj -667 260 #to_pdp;
#X msg -587 283 create;
#X obj -667 283 pdp_xv;
#X msg -587 260 fullscreen;
#X obj -513 217 fps;
#X floatatom -513 240 5 0 0 0 - - -;
#N canvas 604 191 535 546 nervous 0;
#N canvas 124 327 450 300 counter 0;
#X obj 131 70 + 1;
#X obj 131 23 bng 15 250 50 0 empty empty empty 0 -6 0 8 -262144 -1
-1;
#X floatatom 170 70 5 0 0 0 - - -;
#X msg 131 47 1;
#X floatatom 170 114 5 0 0 0 - - -;
#X obj 132 157 select 1;
#X msg 170 44 0;
#X obj 132 178 bng 15 250 50 0 empty empty empty 0 -6 0 8 -262144 -1
-1;
#X obj 70 25 inlet;
#X obj 132 195 outlet;
#X obj 220 65 inlet;
#X obj 298 106 outlet;
#X obj 170 95 >= 32;
#X connect 0 0 2 0;
#X connect 1 0 3 0;
#X connect 2 0 0 1;
#X connect 2 0 11 0;
#X connect 2 0 12 0;
#X connect 3 0 0 0;
#X connect 4 0 5 0;
#X connect 5 0 6 0;
#X connect 5 0 7 0;
#X connect 6 0 2 0;
#X connect 7 0 9 0;
#X connect 8 0 1 0;
#X connect 10 0 12 1;
#X connect 12 0 4 0;
#X restore 331 124 pd counter;
#X floatatom 24 310 5 0 0 0 - - -;
#X msg 24 334 list \$1;
#X msg 416 114 32;
#X obj 24 253 random 320;
#X floatatom 416 134 5 0 0 0 - - -;
#X obj 447 114 loadbang;
#X obj 24 167 float;
#X obj 24 209 shunt 4;
#X obj 24 233 bang;
#X obj 135 173 vradio 15 1 0 4 empty empty empty 0 -6 0 8 -241291 -1
-1 0;
#X text 156 173 caffeine twitch;
#X text 156 188 ethanol lag;
#X obj 131 253 * 2;
#X obj 160 253 * -1;
#X text 156 219 back flash acid;
#X text 155 203 acid flash back;
#X obj 255 449 vradio 15 1 0 1 empty empty empty 0 -6 0 8 -241291 -1
-1 0;
#X text 273 446 plain;
#X obj 102 253 + 1;
#X obj 24 438 shunt 4;
#X obj 119 433 shunt 4;
#X obj 24 96 t b b b;
#X text 145 134 <-- open this;
#X obj 24 400 #store;
#X obj 61 353 #cast b;
#X obj 24 419 #cast i;
#X msg 405 199 put_at \$1 0 0 0;
#X obj 24 272 div 10;
#X obj 23 67 inlet;
#X obj 27 482 outlet;
#X obj 79 134 #in;
#X msg 225 396 reassign \, 32 480 640 3 b #;
#X obj 229 360 loadbang;
#X obj 93 100 r inny1;
#X connect 0 1 27 0;
#X connect 0 1 7 1;
#X connect 1 0 2 0;
#X connect 2 0 24 1;
#X connect 3 0 5 0;
#X connect 4 0 28 0;
#X connect 5 0 0 1;
#X connect 6 0 3 0;
#X connect 7 0 8 1;
#X connect 8 0 9 0;
#X connect 8 1 19 0;
#X connect 8 2 13 0;
#X connect 8 3 14 0;
#X connect 9 0 4 0;
#X connect 13 0 2 0;
#X connect 14 0 2 0;
#X connect 19 0 2 0;
#X connect 20 0 30 0;
#X connect 22 0 7 0;
#X connect 22 2 0 0;
#X connect 26 0 20 1;
#X connect 28 0 1 0;
#X connect 29 0 22 0;
#X connect 31 0 21 1;
#X connect 33 0 32 0;
#X restore -1095 -118 pd nervous;
#X obj -1095 -141 shunt;
#X obj -1047 -136 tgl 15 0 empty video1 empty 0 -6 0 8 -261682 -1 -1
0 1;
#X obj -857 -136 tgl 15 0 empty video1 empty 0 -6 0 8 -261682 -1 -1
0 1;
#X obj -930 -136 shunt;
#X msg -968 93 18000;
#X obj -968 47 metro 100;
#X obj -968 26 tgl 15 0 empty empty random_rotation 17 7 0 8 -204786
-1 -1 0 1;
#X obj -968 70 random 36000;
#X msg -559 -186 256;
#X msg -614 -186 128;
#X obj -925 -239 #scale_to (60 80);
#X obj -575 88 r left1;
#X obj -590 68 r right;
#X text -1182 -91 negative;
#X text -1095 -96 nervous;
#X obj -996 295 s left1;
#X obj -996 318 s left2;
#X obj -1095 -164 s inny1;
#X obj -668 -319 #clip;
#X obj -667 183 shunt 4;
#X obj -667 160 # *>>8;
#X obj -525 -186 vradio 20 1 0 3 empty empty empty 0 -8 0 10 -257985
-1 -1 0;
#X obj -585 194 r left2;
#X obj -640 216 # ^;
#X obj -667 216 # +;
#X obj -614 216 # *;
#X text -499 -181 normal;
#X text -499 -161 blend huh;
#X text -499 -141 multiply;
#X msg -666 -186 1;
#X obj -552 -232 line;
#X obj -930 -113 #fade (16 8 4);
#N canvas 636 335 558 389 dither 0;
#X obj 46 126 #rgb_to_greyscale;
#X obj 46 274 # > 128;
#X obj 46 293 # * 255;
#X obj 46 193 #gamma;
#X floatatom 88 193 5 0 0 0 - - -;
#X obj 307 84 # / 5;
#X obj 307 65 # * 255;
#X obj 305 165 # * 255;
#X obj 305 184 # / 10;
#X obj 305 265 # * 255;
#X obj 305 284 # / 17;
#X obj 307 46 #store (2 2 1 # 4 2 1 3);
#X obj 305 146 #store (3 3 1 # 9 1 4 5 7 3 2 6 8);
#X obj 109 233 shunt;
#X msg 377 8 2 \$1;
#X msg 375 107 3 \$1;
#X msg 375 207 4 \$1;
#X floatatom 443 3 5 0 0 0 - - -;
#X obj 88 155 loadbang;
#X msg 88 174 128;
#X obj 46 107 shunt;
#X obj 136 92 tgl 15 0 empty empty empty 17 7 0 10 -262130 -1 -1 0
1;
#X obj 145 281 #greyscale_to_rgb;
#X msg 353 265 4 4 1 # 1 2 6 7 3 5 8 13 4 9 12 14 10 11 15 16;
#X obj 46 -17 t b b;
#X obj 443 -35 loadbang;
#X text 471 -17 width;
#X text 152 90 couleur;
#X text 395 277 click here for alternate pattern;
#X obj 215 0 shunt 4;
#X obj 305 369 #store;
#X obj 305 388 # * 255;
#X obj 305 407 # / 65;
#X obj 472 311 loadbang;
#X obj 455 331 bng 15 250 50 0 empty empty empty 17 7 0 10 -262144
-1 -1;
#X obj 472 368 #fold +;
#X obj 472 387 #ravel;
#X obj 472 406 #grade;
#X obj 472 464 #redim (8 8 1);
#X obj 473 330 #for (-15 -15) (16 16) (4 4);
#X msg 375 331 8 \$1;
#X obj 472 425 #grade;
#X obj 231 87 t a;
#X obj 145 233 shunt;
#N canvas 721 232 450 300 rgb_offset 0;
#X obj 10 13 inlet;
#X obj 10 127 outlet;
#X obj 10 32 t a a;
#X obj 10 51 #finished;
#X obj 10 108 #store;
#X obj 98 32 #dim;
#X obj 98 51 # * (1 1 3);
#X obj 10 89 #inner (3 2 # 1 0 0 1 3 2);
#X obj 217 172 #pack (3 2);
#X msg 217 39 1 0 0 1 3 2;
#X obj 217 191 display;
#X obj 217 17 loadbang;
#X floatatom 280 114 5 0 0 0 - - -;
#X floatatom 267 96 5 0 0 0 - - -;
#X obj 329 12 r \$0-clock;
#X obj 340 179 display;
#X obj 329 61 #store (0 0);
#X obj 339 106 #unpack;
#X obj 329 31 spigot;
#X obj 372 32 tgl 15 0 empty empty empty 17 7 0 10 -262144 -1 -1 0
1;
#X obj 336 81 # + (5 7);
#X obj 329 148 # >> 6;
#X obj 10 70 #for (0 0 0) (8 320 3);
#X connect 0 0 2 0;
#X connect 3 0 22 1;
#X connect 4 0 1 0;
#X connect 5 0 6 1;
#X connect 6 0 22 2;
#X connect 7 0 4 1;
#X connect 9 0 8 1;
#X connect 11 0 9 0;
#X connect 13 0 8 5;
#X connect 14 0 18 0;
#X connect 16 0 20 1;
#X connect 16 0 21 1;
#X connect 17 0 8 5;
#X connect 18 0 16 1;
#X connect 19 0 18 1;
#X connect 22 0 7 1;
#X restore 172 257 pd rgb_offset;
#X obj 182 234 tgl 15 0 empty empty empty 17 7 0 10 -262130 -1 -1 0
1;
#X obj 305 246 #store (4 4 1 # 1 9 4 12 13 5 16 8 3 11 2 10 15 7 14
6);
#X obj 472 349 # abs-;
#X obj 305 226 #for (0 0) (4 512);
#X obj 305 126 #for (0 0) (3 512);
#X obj 307 27 #for (0 0) (2 512);
#X obj 305 350 #for (0 0) (8 512);
#X obj 46 60 #in;
#X obj 63 34 r inny1;
#X obj 46 -45 inlet;
#X obj 46 344 outlet;
#X msg 443 -16 640;
#X obj 249 -28 inlet;
#X obj 46 319 #scale_by 1;
#X connect 0 0 3 1;
#X connect 1 0 2 1;
#X connect 2 0 58 1;
#X connect 3 0 1 1;
#X connect 5 0 42 0;
#X connect 6 0 5 1;
#X connect 7 0 8 1;
#X connect 8 0 42 0;
#X connect 9 0 10 1;
#X connect 10 0 42 0;
#X connect 11 0 6 1;
#X connect 12 0 7 1;
#X connect 13 1 43 1;
#X connect 14 0 50 2;
#X connect 15 0 49 2;
#X connect 16 0 48 2;
#X connect 17 0 14 0;
#X connect 17 0 15 0;
#X connect 17 0 16 0;
#X connect 17 0 40 0;
#X connect 18 0 19 0;
#X connect 19 0 4 0;
#X connect 20 1 3 1;
#X connect 24 1 29 1;
#X connect 25 0 56 0;
#X connect 29 0 50 1;
#X connect 29 1 49 1;
#X connect 29 2 48 1;
#X connect 29 3 51 1;
#X connect 30 0 31 1;
#X connect 31 0 32 1;
#X connect 32 0 42 0;
#X connect 33 0 39 1;
#X connect 34 0 39 1;
#X connect 39 0 47 1;
#X connect 40 0 51 2;
#X connect 41 0 38 1;
#X connect 42 0 13 1;
#X connect 43 1 44 0;
#X connect 46 0 9 1;
#X connect 48 0 46 1;
#X connect 49 0 12 1;
#X connect 50 0 11 1;
#X connect 51 0 30 1;
#X connect 52 0 20 1;
#X connect 54 0 24 0;
#X connect 56 0 17 0;
#X connect 58 0 55 0;
#X restore -1010 -113 pd dither;
#X obj -1010 -136 shunt;
#X obj -967 -136 tgl 15 0 empty empty empty 17 7 0 10 -261682 -1 -1
0 1;
#X obj -1010 -90 hradio 15 1 0 4 empty empty empty 0 -8 0 10 -261682
-1 -1 0;
#X obj -1091 30 vradio 15 1 0 10 empty empty empty 0 -8 0 10 -4034
-1 -1 0;
#X obj -666 -117 #scale_to (80 100);
#X obj -1121 49 vsl 15 128 2 16 0 0 empty empty empty 0 -9 0 10 -4034
-1 -1 0 1;
#X text -930 -91 color fade;
#X floatatom -1091 186 5 0 0 0 - - -;
#X obj -552 -209 s fadeout;
#X obj -856 93 line;
#X msg -856 47 255 2000;
#X msg -856 70 0 2000;
#X text -796 46 fade out;
#X text -796 66 fade in;
#N canvas 4 143 450 300 color 0;
#X obj -235 174 #clip;
#X obj -210 117 inlet;
#X obj -251 201 outlet;
#X obj -258 113 shunt;
#X obj -279 84 inlet;
#X obj -225 83 inlet;
#X obj -235 144 # + 0;
#X connect 0 0 2 0;
#X connect 3 0 2 0;
#X connect 3 1 6 1;
#X connect 4 0 3 1;
#X connect 6 0 0 1;
#X restore -1069 285 pd color;
#X obj -912 236 #color;
#X obj -912 194 tgl 15 0 empty empty colourise 18 8 0 8 -191407 -262144
-1 0 1;
#X text -489 -279 fade out;
#X text -489 -259 fade in;
#X obj -825 -65 s continue1;
#N canvas 537 258 450 300 8bit 0;
#X obj 58 52 #scale_by;
#X obj 205 -22 t a a;
#X floatatom 127 113 5 0 0 0 - - -;
#X obj 58 0 #downscale_by \, smoothly;
#X obj 58 133 #posterize 2;
#X obj 29 163 outlet;
#X obj 29 -32 shunt;
#X obj 27 -66 inlet;
#X obj 76 -67 inlet;
#X obj 252 -82 inlet;
#X obj 126 87 inlet;
#X obj 205 -44 + 0;
#X connect 0 0 4 1;
#X connect 3 0 0 1;
#X connect 4 0 5 0;
#X connect 6 0 5 0;
#X connect 6 1 3 1;
#X connect 7 0 6 1;
#X connect 9 0 11 0;
#X connect 10 0 2 0;
#X connect 11 0 1 0;
#X restore -1183 285 pd 8bit;
#X obj -1121 5 tgl 15 0 empty video1 8_bit 17 8 0 8 -4034 -1 -1 0 1
;
#X msg -968 116 9000;
#X obj -733 -114 tgl 15 0 empty empty empty 0 -6 0 8 -261682 -1 -1
0 1;
#X obj -788 -128 tgl 15 0 empty empty empty 0 -6 0 8 -261682 -1 -1
0 1;
#X obj -825 -86 hradio 15 1 0 4 empty empty empty 0 -6 0 8 -261682
-1 -1 0;
#N canvas 351 185 480 500 sort_me_out 0;
#X obj 196 295 # * 255;
#X obj 117 472 outlet;
#X obj 192 9 inlet;
#X obj 235 257 # / 2;
#X obj 17 343 # +;
#X obj 44 9 inlet;
#X obj 331 277 # - 1;
#X obj 17 362 #store;
#X obj 17 82 #grade;
#X obj 44 120 #grade;
#X obj 156 9 inlet;
#X text 271 108 extract width;
#X obj 17 286 #finished;
#X obj 283 277 # * 255;
#X obj 17 63 #fold +;
#X obj 17 150 shunt 4;
#X obj 117 399 shunt 4;
#X msg 235 106 \$2;
#X obj 211 45 #dim;
#X obj 44 28 t a a;
#X msg 186 107 \$1 \$2;
#X obj 211 64 #to_list;
#X obj 17 180 t a a;
#X obj 44 343 #outer & (0 -1);
#X obj 17 305 #for (0 0) (240 320);
#X obj 17 101 shunt;
#X obj 283 296 # / 320;
#X obj 17 324 # * (1 0);
#X obj 283 335 #outer ignore (3 #);
#X obj 196 276 # < 160;
#X obj 130 434 # avg;
#X connect 0 0 28 1;
#X connect 4 0 7 1;
#X connect 5 0 19 0;
#X connect 7 0 16 1;
#X connect 8 0 25 1;
#X connect 9 0 15 1;
#X connect 12 0 24 1;
#X connect 13 0 26 1;
#X connect 15 0 22 0;
#X connect 15 1 22 0;
#X connect 15 2 29 1;
#X connect 15 3 13 1;
#X connect 16 0 1 0;
#X connect 16 1 30 1;
#X connect 17 0 3 1;
#X connect 17 0 6 1;
#X connect 20 0 24 2;
#X connect 21 0 17 0;
#X connect 21 0 20 0;
#X connect 22 1 23 1;
#X connect 24 0 27 1;
#X connect 25 0 15 1;
#X connect 26 0 28 1;
#X connect 27 0 4 1;
#X connect 28 0 1 0;
#X connect 29 0 0 1;
#X connect 30 0 1 0;
#X restore -825 -109 pd sort_me_out;
#X obj -825 -132 shunt;
#X msg -1065 163 20;
#X msg -1065 80 8;
#X msg -1065 135 16;
#X msg -1065 103 10;
#X msg -1065 57 4;
#X obj -909 215 hsl 128 15 0 127 0 0 empty empty empty -2 -8 0 10 -260097
-1 -1 0 1;
#N canvas 649 158 450 300 randomcolor 0;
#X obj 88 84 random 255;
#X obj 164 84 random 255;
#X obj 245 83 random 255;
#X obj 87 38 metro 100;
#X obj 90 60 t b b b;
#X obj 93 152 outlet;
#X obj 92 14 inlet;
#X obj 91 113 #pack 3;
#X floatatom 168 142 5 0 0 0 - - -;
#X floatatom 212 142 5 0 0 0 - - -;
#X floatatom 252 142 5 0 0 0 - - -;
#X obj 138 13 inlet;
#X connect 0 0 7 1;
#X connect 0 0 8 0;
#X connect 1 0 7 2;
#X connect 1 0 9 0;
#X connect 2 0 10 0;
#X connect 3 0 4 0;
#X connect 4 0 0 0;
#X connect 4 1 1 0;
#X connect 4 2 2 0;
#X connect 6 0 3 0;
#X connect 7 0 5 0;
#X connect 11 0 3 1;
#X restore -821 193 pd randomcolor;
#X obj -821 172 tgl 15 0 empty empty empty 17 7 0 10 -262144 -1 -1
0 1;
#X msg -728 217 100;
#X msg -728 240 300;
#X msg -728 263 500;
#X msg -728 194 10;
#X obj -402 -236 metro 33.333;
#X obj -402 -113 # inv+ 255;
#X obj -353 -136 tgl 15 0 empty empty empty 18 8 0 8 -261682 -1 -1
0 1;
#X obj -402 -136 shunt;
#X obj -402 -169 #in;
#X obj -402 -257 tgl 15 0 empty start start_video 17 7 0 8 -257985
-1 -258113 0 1;
#N canvas 442 437 450 300 color_wrapping 0;
#X obj -155 136 # %;
#X obj -154 179 # /;
#X obj -155 158 # * 255;
#X obj -219 111 shunt;
#X obj -219 75 inlet;
#X obj -148 75 inlet;
#X obj -218 218 outlet;
#X obj -133 106 inlet;
#X obj -116 127 inlet;
#X connect 0 0 2 1;
#X connect 1 0 6 0;
#X connect 2 0 1 1;
#X connect 3 0 6 0;
#X connect 3 1 0 1;
#X connect 4 0 3 1;
#X coords 0 0 1 1 30 160 0;
#X restore -403 239 pd color_wrapping;
#X obj -402 -43 tgl 15 0 empty empty colour_wrapping 18 7 0 8 -258113
-1 -1 0 1;
#X obj -402 49 vsl 15 128 0 255 0 0 empty empty empty 0 -9 0 10 -258113
-1 -1 0 1;
#N canvas 501 216 450 300 posterize 0;
#X obj -164 149 #posterize;
#X obj -212 123 shunt;
#X obj -210 68 inlet;
#X obj -180 82 inlet;
#X obj -109 114 inlet;
#X obj -186 191 outlet;
#X connect 0 0 5 0;
#X connect 1 0 5 0;
#X connect 1 1 0 1;
#X connect 2 0 1 1;
#X restore -403 262 pd posterize;
#X obj -372 -20 tgl 15 0 empty empty posterise 18 8 0 8 -257985 -1
-1 0 1;
#X obj -372 49 vsl 15 128 0 8 0 0 empty empty empty 0 -9 0 10 -257985
-1 -1 0 1;
#N canvas 30 220 450 300 gamma 0;
#X obj 136 153 shunt;
#X obj 136 122 inlet;
#X obj 188 119 inlet;
#X obj 221 149 inlet;
#X obj 136 252 outlet;
#X obj 164 199 # - 0;
#X obj 162 227 #clip;
#X connect 0 0 4 0;
#X connect 0 1 5 1;
#X connect 1 0 0 1;
#X connect 5 0 6 1;
#X connect 6 0 4 0;
#X restore -289 216 pd gamma;
#X obj -98 5 tgl 15 0 empty empty fade 18 7 0 8 -4032 -1 -1 0 1;
#X obj -98 49 vsl 15 128 0 255 0 0 empty fadeout empty 0 -9 0 10 -4032
-1 -1 0 1;
#N canvas 371 227 450 300 redim 0;
#X obj -199 140 shunt;
#X obj -172 163 #redim;
#X msg -73 137 576 \$1 3;
#X obj -199 108 inlet;
#X obj -153 105 inlet;
#X obj -72 110 inlet;
#X obj -199 222 outlet;
#X obj -174 186 #scale_to (480 640);
#X connect 0 0 6 0;
#X connect 0 1 1 1;
#X connect 1 0 7 1;
#X connect 3 0 0 1;
#X connect 5 0 2 0;
#X connect 7 0 6 0;
#X restore -289 239 pd redim;
#X obj -246 26 tgl 15 0 empty empty redim 18 8 0 8 -159808 -1 -1 0
1;
#X obj -246 49 vsl 15 128 0 640 0 0 empty empty empty 0 -9 0 10 -159808
-1 -1 0 1;
#X obj -145 -216 #see;
#N canvas 5 169 450 300 rotate 0;
#X obj -13 37 #rotate;
#X obj -113 37 #remap_image;
#X obj -142 -7 shunt;
#X obj -139 73 outlet;
#X obj -142 -40 inlet;
#X obj -94 -41 inlet;
#X obj 25 0 inlet;
#X obj 99 28 f;
#X obj 103 56 pingpong 35999;
#X obj 117 -36 inlet;
#X floatatom 164 89 5 0 0 0 - - -;
#X obj 146 28 + 10;
#X obj 103 89 outlet;
#X obj 117 -11 metro 33.333;
#X obj 226 -1 inlet;
#X obj 196 28 inlet;
#X connect 1 0 3 0;
#X connect 1 1 0 1;
#X connect 2 0 3 0;
#X connect 2 1 1 1;
#X connect 4 0 2 1;
#X connect 7 0 8 1;
#X connect 7 0 10 0;
#X connect 7 0 11 0;
#X connect 8 0 12 0;
#X connect 9 0 13 0;
#X connect 11 0 7 1;
#X connect 13 0 7 0;
#X connect 14 0 11 1;
#X connect 15 0 8 1;
#X restore -289 262 pd rotate;
#X obj -210 49 vsl 15 128 0 35999 0 0 empty empty empty 0 -9 0 10 -204786
-1 -1 0 1;
#X obj -210 -38 tgl 15 0 empty empty rotate_start 17 7 0 8 -204786
-1 -1 0 1;
#X obj -210 -17 tgl 15 0 empty empty bounce 18 8 0 8 -204786 -1 -1
0 1;
#X floatatom -188 162 5 0 0 0 - - -;
#X msg -188 139 0;
#X obj -315 -210 openpanel;
#X obj -315 -288 bng 25 250 50 0 empty empty open_video 30 7 0 10 -258113
-1 -1;
#X msg -315 -187 open \$1 int32;
#N canvas 605 191 535 546 nervous 0;
#N canvas 124 327 450 300 counter 0;
#X obj 131 70 + 1;
#X obj 131 23 bng 15 250 50 0 empty empty empty 0 -6 0 8 -262144 -1
-1;
#X floatatom 170 70 5 0 0 0 - - -;
#X msg 131 47 1;
#X floatatom 170 114 5 0 0 0 - - -;
#X obj 132 157 select 1;
#X msg 170 44 0;
#X obj 132 178 bng 15 250 50 0 empty empty empty 0 -6 0 8 -262144 -1
-1;
#X obj 70 25 inlet;
#X obj 132 195 outlet;
#X obj 220 65 inlet;
#X obj 298 106 outlet;
#X obj 170 95 >= 32;
#X connect 0 0 2 0;
#X connect 1 0 3 0;
#X connect 2 0 0 1;
#X connect 2 0 11 0;
#X connect 2 0 12 0;
#X connect 3 0 0 0;
#X connect 4 0 5 0;
#X connect 5 0 6 0;
#X connect 5 0 7 0;
#X connect 6 0 2 0;
#X connect 7 0 9 0;
#X connect 8 0 1 0;
#X connect 10 0 12 1;
#X connect 12 0 4 0;
#X restore 331 124 pd counter;
#X floatatom 24 310 5 0 0 0 - - -;
#X msg 24 334 list \$1;
#X msg 416 114 32;
#X obj 24 253 random 320;
#X floatatom 416 134 5 0 0 0 - - -;
#X obj 447 114 loadbang;
#X obj 24 167 float;
#X obj 24 209 shunt 4;
#X obj 24 233 bang;
#X obj 135 173 vradio 15 1 0 4 empty empty empty 0 -6 0 8 -241291 -1
-1 0;
#X text 156 173 caffeine twitch;
#X text 156 188 ethanol lag;
#X obj 131 253 * 2;
#X obj 160 253 * -1;
#X text 156 219 back flash acid;
#X text 155 203 acid flash back;
#X obj 255 449 vradio 15 1 0 1 empty empty empty 0 -6 0 8 -241291 -1
-1 0;
#X text 273 446 plain;
#X obj 102 253 + 1;
#X obj 24 438 shunt 4;
#X obj 119 433 shunt 4;
#X obj 24 96 t b b b;
#X text 145 134 <-- open this;
#X obj 24 400 #store;
#X obj 61 353 #cast b;
#X obj 24 419 #cast i;
#X msg 405 199 put_at \$1 0 0 0;
#X obj 24 272 div 10;
#X obj 23 67 inlet;
#X obj 27 482 outlet;
#X obj 79 134 #in;
#X msg 225 396 reassign \, 32 480 640 3 b #;
#X obj 229 360 loadbang;
#X obj 93 100 r inny2;
#X connect 0 1 27 0;
#X connect 0 1 7 1;
#X connect 1 0 2 0;
#X connect 2 0 24 1;
#X connect 3 0 5 0;
#X connect 4 0 28 0;
#X connect 5 0 0 1;
#X connect 6 0 3 0;
#X connect 7 0 8 1;
#X connect 8 0 9 0;
#X connect 8 1 19 0;
#X connect 8 2 13 0;
#X connect 8 3 14 0;
#X connect 9 0 4 0;
#X connect 13 0 2 0;
#X connect 14 0 2 0;
#X connect 19 0 2 0;
#X connect 20 0 30 0;
#X connect 22 0 7 0;
#X connect 22 2 0 0;
#X connect 26 0 20 1;
#X connect 28 0 1 0;
#X connect 29 0 22 0;
#X connect 31 0 21 1;
#X connect 33 0 32 0;
#X restore -315 -118 pd nervous;
#X obj -315 -141 shunt;
#X obj -267 -136 tgl 15 0 empty video1 empty 0 -6 0 8 -261682 -1 -1
0 1;
#X obj -77 -136 tgl 15 0 empty video1 empty 0 -6 0 8 -261682 -1 -1
0 1;
#X obj -150 -136 shunt;
#X msg -188 93 18000;
#X obj -188 47 metro 100;
#X obj -188 26 tgl 15 0 empty empty random_rotation 17 7 0 8 -204786
-1 -1 0 1;
#X obj -188 70 random 36000;
#X obj -145 -239 #scale_to (60 80);
#X text -402 -91 negative;
#X text -315 -96 nervous;
#X obj -150 -113 #fade (16 8 4);
#N canvas 548 234 558 389 dither 0;
#X obj 46 126 #rgb_to_greyscale;
#X obj 46 274 # > 128;
#X obj 46 293 # * 255;
#X obj 46 193 #gamma;
#X floatatom 88 193 5 0 0 0 - - -;
#X obj 307 84 # / 5;
#X obj 307 65 # * 255;
#X obj 305 165 # * 255;
#X obj 305 184 # / 10;
#X obj 305 265 # * 255;
#X obj 305 284 # / 17;
#X obj 307 46 #store (2 2 1 # 4 2 1 3);
#X obj 305 146 #store (3 3 1 # 9 1 4 5 7 3 2 6 8);
#X obj 109 233 shunt;
#X msg 377 8 2 \$1;
#X msg 375 107 3 \$1;
#X msg 375 207 4 \$1;
#X floatatom 443 3 5 0 0 0 - - -;
#X obj 88 155 loadbang;
#X msg 88 174 128;
#X obj 46 107 shunt;
#X obj 136 92 tgl 15 0 empty empty empty 17 7 0 10 -262130 -1 -1 0
1;
#X obj 145 281 #greyscale_to_rgb;
#X msg 353 265 4 4 1 # 1 2 6 7 3 5 8 13 4 9 12 14 10 11 15 16;
#X obj 46 -17 t b b;
#X obj 443 -35 loadbang;
#X text 471 -17 width;
#X text 152 90 couleur;
#X text 395 277 click here for alternate pattern;
#X obj 215 0 shunt 4;
#X obj 305 369 #store;
#X obj 305 388 # * 255;
#X obj 305 407 # / 65;
#X obj 472 311 loadbang;
#X obj 455 331 bng 15 250 50 0 empty empty empty 17 7 0 10 -262144
-1 -1;
#X obj 472 368 #fold +;
#X obj 472 387 #ravel;
#X obj 472 406 #grade;
#X obj 472 464 #redim (8 8 1);
#X obj 473 330 #for (-15 -15) (16 16) (4 4);
#X msg 375 331 8 \$1;
#X obj 472 425 #grade;
#X obj 231 87 t a;
#X obj 145 233 shunt;
#N canvas 721 232 450 300 rgb_offset 0;
#X obj 10 13 inlet;
#X obj 10 127 outlet;
#X obj 10 32 t a a;
#X obj 10 51 #finished;
#X obj 10 108 #store;
#X obj 98 32 #dim;
#X obj 98 51 # * (1 1 3);
#X obj 10 89 #inner (3 2 # 1 0 0 1 3 2);
#X obj 217 172 #pack (3 2);
#X msg 217 39 1 0 0 1 3 2;
#X obj 217 191 display;
#X obj 217 17 loadbang;
#X floatatom 280 114 5 0 0 0 - - -;
#X floatatom 267 96 5 0 0 0 - - -;
#X obj 329 12 r \$0-clock;
#X obj 340 179 display;
#X obj 329 61 #store (0 0);
#X obj 339 106 #unpack;
#X obj 329 31 spigot;
#X obj 372 32 tgl 15 0 empty empty empty 17 7 0 10 -262144 -1 -1 0
1;
#X obj 336 81 # + (5 7);
#X obj 329 148 # >> 6;
#X obj 10 70 #for (0 0 0) (8 320 3);
#X connect 0 0 2 0;
#X connect 3 0 22 1;
#X connect 4 0 1 0;
#X connect 5 0 6 1;
#X connect 6 0 22 2;
#X connect 7 0 4 1;
#X connect 9 0 8 1;
#X connect 11 0 9 0;
#X connect 13 0 8 5;
#X connect 14 0 18 0;
#X connect 16 0 20 1;
#X connect 16 0 21 1;
#X connect 17 0 8 5;
#X connect 18 0 16 1;
#X connect 19 0 18 1;
#X connect 22 0 7 1;
#X restore 172 257 pd rgb_offset;
#X obj 182 234 tgl 15 0 empty empty empty 17 7 0 10 -262130 -1 -1 0
1;
#X obj 305 246 #store (4 4 1 # 1 9 4 12 13 5 16 8 3 11 2 10 15 7 14
6);
#X obj 472 349 # abs-;
#X obj 305 226 #for (0 0) (4 512);
#X obj 305 126 #for (0 0) (3 512);
#X obj 307 27 #for (0 0) (2 512);
#X obj 305 350 #for (0 0) (8 512);
#X obj 46 60 #in;
#X obj 46 -45 inlet;
#X obj 46 344 outlet;
#X msg 443 -16 640;
#X obj 249 -28 inlet;
#X obj 46 319 #scale_by 1;
#X obj 63 34 r inny2;
#X connect 0 0 3 1;
#X connect 1 0 2 1;
#X connect 2 0 57 1;
#X connect 3 0 1 1;
#X connect 5 0 42 0;
#X connect 6 0 5 1;
#X connect 7 0 8 1;
#X connect 8 0 42 0;
#X connect 9 0 10 1;
#X connect 10 0 42 0;
#X connect 11 0 6 1;
#X connect 12 0 7 1;
#X connect 13 1 43 1;
#X connect 14 0 50 2;
#X connect 15 0 49 2;
#X connect 16 0 48 2;
#X connect 17 0 14 0;
#X connect 17 0 15 0;
#X connect 17 0 16 0;
#X connect 17 0 40 0;
#X connect 18 0 19 0;
#X connect 19 0 4 0;
#X connect 20 1 3 1;
#X connect 24 1 29 1;
#X connect 25 0 55 0;
#X connect 29 0 50 1;
#X connect 29 1 49 1;
#X connect 29 2 48 1;
#X connect 29 3 51 1;
#X connect 30 0 31 1;
#X connect 31 0 32 1;
#X connect 32 0 42 0;
#X connect 33 0 39 1;
#X connect 34 0 39 1;
#X connect 39 0 47 1;
#X connect 40 0 51 2;
#X connect 41 0 38 1;
#X connect 42 0 13 1;
#X connect 43 1 44 0;
#X connect 46 0 9 1;
#X connect 48 0 46 1;
#X connect 49 0 12 1;
#X connect 50 0 11 1;
#X connect 51 0 30 1;
#X connect 52 0 20 1;
#X connect 53 0 24 0;
#X connect 55 0 17 0;
#X connect 57 0 54 0;
#X restore -230 -113 pd dither;
#X obj -230 -136 shunt;
#X obj -187 -136 tgl 15 0 empty empty empty 17 7 0 10 -261682 -1 -1
0 1;
#X obj -230 -90 hradio 15 1 0 4 empty empty empty 0 -8 0 10 -261682
-1 -1 0;
#X obj -311 30 vradio 15 1 0 10 empty empty empty 0 -8 0 10 -4034 -1
-1 0;
#X obj -341 49 vsl 15 128 2 16 0 0 empty empty empty 0 -9 0 10 -4034
-1 -1 0 1;
#X text -150 -91 color fade;
#X floatatom -311 186 5 0 0 0 - - -;
#X obj -76 93 line;
#X msg -76 47 255 2000;
#X msg -76 70 0 2000;
#X text -16 46 fade out;
#X text -16 66 fade in;
#N canvas 2 85 450 300 color 0;
#X obj -235 144 # + 0;
#X obj -235 174 #clip;
#X obj -210 117 inlet;
#X obj -251 201 outlet;
#X obj -258 113 shunt;
#X obj -279 84 inlet;
#X obj -225 83 inlet;
#X connect 0 0 1 1;
#X connect 1 0 3 0;
#X connect 4 0 3 0;
#X connect 4 1 0 1;
#X connect 5 0 4 1;
#X restore -289 285 pd color;
#X obj -132 236 #color;
#X obj -132 194 tgl 15 0 empty empty colourise 18 8 0 8 -191407 -262144
-1 0 1;
#N canvas 537 258 450 300 8bit 0;
#X obj 58 52 #scale_by;
#X obj 205 -22 t a a;
#X floatatom 127 113 5 0 0 0 - - -;
#X obj 58 0 #downscale_by \, smoothly;
#X obj 58 133 #posterize 2;
#X obj 29 163 outlet;
#X obj 29 -32 shunt;
#X obj 27 -66 inlet;
#X obj 76 -67 inlet;
#X obj 252 -82 inlet;
#X obj 126 87 inlet;
#X obj 205 -44 + 0;
#X connect 0 0 4 1;
#X connect 3 0 0 1;
#X connect 4 0 5 0;
#X connect 6 0 5 0;
#X connect 6 1 3 1;
#X connect 7 0 6 1;
#X connect 9 0 11 0;
#X connect 10 0 2 0;
#X connect 11 0 1 0;
#X restore -403 285 pd 8bit;
#X obj -341 5 tgl 15 0 empty video1 8_bit 17 8 0 8 -4034 -1 -1 0 1
;
#X msg -188 116 9000;
#X obj 47 -114 tgl 15 0 empty empty empty 0 -6 0 8 -261682 -1 -1 0
1;
#X obj -8 -128 tgl 15 0 empty empty empty 0 -6 0 8 -261682 -1 -1 0
1;
#X obj -45 -86 hradio 15 1 0 4 empty empty empty 0 -6 0 8 -261682 -1
-1 0;
#N canvas 352 214 480 500 sort_me_out 0;
#X obj 196 295 # * 255;
#X obj 117 472 outlet;
#X obj 192 9 inlet;
#X obj 235 257 # / 2;
#X obj 17 343 # +;
#X obj 44 9 inlet;
#X obj 331 277 # - 1;
#X obj 17 362 #store;
#X obj 17 82 #grade;
#X obj 44 120 #grade;
#X obj 156 9 inlet;
#X text 271 108 extract width;
#X obj 17 286 #finished;
#X obj 283 277 # * 255;
#X obj 17 63 #fold +;
#X obj 17 150 shunt 4;
#X obj 117 399 shunt 4;
#X msg 235 106 \$2;
#X obj 211 45 #dim;
#X obj 44 28 t a a;
#X msg 186 107 \$1 \$2;
#X obj 211 64 #to_list;
#X obj 17 180 t a a;
#X obj 44 343 #outer & (0 -1);
#X obj 17 305 #for (0 0) (240 320);
#X obj 17 101 shunt;
#X obj 283 296 # / 320;
#X obj 17 324 # * (1 0);
#X obj 283 335 #outer ignore (3 #);
#X obj 196 276 # < 160;
#X obj 130 434 # avg;
#X connect 0 0 28 1;
#X connect 4 0 7 1;
#X connect 5 0 19 0;
#X connect 7 0 16 1;
#X connect 8 0 25 1;
#X connect 9 0 15 1;
#X connect 12 0 24 1;
#X connect 13 0 26 1;
#X connect 15 0 22 0;
#X connect 15 1 22 0;
#X connect 15 2 29 1;
#X connect 15 3 13 1;
#X connect 16 0 1 0;
#X connect 16 1 30 1;
#X connect 17 0 3 1;
#X connect 17 0 6 1;
#X connect 20 0 24 2;
#X connect 21 0 17 0;
#X connect 21 0 20 0;
#X connect 22 1 23 1;
#X connect 24 0 27 1;
#X connect 25 0 15 1;
#X connect 26 0 28 1;
#X connect 27 0 4 1;
#X connect 28 0 1 0;
#X connect 29 0 0 1;
#X connect 30 0 1 0;
#X restore -45 -109 pd sort_me_out;
#X obj -45 -132 shunt;
#X msg -285 163 20;
#X msg -285 80 8;
#X msg -285 135 16;
#X msg -285 103 10;
#X msg -285 57 4;
#X obj -129 215 hsl 128 15 0 127 0 0 empty empty empty -2 -8 0 10 -260097
-1 -1 0 1;
#N canvas 650 187 450 300 randomcolor 0;
#X obj 88 84 random 255;
#X obj 164 84 random 255;
#X obj 245 83 random 255;
#X obj 87 38 metro 100;
#X obj 90 60 t b b b;
#X obj 93 152 outlet;
#X obj 92 14 inlet;
#X obj 91 113 #pack 3;
#X floatatom 168 142 5 0 0 0 - - -;
#X floatatom 212 142 5 0 0 0 - - -;
#X floatatom 252 142 5 0 0 0 - - -;
#X obj 138 13 inlet;
#X connect 0 0 7 1;
#X connect 0 0 8 0;
#X connect 1 0 7 2;
#X connect 1 0 9 0;
#X connect 2 0 10 0;
#X connect 3 0 4 0;
#X connect 4 0 0 0;
#X connect 4 1 1 0;
#X connect 4 2 2 0;
#X connect 6 0 3 0;
#X connect 7 0 5 0;
#X connect 11 0 3 1;
#X restore -41 193 pd randomcolor;
#X obj -41 172 tgl 15 0 empty empty empty 17 7 0 10 -262144 -1 -1 0
1;
#X msg 52 217 100;
#X msg 52 240 300;
#X msg 52 263 500;
#X msg 52 194 10;
#X obj -45 -65 s continue2;
#X obj -215 295 s right;
#X obj -403 216 r continue2;
#X obj -289 318 s preview2;
#X obj -145 -262 r preview2;
#X obj -315 -164 s inny2;
#X text -407 -289 Video 2;
#X msg -728 286 1000;
#X msg 52 286 1000;
#X obj -513 194 #out;
#X msg -552 -278 255 2000;
#X msg -552 -255 0 2000;
#X obj -618 -319 import gridflow;
#X connect 1 0 48 1;
#X connect 3 0 48 1;
#X connect 3 1 1 1;
#X connect 4 0 3 1;
#X connect 5 0 0 0;
#X connect 6 0 9 0;
#X connect 7 0 6 1;
#X connect 8 0 6 2;
#X connect 8 0 6 3;
#X connect 9 0 101 0;
#X connect 10 0 9 1;
#X connect 11 0 9 2;
#X connect 12 0 15 0;
#X connect 13 0 12 1;
#X connect 14 0 12 2;
#X connect 15 0 25 0;
#X connect 16 0 15 1;
#X connect 17 0 15 2;
#X connect 18 0 6 0;
#X connect 22 0 58 1;
#X connect 25 0 95 0;
#X connect 25 1 26 0;
#X connect 26 0 25 2;
#X connect 27 0 25 1;
#X connect 28 0 25 3;
#X connect 29 0 25 5;
#X connect 30 0 25 4;
#X connect 31 0 37 0;
#X connect 32 0 31 0;
#X connect 33 0 68 1;
#X connect 34 0 33 1;
#X connect 36 0 40 0;
#X connect 37 0 65 0;
#X connect 38 0 35 0;
#X connect 40 0 21 0;
#X connect 41 0 43 0;
#X connect 42 0 43 0;
#X connect 44 0 43 0;
#X connect 45 0 46 0;
#X connect 47 0 81 1;
#X connect 48 0 81 1;
#X connect 48 1 47 0;
#X connect 51 0 108 1;
#X connect 51 1 79 1;
#X connect 52 0 25 4;
#X connect 53 0 55 0;
#X connect 54 0 53 0;
#X connect 55 0 26 0;
#X connect 56 0 21 0;
#X connect 57 0 21 0;
#X connect 60 0 39 1;
#X connect 67 0 72 1;
#X connect 67 1 71 1;
#X connect 67 2 73 1;
#X connect 68 0 67 1;
#X connect 71 0 85 1;
#X connect 72 0 85 1;
#X connect 73 0 85 1;
#X connect 77 0 21 0;
#X connect 78 0 89 0;
#X connect 79 0 108 1;
#X connect 80 0 51 1;
#X connect 81 0 51 1;
#X connect 81 1 80 0;
#X connect 83 0 80 1;
#X connect 84 0 88 0;
#X connect 84 0 101 3;
#X connect 86 0 101 2;
#X connect 90 0 14 0;
#X connect 91 0 90 0;
#X connect 92 0 90 0;
#X connect 95 0 63 0;
#X connect 95 0 64 0;
#X connect 95 0 23 0;
#X connect 96 0 95 2;
#X connect 97 0 95 1;
#X connect 101 0 12 0;
#X connect 102 0 101 1;
#X connect 103 0 25 4;
#X connect 104 0 107 2;
#X connect 106 0 107 1;
#X connect 107 0 100 0;
#X connect 108 0 100 0;
#X connect 108 1 107 0;
#X connect 109 0 101 3;
#X connect 110 0 101 3;
#X connect 111 0 101 3;
#X connect 112 0 101 3;
#X connect 113 0 101 3;
#X connect 114 0 95 2;
#X connect 116 0 115 0;
#X connect 117 0 115 1;
#X connect 118 0 115 1;
#X connect 119 0 115 1;
#X connect 120 0 115 1;
#X connect 122 0 150 1;
#X connect 124 0 150 1;
#X connect 124 1 122 1;
#X connect 125 0 124 1;
#X connect 126 0 121 0;
#X connect 127 0 130 0;
#X connect 128 0 127 1;
#X connect 129 0 127 2;
#X connect 129 0 127 3;
#X connect 130 0 178 0;
#X connect 131 0 130 1;
#X connect 132 0 130 2;
#X connect 133 0 136 0;
#X connect 134 0 133 1;
#X connect 135 0 133 2;
#X connect 136 0 140 0;
#X connect 137 0 136 1;
#X connect 138 0 136 2;
#X connect 140 0 175 0;
#X connect 140 1 141 0;
#X connect 141 0 140 2;
#X connect 142 0 140 1;
#X connect 143 0 140 3;
#X connect 144 0 140 5;
#X connect 145 0 140 4;
#X connect 146 0 148 0;
#X connect 147 0 146 0;
#X connect 148 0 203 0;
#X connect 149 0 163 1;
#X connect 150 0 163 1;
#X connect 150 1 149 0;
#X connect 153 0 185 1;
#X connect 153 1 161 1;
#X connect 154 0 140 4;
#X connect 155 0 157 0;
#X connect 156 0 155 0;
#X connect 157 0 141 0;
#X connect 161 0 185 1;
#X connect 162 0 153 1;
#X connect 163 0 153 1;
#X connect 163 1 162 0;
#X connect 165 0 162 1;
#X connect 166 0 169 0;
#X connect 166 0 178 3;
#X connect 167 0 178 2;
#X connect 170 0 135 0;
#X connect 171 0 170 0;
#X connect 172 0 170 0;
#X connect 175 0 199 0;
#X connect 175 0 201 0;
#X connect 176 0 175 2;
#X connect 177 0 175 1;
#X connect 178 0 133 0;
#X connect 179 0 178 1;
#X connect 180 0 140 4;
#X connect 181 0 184 2;
#X connect 183 0 184 1;
#X connect 184 0 198 0;
#X connect 185 0 198 0;
#X connect 185 1 184 0;
#X connect 186 0 178 3;
#X connect 187 0 178 3;
#X connect 188 0 178 3;
#X connect 189 0 178 3;
#X connect 190 0 178 3;
#X connect 191 0 175 2;
#X connect 193 0 192 0;
#X connect 194 0 192 1;
#X connect 195 0 192 1;
#X connect 196 0 192 1;
#X connect 197 0 192 1;
#X connect 200 0 127 0;
#X connect 202 0 158 1;
#X connect 205 0 115 1;
#X connect 206 0 192 1;
#X connect 208 0 78 0;
#X connect 209 0 78 0;
