#N canvas 531 53 526 647 10;
#X obj 240 -189 tgl 15 0 empty empty empty 17 7 0 10 -262144 -1 -1
0 1;
#X obj 338 -156 bng 15 250 50 0 empty empty empty 17 7 0 10 -262144
-1 -1;
#X obj 337 -136 openpanel;
#X obj 338 -94 #in;
#X obj 240 -155 metro 33.333;
#X text 292 -207 Video 2;
#X obj 365 41 # max 0;
#X obj 375 -44 tgl 15 0 empty empty frame_difference 18 7 0 8 -261682
-1 -1 0 1;
#X obj 393 23 hsl 128 15 0 127 0 0 empty empty empty -2 -6 0 8 -261682
-1 -1 0 1;
#X obj 456 154 tgl 15 0 empty empty empty 0 -6 0 8 -261682 -1 -1 0
1;
#X obj 375 135 tgl 15 0 empty empty empty 0 -6 0 8 -261682 -1 -1 0
1;
#X obj 365 22 # -;
#X obj 375 76 tgl 15 0 empty empty empty 0 -6 0 8 -261682 -1 -1 0 1
;
#N canvas 375 285 399 273 motion 0;
#X obj 15 98 # << 2;
#X obj 15 9 inlet;
#X obj 15 79 # -;
#X obj 57 163 # + 128;
#X obj 15 208 outlet;
#X obj 57 144 # << 2;
#X obj 15 35 t a a;
#X obj 51 119 inlet render;
#X obj 85 37 inlet type;
#X obj 15 144 # abs-;
#X obj 15 54 shunt;
#X obj 15 119 shunt;
#X obj 15 189 #clip;
#X connect 0 0 11 0;
#X connect 1 0 6 0;
#X connect 2 0 0 0;
#X connect 3 0 12 0;
#X connect 5 0 3 0;
#X connect 6 0 10 0;
#X connect 6 1 2 0;
#X connect 7 0 11 1;
#X connect 8 0 10 1;
#X connect 9 0 12 0;
#X connect 10 0 2 1;
#X connect 11 0 9 0;
#X connect 11 1 5 0;
#X connect 12 0 4 0;
#X restore 365 3 pd motion detection;
#X obj 411 136 hradio 15 1 0 4 empty empty empty 0 -6 0 8 -261682 -1
-1 0;
#X obj 420 -29 vradio 15 1 0 2 empty empty empty 0 -6 0 8 -261682 -1
-1 0;
#X text 436 -15 emboss;
#X text 437 -29 hilite;
#X obj 476 -29 vradio 15 1 0 2 empty empty empty 0 -6 0 8 -261682 -1
-1 0;
#X text 495 -29 motion;
#X text 496 -15 presence;
#X obj 365 94 #fade (16 4 1);
#N canvas 362 236 480 500 sort_me_out 0;
#X obj 196 295 # * 255;
#X obj 117 472 outlet;
#X obj 192 9 inlet;
#X obj 235 257 # / 2;
#X obj 17 343 # +;
#X obj 44 9 inlet;
#X obj 331 277 # - 1;
#X obj 17 362 #store;
#X obj 17 82 #grade;
#X obj 44 120 #grade;
#X obj 156 9 inlet;
#X text 271 108 extract width;
#X obj 17 286 #finished;
#X obj 283 277 # * 255;
#X obj 17 63 #fold +;
#X obj 17 150 shunt 4;
#X obj 117 399 shunt 4;
#X msg 235 106 \$2;
#X obj 211 45 #dim;
#X obj 44 28 t a a;
#X msg 186 107 \$1 \$2;
#X obj 211 64 #to_list;
#X obj 17 180 t a a;
#X obj 44 343 #outer & (0 -1);
#X obj 17 305 #for (0 0) (240 320);
#X obj 17 101 shunt;
#X obj 283 296 # / 320;
#X obj 17 324 # * (1 0);
#X obj 283 335 #outer ignore (3 #);
#X obj 196 276 # < 160;
#X obj 130 434 # avg;
#X connect 0 0 28 0;
#X connect 2 0 25 1;
#X connect 3 0 29 1;
#X connect 4 0 7 0;
#X connect 5 0 19 0;
#X connect 6 0 26 1;
#X connect 7 0 16 0;
#X connect 8 0 25 0;
#X connect 9 0 15 0;
#X connect 10 0 15 1;
#X connect 10 0 16 1;
#X connect 12 0 24 0;
#X connect 13 0 26 0;
#X connect 14 0 8 0;
#X connect 15 0 22 0;
#X connect 15 1 22 0;
#X connect 15 2 29 0;
#X connect 15 3 13 0;
#X connect 16 0 1 0;
#X connect 16 1 30 0;
#X connect 17 0 3 0;
#X connect 17 0 6 0;
#X connect 18 0 21 0;
#X connect 19 0 14 0;
#X connect 19 1 7 1;
#X connect 19 1 18 0;
#X connect 19 1 30 1;
#X connect 20 0 24 1;
#X connect 21 0 17 0;
#X connect 21 0 20 0;
#X connect 22 0 12 0;
#X connect 22 1 23 0;
#X connect 23 0 4 1;
#X connect 24 0 27 0;
#X connect 25 0 15 0;
#X connect 25 1 9 0;
#X connect 26 0 28 0;
#X connect 27 0 4 0;
#X connect 28 0 1 0;
#X connect 29 0 0 0;
#X connect 30 0 1 0;
#X restore 365 153 pd sort_me_out;
#X text 411 41 noise reduction (on hilite only);
#X obj 375 229 tgl 15 0 empty empty posterise 18 8 0 8 -261682 -1 -1
0 1;
#X obj 455 255 hsl 59 15 2 8 0 0 empty empty empty -2 -6 0 8 -261682
-1 -1 0 1;
#X obj 648 -17 # ^;
#X obj 675 -16 hsl 137 15 0 255 0 0 empty empty empty -2 -6 0 8 -261682
-1 -1 0 1;
#X obj 375 290 tgl 15 0 empty empty empty 0 -6 0 8 -261682 -1 -1 0
1;
#X text 635 -53 munchies (XOR effect) in the colour domain;
#X text 392 288 color wrapping;
#X obj 365 308 # %;
#X obj 658 -35 tgl 15 0 empty empty empty 0 -6 0 8 -261682 -1 -1 0
1;
#X obj 365 203 # inv+ 255;
#X obj 375 185 tgl 15 0 empty empty negative 18 8 0 8 -261682 -1 -1
0 1;
#X obj 366 351 # /;
#X obj 365 330 # * 255;
#X obj 392 309 hsl 137 15 0 255 0 0 empty empty empty -2 -6 0 8 -261682
-1 -1 0 1;
#X obj 386 254 #posterize;
#X obj 338 184 shunt;
#X obj 338 228 shunt;
#X obj 338 289 shunt;
#X floatatom 452 272 5 0 0 0 - - -;
#X obj 658 30 tgl 15 0 empty empty gamma_correction 18 7 0 8 -261682
-1 -1 0 1;
#X obj 648 48 #gamma 512;
#X floatatom 714 48 5 0 0 0 - - -;
#X obj 621 29 shunt;
#X obj 621 -36 shunt;
#X msg 455 94 16;
#X msg 446 75 1 4 16;
#X text 644 65 note that #gamma and crosshair;
#X text 651 75 don't work with greyscale;
#X obj 621 72 t a;
#X obj 338 -45 shunt;
#X obj 338 75 shunt;
#X obj 338 134 shunt;
#X obj 647 102 #dim;
#X obj 647 121 display;
#X obj 658 150 tgl 15 0 empty empty reverse_channels 18 7 0 8 -261682
-1 -1 0 1;
#X obj 621 149 shunt;
#X obj 648 168 #reverse -1;
#X obj 331 375 s continue1;
#X obj 621 -100 r continue1;
#X obj -306 -136 metro 33.333;
#X text -353 -204 Video 2;
#X obj -280 44 # max 0;
#X obj -270 -41 tgl 15 0 empty empty frame_difference 18 7 0 8 -261682
-1 -1 0 1;
#X obj -252 26 hsl 128 15 0 127 0 0 empty empty empty -2 -6 0 8 -261682
-1 -1 0 1;
#X obj -189 157 tgl 15 0 empty empty empty 0 -6 0 8 -261682 -1 -1 0
1;
#X obj -270 138 tgl 15 0 empty empty empty 0 -6 0 8 -261682 -1 -1 0
1;
#X obj -280 25 # -;
#X obj -270 79 tgl 15 0 empty empty empty 0 -6 0 8 -261682 -1 -1 1
1;
#N canvas 375 285 399 273 motion 0;
#X obj 15 98 # << 2;
#X obj 15 9 inlet;
#X obj 15 79 # -;
#X obj 57 163 # + 128;
#X obj 15 208 outlet;
#X obj 57 144 # << 2;
#X obj 15 35 t a a;
#X obj 51 119 inlet render;
#X obj 85 37 inlet type;
#X obj 15 144 # abs-;
#X obj 15 54 shunt;
#X obj 15 119 shunt;
#X obj 15 189 #clip;
#X connect 0 0 11 0;
#X connect 1 0 6 0;
#X connect 2 0 0 0;
#X connect 3 0 12 0;
#X connect 5 0 3 0;
#X connect 6 0 10 0;
#X connect 6 1 2 0;
#X connect 7 0 11 1;
#X connect 8 0 10 1;
#X connect 9 0 12 0;
#X connect 10 0 2 1;
#X connect 11 0 9 0;
#X connect 11 1 5 0;
#X connect 12 0 4 0;
#X restore -280 6 pd motion detection;
#X obj -234 139 hradio 15 1 0 4 empty empty empty 0 -6 0 8 -261682
-1 -1 0;
#X obj -225 -26 vradio 15 1 0 2 empty empty empty 0 -6 0 8 -261682
-1 -1 0;
#X text -209 -12 emboss;
#X text -208 -26 hilite;
#X obj -169 -26 vradio 15 1 0 2 empty empty empty 0 -6 0 8 -261682
-1 -1 0;
#X text -150 -26 motion;
#X text -149 -12 presence;
#X obj -280 97 #fade (16 4 1);
#N canvas 74 147 480 500 sort_me_out 0;
#X obj 196 295 # * 255;
#X obj 117 472 outlet;
#X obj 192 9 inlet;
#X obj 235 257 # / 2;
#X obj 17 343 # +;
#X obj 44 9 inlet;
#X obj 331 277 # - 1;
#X obj 17 362 #store;
#X obj 17 82 #grade;
#X obj 44 120 #grade;
#X obj 156 9 inlet;
#X text 271 108 extract width;
#X obj 17 286 #finished;
#X obj 283 277 # * 255;
#X obj 17 63 #fold +;
#X obj 17 150 shunt 4;
#X obj 117 399 shunt 4;
#X msg 235 106 \$2;
#X obj 211 45 #dim;
#X obj 44 28 t a a;
#X msg 186 107 \$1 \$2;
#X obj 211 64 #to_list;
#X obj 17 180 t a a;
#X obj 44 343 #outer & (0 -1);
#X obj 17 305 #for (0 0) (240 320);
#X obj 17 101 shunt;
#X obj 283 296 # / 320;
#X obj 17 324 # * (1 0);
#X obj 283 335 #outer ignore (3 #);
#X obj 196 276 # < 160;
#X obj 130 434 # avg;
#X connect 0 0 28 0;
#X connect 2 0 25 1;
#X connect 3 0 29 1;
#X connect 4 0 7 0;
#X connect 5 0 19 0;
#X connect 6 0 26 1;
#X connect 7 0 16 0;
#X connect 8 0 25 0;
#X connect 9 0 15 0;
#X connect 10 0 15 1;
#X connect 10 0 16 1;
#X connect 12 0 24 0;
#X connect 13 0 26 0;
#X connect 14 0 8 0;
#X connect 15 0 22 0;
#X connect 15 1 22 0;
#X connect 15 2 29 0;
#X connect 15 3 13 0;
#X connect 16 0 1 0;
#X connect 16 1 30 0;
#X connect 17 0 3 0;
#X connect 17 0 6 0;
#X connect 18 0 21 0;
#X connect 19 0 14 0;
#X connect 19 1 7 1;
#X connect 19 1 18 0;
#X connect 19 1 30 1;
#X connect 20 0 24 1;
#X connect 21 0 17 0;
#X connect 21 0 20 0;
#X connect 22 0 12 0;
#X connect 22 1 23 0;
#X connect 23 0 4 1;
#X connect 24 0 27 0;
#X connect 25 0 15 0;
#X connect 25 1 9 0;
#X connect 26 0 28 0;
#X connect 27 0 4 0;
#X connect 28 0 1 0;
#X connect 29 0 0 0;
#X connect 30 0 1 0;
#X restore -280 156 pd sort_me_out;
#X text -234 44 noise reduction (on hilite only);
#X obj -270 232 tgl 15 0 empty empty posterise 18 8 0 8 -261682 -1
-1 0 1;
#X obj -190 258 hsl 59 15 2 8 0 0 empty empty empty -2 -6 0 8 -261682
-1 -1 0 1;
#X obj -12 -22 # ^;
#X obj 15 -21 hsl 137 15 0 255 0 0 empty empty empty -2 -6 0 8 -261682
-1 -1 0 1;
#X obj -270 293 tgl 15 0 empty empty empty 0 -6 0 8 -261682 -1 -1 0
1;
#X text -25 -58 munchies (XOR effect) in the colour domain;
#X text -253 291 color wrapping;
#X obj -280 311 # %;
#X obj -2 -40 tgl 15 0 empty empty empty 0 -6 0 8 -261682 -1 -1 0 1
;
#X obj -280 206 # inv+ 255;
#X obj -270 188 tgl 15 0 empty empty negative 18 8 0 8 -261682 -1 -1
0 1;
#X obj -279 354 # /;
#X obj -280 333 # * 255;
#X obj -253 312 hsl 137 15 0 255 0 0 empty empty empty -2 -6 0 8 -261682
-1 -1 0 1;
#X obj -259 257 #posterize;
#X obj -307 187 shunt;
#X obj -307 231 shunt;
#X obj -307 292 shunt;
#X floatatom -193 275 5 0 0 0 - - -;
#X obj -2 25 tgl 15 0 empty empty gamma_correction 18 7 0 8 -261682
-1 -1 0 1;
#X obj -12 43 #gamma 512;
#X floatatom 54 43 5 0 0 0 - - -;
#X obj -39 24 shunt;
#X obj -39 -41 shunt;
#X msg -190 97 16;
#X msg -199 78 1 4 16;
#X text -16 60 note that #gamma and crosshair;
#X text -9 70 don't work with greyscale;
#X obj -39 67 t a;
#X obj -307 -42 shunt;
#X obj -307 78 shunt;
#X obj -307 137 shunt;
#X obj -13 97 #dim;
#X obj -13 116 display;
#X obj -2 145 tgl 15 0 empty empty reverse_channels 18 7 0 8 -261682
-1 -1 0 1;
#X obj -40 140 shunt;
#X obj -314 378 s continue2;
#X obj -40 -105 r continue2;
#X msg 337 -115 open \$1 s;
#X obj 627 216 #in;
#X obj -306 -77 #in;
#X msg -307 -112 open /home/hellocatfood/Desktop/demo.avi;
#X obj -265 -218 loadbang;
#X obj -39 355 #out sdl;
#X obj -267 59 r slowdown;
#X obj -237 -166 s slowdown;
#X obj -40 214 shunt;
#X obj 1 214 tgl 15 0 empty empty reverse_channels 18 7 0 8 -261682
-1 -1 0 1;
#X obj 8 270 hsl 128 15 0 127 0 0 empty empty empty -2 -8 0 10 -262144
-1 -1 0 1;
#X floatatom 36 303 5 0 0 0 - - -;
#N canvas 16 208 450 300 ping 0;
#X obj 93 111 pingpong 127;
#X obj 92 83 f;
#X obj 110 44 metro 33.333;
#X obj 101 16 inlet;
#X obj 98 193 outlet;
#X obj 139 83 + 1;
#X connect 0 0 4 0;
#X connect 1 0 0 0;
#X connect 1 0 5 0;
#X connect 2 0 1 0;
#X connect 3 0 2 0;
#X connect 5 0 1 1;
#X restore 6 243 pd ping;
#X obj -11 163 #reverse -1;
#N canvas 17 237 450 300 ping 0;
#X obj 92 83 f;
#X obj 110 44 metro 33.333;
#X obj 101 16 inlet;
#X obj 98 193 outlet;
#X obj 139 83 + 1;
#X obj 93 111 pingpong 255;
#X connect 0 0 4 0;
#X connect 0 0 5 0;
#X connect 1 0 0 0;
#X connect 2 0 1 0;
#X connect 4 0 0 1;
#X connect 5 0 3 0;
#X restore 23 -77 pd ping;
#X obj -264 -193 t b b b;
#X obj 56 -118 tgl 15 0 empty empty empty 17 7 0 10 -262144 -1 -1 0
1;
#X obj -301 -171 tgl 15 0 empty empty empty 17 7 0 10 -262144 -1 -1
0 1;
#X obj -9 292 # *;
#X obj 45 194 tgl 15 0 empty empty empty 17 7 0 10 -262144 -1 -1 0
1;
#X obj 163 134 #color;
#X msg 163 110 123 234 55;
#X obj 163 262 #scale_by 8;
#X obj 166 227 #redim (96 128 3);
#X connect 0 0 4 0;
#X connect 1 0 2 0;
#X connect 2 0 121 0;
#X connect 3 0 53 0;
#X connect 4 0 3 0;
#X connect 6 0 54 0;
#X connect 7 0 53 1;
#X connect 8 0 11 1;
#X connect 9 0 22 2;
#X connect 10 0 55 1;
#X connect 11 0 6 0;
#X connect 12 0 54 1;
#X connect 13 0 11 0;
#X connect 14 0 22 1;
#X connect 15 0 13 1;
#X connect 18 0 13 2;
#X connect 21 0 55 0;
#X connect 22 0 39 0;
#X connect 24 0 40 1;
#X connect 25 0 38 1;
#X connect 25 0 42 0;
#X connect 26 0 46 0;
#X connect 27 0 26 1;
#X connect 28 0 41 1;
#X connect 31 0 36 0;
#X connect 32 0 47 1;
#X connect 33 0 40 0;
#X connect 34 0 39 1;
#X connect 35 0 61 0;
#X connect 36 0 35 0;
#X connect 37 0 35 1;
#X connect 37 0 31 1;
#X connect 38 0 41 0;
#X connect 39 0 40 0;
#X connect 39 1 33 0;
#X connect 40 0 41 0;
#X connect 40 1 38 0;
#X connect 41 0 61 0;
#X connect 41 1 31 0;
#X connect 43 0 46 1;
#X connect 44 0 52 0;
#X connect 45 0 44 1;
#X connect 46 0 52 0;
#X connect 46 1 44 0;
#X connect 47 0 46 0;
#X connect 47 1 26 0;
#X connect 48 0 21 1;
#X connect 49 0 21 1;
#X connect 52 0 56 0;
#X connect 52 0 59 0;
#X connect 53 0 54 0;
#X connect 53 1 13 0;
#X connect 54 0 55 0;
#X connect 54 1 21 0;
#X connect 55 0 39 0;
#X connect 55 1 22 0;
#X connect 56 0 57 0;
#X connect 58 0 59 1;
#X connect 59 0 122 0;
#X connect 59 1 60 0;
#X connect 60 0 122 0;
#X connect 62 0 47 0;
#X connect 63 0 123 0;
#X connect 65 0 113 0;
#X connect 66 0 112 1;
#X connect 67 0 70 1;
#X connect 68 0 81 2;
#X connect 69 0 114 1;
#X connect 70 0 65 0;
#X connect 71 0 113 1;
#X connect 72 0 70 0;
#X connect 73 0 81 1;
#X connect 74 0 72 1;
#X connect 77 0 72 2;
#X connect 80 0 114 0;
#X connect 81 0 98 0;
#X connect 83 0 99 1;
#X connect 84 0 97 1;
#X connect 84 0 101 0;
#X connect 85 0 105 0;
#X connect 86 0 85 1;
#X connect 87 0 100 1;
#X connect 90 0 95 0;
#X connect 91 0 106 1;
#X connect 92 0 99 0;
#X connect 93 0 98 1;
#X connect 94 0 119 0;
#X connect 95 0 94 0;
#X connect 96 0 94 1;
#X connect 96 0 90 1;
#X connect 97 0 100 0;
#X connect 98 0 99 0;
#X connect 98 1 92 0;
#X connect 99 0 100 0;
#X connect 99 1 97 0;
#X connect 100 0 119 0;
#X connect 100 1 90 0;
#X connect 102 0 105 1;
#X connect 103 0 111 0;
#X connect 104 0 103 1;
#X connect 105 0 111 0;
#X connect 105 1 103 0;
#X connect 106 0 105 0;
#X connect 106 1 85 0;
#X connect 107 0 80 1;
#X connect 108 0 80 1;
#X connect 111 0 115 0;
#X connect 111 0 118 0;
#X connect 112 0 113 0;
#X connect 112 1 72 0;
#X connect 113 0 114 0;
#X connect 113 1 80 0;
#X connect 114 0 98 0;
#X connect 114 1 81 0;
#X connect 115 0 116 0;
#X connect 117 0 118 1;
#X connect 118 0 129 0;
#X connect 118 1 134 0;
#X connect 120 0 106 0;
#X connect 121 0 3 0;
#X connect 123 0 112 0;
#X connect 124 0 123 0;
#X connect 125 0 136 0;
#X connect 127 0 71 0;
#X connect 129 0 126 0;
#X connect 129 1 139 0;
#X connect 130 0 129 1;
#X connect 131 0 132 0;
#X connect 131 0 139 1;
#X connect 133 0 131 0;
#X connect 134 0 129 0;
#X connect 135 0 86 0;
#X connect 136 0 63 0;
#X connect 136 1 128 0;
#X connect 136 2 124 0;
#X connect 137 0 135 0;
#X connect 138 0 63 0;
#X connect 139 0 126 0;
#X connect 140 0 133 0;
#X connect 141 0 144 0;
#X connect 142 0 141 0;
#X connect 144 0 143 0;
