#N canvas 1 53 1364 684 10;
#X obj -1164 -129 # inv+ 255;
#X obj -1115 -150 tgl 15 0 empty empty empty 18 8 0 8 -261682 -1 -1
0 1;
#X obj -1164 -151 shunt;
#X obj -1022 -149 tgl 15 0 empty empty empty 18 7 0 8 -261682 -1 -1
0 1;
#X obj -1077 -150 shunt;
#X obj -1164 -177 #in;
#X obj -1078 -128 #reverse -1;
#X obj -1164 -222 tgl 15 0 empty start start_video 17 7 0 8 -257985
-1 -258113 1 1;
#N canvas 436 278 450 300 color_wrapping 0;
#X obj -155 136 # %;
#X obj -154 179 # /;
#X obj -155 158 # * 255;
#X obj -219 111 shunt;
#X obj -219 75 inlet;
#X obj -148 75 inlet;
#X obj -218 218 outlet;
#X obj -133 106 inlet;
#X obj -116 127 inlet;
#X connect 0 0 2 0;
#X connect 1 0 6 0;
#X connect 2 0 1 0;
#X connect 3 0 6 0;
#X connect 3 1 0 0;
#X connect 4 0 3 0;
#X connect 5 0 3 1;
#X connect 7 0 0 1;
#X connect 8 0 1 1;
#X coords 0 0 1 1 30 160 0;
#X restore -1165 213 pd color_wrapping;
#X obj -1164 -67 tgl 15 0 empty empty colour_wrapping 18 7 0 8 -258113
-1 -1 1 1;
#X obj -1164 34 vsl 15 128 0 255 0 0 empty empty empty 0 -9 0 10 -258113
-1 -1 9400 1;
#N canvas 501 216 450 300 posterize 0;
#X obj -164 149 #posterize;
#X obj -212 123 shunt;
#X obj -210 68 inlet;
#X obj -180 82 inlet;
#X obj -109 114 inlet;
#X obj -186 191 outlet;
#X connect 0 0 5 0;
#X connect 1 0 5 0;
#X connect 1 1 0 0;
#X connect 2 0 1 0;
#X connect 3 0 1 1;
#X connect 4 0 0 1;
#X restore -1165 235 pd posterize;
#X obj -1134 -46 tgl 15 0 empty empty posterise 18 8 0 8 -257985 -1
-1 0 1;
#X obj -1134 34 vsl 15 128 0 8 0 0 empty empty empty 0 -9 0 10 -257985
-1 -1 0 1;
#N canvas 5 169 450 300 munchies 0;
#X obj 175 75 # ^;
#X obj 148 56 shunt;
#X obj 150 25 inlet;
#X obj 202 24 inlet;
#X obj 217 68 inlet;
#X obj 150 113 outlet;
#X connect 0 0 5 0;
#X connect 1 0 5 0;
#X connect 1 1 0 0;
#X connect 2 0 1 0;
#X connect 3 0 1 1;
#X connect 4 0 0 1;
#X restore -1165 264 pd munchies;
#X obj -1104 -28 tgl 15 0 empty empty munchies 18 8 0 8 -4034 -1 -1
0 1;
#X obj -1104 34 vsl 15 128 0 255 0 0 empty empty empty 0 -9 0 10 -4034
-1 -1 0 1;
#N canvas 5 169 450 300 gamma 0;
#X obj 163 172 #gamma 512;
#X obj 136 153 shunt;
#X obj 136 122 inlet;
#X obj 188 119 inlet;
#X obj 221 149 inlet;
#X obj 140 201 outlet;
#X connect 0 0 5 0;
#X connect 1 0 5 0;
#X connect 1 1 0 0;
#X connect 2 0 1 0;
#X connect 3 0 1 1;
#X connect 4 0 0 1;
#X restore -1051 191 pd gamma;
#X obj -1075 -9 tgl 15 0 empty empty gamma 18 7 0 8 -4032 -1 -1 0 1
;
#X obj -1075 34 vsl 15 128 0 255 0 0 empty empty empty 0 -9 0 10 -4032
-1 -1 0 1;
#N canvas 371 227 450 300 redim 0;
#X obj -199 140 shunt;
#X obj -172 163 #redim;
#X msg -73 137 576 \$1 3;
#X obj -199 108 inlet;
#X obj -153 105 inlet;
#X obj -72 110 inlet;
#X obj -199 222 outlet;
#X obj -174 186 #scale_to (480 640);
#X connect 0 0 6 0;
#X connect 0 1 1 0;
#X connect 1 0 7 0;
#X connect 2 0 1 1;
#X connect 3 0 0 0;
#X connect 4 0 0 1;
#X connect 5 0 2 0;
#X connect 7 0 6 0;
#X restore -1051 218 pd redim;
#X obj -1046 11 tgl 15 0 empty empty redim 18 8 0 8 -159808 -1 -1 0
1;
#X obj -1046 34 vsl 15 128 0 640 0 0 empty empty empty 0 -9 0 10 -159808
-1 -1 0 1;
#X obj -1165 191 r continue1;
#X obj -907 -230 #see;
#X text -1169 -304 Video 1;
#X obj -622 -153 hsl 128 30 0 256 0 0 empty empty empty -2 -8 0 10
-260097 -1 -1 12700 1;
#X obj -907 -277 r preview1;
#X obj -1051 290 s preview1;
#X obj -596 -87 #see;
#N canvas 5 169 450 300 rotate 0;
#X obj -13 37 #rotate;
#X obj -113 37 #remap_image;
#X obj -142 -7 shunt;
#X obj -139 73 outlet;
#X obj -142 -40 inlet;
#X obj -94 -41 inlet;
#X obj 25 0 inlet;
#X obj 99 28 f;
#X obj 103 56 pingpong 35999;
#X obj 117 -36 inlet;
#X floatatom 164 89 5 0 0 0 - - -;
#X obj 146 28 + 10;
#X obj 103 89 outlet;
#X obj 117 -11 metro 33.333;
#X obj 226 -1 inlet;
#X obj 196 28 inlet;
#X connect 0 0 1 1;
#X connect 1 0 3 0;
#X connect 1 1 0 0;
#X connect 2 0 3 0;
#X connect 2 1 1 0;
#X connect 4 0 2 0;
#X connect 5 0 2 1;
#X connect 6 0 0 1;
#X connect 7 0 8 0;
#X connect 7 0 10 0;
#X connect 7 0 11 0;
#X connect 8 0 12 0;
#X connect 9 0 13 0;
#X connect 11 0 7 1;
#X connect 13 0 7 0;
#X connect 14 0 11 1;
#X connect 15 0 8 0;
#X restore -1051 241 pd rotate;
#X obj -987 34 vsl 15 128 0 35999 0 0 empty empty empty 0 -9 0 10 -204786
-1 -1 0 1;
#X obj -987 -53 tgl 15 0 empty empty rotate_start 17 7 0 8 -204786
-1 -1 0 1;
#X obj -987 -31 tgl 15 0 empty empty bounce 18 8 0 8 -204786 -1 -1
0 1;
#X floatatom -965 133 5 0 0 0 - - -;
#X msg -965 113 0;
#X msg -965 93 8999.75;
#X obj -1077 -225 openpanel;
#X obj -1077 -300 bng 25 250 50 0 empty empty open_video 30 7 0 10
-258113 -1 -1;
#X obj -626 94 # *>>8;
#X obj -626 75 #store;
#X obj -626 56 #finished;
#X obj -626 37 t a a;
#X obj -627 -255 tgl 30 0 start empty start 35 15 0 10 -258113 -1 -1
1 1;
#X msg -1077 -201 open \$1 int32;
#X obj -626 16 #cast int32;
#X obj -626 139 # +;
#X obj -549 58 # -;
#X obj -627 -220 metro 33.3333;
#X obj -626 171 #to_pdp;
#X msg -546 197 create;
#X obj -626 198 pdp_xv;
#X msg -546 171 fullscreen;
#X obj -394 270 fps;
#X floatatom -394 289 5 0 0 0 - - -;
#N canvas 639 191 535 546 nervous 0;
#N canvas 124 327 450 300 counter 0;
#X obj 131 70 + 1;
#X obj 131 23 bng 15 250 50 0 empty empty empty 0 -6 0 8 -262144 -1
-1;
#X floatatom 170 70 5 0 0 0 - - -;
#X msg 131 47 1;
#X floatatom 170 114 5 0 0 0 - - -;
#X obj 132 157 select 1;
#X msg 170 44 0;
#X obj 132 178 bng 15 250 50 0 empty empty empty 0 -6 0 8 -262144 -1
-1;
#X obj 70 25 inlet;
#X obj 132 195 outlet;
#X obj 220 65 inlet;
#X obj 298 106 outlet;
#X obj 170 95 >= 32;
#X connect 0 0 2 0;
#X connect 1 0 3 0;
#X connect 2 0 0 1;
#X connect 2 0 11 0;
#X connect 2 0 12 0;
#X connect 3 0 0 0;
#X connect 4 0 5 0;
#X connect 5 0 6 0;
#X connect 5 0 7 0;
#X connect 6 0 2 0;
#X connect 7 0 9 0;
#X connect 8 0 1 0;
#X connect 10 0 12 1;
#X connect 12 0 4 0;
#X restore 331 124 pd counter;
#X floatatom 24 310 5 0 0 0 - - -;
#X msg 24 334 list \$1;
#X msg 416 114 32;
#X obj 24 253 random 320;
#X floatatom 416 134 5 0 0 0 - - -;
#X obj 447 114 loadbang;
#X obj 24 167 float;
#X obj 24 209 shunt 4;
#X obj 24 233 bang;
#X obj 135 173 vradio 15 1 0 4 empty empty empty 0 -6 0 8 -241291 -1
-1 0;
#X text 156 173 caffeine twitch;
#X text 156 188 ethanol lag;
#X obj 131 253 * 2;
#X obj 160 253 * -1;
#X text 156 219 back flash acid;
#X text 155 203 acid flash back;
#X obj 255 449 vradio 15 1 0 1 empty empty empty 0 -6 0 8 -241291 -1
-1 0;
#X text 273 446 plain;
#X obj 102 253 + 1;
#X obj 24 438 shunt 4;
#X obj 119 433 shunt 4;
#X obj 24 96 t b b b;
#X text 145 134 <-- open this;
#X obj 24 400 #store;
#X obj 61 353 #cast b;
#X obj 24 419 #cast i;
#X msg 405 199 put_at \$1 0 0 0;
#X obj 24 272 div 10;
#X obj 23 67 inlet;
#X obj 27 482 outlet;
#X obj 79 134 #in;
#X obj 93 100 r inny;
#X msg 225 396 reassign \, 32 480 640 3 b #;
#X obj 229 360 loadbang;
#X connect 0 1 27 0;
#X connect 0 1 7 1;
#X connect 1 0 2 0;
#X connect 2 0 24 0;
#X connect 3 0 5 0;
#X connect 4 0 28 0;
#X connect 5 0 0 1;
#X connect 6 0 3 0;
#X connect 7 0 8 0;
#X connect 8 0 9 0;
#X connect 8 1 19 0;
#X connect 8 2 13 0;
#X connect 8 3 14 0;
#X connect 9 0 4 0;
#X connect 10 0 8 1;
#X connect 13 0 2 0;
#X connect 14 0 2 0;
#X connect 17 0 21 1;
#X connect 17 0 20 1;
#X connect 19 0 2 0;
#X connect 20 0 30 0;
#X connect 22 0 7 0;
#X connect 22 1 31 0;
#X connect 22 2 0 0;
#X connect 24 0 26 0;
#X connect 25 0 24 1;
#X connect 26 0 20 0;
#X connect 27 0 24 1;
#X connect 28 0 1 0;
#X connect 29 0 22 0;
#X connect 31 0 21 0;
#X connect 31 0 25 0;
#X connect 32 0 31 0;
#X connect 33 0 24 1;
#X connect 34 0 33 0;
#X restore -984 -128 pd nervous;
#X obj -907 -84 s continue1;
#X obj -984 -149 shunt;
#X obj -935 -148 tgl 15 0 empty video1 empty 0 -6 0 8 -261682 -1 -1
0 1;
#X obj -1077 -178 s inny;
#X obj -834 -148 tgl 15 0 empty video1 empty 0 -6 0 8 -261682 -1 -1
0 1;
#X obj -907 -128 #fade (16 4 1);
#X obj -907 -148 shunt;
#X msg -965 73 18000;
#X obj -965 32 metro 100;
#X obj -902 32 tgl 15 0 empty empty random_rotation 17 7 0 8 -204786
-1 -1 0 1;
#X obj -965 53 random 36000;
#X msg -625 -184 0;
#X msg -518 -183 256;
#X msg -573 -183 128;
#X obj -907 -253 #scale_to (60 80);
#X obj -626 -115 #scale_to (60 80);
#X obj -534 36 r left1;
#X obj -611 115 r left2;
#X obj -549 16 r right;
#X text -1166 -113 negative;
#X text -1080 -113 reverse;
#X text -1080 -101 colours;
#X text -987 -113 nervous;
#X text -910 -113 fade;
#N canvas 681 145 450 300 scale 0;
#X obj 36 212 #remap_image;
#X obj 189 171 # / 1;
#X obj 189 96 #for (0 0) (480 640) (1 1);
#X obj 10 142 inlet;
#X obj 8 176 shunt;
#X obj 14 254 outlet;
#X obj 220 140 inlet;
#X obj 57 122 inlet;
#X obj 188 53 metro 100;
#X obj 190 20 tgl 15 0 empty empty empty 17 7 0 10 -262144 -1 -1 0
1;
#X connect 0 0 5 0;
#X connect 1 0 0 1;
#X connect 2 0 1 0;
#X connect 3 0 4 0;
#X connect 4 0 5 0;
#X connect 4 1 0 0;
#X connect 6 0 1 1;
#X connect 7 0 4 1;
#X connect 8 0 2 0;
#X connect 9 0 8 0;
#X restore -1051 263 pd scale;
#X obj -978 240 s left1;
#X obj -978 262 s left2;
#X obj -1017 34 vsl 15 128 0 4 0 0 empty empty empty 0 -9 0 10 -262144
-1 -1 0 1;
#X obj -1017 -7 tgl 15 0 empty empty scale 17 7 0 8 -262144 -1 -1 0
1;
#X floatatom -981 -236 5 0 0 1 width - width1;
#X floatatom -981 -216 5 0 0 1 height - height1;
#X obj -982 -197 #dim;
#X obj -982 -178 #unpack 3;
#X obj -271 -120 # inv+ 255;
#X obj -222 -141 tgl 15 0 empty empty empty 18 8 0 8 -261682 -1 -1
0 1;
#X obj -271 -142 shunt;
#X obj -129 -140 tgl 15 0 empty empty empty 18 7 0 8 -261682 -1 -1
0 1;
#X obj -184 -141 shunt;
#X obj -271 -168 #in;
#X obj -185 -119 #reverse -1;
#X obj -271 -213 tgl 15 0 empty start start_video 17 7 0 8 -257985
-1 -258113 0 1;
#N canvas 436 278 450 300 color_wrapping 0;
#X obj -155 136 # %;
#X obj -154 179 # /;
#X obj -155 158 # * 255;
#X obj -219 111 shunt;
#X obj -219 75 inlet;
#X obj -148 75 inlet;
#X obj -218 218 outlet;
#X obj -133 106 inlet;
#X obj -116 127 inlet;
#X connect 0 0 2 0;
#X connect 1 0 6 0;
#X connect 2 0 1 0;
#X connect 3 0 6 0;
#X connect 3 1 0 0;
#X connect 4 0 3 0;
#X connect 5 0 3 1;
#X connect 7 0 0 1;
#X connect 8 0 1 1;
#X coords 0 0 1 1 30 160 0;
#X restore -272 222 pd color_wrapping;
#X obj -271 -58 tgl 15 0 empty empty colour_wrapping 18 7 0 8 -258113
-1 -1 0 1;
#X obj -271 43 vsl 15 128 0 255 0 0 empty empty empty 0 -9 0 10 -258113
-1 -1 0 1;
#N canvas 501 216 450 300 posterize 0;
#X obj -164 149 #posterize;
#X obj -212 123 shunt;
#X obj -210 68 inlet;
#X obj -180 82 inlet;
#X obj -109 114 inlet;
#X obj -186 191 outlet;
#X connect 0 0 5 0;
#X connect 1 0 5 0;
#X connect 1 1 0 0;
#X connect 2 0 1 0;
#X connect 3 0 1 1;
#X connect 4 0 0 1;
#X restore -272 244 pd posterize;
#X obj -241 -37 tgl 15 0 empty empty posterise 18 8 0 8 -257985 -1
-1 0 1;
#X obj -241 43 vsl 15 128 0 8 0 0 empty empty empty 0 -9 0 10 -257985
-1 -1 0 1;
#N canvas 5 169 450 300 munchies 0;
#X obj 175 75 # ^;
#X obj 148 56 shunt;
#X obj 150 25 inlet;
#X obj 202 24 inlet;
#X obj 217 68 inlet;
#X obj 150 113 outlet;
#X connect 0 0 5 0;
#X connect 1 0 5 0;
#X connect 1 1 0 0;
#X connect 2 0 1 0;
#X connect 3 0 1 1;
#X connect 4 0 0 1;
#X restore -272 273 pd munchies;
#X obj -211 -19 tgl 15 0 empty empty munchies 18 8 0 8 -4034 -1 -1
0 1;
#X obj -211 43 vsl 15 128 0 255 0 0 empty empty empty 0 -9 0 10 -4034
-1 -1 0 1;
#N canvas 5 169 450 300 gamma 0;
#X obj 163 172 #gamma 512;
#X obj 136 153 shunt;
#X obj 136 122 inlet;
#X obj 188 119 inlet;
#X obj 221 149 inlet;
#X obj 140 201 outlet;
#X connect 0 0 5 0;
#X connect 1 0 5 0;
#X connect 1 1 0 0;
#X connect 2 0 1 0;
#X connect 3 0 1 1;
#X connect 4 0 0 1;
#X restore -158 200 pd gamma;
#X obj -182 0 tgl 15 0 empty empty gamma 18 7 0 8 -4032 -1 -1 0 1;
#X obj -182 43 vsl 15 128 0 255 0 0 empty empty empty 0 -9 0 10 -4032
-1 -1 0 1;
#N canvas 371 227 450 300 redim 0;
#X obj -199 140 shunt;
#X obj -172 163 #redim;
#X msg -73 137 576 \$1 3;
#X obj -199 108 inlet;
#X obj -153 105 inlet;
#X obj -72 110 inlet;
#X obj -199 222 outlet;
#X obj -174 186 #scale_to (480 640);
#X connect 0 0 6 0;
#X connect 0 1 1 0;
#X connect 1 0 7 0;
#X connect 2 0 1 1;
#X connect 3 0 0 0;
#X connect 4 0 0 1;
#X connect 5 0 2 0;
#X connect 7 0 6 0;
#X restore -158 227 pd redim;
#X obj -153 20 tgl 15 0 empty empty redim 18 8 0 8 -159808 -1 -1 1
1;
#X obj -153 43 vsl 15 128 0 640 0 0 empty empty empty 0 -9 0 10 -159808
-1 -1 5400 1;
#X obj -14 -221 #see;
#N canvas 5 169 450 300 rotate 0;
#X obj -13 37 #rotate;
#X obj -113 37 #remap_image;
#X obj -142 -7 shunt;
#X obj -139 73 outlet;
#X obj -142 -40 inlet;
#X obj -94 -41 inlet;
#X obj 25 0 inlet;
#X obj 99 28 f;
#X obj 103 56 pingpong 35999;
#X obj 117 -36 inlet;
#X floatatom 164 89 5 0 0 0 - - -;
#X obj 146 28 + 10;
#X obj 103 89 outlet;
#X obj 117 -11 metro 33.333;
#X obj 226 -1 inlet;
#X obj 196 28 inlet;
#X connect 0 0 1 1;
#X connect 1 0 3 0;
#X connect 1 1 0 0;
#X connect 2 0 3 0;
#X connect 2 1 1 0;
#X connect 4 0 2 0;
#X connect 5 0 2 1;
#X connect 6 0 0 1;
#X connect 7 0 8 0;
#X connect 7 0 10 0;
#X connect 7 0 11 0;
#X connect 8 0 12 0;
#X connect 9 0 13 0;
#X connect 11 0 7 1;
#X connect 13 0 7 0;
#X connect 14 0 11 1;
#X connect 15 0 8 0;
#X restore -158 250 pd rotate;
#X obj -94 43 vsl 15 128 0 35999 0 0 empty empty empty 0 -9 0 10 -204786
-1 -1 0 1;
#X obj -94 -44 tgl 15 0 empty empty rotate_start 17 7 0 8 -204786 -1
-1 0 1;
#X obj -94 -22 tgl 15 0 empty empty bounce 18 8 0 8 -204786 -1 -1 0
1;
#X floatatom -72 142 5 0 0 0 - - -;
#X msg -72 122 0;
#X msg -72 102 8999.75;
#X obj -184 -216 openpanel;
#X obj -184 -291 bng 25 250 50 0 empty empty open_video 30 7 0 10 -258113
-1 -1;
#X msg -184 -192 open \$1 int32;
#N canvas 639 191 535 546 nervous 0;
#N canvas 124 327 450 300 counter 0;
#X obj 131 70 + 1;
#X obj 131 23 bng 15 250 50 0 empty empty empty 0 -6 0 8 -262144 -1
-1;
#X floatatom 170 70 5 0 0 0 - - -;
#X msg 131 47 1;
#X floatatom 170 114 5 0 0 0 - - -;
#X obj 132 157 select 1;
#X msg 170 44 0;
#X obj 132 178 bng 15 250 50 0 empty empty empty 0 -6 0 8 -262144 -1
-1;
#X obj 70 25 inlet;
#X obj 132 195 outlet;
#X obj 220 65 inlet;
#X obj 298 106 outlet;
#X obj 170 95 >= 32;
#X connect 0 0 2 0;
#X connect 1 0 3 0;
#X connect 2 0 0 1;
#X connect 2 0 11 0;
#X connect 2 0 12 0;
#X connect 3 0 0 0;
#X connect 4 0 5 0;
#X connect 5 0 6 0;
#X connect 5 0 7 0;
#X connect 6 0 2 0;
#X connect 7 0 9 0;
#X connect 8 0 1 0;
#X connect 10 0 12 1;
#X connect 12 0 4 0;
#X restore 331 124 pd counter;
#X floatatom 24 310 5 0 0 0 - - -;
#X msg 24 334 list \$1;
#X msg 416 114 32;
#X obj 24 253 random 320;
#X floatatom 416 134 5 0 0 0 - - -;
#X obj 447 114 loadbang;
#X obj 24 167 float;
#X obj 24 209 shunt 4;
#X obj 24 233 bang;
#X obj 135 173 vradio 15 1 0 4 empty empty empty 0 -6 0 8 -241291 -1
-1 0;
#X text 156 173 caffeine twitch;
#X text 156 188 ethanol lag;
#X obj 131 253 * 2;
#X obj 160 253 * -1;
#X text 156 219 back flash acid;
#X text 155 203 acid flash back;
#X obj 255 449 vradio 15 1 0 1 empty empty empty 0 -6 0 8 -241291 -1
-1 0;
#X text 273 446 plain;
#X obj 102 253 + 1;
#X obj 24 438 shunt 4;
#X obj 119 433 shunt 4;
#X obj 24 96 t b b b;
#X text 145 134 <-- open this;
#X obj 24 400 #store;
#X obj 61 353 #cast b;
#X obj 24 419 #cast i;
#X msg 405 199 put_at \$1 0 0 0;
#X obj 24 272 div 10;
#X obj 23 67 inlet;
#X obj 27 482 outlet;
#X obj 79 134 #in;
#X obj 93 100 r inny;
#X msg 225 396 reassign \, 32 480 640 3 b #;
#X obj 229 360 loadbang;
#X connect 0 1 27 0;
#X connect 0 1 7 1;
#X connect 1 0 2 0;
#X connect 2 0 24 0;
#X connect 3 0 5 0;
#X connect 4 0 28 0;
#X connect 5 0 0 1;
#X connect 6 0 3 0;
#X connect 7 0 8 0;
#X connect 8 0 9 0;
#X connect 8 1 19 0;
#X connect 8 2 13 0;
#X connect 8 3 14 0;
#X connect 9 0 4 0;
#X connect 10 0 8 1;
#X connect 13 0 2 0;
#X connect 14 0 2 0;
#X connect 17 0 21 1;
#X connect 17 0 20 1;
#X connect 19 0 2 0;
#X connect 20 0 30 0;
#X connect 22 0 7 0;
#X connect 22 1 31 0;
#X connect 22 2 0 0;
#X connect 24 0 26 0;
#X connect 25 0 24 1;
#X connect 26 0 20 0;
#X connect 27 0 24 1;
#X connect 28 0 1 0;
#X connect 29 0 22 0;
#X connect 31 0 21 0;
#X connect 31 0 25 0;
#X connect 32 0 31 0;
#X connect 33 0 24 1;
#X connect 34 0 33 0;
#X restore -91 -119 pd nervous;
#X obj -91 -140 shunt;
#X obj -42 -139 tgl 15 0 empty video1 empty 0 -6 0 8 -261682 -1 -1
0 1;
#X obj -184 -169 s inny;
#X obj 59 -139 tgl 15 0 empty video1 empty 0 -6 0 8 -261682 -1 -1 0
1;
#X obj -14 -119 #fade (16 4 1);
#X obj -14 -139 shunt;
#X msg -72 82 18000;
#X obj -72 41 metro 100;
#X obj -9 41 tgl 15 0 empty empty random_rotation 17 7 0 8 -204786
-1 -1 0 1;
#X obj -72 62 random 36000;
#X obj -14 -244 #scale_to (60 80);
#X text -273 -104 negative;
#X text -187 -104 reverse;
#X text -187 -92 colours;
#X text -94 -104 nervous;
#X text -17 -104 fade;
#N canvas 682 174 450 300 scale 0;
#X obj 36 212 #remap_image;
#X obj 189 171 # / 1;
#X obj 189 96 #for (0 0) (480 640) (1 1);
#X obj 10 142 inlet;
#X obj 8 176 shunt;
#X obj 14 254 outlet;
#X obj 220 140 inlet;
#X obj 57 122 inlet;
#X obj 188 53 metro 100;
#X obj 190 20 tgl 15 0 empty empty empty 17 7 0 10 -262144 -1 -1 0
1;
#X connect 0 0 5 0;
#X connect 1 0 0 1;
#X connect 2 0 1 0;
#X connect 3 0 4 0;
#X connect 4 0 5 0;
#X connect 4 1 0 0;
#X connect 6 0 1 1;
#X connect 7 0 4 1;
#X connect 8 0 2 0;
#X connect 9 0 8 0;
#X restore -158 272 pd scale;
#X obj -124 43 vsl 15 128 0 4 0 0 empty empty empty 0 -9 0 10 -262144
-1 -1 0 1;
#X obj -124 2 tgl 15 0 empty empty scale 17 7 0 8 -262144 -1 -1 0 1
;
#X floatatom -88 -227 5 0 0 1 width - width2;
#X floatatom -88 -207 5 0 0 1 height - height2;
#X obj -89 -188 #dim;
#X obj -89 -169 #unpack 3;
#X text -276 -304 Video 2;
#X obj -159 299 s preview2;
#X obj -14 -268 r preview2;
#X obj -14 -76 s continue2;
#X obj -272 200 r continue2;
#X obj -85 250 s right;
#X obj -661 146 #out;
#X obj -271 -193 metro 33.333;
#X obj -1165 -201 metro 33.333;
#X connect 0 0 4 0;
#X connect 1 0 2 1;
#X connect 2 0 4 0;
#X connect 2 1 0 0;
#X connect 3 0 4 1;
#X connect 4 0 57 0;
#X connect 4 1 6 0;
#X connect 5 0 2 0;
#X connect 5 0 87 0;
#X connect 6 0 57 0;
#X connect 7 0 155 0;
#X connect 8 0 11 0;
#X connect 9 0 8 1;
#X connect 10 0 8 2;
#X connect 10 0 8 3;
#X connect 11 0 14 0;
#X connect 12 0 11 1;
#X connect 13 0 11 2;
#X connect 14 0 17 0;
#X connect 15 0 14 1;
#X connect 16 0 14 2;
#X connect 17 0 20 0;
#X connect 18 0 17 1;
#X connect 19 0 17 2;
#X connect 20 0 30 0;
#X connect 21 0 20 1;
#X connect 22 0 20 2;
#X connect 23 0 8 0;
#X connect 26 0 45 0;
#X connect 27 0 70 0;
#X connect 30 0 80 0;
#X connect 30 1 31 0;
#X connect 31 0 30 2;
#X connect 32 0 30 1;
#X connect 33 0 30 3;
#X connect 34 0 30 5;
#X connect 35 0 30 4;
#X connect 36 0 30 4;
#X connect 37 0 44 0;
#X connect 38 0 37 0;
#X connect 39 0 46 0;
#X connect 40 0 39 0;
#X connect 41 0 40 0;
#X connect 42 0 41 0;
#X connect 42 1 39 1;
#X connect 43 0 48 0;
#X connect 44 0 5 0;
#X connect 44 0 59 0;
#X connect 45 0 42 0;
#X connect 46 0 71 0;
#X connect 46 0 153 0;
#X connect 46 0 49 0;
#X connect 47 0 40 1;
#X connect 48 0 26 0;
#X connect 49 0 51 0;
#X connect 50 0 51 0;
#X connect 52 0 51 0;
#X connect 53 0 54 0;
#X connect 55 0 62 0;
#X connect 57 0 62 0;
#X connect 57 1 55 0;
#X connect 58 0 57 1;
#X connect 60 0 62 1;
#X connect 61 0 56 0;
#X connect 62 0 56 0;
#X connect 62 1 61 0;
#X connect 63 0 30 4;
#X connect 64 0 66 0;
#X connect 65 0 64 0;
#X connect 66 0 31 0;
#X connect 67 0 26 0;
#X connect 68 0 26 0;
#X connect 69 0 26 0;
#X connect 70 0 24 0;
#X connect 71 0 29 0;
#X connect 72 0 47 1;
#X connect 73 0 46 1;
#X connect 74 0 47 0;
#X connect 80 0 28 0;
#X connect 80 0 81 0;
#X connect 80 0 82 0;
#X connect 83 0 80 2;
#X connect 84 0 80 1;
#X connect 87 0 88 0;
#X connect 88 0 86 0;
#X connect 88 1 85 0;
#X connect 89 0 93 0;
#X connect 90 0 91 1;
#X connect 91 0 93 0;
#X connect 91 1 89 0;
#X connect 92 0 93 1;
#X connect 93 0 124 0;
#X connect 93 1 95 0;
#X connect 94 0 91 0;
#X connect 94 0 145 0;
#X connect 95 0 124 0;
#X connect 96 0 154 0;
#X connect 97 0 100 0;
#X connect 98 0 97 1;
#X connect 99 0 97 2;
#X connect 99 0 97 3;
#X connect 100 0 103 0;
#X connect 101 0 100 1;
#X connect 102 0 100 2;
#X connect 103 0 106 0;
#X connect 104 0 103 1;
#X connect 105 0 103 2;
#X connect 106 0 109 0;
#X connect 107 0 106 1;
#X connect 108 0 106 2;
#X connect 109 0 113 0;
#X connect 110 0 109 1;
#X connect 111 0 109 2;
#X connect 113 0 140 0;
#X connect 113 1 114 0;
#X connect 114 0 113 2;
#X connect 115 0 113 1;
#X connect 116 0 113 3;
#X connect 117 0 113 5;
#X connect 118 0 113 4;
#X connect 119 0 113 4;
#X connect 120 0 122 0;
#X connect 121 0 120 0;
#X connect 122 0 94 0;
#X connect 122 0 126 0;
#X connect 123 0 129 0;
#X connect 124 0 129 0;
#X connect 124 1 123 0;
#X connect 125 0 124 1;
#X connect 127 0 129 1;
#X connect 128 0 150 0;
#X connect 129 0 150 0;
#X connect 129 1 128 0;
#X connect 130 0 113 4;
#X connect 131 0 133 0;
#X connect 132 0 131 0;
#X connect 133 0 114 0;
#X connect 134 0 112 0;
#X connect 140 0 148 0;
#X connect 140 0 152 0;
#X connect 141 0 140 2;
#X connect 142 0 140 1;
#X connect 145 0 146 0;
#X connect 146 0 144 0;
#X connect 146 1 143 0;
#X connect 149 0 134 0;
#X connect 151 0 97 0;
#X connect 153 0 53 0;
#X connect 154 0 94 0;
#X connect 155 0 5 0;
