#N canvas 2 62 703 662 10;
#X obj -1157 -245 metro 33.333;
#X obj -1137 -133 # inv+ 255;
#X obj -1127 -151 tgl 15 0 empty empty negative 18 8 0 8 -261682 -1
-1 0 1;
#X obj -1164 -152 shunt;
#X obj -1019 -151 tgl 15 0 empty empty reverse_channels 18 7 0 8 -261682
-1 -1 0 1;
#X obj -1057 -156 shunt;
#X obj -1157 -192 #in;
#X obj -1116 -327 loadbang;
#X obj -1088 -275 s slowdown;
#X obj -1028 -133 #reverse -1;
#X obj -1152 -280 tgl 15 0 empty empty empty 17 7 0 10 -262144 -1 -1
1 1;
#N canvas 436 278 450 300 color_wrapping 0;
#X obj -155 136 # %;
#X obj -154 179 # /;
#X obj -155 158 # * 255;
#X obj -219 111 shunt;
#X obj -219 75 inlet;
#X obj -148 75 inlet;
#X obj -218 218 outlet;
#X obj -133 106 inlet;
#X obj -116 127 inlet;
#X connect 0 0 2 0;
#X connect 1 0 6 0;
#X connect 2 0 1 0;
#X connect 3 0 6 0;
#X connect 3 1 0 0;
#X connect 4 0 3 0;
#X connect 5 0 3 1;
#X connect 7 0 0 1;
#X connect 8 0 1 1;
#X coords 0 0 1 1 30 160 0;
#X restore -1141 187 pd color_wrapping;
#X obj -1129 -68 tgl 15 0 empty empty colour_wrapping 18 7 0 8 -261682
-1 -1 0 1;
#X obj -1128 5 vsl 15 128 0 255 0 0 empty empty empty 0 -9 0 10 -261682
-1 -1 0 1;
#N canvas 501 216 450 300 posterize 0;
#X obj -164 149 #posterize;
#X obj -212 123 shunt;
#X obj -210 68 inlet;
#X obj -180 82 inlet;
#X obj -109 114 inlet;
#X obj -186 191 outlet;
#X connect 0 0 5 0;
#X connect 1 0 5 0;
#X connect 1 1 0 0;
#X connect 2 0 1 0;
#X connect 3 0 1 1;
#X connect 4 0 0 1;
#X restore -1142 216 pd posterize;
#X obj -1092 -52 tgl 15 0 empty empty posterise 18 8 0 8 -261682 -1
-1 0 1;
#X obj -1091 6 vsl 15 128 0 8 0 0 empty empty empty 0 -9 0 10 -261682
-1 -1 0 1;
#N canvas 3 111 450 300 munchies 0;
#X obj 175 75 # ^;
#X obj 148 56 shunt;
#X obj 150 25 inlet;
#X obj 202 24 inlet;
#X obj 217 68 inlet;
#X obj 150 113 outlet;
#X connect 0 0 5 0;
#X connect 1 0 5 0;
#X connect 1 1 0 0;
#X connect 2 0 1 0;
#X connect 3 0 1 1;
#X connect 4 0 0 1;
#X restore -1142 245 pd munchies;
#X obj -1063 -35 tgl 15 0 empty empty munchies 18 8 0 8 -261682 -1
-1 0 1;
#X obj -1060 7 vsl 15 128 0 255 0 0 empty empty empty 0 -9 0 10 -261682
-1 -1 0 1;
#N canvas 5 169 450 300 gamma 0;
#X obj 163 172 #gamma 512;
#X obj 136 153 shunt;
#X obj 136 122 inlet;
#X obj 188 119 inlet;
#X obj 221 149 inlet;
#X obj 140 201 outlet;
#X connect 0 0 5 0;
#X connect 1 0 5 0;
#X connect 1 1 0 0;
#X connect 2 0 1 0;
#X connect 3 0 1 1;
#X connect 4 0 0 1;
#X restore -1142 270 pd gamma;
#X obj -1029 -19 tgl 15 0 empty empty gamma_correction 18 7 0 8 -261682
-1 -1 0 1;
#X obj -1027 5 vsl 15 128 0 255 0 0 empty empty empty 0 -9 0 10 -261682
-1 -1 0 1;
#X obj -913 -153 tgl 15 0 empty video1 empty 0 -6 0 8 -261682 -1 -1
0 1;
#X obj -923 -135 #fade (16 4 1);
#X obj -950 -154 shunt;
#N canvas 324 140 450 300 redim 0;
#X obj -199 140 shunt;
#X obj -174 186 #scale_to (576 720);
#X obj -172 163 #redim;
#X msg -73 137 576 \$1 3;
#X obj -199 108 inlet;
#X obj -153 105 inlet;
#X obj -72 110 inlet;
#X obj -199 222 outlet;
#X connect 0 0 7 0;
#X connect 0 1 2 0;
#X connect 1 0 7 0;
#X connect 2 0 1 0;
#X connect 3 0 2 1;
#X connect 4 0 0 0;
#X connect 5 0 0 1;
#X connect 6 0 3 0;
#X restore -1142 297 pd redim;
#X obj -993 -34 tgl 15 0 empty empty redim 18 8 0 8 -261682 -1 -1 0
1;
#X obj -994 4 vsl 15 128 0 800 0 0 empty empty empty 0 -9 0 10 -261682
-1 -1 0 1;
#X obj -923 -114 s continue1;
#X obj -1219 125 r continue1;
#X obj -795 -151 #see;
#X obj -794 -179 #downscale_by 8;
#X text -1204 -313 Video 1;
#X obj -627 -151 hsl 128 30 0 256 0 0 empty empty empty -2 -8 0 10
-260097 -1 -1 10700 1;
#X obj -457 -151 #see;
#X obj -456 -179 #downscale_by 8;
#X obj -791 -209 r preview1;
#X obj -1141 342 s preview1;
#X obj -457 -208 r preview2;
#X obj -619 -69 #see;
#X obj -618 -97 #downscale_by 8;
#N canvas 5 169 450 300 rotate 0;
#X obj -13 37 #rotate;
#X obj -113 37 #remap_image;
#X obj -142 -7 shunt;
#X obj -139 73 outlet;
#X obj -142 -40 inlet;
#X obj -94 -41 inlet;
#X obj 25 0 inlet;
#X obj 99 28 f;
#X obj 103 56 pingpong 35999;
#X obj 117 -36 inlet;
#X floatatom 164 89 5 0 0 0 - - -;
#X obj 146 28 + 10;
#X obj 103 89 outlet;
#X obj 117 -11 metro 33.333;
#X obj 226 -1 inlet;
#X obj 196 28 inlet;
#X connect 0 0 1 1;
#X connect 1 0 3 0;
#X connect 1 1 0 0;
#X connect 2 0 3 0;
#X connect 2 1 1 0;
#X connect 4 0 2 0;
#X connect 5 0 2 1;
#X connect 6 0 0 1;
#X connect 7 0 8 0;
#X connect 7 0 10 0;
#X connect 7 0 11 0;
#X connect 8 0 12 0;
#X connect 9 0 13 0;
#X connect 11 0 7 1;
#X connect 13 0 7 0;
#X connect 14 0 11 1;
#X connect 15 0 8 0;
#X restore -1141 320 pd rotate;
#X obj -955 8 vsl 15 128 0 35999 0 0 empty empty empty 0 -9 0 10 -261682
-1 -1 0 1;
#X obj -956 -61 tgl 15 0 empty empty rotate 17 7 0 8 -261682 -1 -1
0 1;
#X obj -956 -82 tgl 15 0 empty empty bounce 18 8 0 8 -261682 -1 -1
0 1;
#X floatatom -933 117 5 0 0 0 - - -;
#X msg -931 90 0;
#X msg -930 67 8999.75;
#X msg -930 44 17999.5;
#X obj -1121 -222 openpanel;
#X obj -1115 -302 t b b;
#X obj -1019 -309 bng 25 250 50 0 empty empty open_video 30 7 0 10
-258113 -1 -1;
#X obj -257 -245 metro 33.333;
#X obj -237 -133 # inv+ 255;
#X obj -227 -151 tgl 15 0 empty empty negative 18 8 0 8 -261682 -1
-1 0 1;
#X obj -264 -152 shunt;
#X obj -119 -151 tgl 15 0 empty empty reverse_channels 18 7 0 8 -261682
-1 -1 0 1;
#X obj -157 -156 shunt;
#X obj -257 -192 #in;
#X obj -216 -327 loadbang;
#X obj -188 -275 s slowdown;
#X obj -128 -133 #reverse -1;
#X obj -252 -280 tgl 15 0 empty empty empty 17 7 0 10 -262144 -1 -1
1 1;
#N canvas 436 278 450 300 color_wrapping 0;
#X obj -155 136 # %;
#X obj -154 179 # /;
#X obj -155 158 # * 255;
#X obj -219 111 shunt;
#X obj -219 75 inlet;
#X obj -148 75 inlet;
#X obj -218 218 outlet;
#X obj -133 106 inlet;
#X obj -116 127 inlet;
#X connect 0 0 2 0;
#X connect 1 0 6 0;
#X connect 2 0 1 0;
#X connect 3 0 6 0;
#X connect 3 1 0 0;
#X connect 4 0 3 0;
#X connect 5 0 3 1;
#X connect 7 0 0 1;
#X connect 8 0 1 1;
#X coords 0 0 1 1 30 160 0;
#X restore -241 187 pd color_wrapping;
#X obj -229 -68 tgl 15 0 empty empty colour_wrapping 18 7 0 8 -261682
-1 -1 0 1;
#X obj -228 5 vsl 15 128 0 255 0 0 empty empty empty 0 -9 0 10 -261682
-1 -1 7100 1;
#N canvas 502 245 450 300 posterize 0;
#X obj -164 149 #posterize;
#X obj -212 123 shunt;
#X obj -210 68 inlet;
#X obj -180 82 inlet;
#X obj -109 114 inlet;
#X obj -186 191 outlet;
#X connect 0 0 5 0;
#X connect 1 0 5 0;
#X connect 1 1 0 0;
#X connect 2 0 1 0;
#X connect 3 0 1 1;
#X connect 4 0 0 1;
#X restore -242 216 pd posterize;
#X obj -192 -52 tgl 15 0 empty empty posterise 18 8 0 8 -261682 -1
-1 1 1;
#X obj -191 6 vsl 15 128 0 8 0 0 empty empty empty 0 -9 0 10 -261682
-1 -1 5100 1;
#N canvas 3 111 450 300 munchies 0;
#X obj 175 75 # ^;
#X obj 148 56 shunt;
#X obj 150 25 inlet;
#X obj 202 24 inlet;
#X obj 217 68 inlet;
#X obj 150 113 outlet;
#X connect 0 0 5 0;
#X connect 1 0 5 0;
#X connect 1 1 0 0;
#X connect 2 0 1 0;
#X connect 3 0 1 1;
#X connect 4 0 0 1;
#X restore -242 245 pd munchies;
#X obj -163 -35 tgl 15 0 empty empty munchies 18 8 0 8 -261682 -1 -1
0 1;
#X obj -160 7 vsl 15 128 0 255 0 0 empty empty empty 0 -9 0 10 -261682
-1 -1 12700 1;
#N canvas 5 169 450 300 gamma 0;
#X obj 163 172 #gamma 512;
#X obj 136 153 shunt;
#X obj 136 122 inlet;
#X obj 188 119 inlet;
#X obj 221 149 inlet;
#X obj 140 201 outlet;
#X connect 0 0 5 0;
#X connect 1 0 5 0;
#X connect 1 1 0 0;
#X connect 2 0 1 0;
#X connect 3 0 1 1;
#X connect 4 0 0 1;
#X restore -242 270 pd gamma;
#X obj -129 -19 tgl 15 0 empty empty gamma_correction 18 7 0 8 -261682
-1 -1 0 1;
#X obj -127 5 vsl 15 128 0 255 0 0 empty empty empty 0 -9 0 10 -261682
-1 -1 11500 1;
#X obj -13 -153 tgl 15 0 empty video1 empty 0 -6 0 8 -261682 -1 -1
1 1;
#X obj -23 -135 #fade (16 4 1);
#X obj -50 -154 shunt;
#N canvas 325 169 450 300 redim 0;
#X obj -199 140 shunt;
#X obj -174 186 #scale_to (576 720);
#X obj -172 163 #redim;
#X msg -73 137 576 \$1 3;
#X obj -199 108 inlet;
#X obj -153 105 inlet;
#X obj -72 110 inlet;
#X obj -199 222 outlet;
#X connect 0 0 7 0;
#X connect 0 1 2 0;
#X connect 1 0 7 0;
#X connect 2 0 1 0;
#X connect 3 0 2 1;
#X connect 4 0 0 0;
#X connect 5 0 0 1;
#X connect 6 0 3 0;
#X restore -242 297 pd redim;
#X obj -93 -34 tgl 15 0 empty empty redim 18 8 0 8 -261682 -1 -1 0
1;
#X obj -94 4 vsl 15 128 0 800 0 0 empty empty empty 0 -9 0 10 -261682
-1 -1 5100 1;
#X text -304 -313 Video 1;
#N canvas 5 169 450 300 rotate 0;
#X obj -13 37 #rotate;
#X obj -113 37 #remap_image;
#X obj -142 -7 shunt;
#X obj -139 73 outlet;
#X obj -142 -40 inlet;
#X obj -94 -41 inlet;
#X obj 25 0 inlet;
#X obj 99 28 f;
#X obj 103 56 pingpong 35999;
#X obj 117 -36 inlet;
#X floatatom 164 89 5 0 0 0 - - -;
#X obj 146 28 + 10;
#X obj 103 89 outlet;
#X obj 117 -11 metro 33.333;
#X obj 226 -1 inlet;
#X obj 196 28 inlet;
#X connect 0 0 1 1;
#X connect 1 0 3 0;
#X connect 1 1 0 0;
#X connect 2 0 3 0;
#X connect 2 1 1 0;
#X connect 4 0 2 0;
#X connect 5 0 2 1;
#X connect 6 0 0 1;
#X connect 7 0 8 0;
#X connect 7 0 10 0;
#X connect 7 0 11 0;
#X connect 8 0 12 0;
#X connect 9 0 13 0;
#X connect 11 0 7 1;
#X connect 13 0 7 0;
#X connect 14 0 11 1;
#X connect 15 0 8 0;
#X restore -241 320 pd rotate;
#X obj -55 8 vsl 15 128 0 35999 0 0 empty empty empty 0 -9 0 10 -261682
-1 -1 3175 1;
#X obj -56 -61 tgl 15 0 empty empty rotate 17 7 0 8 -261682 -1 -1 0
1;
#X obj -56 -82 tgl 15 0 empty empty bounce 18 8 0 8 -261682 -1 -1 0
1;
#X floatatom -33 117 5 0 0 0 - - -;
#X msg -31 90 0;
#X msg -30 67 8999.75;
#X msg -30 44 17999.5;
#X obj -221 -222 openpanel;
#X obj -215 -302 t b b;
#X obj -119 -309 bng 25 250 50 0 empty empty open_video 30 7 0 10 -258113
-1 -1;
#X obj -23 -114 s continue2;
#X obj -319 124 r continue2;
#X obj -241 342 s preview2;
#X obj -634 94 # *>>8;
#X obj -634 75 #store;
#X obj -634 56 #finished;
#X obj -634 37 t a a;
#X obj -633 -213 metro 33.3333;
#X obj -627 -255 tgl 15 0 empty empty empty 17 7 0 10 -262144 -1 -1
1 1;
#X msg -1122 -194 open \$1 int32;
#X msg -223 -194 open \$1 int32;
#X obj -632 17 #cast int32;
#X obj -634 178 #out sdl;
#X obj -634 117 # +;
#X obj -534 51 # -;
#X connect 0 0 6 0;
#X connect 1 0 5 0;
#X connect 2 0 3 1;
#X connect 3 0 5 0;
#X connect 3 1 1 0;
#X connect 4 0 5 1;
#X connect 5 0 25 0;
#X connect 5 1 9 0;
#X connect 6 0 3 0;
#X connect 7 0 51 0;
#X connect 9 0 25 0;
#X connect 10 0 0 0;
#X connect 11 0 14 0;
#X connect 12 0 11 1;
#X connect 13 0 11 2;
#X connect 13 0 11 3;
#X connect 14 0 17 0;
#X connect 15 0 14 1;
#X connect 16 0 14 2;
#X connect 17 0 20 0;
#X connect 18 0 17 1;
#X connect 19 0 17 2;
#X connect 20 0 26 0;
#X connect 21 0 20 1;
#X connect 22 0 20 2;
#X connect 23 0 25 1;
#X connect 24 0 29 0;
#X connect 25 0 29 0;
#X connect 25 1 24 0;
#X connect 26 0 42 0;
#X connect 27 0 26 1;
#X connect 28 0 26 2;
#X connect 30 0 11 0;
#X connect 32 0 31 0;
#X connect 34 0 105 0;
#X connect 36 0 35 0;
#X connect 37 0 32 0;
#X connect 39 0 36 0;
#X connect 41 0 40 0;
#X connect 42 0 38 0;
#X connect 42 0 107 1;
#X connect 42 0 108 1;
#X connect 42 1 43 0;
#X connect 43 0 42 2;
#X connect 44 0 42 1;
#X connect 45 0 42 3;
#X connect 46 0 42 5;
#X connect 47 0 42 4;
#X connect 48 0 42 4;
#X connect 49 0 42 4;
#X connect 50 0 103 0;
#X connect 51 0 10 0;
#X connect 51 1 8 0;
#X connect 52 0 50 0;
#X connect 53 0 59 0;
#X connect 54 0 58 0;
#X connect 55 0 56 1;
#X connect 56 0 58 0;
#X connect 56 1 54 0;
#X connect 57 0 58 1;
#X connect 58 0 78 0;
#X connect 58 1 62 0;
#X connect 59 0 56 0;
#X connect 60 0 92 0;
#X connect 62 0 78 0;
#X connect 63 0 53 0;
#X connect 64 0 67 0;
#X connect 65 0 64 1;
#X connect 66 0 64 2;
#X connect 66 0 64 3;
#X connect 67 0 70 0;
#X connect 68 0 67 1;
#X connect 69 0 67 2;
#X connect 70 0 73 0;
#X connect 71 0 70 1;
#X connect 72 0 70 2;
#X connect 73 0 79 0;
#X connect 74 0 73 1;
#X connect 75 0 73 2;
#X connect 76 0 78 1;
#X connect 77 0 94 0;
#X connect 78 0 94 0;
#X connect 78 1 77 0;
#X connect 79 0 83 0;
#X connect 80 0 79 1;
#X connect 81 0 79 2;
#X connect 83 0 96 0;
#X connect 83 0 108 0;
#X connect 83 1 84 0;
#X connect 84 0 83 2;
#X connect 85 0 83 1;
#X connect 86 0 83 3;
#X connect 87 0 83 5;
#X connect 88 0 83 4;
#X connect 89 0 83 4;
#X connect 90 0 83 4;
#X connect 91 0 104 0;
#X connect 92 0 63 0;
#X connect 92 1 61 0;
#X connect 93 0 91 0;
#X connect 95 0 64 0;
#X connect 97 0 107 0;
#X connect 98 0 97 0;
#X connect 99 0 98 0;
#X connect 100 0 99 0;
#X connect 100 1 97 1;
#X connect 101 0 34 0;
#X connect 102 0 101 0;
#X connect 103 0 6 0;
#X connect 104 0 59 0;
#X connect 105 0 100 0;
#X connect 107 0 106 0;
#X connect 107 0 41 0;
#X connect 108 0 98 1;
