#N canvas 66 54 1300 714 10;
#X declare -lib gridflow;
#X declare -path /home/hellocatfood/pd-externals/hellocatfood;
#X obj 83 -73 bng 30 250 50 0 empty empty empty 17 7 0 10 -4034 -1
-1;
#X obj 123 -53 bng 15 250 50 0 empty empty empty 17 7 0 10 -258113
-1 -1;
#X obj 123 -73 bng 15 250 50 0 empty empty empty 17 7 0 10 -4032 -1
-1;
#N canvas 66 54 1300 714 window 0;
#X obj 30 109 gemwin;
#X msg 200 39 0 \, destroy;
#X msg 30 39 create \, 1;
#X obj 30 19 inlet;
#X obj 110 19 inlet;
#X obj 200 19 inlet;
#X msg 110 69 offset 1366 0;
#X obj 220 89 gemhead;
#X msg 280 39 lighting \$1;
#X obj 220 109 world_light;
#X obj 280 19 inlet;
#X msg 106 117 border 0;
#X msg 110 39 dimen 1024 768;
#X connect 1 0 0 0;
#X connect 2 0 0 0;
#X connect 3 0 2 0;
#X connect 4 0 6 0;
#X connect 4 0 12 0;
#X connect 4 0 11 0;
#X connect 5 0 1 0;
#X connect 6 0 0 0;
#X connect 7 0 9 0;
#X connect 8 0 0 0;
#X connect 10 0 8 0;
#X connect 11 0 0 0;
#X connect 12 0 0 0;
#X restore 83 -34 pd window;
#X text 143 -75 press this first;
#X text 143 -55 destroy window;
#X text 80 -95 create window;
#X obj 79 -140 import gridflow;
#X obj 83 -115 path /home/hellocatfood/pd-externals/hellocatfood;
#X obj 33 90 part_head;
#X obj 160 50 cnv 15 110 230 empty stoprotate empty 20 12 0 14 -191407
-66577 0;
#X obj 168 155 hsl 90 15 0 1.5 0 0 empty empty empty -2 -8 0 10 -260097
-1 -1 4300 1;
#X obj 165 55 tgl 15 0 empty stoprotate empty 17 7 0 10 -4034 -1 -1
0 1;
#X text 165 134 spread;
#X text 185 54 rotate;
#X obj 48 50 loadbang;
#X obj 168 115 hsl 90 15 0 5 0 0 empty empty empty -2 -8 0 10 -260097
-1 -1 180 1;
#X msg 48 70 speed \$1;
#X obj 33 230 part_killold 10;
#X obj 168 198 hsl 90 15 1 50 0 0 empty empty empty -2 -8 0 10 -260097
-1 -1 1800 1;
#X obj 33 150 part_targetcolor;
#X obj 79 130 pack f f f f;
#N canvas 129 154 450 300 rand 0;
#X obj 60 89 random 100;
#X obj 140 69 metro;
#X obj 140 89 random 100;
#X obj 220 69 metro;
#X obj 220 89 random 100;
#X obj 60 69 metro 50;
#X obj 60 149 /;
#X obj 140 149 /;
#X obj 220 149 /;
#X obj 60 199 outlet;
#X obj 140 199 outlet;
#X obj 220 199 outlet;
#X obj 80 119 * 5;
#X obj 160 119 * 5;
#X obj 240 119 * 5;
#X obj 60 29 inlet;
#X connect 0 0 3 1;
#X connect 0 0 6 0;
#X connect 0 0 12 0;
#X connect 1 0 2 0;
#X connect 2 0 5 1;
#X connect 2 0 7 0;
#X connect 2 0 13 0;
#X connect 3 0 4 0;
#X connect 4 0 1 1;
#X connect 4 0 8 0;
#X connect 4 0 14 0;
#X connect 5 0 0 0;
#X connect 6 0 9 0;
#X connect 7 0 10 0;
#X connect 8 0 11 0;
#X connect 12 0 8 1;
#X connect 13 0 6 1;
#X connect 14 0 7 1;
#X connect 15 0 5 0;
#X connect 15 0 1 0;
#X connect 15 0 3 0;
#X restore 79 109 pd rand;
#X obj 33 250 part_render;
#X obj 168 75 hsl 60 15 200 2 0 0 empty empty empty -2 -8 0 10 -260097
-1 -1 0 1;
#X obj 245 75 bng 15 250 50 0 srotate empty empty 17 7 0 10 -258113
-1 -1;
#X text 165 180 amount;
#N canvas 501 142 450 300 rotate 0;
#X obj 111 111 f;
#X obj 137 111 + 1;
#X obj 111 91 metro 30;
#X obj 77 140 rotateXYZ;
#X obj 77 30 inlet;
#X obj 111 61 inlet;
#X obj 156 61 inlet;
#X obj 77 170 outlet;
#X msg 207 160 0;
#X obj 207 180 s stoprotate;
#X obj 207 140 r srotate;
#X connect 0 0 1 0;
#X connect 0 0 3 2;
#X connect 0 0 3 1;
#X connect 1 0 0 1;
#X connect 2 0 0 0;
#X connect 3 0 7 0;
#X connect 4 0 3 0;
#X connect 5 0 2 0;
#X connect 6 0 2 1;
#X connect 8 0 9 0;
#X connect 8 0 0 0;
#X connect 10 0 8 0;
#X restore 33 30 pd rotate;
#X text 165 94 speed;
#X msg 108 70 1;
#X obj 33 10 gemhead -2;
#X obj 165 222 tgl 15 0 empty empty empty 17 7 0 10 -4034 -1 -1 0 1
;
#X obj 168 258 hsl 90 15 0.01 1 0 0 empty empty empty -2 -8 0 10 -260097
-1 -1 0 1;
#X text 185 220 color;
#X text 164 240 saturation;
#N canvas 318 246 450 300 spread 0;
#X obj 57 220 part_velocity;
#X msg 132 70 symbol sphere;
#X obj 132 -30 loadbang;
#X obj 132 -10 t b b;
#X obj 57 140 part_source 1;
#X msg 132 180 symbol sphere;
#X msg 132 120 0 0 0 0 \$1;
#X msg 132 200 0 0 0 0 \$1;
#X msg 159 10 0;
#X obj 57 -30 inlet;
#X obj 57 260 outlet;
#X obj 159 30 outlet;
#X obj 242 70 inlet;
#X connect 0 0 10 0;
#X connect 1 0 4 2;
#X connect 2 0 3 0;
#X connect 2 0 5 0;
#X connect 3 0 1 0;
#X connect 3 0 6 0;
#X connect 3 1 8 0;
#X connect 4 0 0 0;
#X connect 5 0 0 1;
#X connect 6 0 4 3;
#X connect 7 0 0 2;
#X connect 8 0 11 0;
#X connect 9 0 4 0;
#X connect 12 0 6 0;
#X connect 12 0 7 0;
#X restore 33 190 pd spread;
#X obj 33 380 cnv 15 110 100 empty stoprotate empty 20 12 0 14 -191407
-66577 0;
#X obj 38 358 tgl 15 0 empty empty empty 17 7 0 10 -4034 -1 -1 0 1
;
#X obj 41 428 hsl 90 15 1 4 0 0 empty empty empty -2 -8 0 10 -260097
-1 -1 1100 1;
#X text 37 410 size;
#X obj 41 458 hsl 90 15 2 6 0 0 empty empty empty -2 -8 0 10 -260097
-1 -1 0 1;
#X text 37 440 segments;
#X obj 88 388 bng 15 250 50 0 empty empty empty 17 7 0 10 -258113 -1
-1;
#X obj 88 408 bng 15 250 50 0 empty empty empty 17 7 0 10 -258113 -1
-1;
#N canvas 666 153 450 300 sphere 0;
#X obj 49 157 sphere;
#X msg 162 85 draw line;
#X obj 49 127 spigot;
#X msg 182 126 draw fill;
#X obj 49 6 inlet;
#X obj 102 96 inlet;
#X obj 65 36 inlet;
#X obj 82 66 inlet;
#X obj 162 66 inlet;
#X obj 182 106 inlet;
#X connect 1 0 0 0;
#X connect 2 0 0 0;
#X connect 3 0 0 0;
#X connect 4 0 2 0;
#X connect 5 0 2 1;
#X connect 6 0 0 1;
#X connect 7 0 0 2;
#X connect 8 0 1 0;
#X connect 9 0 3 0;
#X restore 38 478 pd sphere;
#N canvas 670 141 450 300 cube___ 0;
#X msg 162 85 draw line;
#X obj 49 127 spigot;
#X msg 182 126 draw fill;
#X obj 49 6 inlet;
#X obj 102 96 inlet;
#X obj 65 36 inlet;
#X obj 162 66 inlet;
#X obj 182 106 inlet;
#X obj 49 157 cube;
#X connect 0 0 8 0;
#X connect 1 0 8 0;
#X connect 2 0 8 0;
#X connect 3 0 1 0;
#X connect 4 0 1 1;
#X connect 5 0 8 1;
#X connect 6 0 0 0;
#X connect 7 0 2 0;
#X restore 157 448 pd cube___;
#X obj 153 380 cnv 15 110 70 empty stoprotate empty 20 12 0 14 -191407
-66577 0;
#X obj 158 358 tgl 15 0 empty empty empty 17 7 0 10 -4034 -1 -1 1 1
;
#X obj 161 428 hsl 90 15 1 4 0 0 empty empty empty -2 -8 0 10 -260097
-1 -1 2400 1;
#X text 157 410 size;
#X obj 208 388 bng 15 250 50 0 empty empty empty 17 7 0 10 -258113
-1 -1;
#X obj 208 408 bng 15 250 50 0 empty empty empty 17 7 0 10 -258113
-1 -1;
#X text 107 386 line;
#X text 227 386 line;
#X text 227 406 fill;
#X text 107 406 fill;
#X obj 153 -34 tgl 15 0 empty empty empty 17 7 0 10 -257985 -1 -1 0
1;
#X text 173 -35 lighting;
#X obj 273 380 cnv 15 110 100 empty stoprotate empty 20 12 0 14 -191407
-66577 0;
#X obj 278 358 tgl 15 0 empty empty empty 17 7 0 10 -4034 -1 -1 0 1
;
#X obj 281 428 hsl 90 15 0.1 4 0 0 empty empty empty -2 -8 0 10 -260097
-1 -1 0 1;
#X text 277 410 size;
#X obj 281 458 hsl 90 15 2 6 0 0 empty empty empty -2 -8 0 10 -260097
-1 -1 0 1;
#X text 277 440 segments;
#X obj 328 388 bng 15 250 50 0 empty empty empty 17 7 0 10 -258113
-1 -1;
#X obj 328 408 bng 15 250 50 0 empty empty empty 17 7 0 10 -258113
-1 -1;
#X text 347 386 line;
#X text 347 406 fill;
#N canvas 662 165 450 300 cone____ 0;
#X msg 162 85 draw line;
#X obj 49 127 spigot;
#X msg 182 126 draw fill;
#X obj 49 6 inlet;
#X obj 102 96 inlet;
#X obj 65 36 inlet;
#X obj 82 66 inlet;
#X obj 162 66 inlet;
#X obj 182 106 inlet;
#X obj 49 207 cone;
#X connect 0 0 9 0;
#X connect 1 0 9 0;
#X connect 2 0 9 0;
#X connect 3 0 1 0;
#X connect 4 0 1 1;
#X connect 5 0 9 1;
#X connect 6 0 9 2;
#X connect 7 0 0 0;
#X connect 8 0 2 0;
#X restore 278 478 pd cone____;
#X obj 393 380 cnv 15 110 160 empty stoprotate empty 20 12 0 14 -191407
-66577 0;
#X msg 665 295 draw line;
#X msg 665 316 draw fill;
#X msg 665 338 draw point;
#X floatatom 744 302 5 0 0 1 R - -;
#X floatatom 756 322 3 0 0 1 segments - -;
#X floatatom 769 347 5 0 0 1 r - -;
#X obj 733 399 disk 1;
#X obj 749 237 loadbang;
#X msg 753 270 1;
#X msg 783 280 1.1;
#N canvas 893 299 450 300 spreadpoint 0;
#X obj 57 220 part_velocity;
#X obj 94 -19 loadbang;
#X obj 57 140 part_source 1;
#X obj 57 -30 inlet;
#X obj 57 260 outlet;
#X msg 107 80 symbol point;
#X msg 94 180 symbol point;
#X msg 132 200 0 0 2;
#X msg 132 110 0 0 -20;
#X connect 0 0 4 0;
#X connect 1 0 6 0;
#X connect 1 0 5 0;
#X connect 1 0 8 0;
#X connect 1 0 7 0;
#X connect 2 0 0 0;
#X connect 3 0 2 0;
#X connect 5 0 2 2;
#X connect 6 0 0 1;
#X connect 7 0 0 2;
#X connect 8 0 2 3;
#X restore 60 210 pd spreadpoint;
#X obj 33 170 shunt;
#X obj 287 214 tgl 15 0 empty empty empty 17 7 0 10 -262144 -1 -1 0
1;
#X obj 310 50 cnv 15 170 250 empty empty empty 20 12 0 14 -191407 -66577
0;
#N canvas 67 83 587 366 image 0;
#X obj 77 48 inlet;
#X obj 77 344 outlet;
#X obj 223 55 inlet;
#X msg 223 123 open \$1;
#X obj 223 100 openpanel;
#X obj 77 205 pix_image;
#X connect 0 0 5 0;
#X connect 2 0 4 0;
#X connect 3 0 5 0;
#X connect 4 0 3 0;
#X connect 5 0 1 0;
#X restore 315 98 pd image;
#X obj 315 268 pix_texture;
#X obj 315 75 alpha;
#X floatatom 329 127 5 0 1 1 pass - -;
#X floatatom 344 147 5 0 1 1 other - -;
#X obj 315 221 pix_alpha;
#X obj 158 388 spigot;
#X obj 278 388 spigot;
#X obj 38 388 spigot;
#X text 57 356 sphere;
#X text 177 356 cube;
#X text 297 356 cone;
#N canvas 124 339 450 300 scoper 0;
#X msg 319 203 draw line;
#X msg 339 243 draw fill;
#X msg 299 160 draw point;
#X obj 127 44 gemhead;
#X obj 127 68 rotateXYZ;
#X floatatom 185 45 5 0 0 0 - - -;
#X floatatom 199 147 5 0 10 0 - - -;
#X msg 199 163 width \$1;
#X obj 127 306 scopeXYZ~ 1024;
#X obj 219 284 osc~ 882;
#X obj 219 263 osc~ 221;
#X obj 219 240 osc~ 40;
#X msg 150 121 length \$1;
#X obj 219 220 inlet;
#X obj 150 101 inlet;
#X obj 127 24 inlet;
#X obj 299 140 inlet;
#X obj 319 183 inlet;
#X obj 339 223 inlet;
#X obj 127 198 translateXYZ;
#X obj 220 101 inlet;
#X connect 0 0 8 0;
#X connect 1 0 8 0;
#X connect 2 0 8 0;
#X connect 3 0 4 0;
#X connect 4 0 19 0;
#X connect 5 0 4 1;
#X connect 5 0 4 3;
#X connect 6 0 7 0;
#X connect 7 0 8 0;
#X connect 9 0 8 3;
#X connect 10 0 8 2;
#X connect 11 0 8 1;
#X connect 12 0 8 0;
#X connect 13 0 11 0;
#X connect 14 0 12 0;
#X connect 15 0 3 0;
#X connect 16 0 2 0;
#X connect 17 0 0 0;
#X connect 18 0 1 0;
#X connect 19 0 8 0;
#X connect 20 0 19 3;
#X restore 397 538 pd scoper;
#X obj 398 358 tgl 15 0 empty empty empty 17 7 0 10 -4034 -1 -1 0 1
;
#X obj 401 488 hsl 90 15 1 50 0 0 empty empty empty -2 -8 0 10 -260097
-1 -1 0 1;
#X obj 401 518 hsl 90 15 1 1000 0 0 empty empty empty -2 -8 0 10 -260097
-1 -1 0 1;
#X obj 448 388 bng 15 250 50 0 srotate empty empty 17 7 0 10 -258113
-1 -1;
#X obj 448 408 bng 15 250 50 0 empty empty empty 17 7 0 10 -258113
-1 -1;
#X text 467 386 line;
#X text 467 406 fill;
#X text 397 470 wave;
#X text 397 500 length;
#X obj 448 428 bng 15 250 50 0 empty empty empty 17 7 0 10 -258113
-1 -1;
#X text 467 426 point;
#X obj 401 458 hsl 90 15 -2 3 0 0 empty empty empty -2 -8 0 10 -260097
-1 -1 0 1;
#X text 397 440 size;
#X text 417 356 scope;
#X obj 523 380 cnv 15 110 160 empty stoprotate empty 20 12 0 14 -191407
-66577 0;
#N canvas 124 339 450 300 scoper 0;
#X msg 319 203 draw line;
#X msg 339 243 draw fill;
#X msg 299 160 draw point;
#X obj 127 44 gemhead;
#X obj 127 68 rotateXYZ;
#X floatatom 185 45 5 0 0 0 - - -;
#X floatatom 199 147 5 0 10 0 - - -;
#X msg 199 163 width \$1;
#X obj 127 306 scopeXYZ~ 1024;
#X obj 219 284 osc~ 882;
#X obj 219 263 osc~ 221;
#X obj 219 240 osc~ 40;
#X msg 150 121 length \$1;
#X obj 219 220 inlet;
#X obj 150 101 inlet;
#X obj 127 24 inlet;
#X obj 299 140 inlet;
#X obj 319 183 inlet;
#X obj 339 223 inlet;
#X obj 127 198 translateXYZ;
#X obj 220 101 inlet;
#X connect 0 0 8 0;
#X connect 1 0 8 0;
#X connect 2 0 8 0;
#X connect 3 0 4 0;
#X connect 4 0 19 0;
#X connect 5 0 4 1;
#X connect 5 0 4 3;
#X connect 6 0 7 0;
#X connect 7 0 8 0;
#X connect 9 0 8 3;
#X connect 10 0 8 2;
#X connect 11 0 8 1;
#X connect 12 0 8 0;
#X connect 13 0 11 0;
#X connect 14 0 12 0;
#X connect 15 0 3 0;
#X connect 16 0 2 0;
#X connect 17 0 0 0;
#X connect 18 0 1 0;
#X connect 19 0 8 0;
#X connect 20 0 19 3;
#X restore 527 538 pd scoper;
#X obj 528 358 tgl 15 0 empty empty empty 17 7 0 10 -4034 -1 -1 1 1
;
#X obj 531 488 hsl 90 15 1 50 0 0 empty empty empty -2 -8 0 10 -260097
-1 -1 0 1;
#X obj 531 518 hsl 90 15 1 1000 0 0 empty empty empty -2 -8 0 10 -260097
-1 -1 0 1;
#X obj 578 388 bng 15 250 50 0 srotate empty empty 17 7 0 10 -258113
-1 -1;
#X obj 578 408 bng 15 250 50 0 empty empty empty 17 7 0 10 -258113
-1 -1;
#X text 597 386 line;
#X text 597 406 fill;
#X text 527 470 wave;
#X text 527 500 length;
#X obj 578 428 bng 15 250 50 0 empty empty empty 17 7 0 10 -258113
-1 -1;
#X text 597 426 point;
#X obj 531 458 hsl 90 15 -2 3 0 0 empty empty empty -2 -8 0 10 -260097
-1 -1 0 1;
#X text 527 440 size;
#X text 547 356 scope;
#X obj 438 113 hsl 90 15 0 1 0 0 empty empty empty -2 -8 0 10 -258113
-1 -1 6800 1;
#X obj 438 128 hsl 90 15 0 1 0 0 empty empty empty -2 -8 0 10 -4034
-1 -1 6200 1;
#X obj 438 143 hsl 90 15 0 1 0 0 empty empty empty -2 -8 0 10 -4032
-1 -1 7300 1;
#X obj 435 163 pack f f f;
#X obj 33 270 shunt;
#X msg 358 172 \$1 \$2 \$3;
#X obj 371 99 bng 15 250 50 0 srotate empty empty 17 7 0 10 -258113
-1 -1;
#X obj 498 183 hsl 90 15 0 1 0 0 empty empty empty -2 -8 0 10 -258113
-1 -1 0 1;
#X obj 498 198 hsl 90 15 0 1 0 0 empty empty empty -2 -8 0 10 -4034
-1 -1 0 1;
#X obj 498 213 hsl 90 15 0 1 0 0 empty empty empty -2 -8 0 10 -4032
-1 -1 0 1;
#X obj 495 233 pack f f f;
#X obj 315 55 tgl 15 0 empty empty empty 17 7 0 10 -4034 -1 -1 1 1
;
#X msg 373 196 \$1 \$2 \$3;
#X obj 312 247 rotateXYZ;
#X floatatom 520 293 5 0 0 0 - - -;
#X text 390 97 load;
#X connect 0 0 3 0;
#X connect 1 0 3 2;
#X connect 2 0 3 1;
#X connect 9 0 20 0;
#X connect 11 0 35 1;
#X connect 12 0 27 1;
#X connect 15 0 17 0;
#X connect 15 0 29 0;
#X connect 16 0 17 0;
#X connect 17 0 9 0;
#X connect 18 0 23 0;
#X connect 19 0 18 1;
#X connect 20 0 81 0;
#X connect 21 0 20 1;
#X connect 22 0 21 0;
#X connect 22 1 21 1;
#X connect 22 2 21 2;
#X connect 23 0 131 0;
#X connect 24 0 27 2;
#X connect 27 0 9 0;
#X connect 29 0 16 0;
#X connect 30 0 27 0;
#X connect 31 0 22 0;
#X connect 32 0 20 2;
#X connect 35 0 18 0;
#X connect 35 1 11 0;
#X connect 37 0 44 3;
#X connect 37 0 92 1;
#X connect 38 0 44 1;
#X connect 40 0 44 2;
#X connect 42 0 44 4;
#X connect 43 0 44 5;
#X connect 47 0 45 2;
#X connect 47 0 90 1;
#X connect 48 0 45 1;
#X connect 50 0 45 3;
#X connect 51 0 45 4;
#X connect 56 0 3 3;
#X connect 59 0 68 3;
#X connect 59 0 91 1;
#X connect 60 0 68 1;
#X connect 62 0 68 2;
#X connect 64 0 68 4;
#X connect 65 0 68 5;
#X connect 70 0 76 0;
#X connect 71 0 76 0;
#X connect 72 0 76 0;
#X connect 73 0 76 1;
#X connect 74 0 76 2;
#X connect 75 0 76 3;
#X connect 77 0 78 0;
#X connect 77 0 79 0;
#X connect 78 0 73 0;
#X connect 79 0 75 0;
#X connect 80 0 18 0;
#X connect 81 0 35 0;
#X connect 81 1 80 0;
#X connect 82 0 81 1;
#X connect 84 0 89 0;
#X connect 85 0 92 0;
#X connect 85 0 90 0;
#X connect 85 0 91 0;
#X connect 86 0 84 0;
#X connect 87 0 89 1;
#X connect 88 0 89 2;
#X connect 89 0 140 0;
#X connect 90 0 45 0;
#X connect 91 0 68 0;
#X connect 92 0 44 0;
#X connect 97 0 96 0;
#X connect 98 0 96 2;
#X connect 99 0 96 1;
#X connect 100 0 96 5;
#X connect 101 0 96 6;
#X connect 106 0 96 4;
#X connect 108 0 96 3;
#X connect 113 0 112 0;
#X connect 114 0 112 2;
#X connect 115 0 112 1;
#X connect 116 0 112 5;
#X connect 117 0 112 6;
#X connect 122 0 112 4;
#X connect 124 0 112 3;
#X connect 127 0 130 0;
#X connect 128 0 130 1;
#X connect 129 0 130 2;
#X connect 130 0 132 0;
#X connect 131 0 92 0;
#X connect 131 0 90 0;
#X connect 131 0 91 0;
#X connect 131 1 86 0;
#X connect 132 0 89 3;
#X connect 133 0 84 1;
#X connect 134 0 137 0;
#X connect 135 0 137 1;
#X connect 136 0 137 2;
#X connect 137 0 139 0;
#X connect 138 0 131 1;
#X connect 139 0 89 4;
#X connect 140 0 85 0;
#X connect 141 0 140 2;
