#N canvas 852 123 581 637 10;
#X obj 101 -19 f;
#X obj 127 -19 + 1;
#X obj 101 -39 metro 30;
#X obj 67 583 sphere;
#X msg 263 389 draw line;
#X floatatom 167 377 5 0 0 0 - - -;
#X obj 67 30 rotateXYZ;
#X obj 67 50 part_head;
#X obj 67 230 part_velocity;
#X obj 67 260 part_info ____;
#X obj 67 280 separator;
#X obj 67 300 translate;
#X msg 142 120 symbol sphere;
#X obj 67 10 gemhead 4;
#X obj 142 30 loadbang;
#X obj 310 40 cnv 15 110 110 empty empty empty 20 12 0 14 -191407 -66577
0;
#X obj 187 263 loadbang;
#X obj 318 129 hsl 90 15 1 10 0 0 empty empty empty -2 -8 0 10 -260097
-1 -1 1978 1;
#X msg 187 283 2;
#X obj 318 89 hsl 90 15 0 2 0 0 empty empty empty -2 -8 0 10 -260097
-1 -1 4005 1;
#X obj 142 50 t b b;
#X msg 169 70 0.9;
#X msg 142 140 0 0 0 0.5 \$1;
#X obj 315 49 tgl 15 0 empty empty empty 17 7 0 10 -4034 -1 -1 0 1
;
#X text 315 108 polygons;
#X text 315 68 spread;
#X text 335 48 rotate;
#X obj 167 333 loadbang;
#X msg 167 353 3;
#X obj 67 170 part_source 1;
#X obj 7 -9 loadbang;
#X msg 521 8 create \, 1;
#X obj 522 36 gemwin;
#X msg 623 16 0 \, destroy;
#X obj 305 -2 hsl 128 15 0 5 0 0 empty empty empty -2 -8 0 10 -262144
-1 -1 0 1;
#X msg 7 11 speed \$1;
#X obj 127 583 cube;
#X obj 177 583 teapot;
#X obj 67 200 part_killold 10;
#X obj 67 330 pix_film;
#X obj 67 360 pix_texture;
#X obj 280 292 tgl 15 0 empty empty empty 17 7 0 10 -262144 -1 -1 0
1;
#X msg 281 312 auto \$1;
#X obj 359 340 openpanel;
#X obj 360 318 bng 15 250 50 0 empty empty empty 17 7 0 10 -262144
-1 -1;
#X msg 364 367 open \$1;
#X obj 126 332 f;
#X msg 280 417 draw fill;
#X obj 67 501 shunt 4;
#X obj 137 501 shunt 4;
#X obj 237 583 cone;
#X msg 411 435 1;
#X msg 411 465 2;
#X msg 411 495 3;
#X msg 411 405 0;
#N canvas 0 0 450 300 sphere 0;
#X obj 100 100 cnv 15 150 150 empty empty empty 20 12 0 14 -191407
-66577 0;
#X obj 108 219 hsl 90 15 1 10 0 0 empty empty empty -2 -8 0 10 -260097
-1 -1 0 1;
#X obj 108 169 hsl 90 15 0.1 2 0 0 empty empty empty -2 -8 0 10 -260097
-1 -1 0 1;
#X obj 104 103 tgl 15 0 empty empty empty 17 7 0 10 -4034 -1 -1 0 1
;
#X text 105 198 polygons;
#X text 105 148 spread;
#X text 124 102 sphere;
#X msg 55 179 0;
#X obj 55 129 sel 1;
#X obj 55 199 outlet;
#X obj 105 79 inlet;
#X obj 215 169 outlet;
#X obj 55 149 t b f;
#X obj 199 112 tgl 12 0 empty empty empty 17 7 0 10 -257985 -1 -1 0
1;
#X obj 199 128 tgl 12 0 empty empty empty 17 7 0 10 -257985 -1 -1 0
1;
#X obj 199 144 tgl 12 0 empty empty empty 17 7 0 10 -257985 -1 -1 0
1;
#X obj 299 30 sel 1;
#X msg 299 50 0;
#X obj 299 90 sel 1;
#X msg 299 110 0;
#X obj 299 150 sel 1;
#X msg 299 170 0;
#X text 213 110 line;
#X text 213 126 fill;
#X text 213 142 point;
#X connect 3 0 8 0;
#X connect 7 0 9 0;
#X connect 8 0 12 0;
#X connect 10 0 3 0;
#X connect 12 0 11 0;
#X connect 12 1 7 0;
#X connect 13 0 16 0;
#X connect 14 0 18 0;
#X connect 15 0 20 0;
#X connect 16 0 17 0;
#X connect 17 0 14 0;
#X connect 17 0 15 0;
#X connect 18 0 19 0;
#X connect 19 0 13 0;
#X connect 19 0 15 0;
#X connect 20 0 21 0;
#X connect 21 0 13 0;
#X connect 21 0 14 0;
#X coords 0 -1 1 1 150 150 2 100 100;
#X restore 457 203 pd sphere;
#N canvas 521 24 450 300 cube 0;
#X obj 100 100 cnv 15 110 110 empty empty empty 20 12 0 14 -191407
-66577 0;
#X obj 108 189 hsl 90 15 1 10 0 0 empty empty empty -2 -8 0 10 -260097
-1 -1 0 1;
#X obj 108 149 hsl 90 15 0.1 2 0 0 empty empty empty -2 -8 0 10 -260097
-1 -1 0 1;
#X obj 105 109 tgl 15 0 empty empty empty 17 7 0 10 -4034 -1 -1 0 1
;
#X text 105 168 polygons;
#X text 105 128 spread;
#X msg 55 149 0;
#X obj 55 129 sel 1;
#X obj 55 169 outlet;
#X obj 105 79 inlet;
#X text 125 108 cube;
#X connect 3 0 7 0;
#X connect 6 0 8 0;
#X connect 7 0 6 0;
#X connect 9 0 3 0;
#X coords 0 -1 1 1 110 110 2 100 100;
#X restore 643 203 pd cube;
#X connect 0 0 1 0;
#X connect 0 0 6 2;
#X connect 1 0 0 1;
#X connect 2 0 0 0;
#X connect 4 0 49 0;
#X connect 5 0 3 2;
#X connect 6 0 7 0;
#X connect 7 0 29 0;
#X connect 8 0 9 0;
#X connect 9 0 10 0;
#X connect 9 2 11 2;
#X connect 10 0 11 0;
#X connect 11 0 39 0;
#X connect 12 0 29 2;
#X connect 13 0 6 0;
#X connect 14 0 20 0;
#X connect 16 0 18 0;
#X connect 17 0 5 0;
#X connect 18 0 11 1;
#X connect 19 0 22 0;
#X connect 20 0 12 0;
#X connect 20 0 22 0;
#X connect 20 1 21 0;
#X connect 21 0 19 0;
#X connect 22 0 29 3;
#X connect 23 0 2 0;
#X connect 27 0 28 0;
#X connect 28 0 17 0;
#X connect 29 0 38 0;
#X connect 30 0 35 0;
#X connect 31 0 32 0;
#X connect 33 0 32 0;
#X connect 34 0 35 0;
#X connect 35 0 7 0;
#X connect 38 0 8 0;
#X connect 39 0 40 0;
#X connect 39 2 46 0;
#X connect 40 0 48 0;
#X connect 41 0 42 0;
#X connect 42 0 39 0;
#X connect 43 0 45 0;
#X connect 44 0 43 0;
#X connect 45 0 39 0;
#X connect 46 0 39 1;
#X connect 47 0 49 0;
#X connect 48 0 3 0;
#X connect 48 1 36 0;
#X connect 48 2 37 1;
#X connect 48 3 50 0;
#X connect 49 0 3 0;
#X connect 49 1 36 0;
#X connect 49 2 37 0;
#X connect 49 3 50 0;
#X connect 54 0 48 0;
