#N canvas 62 82 1300 714 10;
#X declare -lib gridflow;
#X declare -path /home/hellocatfood/pd-externals/hellocatfood;
#X obj 160 -39 bng 30 250 50 0 empty empty empty 17 7 0 10 -4034 -1
-1;
#X obj 200 -19 bng 15 250 50 0 empty empty empty 17 7 0 10 -258113
-1 -1;
#X obj 200 -39 bng 15 250 50 0 empty empty empty 17 7 0 10 -4032 -1
-1;
#N canvas 64 82 1300 714 window 0;
#X obj 30 109 gemwin;
#X msg 200 39 0 \, destroy;
#X msg 30 39 create \, 1;
#X obj 30 19 inlet;
#X obj 110 19 inlet;
#X obj 200 19 inlet;
#X obj 220 89 gemhead;
#X msg 280 39 lighting \$1;
#X obj 220 109 world_light;
#X obj 280 19 inlet;
#X msg 106 117 border 0;
#X msg 110 69 offset 1368 0;
#X msg 110 39 dimen 1440 900;
#X connect 1 0 0 0;
#X connect 2 0 0 0;
#X connect 3 0 2 0;
#X connect 4 0 11 0;
#X connect 4 0 12 0;
#X connect 4 0 10 0;
#X connect 5 0 1 0;
#X connect 6 0 8 0;
#X connect 7 0 0 0;
#X connect 9 0 7 0;
#X connect 10 0 0 0;
#X connect 11 0 0 0;
#X connect 12 0 0 0;
#X restore 160 0 pd window;
#X text 220 -41 press this first;
#X text 220 -21 destroy window;
#X text 157 -61 create window;
#X obj 856 -33 import gridflow;
#X obj 860 -8 path /home/hellocatfood/pd-externals/hellocatfood;
#X obj 33 90 part_head;
#X obj 160 50 cnv 15 110 230 empty stoprotate empty 20 12 0 14 -191407
-66577 0;
#X obj 168 155 hsl 90 15 0 1.5 0 0 empty empty empty -2 -8 0 10 -260097
-1 -1 2100 1;
#X obj 165 55 tgl 15 0 empty stoprotate empty 17 7 0 10 -4034 -1 -1
0 1;
#X text 165 134 spread;
#X text 185 54 rotate;
#X obj 48 50 loadbang;
#X obj 168 115 hsl 90 15 0 5 0 0 empty empty empty -2 -8 0 10 -260097
-1 -1 4480 1;
#X msg 48 70 speed \$1;
#X obj 33 230 part_killold 10;
#X obj 168 198 hsl 90 15 1 50 0 0 empty empty empty -2 -8 0 10 -260097
-1 -1 8900 1;
#X obj 33 150 part_targetcolor;
#X obj 79 130 pack f f f f;
#N canvas 129 154 450 300 rand 0;
#X obj 60 89 random 100;
#X obj 140 69 metro;
#X obj 140 89 random 100;
#X obj 220 69 metro;
#X obj 220 89 random 100;
#X obj 60 69 metro 50;
#X obj 60 149 /;
#X obj 140 149 /;
#X obj 220 149 /;
#X obj 60 199 outlet;
#X obj 140 199 outlet;
#X obj 220 199 outlet;
#X obj 80 119 * 5;
#X obj 160 119 * 5;
#X obj 240 119 * 5;
#X obj 60 29 inlet;
#X connect 0 0 3 1;
#X connect 0 0 6 0;
#X connect 0 0 12 0;
#X connect 1 0 2 0;
#X connect 2 0 5 1;
#X connect 2 0 7 0;
#X connect 2 0 13 0;
#X connect 3 0 4 0;
#X connect 4 0 1 1;
#X connect 4 0 8 0;
#X connect 4 0 14 0;
#X connect 5 0 0 0;
#X connect 6 0 9 0;
#X connect 7 0 10 0;
#X connect 8 0 11 0;
#X connect 12 0 8 1;
#X connect 13 0 6 1;
#X connect 14 0 7 1;
#X connect 15 0 5 0;
#X connect 15 0 1 0;
#X connect 15 0 3 0;
#X restore 79 109 pd rand;
#X obj 33 250 part_render;
#X obj 168 75 hsl 60 15 200 2 0 0 empty empty empty -2 -8 0 10 -260097
-1 -1 0 1;
#X text 165 180 amount;
#N canvas 496 159 450 300 rotate 0;
#X obj 111 111 f;
#X obj 137 111 + 1;
#X obj 111 91 metro 30;
#X obj 77 140 rotateXYZ;
#X obj 77 30 inlet;
#X obj 111 61 inlet;
#X obj 156 61 inlet;
#X obj 77 170 outlet;
#X obj 206 61 inlet;
#X connect 0 0 1 0;
#X connect 0 0 3 2;
#X connect 0 0 3 1;
#X connect 1 0 0 1;
#X connect 2 0 0 0;
#X connect 3 0 7 0;
#X connect 4 0 3 0;
#X connect 5 0 2 0;
#X connect 6 0 2 1;
#X connect 8 0 0 0;
#X restore 33 30 pd rotate;
#X text 165 94 speed;
#X msg 108 70 1;
#X obj 33 10 gemhead -2;
#X obj 165 222 tgl 15 0 empty empty empty 17 7 0 10 -4034 -1 -1 1 1
;
#X obj 168 258 hsl 90 15 0.01 1 0 0 empty empty empty -2 -8 0 10 -260097
-1 -1 8900 1;
#X text 185 220 color;
#X text 164 240 saturation;
#N canvas 312 264 450 300 spread 0;
#X obj 57 220 part_velocity;
#X msg 132 70 symbol sphere;
#X obj 132 -30 loadbang;
#X obj 132 -10 t b b;
#X obj 57 140 part_source 1;
#X msg 132 180 symbol sphere;
#X msg 132 120 0 0 0 0 \$1;
#X msg 132 200 0 0 0 0 \$1;
#X msg 159 10 0;
#X obj 57 -30 inlet;
#X obj 57 260 outlet;
#X obj 159 30 outlet;
#X obj 242 70 inlet;
#X connect 0 0 10 0;
#X connect 1 0 4 2;
#X connect 2 0 3 0;
#X connect 2 0 5 0;
#X connect 3 0 1 0;
#X connect 3 0 6 0;
#X connect 3 1 8 0;
#X connect 4 0 0 0;
#X connect 5 0 0 1;
#X connect 6 0 4 3;
#X connect 7 0 0 2;
#X connect 8 0 11 0;
#X connect 9 0 4 0;
#X connect 12 0 6 0;
#X connect 12 0 7 0;
#X restore 33 190 pd spread;
#X obj 33 380 cnv 15 110 100 empty stoprotate empty 20 12 0 14 -191407
-66577 0;
#X obj 38 358 tgl 15 0 empty empty empty 17 7 0 10 -4034 -1 -1 1 1
;
#X obj 41 428 hsl 90 15 1 4 0 0 empty empty empty -2 -8 0 10 -260097
-1 -1 7400 1;
#X text 37 410 size;
#X obj 41 458 hsl 90 15 2 10 0 0 empty empty empty -2 -8 0 10 -260097
-1 -1 6600 1;
#X text 37 440 segments;
#X obj 88 388 bng 15 250 50 0 empty empty empty 17 7 0 10 -258113 -1
-1;
#X obj 88 408 bng 15 250 50 0 empty empty empty 17 7 0 10 -258113 -1
-1;
#N canvas 664 159 450 300 sphere 0;
#X obj 49 157 sphere;
#X msg 162 85 draw line;
#X obj 49 127 spigot;
#X msg 182 126 draw fill;
#X obj 49 6 inlet;
#X obj 102 96 inlet;
#X obj 65 36 inlet;
#X obj 82 66 inlet;
#X obj 162 66 inlet;
#X obj 182 106 inlet;
#X connect 1 0 0 0;
#X connect 2 0 0 0;
#X connect 3 0 0 0;
#X connect 4 0 2 0;
#X connect 5 0 2 1;
#X connect 6 0 0 1;
#X connect 7 0 0 2;
#X connect 8 0 1 0;
#X connect 9 0 3 0;
#X restore 38 478 pd sphere;
#X obj 153 380 cnv 15 110 70 empty stoprotate empty 20 12 0 14 -191407
-66577 0;
#X obj 158 358 tgl 15 0 empty empty empty 17 7 0 10 -4034 -1 -1 1 1
;
#X obj 161 428 hsl 90 15 1 4 0 0 empty empty empty -2 -8 0 10 -260097
-1 -1 2200 1;
#X text 157 410 size;
#X obj 208 388 bng 15 250 50 0 empty empty empty 17 7 0 10 -258113
-1 -1;
#X obj 208 408 bng 15 250 50 0 empty empty empty 17 7 0 10 -258113
-1 -1;
#X text 107 386 line;
#X text 227 386 line;
#X text 227 406 fill;
#X text 107 406 fill;
#X obj 230 0 tgl 15 0 empty empty empty 17 7 0 10 -257985 -1 -1 0 1
;
#X text 250 -1 lighting;
#X obj 273 380 cnv 15 110 100 empty stoprotate empty 20 12 0 14 -191407
-66577 0;
#X obj 278 358 tgl 15 0 empty empty empty 17 7 0 10 -4034 -1 -1 1 1
;
#X obj 281 428 hsl 90 15 0.1 4 0 0 empty empty empty -2 -8 0 10 -260097
-1 -1 8900 1;
#X text 277 410 size;
#X obj 281 458 hsl 90 15 2 6 0 0 empty empty empty -2 -8 0 10 -260097
-1 -1 8300 1;
#X text 277 440 segments;
#X obj 328 388 bng 15 250 50 0 empty empty empty 17 7 0 10 -258113
-1 -1;
#X obj 328 408 bng 15 250 50 0 empty empty empty 17 7 0 10 -258113
-1 -1;
#X text 347 386 line;
#X text 347 406 fill;
#N canvas 658 177 450 300 cone____ 0;
#X msg 162 85 draw line;
#X obj 49 127 spigot;
#X msg 182 126 draw fill;
#X obj 49 6 inlet;
#X obj 102 96 inlet;
#X obj 65 36 inlet;
#X obj 82 66 inlet;
#X obj 162 66 inlet;
#X obj 182 106 inlet;
#X obj 49 207 cone;
#X connect 0 0 9 0;
#X connect 1 0 9 0;
#X connect 2 0 9 0;
#X connect 3 0 1 0;
#X connect 4 0 1 1;
#X connect 5 0 9 1;
#X connect 6 0 9 2;
#X connect 7 0 0 0;
#X connect 8 0 2 0;
#X restore 278 478 pd cone____;
#X obj 513 380 cnv 15 110 160 empty stoprotate empty 20 12 0 14 -191407
-66577 0;
#N canvas 893 299 450 300 spreadpoint 0;
#X obj 57 220 part_velocity;
#X obj 94 -19 loadbang;
#X obj 57 140 part_source 1;
#X obj 57 -30 inlet;
#X obj 57 260 outlet;
#X msg 107 80 symbol point;
#X msg 94 180 symbol point;
#X msg 132 200 0 0 2;
#X msg 132 110 0 0 -20;
#X connect 0 0 4 0;
#X connect 1 0 6 0;
#X connect 1 0 5 0;
#X connect 1 0 8 0;
#X connect 1 0 7 0;
#X connect 2 0 0 0;
#X connect 3 0 2 0;
#X connect 5 0 2 2;
#X connect 6 0 0 1;
#X connect 7 0 0 2;
#X connect 8 0 2 3;
#X restore 60 210 pd spreadpoint;
#X obj 33 170 shunt;
#X obj 167 294 tgl 15 0 empty empty empty 17 7 0 10 -262144 -1 -1 0
1;
#X obj 310 50 cnv 15 170 250 empty empty empty 20 12 0 14 -191407 -66577
0;
#N canvas 67 95 587 366 image 0;
#X obj 77 48 inlet;
#X obj 77 344 outlet;
#X obj 223 55 inlet;
#X msg 223 123 open \$1;
#X obj 77 205 pix_image;
#X obj 253 100 openpanel;
#X connect 0 0 4 0;
#X connect 2 0 3 0;
#X connect 3 0 4 0;
#X connect 4 0 1 0;
#X restore 315 98 pd image;
#X obj 315 272 pix_texture;
#X obj 315 75 alpha;
#X obj 315 231 pix_alpha;
#X text 57 356 sphere;
#X text 177 356 cube;
#X text 297 356 cone;
#X obj 517 358 tgl 15 0 empty empty empty 17 7 0 10 -4034 -1 -1 0 1
;
#X obj 521 488 hsl 90 15 1 50 0 0 empty empty empty -2 -8 0 10 -260097
-1 -1 0 1;
#X obj 521 518 hsl 90 15 1 10000 0 0 empty empty empty -2 -8 0 10 -260097
-1 -1 0 1;
#X obj 568 388 bng 15 250 50 0 empty empty empty 17 7 0 10 -258113
-1 -1;
#X obj 568 408 bng 15 250 50 0 empty empty empty 17 7 0 10 -258113
-1 -1;
#X text 587 386 line;
#X text 587 406 fill;
#X text 517 470 wave;
#X text 517 500 length;
#X obj 568 428 bng 15 250 50 0 empty empty empty 17 7 0 10 -258113
-1 -1;
#X text 587 426 point;
#X obj 521 458 hsl 90 15 -2 3 0 0 empty empty empty -2 -8 0 10 -260097
-1 -1 0 1;
#X text 517 440 size;
#X text 537 356 scope;
#X obj 393 380 cnv 15 110 70 empty stoprotate empty 20 12 0 14 -191407
-66577 0;
#X obj 398 358 tgl 15 0 empty empty empty 17 7 0 10 -4034 -1 -1 0 1
;
#X obj 448 388 bng 15 250 50 0 empty empty empty 17 7 0 10 -258113
-1 -1;
#X text 467 386 fill;
#X obj 401 428 hsl 90 15 3 10 0 0 empty empty empty -2 -8 0 10 -260097
-1 -1 8900 1;
#X obj 488 156 hsl 90 15 0 1 0 0 empty empty empty -2 -8 0 10 -258113
-1 -1 0 1;
#X obj 488 171 hsl 90 15 0 1 0 0 empty empty empty -2 -8 0 10 -4034
-1 -1 0 1;
#X obj 488 186 hsl 90 15 0 1 0 0 empty empty empty -2 -8 0 10 -4032
-1 -1 0 1;
#X obj 33 270 shunt;
#X msg 353 182 \$1 \$2 \$3;
#X obj 315 55 tgl 15 0 empty empty empty 17 7 0 10 -4034 -1 -1 0 1
;
#X msg 366 206 \$1 \$2 \$3;
#X msg 327 141 1;
#X msg 340 161 0;
#X obj 327 121 loadbang;
#X obj 485 206 pack f f f;
#X obj 595 206 t b f;
#X obj 555 206 t b f;
#X obj 648 156 hsl 90 15 0 1 0 0 empty empty empty -2 -8 0 10 -258113
-1 -1 0 1;
#X obj 648 171 hsl 90 15 0 1 0 0 empty empty empty -2 -8 0 10 -4034
-1 -1 0 1;
#X obj 648 186 hsl 90 15 0 1 0 0 empty empty empty -2 -8 0 10 -4032
-1 -1 0 1;
#X obj 645 206 pack f f f;
#X obj 755 206 t b f;
#X obj 715 206 t b f;
#N canvas 575 170 450 300 disk___ 0;
#X msg 296 129 draw line;
#X msg 226 129 draw fill;
#X obj 130 69 loadbang;
#X msg 130 92 1;
#X msg 184 92 1.1;
#X obj 103 9 inlet;
#X obj 103 49 spigot;
#X obj 136 29 inlet;
#X obj 157 139 inlet;
#X obj 103 199 disk _________;
#X obj 296 109 inlet;
#X obj 226 109 inlet;
#X connect 0 0 9 0;
#X connect 1 0 9 0;
#X connect 2 0 3 0;
#X connect 2 0 4 0;
#X connect 3 0 9 1;
#X connect 4 0 9 3;
#X connect 5 0 6 0;
#X connect 6 0 9 0;
#X connect 7 0 6 1;
#X connect 8 0 9 2;
#X connect 10 0 0 0;
#X connect 11 0 1 0;
#X restore 397 448 pd disk___;
#X obj 448 408 bng 15 250 50 0 empty empty empty 17 7 0 10 -258113
-1 -1;
#X text 467 406 line;
#N canvas 666 153 450 300 cube___ 0;
#X msg 162 85 draw line;
#X obj 49 127 spigot;
#X msg 182 126 draw fill;
#X obj 49 6 inlet;
#X obj 102 96 inlet;
#X obj 65 36 inlet;
#X obj 162 66 inlet;
#X obj 182 106 inlet;
#X obj 49 157 cube;
#X connect 0 0 8 0;
#X connect 1 0 8 0;
#X connect 2 0 8 0;
#X connect 3 0 1 0;
#X connect 4 0 1 1;
#X connect 5 0 8 1;
#X connect 6 0 0 0;
#X connect 7 0 2 0;
#X restore 157 458 pd cube___;
#X text 397 410 segs;
#X text 417 356 disk;
#N canvas 139 150 450 300 scoper____ 0;
#X msg 319 203 draw line;
#X msg 339 243 draw fill;
#X msg 299 160 draw point;
#X obj 127 68 rotateXYZ;
#X floatatom 189 45 5 0 0 0 - - -;
#X floatatom 199 147 5 0 10 0 - - -;
#X msg 199 163 width \$1;
#X obj 127 306 scopeXYZ~ 1024;
#X obj 219 284 osc~ 882;
#X obj 219 263 osc~ 221;
#X obj 219 240 osc~ 40;
#X msg 150 121 length \$1;
#X obj 219 220 inlet;
#X obj 150 101 inlet;
#X obj 127 24 inlet;
#X obj 299 140 inlet;
#X obj 319 183 inlet;
#X obj 339 223 inlet;
#X obj 127 198 translateXYZ;
#X obj 220 101 inlet;
#X obj 288 103 random 200;
#X obj 288 74 metro 100;
#X obj 294 52 tgl 15 0 empty empty empty 17 7 0 10 -262144 -1 -1 0
1;
#X obj 368 74 metro 100;
#X obj 374 52 tgl 15 0 empty empty empty 17 7 0 10 -262144 -1 -1 0
1;
#X obj 368 103 random 800;
#X obj 127 44 gemhead;
#X connect 0 0 7 0;
#X connect 1 0 7 0;
#X connect 2 0 7 0;
#X connect 3 0 18 0;
#X connect 4 0 3 3;
#X connect 5 0 6 0;
#X connect 6 0 7 0;
#X connect 8 0 7 3;
#X connect 9 0 7 2;
#X connect 10 0 7 1;
#X connect 11 0 7 0;
#X connect 12 0 10 0;
#X connect 13 0 11 0;
#X connect 14 0 26 0;
#X connect 15 0 2 0;
#X connect 16 0 0 0;
#X connect 17 0 1 0;
#X connect 18 0 7 0;
#X connect 19 0 18 3;
#X connect 20 0 9 0;
#X connect 21 0 20 0;
#X connect 22 0 21 0;
#X connect 23 0 25 0;
#X connect 24 0 23 0;
#X connect 25 0 8 0;
#X connect 26 0 3 0;
#X restore 517 538 pd scoper____;
#X text 189 291 zoom;
#X obj 640 301 somepixeffects;
#X obj 485 115 bng 15 250 50 0 empty empty empty 17 7 0 10 -257985
-1 -1;
#X obj 510 115 bng 15 250 50 0 empty empty empty 17 7 0 10 -159808
-1 -1;
#X obj 536 115 bng 15 250 50 0 empty empty empty 17 7 0 10 -260097
-1 -1;
#N canvas 836 197 450 285 colors 0;
#X obj 10 10 cnv 15 160 160 empty empty empty 20 12 0 14 -233017 -66577
0;
#X obj 16 105 line;
#X msg 16 85 \$1 200;
#X obj 16 145 outlet;
#X obj 16 15 inlet;
#X text 25 69 R;
#X text 75 69 G;
#X text 125 69 B;
#X msg 16 55 255;
#X msg 66 55 247;
#X msg 116 55 0;
#X obj 84 16 cnv 15 80 20 empty empty empty 20 12 0 14 -257985 -66577
0;
#X text 90 15 yellow;
#X obj 180 10 cnv 15 160 160 empty empty empty 20 12 0 14 -233017 -66577
0;
#X obj 186 15 inlet;
#X text 195 69 R;
#X text 245 69 G;
#X text 295 69 B;
#X msg 236 55 247;
#X obj 254 16 cnv 15 80 20 empty empty empty 20 12 0 14 -257985 -66577
0;
#X msg 186 55 149;
#X msg 286 55 255;
#X text 260 15 purple;
#X obj 350 10 cnv 15 160 160 empty empty empty 20 12 0 14 -233017 -66577
0;
#X obj 356 15 inlet;
#X text 365 69 R;
#X text 415 69 G;
#X text 465 69 B;
#X obj 424 16 cnv 15 80 20 empty empty empty 20 12 0 14 -257985 -66577
0;
#X text 430 15 orange;
#X msg 356 55 255;
#X msg 406 55 146;
#X msg 456 55 0;
#X obj 16 125 / 255;
#X obj 66 105 line;
#X msg 66 85 \$1 200;
#X obj 66 145 outlet;
#X obj 66 125 / 255;
#X obj 116 105 line;
#X msg 116 85 \$1 200;
#X obj 116 145 outlet;
#X obj 116 125 / 255;
#X obj 186 105 line;
#X msg 186 85 \$1 200;
#X obj 186 145 outlet;
#X obj 186 125 / 255;
#X obj 236 105 line;
#X msg 236 85 \$1 200;
#X obj 236 145 outlet;
#X obj 236 125 / 255;
#X obj 286 105 line;
#X msg 286 85 \$1 200;
#X obj 286 145 outlet;
#X obj 286 125 / 255;
#X obj 356 105 line;
#X msg 356 85 \$1 200;
#X obj 356 145 outlet;
#X obj 356 125 / 255;
#X obj 406 105 line;
#X msg 406 85 \$1 200;
#X obj 406 145 outlet;
#X obj 406 125 / 255;
#X obj 456 105 line;
#X msg 456 85 \$1 200;
#X obj 456 145 outlet;
#X obj 456 125 / 255;
#X connect 1 0 33 0;
#X connect 2 0 1 0;
#X connect 4 0 8 0;
#X connect 4 0 9 0;
#X connect 4 0 10 0;
#X connect 8 0 2 0;
#X connect 9 0 35 0;
#X connect 10 0 39 0;
#X connect 14 0 20 0;
#X connect 14 0 18 0;
#X connect 14 0 21 0;
#X connect 18 0 47 0;
#X connect 20 0 43 0;
#X connect 21 0 51 0;
#X connect 24 0 30 0;
#X connect 24 0 31 0;
#X connect 24 0 32 0;
#X connect 30 0 55 0;
#X connect 31 0 59 0;
#X connect 32 0 63 0;
#X connect 33 0 3 0;
#X connect 34 0 37 0;
#X connect 35 0 34 0;
#X connect 37 0 36 0;
#X connect 38 0 41 0;
#X connect 39 0 38 0;
#X connect 41 0 40 0;
#X connect 42 0 45 0;
#X connect 43 0 42 0;
#X connect 45 0 44 0;
#X connect 46 0 49 0;
#X connect 47 0 46 0;
#X connect 49 0 48 0;
#X connect 50 0 53 0;
#X connect 51 0 50 0;
#X connect 53 0 52 0;
#X connect 54 0 57 0;
#X connect 55 0 54 0;
#X connect 57 0 56 0;
#X connect 58 0 61 0;
#X connect 59 0 58 0;
#X connect 61 0 60 0;
#X connect 62 0 65 0;
#X connect 63 0 62 0;
#X connect 65 0 64 0;
#X restore 485 135 pd colors;
#N canvas 149 174 450 300 randomalpha 0;
#X obj 47 53 random 100;
#X obj 47 83 / 100;
#X msg 47 143 \$1 \$2;
#X obj 47 113 pack f f;
#X obj 47 23 metro 100;
#X floatatom 317 23 10 0 0 0 - - -;
#X obj 47 173 line;
#X obj 47 203 outlet;
#X obj 47 -7 inlet;
#X obj 137 53 random 100;
#X obj 137 83 / 100;
#X msg 137 143 \$1 \$2;
#X obj 137 113 pack f f;
#X obj 137 23 metro 100;
#X obj 137 173 line;
#X obj 137 203 outlet;
#X obj 227 53 random 100;
#X obj 227 83 / 100;
#X msg 227 143 \$1 \$2;
#X obj 227 113 pack f f;
#X obj 227 23 metro 100;
#X obj 227 173 line;
#X obj 227 203 outlet;
#X obj 317 3 inlet;
#X obj 366 -18 loadbang;
#X msg 366 3 3000;
#X connect 0 0 1 0;
#X connect 1 0 3 0;
#X connect 2 0 6 0;
#X connect 3 0 2 0;
#X connect 4 0 0 0;
#X connect 5 0 4 1;
#X connect 5 0 3 1;
#X connect 5 0 13 1;
#X connect 5 0 12 1;
#X connect 5 0 20 1;
#X connect 5 0 19 1;
#X connect 6 0 7 0;
#X connect 8 0 4 0;
#X connect 8 0 13 0;
#X connect 8 0 20 0;
#X connect 9 0 10 0;
#X connect 10 0 12 0;
#X connect 11 0 14 0;
#X connect 12 0 11 0;
#X connect 13 0 9 0;
#X connect 14 0 15 0;
#X connect 16 0 17 0;
#X connect 17 0 19 0;
#X connect 18 0 21 0;
#X connect 19 0 18 0;
#X connect 20 0 16 0;
#X connect 21 0 22 0;
#X connect 23 0 5 0;
#X connect 24 0 25 0;
#X connect 25 0 5 0;
#X restore 584 135 pd randomalpha;
#X obj 584 115 tgl 15 0 empty empty empty 17 7 0 10 -4034 -1 -1 0 1
;
#X obj 607 115 hsl 80 15 3000 100 0 0 empty empty empty -2 -8 0 10
-260097 -1 -1 0 1;
#X floatatom 691 115 3 0 0 0 - - -;
#X obj 674 135 / 1000;
#X msg 237 74 0;
#X obj 380 -52 playlist all 180 150 {Helvetica 10 bold} #457782 yellow
black red;
#X obj 485 245 tgl 15 0 empty stoprotate empty 17 7 0 10 -4034 -1 -1
0 1;
#X text 505 244 rotate;
#X obj 488 265 hsl 60 15 200 2 0 0 empty empty empty -2 -8 0 10 -260097
-1 -1 0 1;
#X msg 557 244 0;
#X obj 615 245 tgl 15 0 empty stoprotate empty 17 7 0 10 -4034 -1 -1
0 1;
#X text 635 244 rotate;
#X obj 618 265 hsl 60 15 200 2 0 0 empty empty empty -2 -8 0 10 -260097
-1 -1 0 1;
#X msg 687 264 0;
#N canvas 490 177 450 300 rotate 0;
#X obj 111 111 f;
#X obj 137 111 + 1;
#X obj 111 91 metro 30;
#X obj 77 140 rotateXYZ;
#X obj 77 30 inlet;
#X obj 111 61 inlet;
#X obj 156 61 inlet;
#X obj 77 170 outlet;
#X obj 206 61 inlet;
#X obj 271 111 f;
#X obj 297 111 + 1;
#X obj 271 91 metro 30;
#X obj 271 61 inlet;
#X obj 316 61 inlet;
#X obj 366 61 inlet;
#X connect 0 0 1 0;
#X connect 0 0 3 2;
#X connect 0 0 3 1;
#X connect 1 0 0 1;
#X connect 2 0 0 0;
#X connect 3 0 7 0;
#X connect 4 0 3 0;
#X connect 5 0 2 0;
#X connect 6 0 2 1;
#X connect 8 0 0 0;
#X connect 9 0 10 0;
#X connect 9 0 3 3;
#X connect 10 0 9 1;
#X connect 11 0 9 0;
#X connect 12 0 11 0;
#X connect 13 0 11 1;
#X connect 14 0 9 0;
#X restore 315 251 pd rotate _____;
#X obj 862 156 pix_film;
#X obj 862 506 pix_texture;
#X obj 922 156 f;
#X obj 862 186 somepixeffects;
#X obj 862 126 gemhead -20;
#X obj 952 106 openpanel;
#X obj 952 86 bng 15 250 50 0 empty empty empty 17 7 0 10 -258113 -1
-1;
#X msg 952 126 open \$1;
#X msg 1022 126 auto \$1;
#X obj 1022 106 tgl 15 0 empty empty empty 17 7 0 10 -4034 -1 -1 0
1;
#X obj 881 84 tgl 15 0 empty empty empty 17 7 0 10 -262144 -1 -1 0
1;
#X obj 862 536 rectangle 16 9;
#X connect 0 0 3 0;
#X connect 1 0 3 2;
#X connect 2 0 3 1;
#X connect 9 0 20 0;
#X connect 11 0 34 1;
#X connect 12 0 26 1;
#X connect 15 0 17 0;
#X connect 15 0 28 0;
#X connect 16 0 17 0;
#X connect 17 0 9 0;
#X connect 18 0 23 0;
#X connect 19 0 18 1;
#X connect 20 0 69 0;
#X connect 21 0 20 1;
#X connect 22 0 21 0;
#X connect 22 1 21 1;
#X connect 22 2 21 2;
#X connect 23 0 101 0;
#X connect 24 0 26 2;
#X connect 26 0 9 0;
#X connect 28 0 16 0;
#X connect 29 0 26 0;
#X connect 30 0 22 0;
#X connect 31 0 20 2;
#X connect 34 0 18 0;
#X connect 34 1 11 0;
#X connect 36 0 43 3;
#X connect 37 0 43 1;
#X connect 39 0 43 2;
#X connect 41 0 43 4;
#X connect 42 0 43 5;
#X connect 45 0 120 2;
#X connect 46 0 120 1;
#X connect 48 0 120 3;
#X connect 49 0 120 4;
#X connect 54 0 3 3;
#X connect 57 0 66 3;
#X connect 58 0 66 1;
#X connect 60 0 66 2;
#X connect 62 0 66 4;
#X connect 63 0 66 5;
#X connect 68 0 18 0;
#X connect 69 0 34 0;
#X connect 69 1 68 0;
#X connect 70 0 69 1;
#X connect 72 0 75 0;
#X connect 73 0 43 0;
#X connect 73 0 120 0;
#X connect 73 0 66 0;
#X connect 73 0 117 0;
#X connect 73 0 123 0;
#X connect 74 0 72 0;
#X connect 75 0 145 0;
#X connect 79 0 123 0;
#X connect 80 0 123 2;
#X connect 81 0 123 1;
#X connect 82 0 123 5;
#X connect 83 0 123 6;
#X connect 88 0 123 4;
#X connect 90 0 123 3;
#X connect 94 0 117 1;
#X connect 95 0 117 3;
#X connect 97 0 117 2;
#X connect 98 0 108 0;
#X connect 99 0 110 0;
#X connect 100 0 109 0;
#X connect 101 0 43 0;
#X connect 101 0 120 0;
#X connect 101 0 66 0;
#X connect 101 0 117 0;
#X connect 101 1 74 0;
#X connect 102 0 75 3;
#X connect 103 0 101 1;
#X connect 104 0 75 4;
#X connect 105 0 75 1;
#X connect 106 0 75 2;
#X connect 107 0 105 0;
#X connect 107 0 106 0;
#X connect 108 0 102 0;
#X connect 109 0 98 0;
#X connect 109 1 108 2;
#X connect 110 0 98 0;
#X connect 110 1 108 1;
#X connect 111 0 114 0;
#X connect 112 0 116 0;
#X connect 113 0 115 0;
#X connect 114 0 104 0;
#X connect 115 0 111 0;
#X connect 115 1 114 2;
#X connect 116 0 111 0;
#X connect 116 1 114 1;
#X connect 118 0 117 4;
#X connect 125 0 73 0;
#X connect 126 0 129 0;
#X connect 127 0 129 1;
#X connect 128 0 129 2;
#X connect 129 0 98 0;
#X connect 129 1 99 0;
#X connect 129 2 100 0;
#X connect 129 3 98 0;
#X connect 129 4 99 0;
#X connect 129 5 100 0;
#X connect 129 6 98 0;
#X connect 129 7 99 0;
#X connect 129 8 100 0;
#X connect 130 0 98 0;
#X connect 130 1 99 0;
#X connect 130 2 100 0;
#X connect 131 0 130 0;
#X connect 132 0 130 1;
#X connect 132 0 134 0;
#X connect 134 0 133 0;
#X connect 135 0 26 3;
#X connect 135 0 12 0;
#X connect 136 0 72 1;
#X connect 137 0 145 1;
#X connect 139 0 145 2;
#X connect 140 0 145 3;
#X connect 140 0 137 0;
#X connect 141 0 145 4;
#X connect 143 0 145 5;
#X connect 144 0 141 0;
#X connect 144 0 145 6;
#X connect 145 0 125 0;
#X connect 146 0 149 0;
#X connect 146 2 148 0;
#X connect 147 0 157 0;
#X connect 148 0 146 1;
#X connect 149 0 147 0;
#X connect 150 0 146 0;
#X connect 151 0 153 0;
#X connect 152 0 151 0;
#X connect 153 0 146 0;
#X connect 154 0 146 0;
#X connect 155 0 154 0;
#X connect 156 0 150 0;
