#N canvas 113 130 581 637 10;
#X declare -lib gridflow;
#X declare -path /home/hellocatfood/pd-externals/hellocatfood;
#X obj 83 -73 bng 30 250 50 0 empty empty empty 17 7 0 10 -4034 -1
-1;
#X obj 123 -53 bng 15 250 50 0 empty empty empty 17 7 0 10 -258113
-1 -1;
#X obj 123 -73 bng 15 250 50 0 empty empty empty 17 7 0 10 -4032 -1
-1;
#N canvas 67 95 450 300 window 0;
#X obj 30 109 gemwin;
#X msg 200 39 0 \, destroy;
#X msg 30 39 create \, 1;
#X msg 110 39 dimen 800 600;
#X obj 30 19 inlet;
#X obj 110 19 inlet;
#X obj 200 19 inlet;
#X msg 109 69 offset 1366 0;
#X obj 220 89 gemhead;
#X msg 280 39 lighting \$1;
#X obj 220 109 world_light;
#X obj 280 19 inlet;
#X connect 1 0 0 0;
#X connect 2 0 0 0;
#X connect 3 0 0 0;
#X connect 4 0 2 0;
#X connect 5 0 7 0;
#X connect 5 0 3 0;
#X connect 6 0 1 0;
#X connect 7 0 0 0;
#X connect 8 0 10 0;
#X connect 9 0 0 0;
#X connect 11 0 9 0;
#X restore 83 -34 pd window;
#X text 143 -75 press this first;
#X text 143 -55 destroy window;
#X text 80 -95 create window;
#X obj 79 -140 import gridflow;
#X obj 83 -115 path /home/hellocatfood/pd-externals/hellocatfood;
#X obj 33 150 part_head;
#X obj 160 50 cnv 15 110 230 empty stoprotate empty 20 12 0 14 -191407
-66577 0;
#X obj 168 155 hsl 90 15 0 1.5 0 0 empty empty empty -2 -8 0 10 -260097
-1 -1 0 1;
#X obj 165 55 tgl 15 0 empty stoprotate empty 17 7 0 10 -4034 -1 -1
0 1;
#X text 165 134 spread;
#X text 185 54 rotate;
#X obj 48 110 loadbang;
#X obj 168 115 hsl 90 15 0 5 0 0 empty empty empty -2 -8 0 10 -260097
-1 -1 1780 1;
#X msg 48 130 speed \$1;
#X obj 33 270 part_killold 10;
#X obj 168 198 hsl 90 15 1 50 0 0 empty empty empty -2 -8 0 10 -260097
-1 -1 0 1;
#X obj 33 210 part_targetcolor;
#X obj 79 190 pack f f f f;
#N canvas 129 154 450 300 rand 0;
#X obj 60 89 random 100;
#X obj 140 69 metro;
#X obj 140 89 random 100;
#X obj 220 69 metro;
#X obj 220 89 random 100;
#X obj 60 69 metro 50;
#X obj 60 149 /;
#X obj 140 149 /;
#X obj 220 149 /;
#X obj 60 199 outlet;
#X obj 140 199 outlet;
#X obj 220 199 outlet;
#X obj 80 119 * 5;
#X obj 160 119 * 5;
#X obj 240 119 * 5;
#X obj 60 29 inlet;
#X connect 0 0 3 1;
#X connect 0 0 6 0;
#X connect 0 0 12 0;
#X connect 1 0 2 0;
#X connect 2 0 5 1;
#X connect 2 0 7 0;
#X connect 2 0 13 0;
#X connect 3 0 4 0;
#X connect 4 0 1 1;
#X connect 4 0 8 0;
#X connect 4 0 14 0;
#X connect 5 0 0 0;
#X connect 6 0 9 0;
#X connect 7 0 10 0;
#X connect 8 0 11 0;
#X connect 12 0 8 1;
#X connect 13 0 6 1;
#X connect 14 0 7 1;
#X connect 15 0 5 0;
#X connect 15 0 1 0;
#X connect 15 0 3 0;
#X restore 79 169 pd rand;
#X obj 33 300 part_render;
#X obj 168 75 hsl 60 15 200 2 0 0 empty empty empty -2 -8 0 10 -260097
-1 -1 0 1;
#X obj 245 75 bng 15 250 50 0 srotate empty empty 17 7 0 10 -258113
-1 -1;
#X text 165 180 amount;
#N canvas 501 142 450 300 rotate 0;
#X obj 111 111 f;
#X obj 137 111 + 1;
#X obj 111 91 metro 30;
#X obj 77 140 rotateXYZ;
#X obj 77 30 inlet;
#X obj 111 61 inlet;
#X obj 156 61 inlet;
#X obj 77 170 outlet;
#X msg 207 160 0;
#X obj 207 180 s stoprotate;
#X obj 207 140 r srotate;
#X connect 0 0 1 0;
#X connect 0 0 3 2;
#X connect 0 0 3 1;
#X connect 1 0 0 1;
#X connect 2 0 0 0;
#X connect 3 0 7 0;
#X connect 4 0 3 0;
#X connect 5 0 2 0;
#X connect 6 0 2 1;
#X connect 8 0 9 0;
#X connect 8 0 0 0;
#X connect 10 0 8 0;
#X restore 33 90 pd rotate;
#X text 165 94 speed;
#X msg 108 130 1;
#X obj 33 50 gemhead -2;
#X obj 165 222 tgl 15 0 empty empty empty 17 7 0 10 -4034 -1 -1 0 1
;
#X obj 168 258 hsl 90 15 0.01 1 0 0 empty empty empty -2 -8 0 10 -260097
-1 -1 0 1;
#X text 185 220 color;
#X text 164 240 saturation;
#N canvas 383 199 450 300 spread 0;
#X obj 57 220 part_velocity;
#X msg 132 70 symbol sphere;
#X obj 132 -10 loadbang;
#X obj 132 10 t b b;
#X obj 57 140 part_source 1;
#X msg 132 180 symbol sphere;
#X msg 132 120 0 0 0 0 \$1;
#X msg 132 200 0 0 0 0 \$1;
#X msg 159 30 0;
#X obj 57 -30 inlet;
#X obj 57 260 outlet;
#X obj 159 50 outlet;
#X obj 232 70 inlet;
#X connect 0 0 10 0;
#X connect 1 0 4 2;
#X connect 2 0 3 0;
#X connect 2 0 5 0;
#X connect 3 0 1 0;
#X connect 3 0 6 0;
#X connect 3 1 8 0;
#X connect 4 0 0 0;
#X connect 5 0 0 1;
#X connect 6 0 4 3;
#X connect 7 0 0 2;
#X connect 8 0 11 0;
#X connect 9 0 4 0;
#X connect 12 0 6 0;
#X connect 12 0 7 0;
#X restore 33 240 pd spread;
#X obj 33 410 cnv 15 110 110 empty stoprotate empty 20 12 0 14 -191407
-66577 0;
#X obj 38 418 tgl 15 0 empty empty empty 17 7 0 10 -4034 -1 -1 0 1
;
#X obj 41 458 hsl 90 15 1 4 0 0 empty empty empty -2 -8 0 10 -260097
-1 -1 0 1;
#X text 37 440 size;
#X obj 41 498 hsl 90 15 2 6 0 0 empty empty empty -2 -8 0 10 -260097
-1 -1 0 1;
#X text 37 480 segments;
#X obj 78 418 bng 15 250 50 0 empty empty empty 17 7 0 10 -258113 -1
-1;
#X obj 78 438 bng 15 250 50 0 empty empty empty 17 7 0 10 -258113 -1
-1;
#N canvas 672 135 450 300 sphere 0;
#X obj 49 157 sphere;
#X msg 162 85 draw line;
#X obj 49 127 spigot;
#X msg 182 126 draw fill;
#X obj 49 6 inlet;
#X obj 102 96 inlet;
#X obj 65 36 inlet;
#X obj 82 66 inlet;
#X obj 162 66 inlet;
#X obj 182 106 inlet;
#X connect 1 0 0 0;
#X connect 2 0 0 0;
#X connect 3 0 0 0;
#X connect 4 0 2 0;
#X connect 5 0 2 1;
#X connect 6 0 0 1;
#X connect 7 0 0 2;
#X connect 8 0 1 0;
#X connect 9 0 3 0;
#X restore 33 530 pd sphere;
#N canvas 670 141 450 300 cube___ 0;
#X msg 162 85 draw line;
#X obj 49 127 spigot;
#X msg 182 126 draw fill;
#X obj 49 6 inlet;
#X obj 102 96 inlet;
#X obj 65 36 inlet;
#X obj 162 66 inlet;
#X obj 182 106 inlet;
#X obj 49 157 cube;
#X connect 0 0 8 0;
#X connect 1 0 8 0;
#X connect 2 0 8 0;
#X connect 3 0 1 0;
#X connect 4 0 1 1;
#X connect 5 0 8 1;
#X connect 6 0 0 0;
#X connect 7 0 2 0;
#X restore 153 490 pd cube___;
#X obj 153 410 cnv 15 110 70 empty stoprotate empty 20 12 0 14 -191407
-66577 0;
#X obj 158 418 tgl 15 0 empty empty empty 17 7 0 10 -4034 -1 -1 0 1
;
#X obj 161 458 hsl 90 15 1 4 0 0 empty empty empty -2 -8 0 10 -260097
-1 -1 0 1;
#X text 157 440 size;
#X obj 198 418 bng 15 250 50 0 empty empty empty 17 7 0 10 -258113
-1 -1;
#X obj 198 438 bng 15 250 50 0 empty empty empty 17 7 0 10 -258113
-1 -1;
#X text 97 416 line;
#X text 217 416 line;
#X text 217 436 fill;
#X text 97 436 fill;
#X obj 83 -14 tgl 15 0 empty empty empty 17 7 0 10 -257985 -1 -1 0
1;
#X text 103 -15 lighting;
#N canvas 126 448 450 300 scoper 0;
#X msg 319 203 draw line;
#X msg 339 243 draw fill;
#X msg 299 160 draw point;
#X obj 127 44 gemhead;
#X obj 127 68 rotateXYZ;
#X floatatom 185 45 5 0 0 0 - - -;
#X floatatom 199 147 5 0 10 0 - - -;
#X msg 199 163 width \$1;
#X obj 127 306 scopeXYZ~ 1024;
#X obj 219 284 osc~ 882;
#X obj 219 263 osc~ 221;
#X obj 219 240 osc~ 40;
#X msg 150 121 length \$1;
#X obj 219 220 inlet;
#X obj 150 101 inlet;
#X obj 127 24 inlet;
#X obj 299 140 inlet;
#X obj 319 183 inlet;
#X obj 339 223 inlet;
#X obj 127 198 translateXYZ;
#X floatatom 255 78 5 0 0 0 - - -;
#X connect 0 0 8 0;
#X connect 1 0 8 0;
#X connect 2 0 8 0;
#X connect 3 0 4 0;
#X connect 4 0 19 0;
#X connect 5 0 4 1;
#X connect 5 0 4 3;
#X connect 6 0 7 0;
#X connect 7 0 8 0;
#X connect 9 0 8 3;
#X connect 10 0 8 2;
#X connect 11 0 8 1;
#X connect 12 0 8 0;
#X connect 13 0 11 0;
#X connect 14 0 12 0;
#X connect 15 0 3 0;
#X connect 16 0 2 0;
#X connect 17 0 0 0;
#X connect 18 0 1 0;
#X connect 19 0 8 0;
#X connect 20 0 19 3;
#X restore 393 556 pd scoper;
#X obj 273 410 cnv 15 110 110 empty stoprotate empty 20 12 0 14 -191407
-66577 0;
#X obj 278 418 tgl 15 0 empty empty empty 17 7 0 10 -4034 -1 -1 0 1
;
#X obj 281 458 hsl 90 15 0.1 4 0 0 empty empty empty -2 -8 0 10 -260097
-1 -1 0 1;
#X text 277 440 size;
#X obj 281 498 hsl 90 15 2 6 0 0 empty empty empty -2 -8 0 10 -260097
-1 -1 0 1;
#X text 277 480 segments;
#X obj 318 418 bng 15 250 50 0 empty empty empty 17 7 0 10 -258113
-1 -1;
#X obj 318 438 bng 15 250 50 0 empty empty empty 17 7 0 10 -258113
-1 -1;
#X text 337 416 line;
#X text 337 436 fill;
#N canvas 662 165 450 300 cone____ 0;
#X msg 162 85 draw line;
#X obj 49 127 spigot;
#X msg 182 126 draw fill;
#X obj 49 6 inlet;
#X obj 102 96 inlet;
#X obj 65 36 inlet;
#X obj 82 66 inlet;
#X obj 162 66 inlet;
#X obj 182 106 inlet;
#X obj 49 207 cone;
#X connect 0 0 9 0;
#X connect 1 0 9 0;
#X connect 2 0 9 0;
#X connect 3 0 1 0;
#X connect 4 0 1 1;
#X connect 5 0 9 1;
#X connect 6 0 9 2;
#X connect 7 0 0 0;
#X connect 8 0 2 0;
#X restore 273 530 pd cone____;
#X obj 393 410 cnv 15 110 140 empty stoprotate empty 20 12 0 14 -191407
-66577 0;
#X obj 398 418 tgl 15 0 empty empty empty 17 7 0 10 -4034 -1 -1 0 1
;
#X obj 401 488 hsl 90 15 1 50 0 0 empty empty empty -2 -8 0 10 -260097
-1 -1 0 1;
#X obj 401 528 hsl 90 15 1 1000 0 0 empty empty empty -2 -8 0 10 -260097
-1 -1 0 1;
#X obj 438 418 bng 15 250 50 0 srotate empty empty 17 7 0 10 -258113
-1 -1;
#X obj 438 438 bng 15 250 50 0 empty empty empty 17 7 0 10 -258113
-1 -1;
#X text 457 416 line;
#X text 457 436 fill;
#X text 397 470 wave;
#X text 397 510 length;
#X obj 438 458 bng 15 250 50 0 empty empty empty 17 7 0 10 -258113
-1 -1;
#X text 457 456 point;
#X obj 564 103 gemhead;
#X obj 283 60 part_head;
#X obj 410 50 cnv 15 110 230 empty stoprotate empty 20 12 0 14 -191407
-66577 0;
#X obj 418 155 hsl 90 15 0 1.5 0 0 empty empty empty -2 -8 0 10 -260097
-1 -1 0 1;
#X obj 415 55 tgl 15 0 empty stoprotate empty 17 7 0 10 -4034 -1 -1
0 1;
#X text 415 134 spread;
#X text 435 54 rotate;
#X obj 298 20 loadbang;
#X obj 418 115 hsl 90 15 0 5 0 0 empty empty empty -2 -8 0 10 -260097
-1 -1 1780 1;
#X msg 298 40 speed \$1;
#X obj 283 270 part_killold 10;
#X obj 418 198 hsl 90 15 1 50 0 0 empty empty empty -2 -8 0 10 -260097
-1 -1 0 1;
#X obj 283 120 part_targetcolor;
#X obj 329 100 pack f f f f;
#N canvas 129 154 450 300 rand 0;
#X obj 60 89 random 100;
#X obj 140 69 metro;
#X obj 140 89 random 100;
#X obj 220 69 metro;
#X obj 220 89 random 100;
#X obj 60 69 metro 50;
#X obj 60 149 /;
#X obj 140 149 /;
#X obj 220 149 /;
#X obj 60 199 outlet;
#X obj 140 199 outlet;
#X obj 220 199 outlet;
#X obj 80 119 * 5;
#X obj 160 119 * 5;
#X obj 240 119 * 5;
#X obj 60 29 inlet;
#X connect 0 0 3 1;
#X connect 0 0 6 0;
#X connect 0 0 12 0;
#X connect 1 0 2 0;
#X connect 2 0 5 1;
#X connect 2 0 7 0;
#X connect 2 0 13 0;
#X connect 3 0 4 0;
#X connect 4 0 1 1;
#X connect 4 0 8 0;
#X connect 4 0 14 0;
#X connect 5 0 0 0;
#X connect 6 0 9 0;
#X connect 7 0 10 0;
#X connect 8 0 11 0;
#X connect 12 0 8 1;
#X connect 13 0 6 1;
#X connect 14 0 7 1;
#X connect 15 0 5 0;
#X connect 15 0 1 0;
#X connect 15 0 3 0;
#X restore 329 79 pd rand;
#X obj 283 300 part_render;
#X obj 418 75 hsl 60 15 200 2 0 0 empty empty empty -2 -8 0 10 -260097
-1 -1 0 1;
#X obj 495 75 bng 15 250 50 0 srotate empty empty 17 7 0 10 -258113
-1 -1;
#X text 415 180 amount;
#N canvas 501 142 450 300 rotate 0;
#X obj 111 111 f;
#X obj 137 111 + 1;
#X obj 111 91 metro 30;
#X obj 77 140 rotateXYZ;
#X obj 77 30 inlet;
#X obj 111 61 inlet;
#X obj 156 61 inlet;
#X obj 77 170 outlet;
#X msg 207 160 0;
#X obj 207 180 s stoprotate;
#X obj 207 140 r srotate;
#X connect 0 0 1 0;
#X connect 0 0 3 2;
#X connect 0 0 3 1;
#X connect 1 0 0 1;
#X connect 2 0 0 0;
#X connect 3 0 7 0;
#X connect 4 0 3 0;
#X connect 5 0 2 0;
#X connect 6 0 2 1;
#X connect 8 0 9 0;
#X connect 8 0 0 0;
#X connect 10 0 8 0;
#X restore 283 0 pd rotate;
#X text 415 94 speed;
#X msg 358 40 1;
#X obj 283 -40 gemhead -2;
#X obj 415 222 tgl 15 0 empty empty empty 17 7 0 10 -4034 -1 -1 0 1
;
#X obj 418 258 hsl 90 15 0.01 1 0 0 empty empty empty -2 -8 0 10 -260097
-1 -1 0 1;
#X text 435 220 color;
#X text 414 240 saturation;
#N canvas 136 89 450 300 spread 1;
#X obj 57 220 part_velocity;
#X obj 57 140 part_source 1;
#X obj 57 -30 inlet;
#X obj 57 260 outlet;
#X obj 256 147 inlet;
#X msg 132 70 symbol line;
#X msg 132 120 0 0 -10 0 0 -10;
#X msg 122 170 symbol sphere;
#X msg 132 200 0 0 10 1 1;
#X obj 201 24 loadbang;
#X connect 0 0 3 0;
#X connect 1 0 0 0;
#X connect 2 0 1 0;
#X connect 4 0 8 0;
#X connect 5 0 1 2;
#X connect 6 0 1 3;
#X connect 7 0 0 1;
#X connect 8 0 0 2;
#X connect 9 0 5 0;
#X connect 9 0 6 0;
#X connect 9 0 7 0;
#X connect 9 0 8 0;
#X restore 283 240 pd spread;
#X msg 475 295 draw line;
#X msg 475 316 draw fill;
#X msg 475 338 draw point;
#X floatatom 554 302 5 0 0 1 R - -;
#X floatatom 566 322 3 0 0 1 segments - -;
#X floatatom 579 347 5 0 0 1 r - -;
#X obj 543 399 disk 1;
#X connect 0 0 3 0;
#X connect 1 0 3 2;
#X connect 2 0 3 1;
#X connect 9 0 20 0;
#X connect 11 0 35 1;
#X connect 12 0 27 1;
#X connect 15 0 17 0;
#X connect 15 0 29 0;
#X connect 16 0 17 0;
#X connect 17 0 9 0;
#X connect 18 0 23 0;
#X connect 19 0 18 1;
#X connect 20 0 35 0;
#X connect 21 0 20 1;
#X connect 22 0 21 0;
#X connect 22 1 21 1;
#X connect 22 2 21 2;
#X connect 23 0 44 0;
#X connect 23 0 45 0;
#X connect 23 0 69 0;
#X connect 24 0 27 2;
#X connect 27 0 9 0;
#X connect 29 0 16 0;
#X connect 30 0 27 0;
#X connect 31 0 22 0;
#X connect 32 0 20 2;
#X connect 35 0 18 0;
#X connect 35 1 11 0;
#X connect 37 0 44 3;
#X connect 38 0 44 1;
#X connect 40 0 44 2;
#X connect 42 0 44 4;
#X connect 43 0 44 5;
#X connect 47 0 45 2;
#X connect 48 0 45 1;
#X connect 50 0 45 3;
#X connect 51 0 45 4;
#X connect 56 0 3 3;
#X connect 60 0 69 3;
#X connect 61 0 69 1;
#X connect 63 0 69 2;
#X connect 65 0 69 4;
#X connect 66 0 69 5;
#X connect 71 0 58 0;
#X connect 72 0 58 2;
#X connect 73 0 58 1;
#X connect 74 0 58 4;
#X connect 75 0 58 5;
#X connect 80 0 58 3;
#X connect 83 0 94 0;
#X connect 85 0 109 1;
#X connect 86 0 101 1;
#X connect 89 0 91 0;
#X connect 89 0 103 0;
#X connect 90 0 91 0;
#X connect 91 0 83 0;
#X connect 92 0 97 0;
#X connect 93 0 92 1;
#X connect 94 0 109 0;
#X connect 95 0 94 1;
#X connect 96 0 95 0;
#X connect 96 1 95 1;
#X connect 96 2 95 2;
#X connect 97 0 116 0;
#X connect 98 0 101 2;
#X connect 101 0 83 0;
#X connect 103 0 90 0;
#X connect 104 0 101 0;
#X connect 105 0 96 0;
#X connect 106 0 94 2;
#X connect 109 0 92 0;
#X connect 110 0 116 0;
#X connect 111 0 116 0;
#X connect 112 0 116 0;
#X connect 113 0 116 1;
#X connect 114 0 116 2;
#X connect 115 0 116 3;
