#N canvas 66 54 1300 714 10;
#X declare -lib gridflow;
#X obj -1110 -126 # inv+ 255;
#X obj -1061 -149 tgl 15 0 empty empty empty 18 8 0 8 -261682 -1 -1
0 1;
#X obj -1110 -149 shunt;
#N canvas 442 437 450 300 color_wrapping 0;
#X obj -155 136 # %;
#X obj -154 179 # /;
#X obj -155 158 # * 255;
#X obj -219 111 shunt;
#X obj -219 75 inlet;
#X obj -148 75 inlet;
#X obj -218 218 outlet;
#X obj -133 106 inlet;
#X obj -116 127 inlet;
#X connect 0 0 2 1;
#X connect 1 0 6 0;
#X connect 2 0 1 1;
#X connect 3 0 6 0;
#X connect 3 1 0 1;
#X connect 4 0 3 1;
#X connect 5 0 3 2;
#X connect 7 0 0 2;
#X connect 8 0 1 2;
#X coords 0 0 1 1 30 160 0;
#X restore -1113 239 pd color_wrapping;
#X obj -1112 -43 tgl 15 0 empty empty colour_wrapping 18 7 0 8 -258113
-1 -1 0 1;
#X obj -1112 49 vsl 15 128 0 255 0 0 empty empty empty 0 -9 0 10 -258113
-1 -1 0 1;
#N canvas 501 216 450 300 posterize 0;
#X obj -164 149 #posterize;
#X obj -212 123 shunt;
#X obj -210 68 inlet;
#X obj -180 82 inlet;
#X obj -109 114 inlet;
#X obj -186 191 outlet;
#X connect 0 0 5 0;
#X connect 1 0 5 0;
#X connect 1 1 0 1;
#X connect 2 0 1 1;
#X connect 3 0 1 2;
#X connect 4 0 0 2;
#X restore -1113 262 pd posterize;
#X obj -1082 -20 tgl 15 0 empty empty posterise 18 8 0 8 -257985 -1
-1 0 1;
#X obj -1082 49 vsl 15 128 0 8 0 0 empty empty empty 0 -9 0 10 -257985
-1 -1 0 1;
#N canvas 30 220 450 300 gamma 0;
#X obj 136 153 shunt;
#X obj 136 122 inlet;
#X obj 188 119 inlet;
#X obj 221 149 inlet;
#X obj 136 252 outlet;
#X obj 164 199 # - 0;
#X obj 162 227 #clip;
#X connect 0 0 4 0;
#X connect 0 1 5 1;
#X connect 1 0 0 1;
#X connect 2 0 0 2;
#X connect 3 0 5 2;
#X connect 5 0 6 1;
#X connect 6 0 4 0;
#X restore -999 216 pd gamma;
#X obj -708 5 tgl 15 0 empty empty fade 18 7 0 8 -4032 -1 -1 0 1;
#X obj -708 49 vsl 15 128 0 255 0 0 empty fadeout empty 0 -9 0 10 -4032
-1 -1 0 1;
#N canvas 373 285 450 300 redim 0;
#X obj -199 140 shunt;
#X obj -172 163 #redim;
#X msg -73 137 576 \$1 3;
#X obj -199 108 inlet;
#X obj -153 105 inlet;
#X obj -72 110 inlet;
#X obj -199 222 outlet;
#X obj -174 186 #scale_to (480 640);
#X connect 0 0 6 0;
#X connect 0 1 1 1;
#X connect 1 0 7 1;
#X connect 2 0 1 2;
#X connect 3 0 0 1;
#X connect 4 0 0 2;
#X connect 5 0 2 0;
#X connect 7 0 6 0;
#X restore -999 239 pd redim;
#X obj -956 26 tgl 15 0 empty empty redim 18 8 0 8 -159808 -1 -1 0
1;
#X obj -956 49 vsl 15 128 0 640 0 0 empty empty empty 0 -9 0 10 -159808
-1 -1 0 1;
#X obj -1113 216 r continue1;
#N canvas 6 198 450 300 rotate 0;
#X obj -13 37 #rotate;
#X obj -113 37 #remap_image;
#X obj -142 -7 shunt;
#X obj -139 73 outlet;
#X obj -142 -40 inlet;
#X obj -94 -41 inlet;
#X obj 25 0 inlet;
#X obj 99 28 f;
#X obj 103 56 pingpong 35999;
#X obj 117 -36 inlet;
#X floatatom 164 89 5 0 0 0 - - -;
#X obj 146 28 + 10;
#X obj 103 89 outlet;
#X obj 117 -11 metro 33.333;
#X obj 226 -1 inlet;
#X obj 196 28 inlet;
#X connect 0 0 1 2;
#X connect 1 0 3 0;
#X connect 1 1 0 1;
#X connect 2 0 3 0;
#X connect 2 1 1 1;
#X connect 4 0 2 1;
#X connect 5 0 2 2;
#X connect 6 0 0 2;
#X connect 7 0 8 1;
#X connect 7 0 10 0;
#X connect 7 0 11 0;
#X connect 8 0 12 0;
#X connect 9 0 13 0;
#X connect 11 0 7 1;
#X connect 13 0 7 0;
#X connect 14 0 11 1;
#X connect 15 0 8 1;
#X restore -999 262 pd rotate;
#X obj -820 49 vsl 15 128 0 35999 0 0 empty empty empty 0 -9 0 10 -204786
-1 -1 0 1;
#X obj -820 -38 tgl 15 0 empty empty rotate_start 17 7 0 8 -204786
-1 -1 0 1;
#X obj -820 -17 tgl 15 0 empty empty bounce 18 8 0 8 -204786 -1 -1
0 1;
#X floatatom -798 162 5 0 0 0 - - -;
#X msg -798 139 0;
#X obj -265 -55 #to_pdp;
#X msg -214 -32 create;
#X obj -265 -32 pdp_xv;
#X msg -214 -55 fullscreen;
#X obj -875 -149 tgl 15 0 empty video1 empty 0 -6 0 8 -261682 -1 -1
0 1;
#X obj -948 -149 shunt;
#X msg -798 93 18000;
#X obj -798 47 metro 100;
#X obj -798 26 tgl 15 0 empty empty random_rotation 17 7 0 8 -204786
-1 -1 0 1;
#X obj -798 70 random 36000;
#X text -1110 -104 negative;
#X text -1023 -109 nervous;
#X obj -94 -221 line;
#X obj -948 -126 #fade (16 8 4);
#X obj -1051 49 vsl 15 128 2 16 0 0 empty empty empty 0 -9 0 10 -4034
-1 -1 0 1;
#X text -948 -104 color fade;
#X obj -94 -198 s fadeout;
#X obj -686 93 line;
#X text -626 46 fade out;
#X text -626 66 fade in;
#N canvas 4 143 450 300 color 0;
#X obj -235 174 #clip;
#X obj -210 117 inlet;
#X obj -251 201 outlet;
#X obj -258 113 shunt;
#X obj -279 84 inlet;
#X obj -225 83 inlet;
#X obj -235 144 # + 0;
#X connect 0 0 2 0;
#X connect 1 0 6 2;
#X connect 3 0 2 0;
#X connect 3 1 6 1;
#X connect 4 0 3 1;
#X connect 5 0 3 2;
#X connect 6 0 0 1;
#X restore -999 285 pd color;
#X obj -564 89 #color;
#X obj -564 47 tgl 15 0 empty empty colourise 18 8 0 8 -191407 -262144
-1 0 1;
#X text -31 -268 fade out;
#X text -31 -248 fade in;
#X obj -706 -103 s continue1;
#N canvas 538 287 450 300 8bit 0;
#X obj 58 52 #scale_by;
#X obj 205 -22 t a a;
#X floatatom 127 113 5 0 0 0 - - -;
#X obj 58 0 #downscale_by \, smoothly;
#X obj 58 133 #posterize 2;
#X obj 29 163 outlet;
#X obj 29 -32 shunt;
#X obj 27 -66 inlet;
#X obj 76 -67 inlet;
#X obj 252 -82 inlet;
#X obj 126 87 inlet;
#X obj 205 -44 + 0;
#X connect 0 0 4 1;
#X connect 1 0 3 2;
#X connect 1 1 0 2;
#X connect 2 0 4 2;
#X connect 3 0 0 1;
#X connect 4 0 5 0;
#X connect 6 0 5 0;
#X connect 6 1 3 1;
#X connect 7 0 6 1;
#X connect 8 0 6 2;
#X connect 9 0 11 0;
#X connect 10 0 2 0;
#X connect 11 0 1 0;
#X restore -1113 285 pd 8bit;
#X obj -1051 5 tgl 15 0 empty video1 8_bit 17 8 0 8 -4034 -1 -1 0 1
;
#X msg -798 116 9000;
#X obj -751 -126 tgl 15 0 empty empty empty 0 -6 0 8 -261682 -1 -1
0 1;
#X obj -769 -149 tgl 15 0 empty empty empty 0 -6 0 8 -261682 -1 -1
0 1;
#X obj -843 -103 hradio 15 1 0 4 empty empty empty 0 -6 0 8 -261682
-1 -1 0;
#N canvas 352 214 480 500 sort_me_out 0;
#X obj 196 295 # * 255;
#X obj 117 472 outlet;
#X obj 192 9 inlet;
#X obj 235 257 # / 2;
#X obj 17 343 # +;
#X obj 44 9 inlet;
#X obj 331 277 # - 1;
#X obj 17 362 #store;
#X obj 17 82 #grade;
#X obj 44 120 #grade;
#X obj 156 9 inlet;
#X text 271 108 extract width;
#X obj 17 286 #finished;
#X obj 283 277 # * 255;
#X obj 17 63 #fold +;
#X obj 17 150 shunt 4;
#X obj 117 399 shunt 4;
#X msg 235 106 \$2;
#X obj 211 45 #dim;
#X obj 44 28 t a a;
#X msg 186 107 \$1 \$2;
#X obj 211 64 #to_list;
#X obj 17 180 t a a;
#X obj 44 343 #outer & (0 -1);
#X obj 17 305 #for (0 0) (240 320);
#X obj 17 101 shunt;
#X obj 283 296 # / 320;
#X obj 17 324 # * (1 0);
#X obj 283 335 #outer ignore (3 #);
#X obj 196 276 # < 160;
#X obj 130 434 # avg;
#X connect 0 0 28 1;
#X connect 2 0 25 2;
#X connect 3 0 29 2;
#X connect 4 0 7 1;
#X connect 5 0 19 0;
#X connect 6 0 26 2;
#X connect 7 0 16 1;
#X connect 8 0 25 1;
#X connect 9 0 15 1;
#X connect 10 0 15 2;
#X connect 10 0 16 2;
#X connect 12 0 24 1;
#X connect 13 0 26 1;
#X connect 14 0 8 1;
#X connect 15 0 22 0;
#X connect 15 1 22 0;
#X connect 15 2 29 1;
#X connect 15 3 13 1;
#X connect 16 0 1 0;
#X connect 16 1 30 1;
#X connect 17 0 3 1;
#X connect 17 0 6 1;
#X connect 18 0 21 1;
#X connect 19 0 14 1;
#X connect 19 1 7 2;
#X connect 19 1 18 1;
#X connect 19 1 30 2;
#X connect 20 0 24 2;
#X connect 21 0 17 0;
#X connect 21 0 20 0;
#X connect 22 0 12 1;
#X connect 22 1 23 1;
#X connect 23 0 4 2;
#X connect 24 0 27 1;
#X connect 25 0 15 1;
#X connect 25 1 9 1;
#X connect 26 0 28 1;
#X connect 27 0 4 1;
#X connect 28 0 1 0;
#X connect 29 0 0 1;
#X connect 30 0 1 0;
#X restore -843 -126 pd sort_me_out;
#X obj -843 -149 shunt;
#X msg -1030 163 20;
#X msg -1030 85 8;
#X msg -1030 140 16;
#X msg -1030 108 10;
#X msg -1030 62 4;
#X obj -561 68 hsl 128 15 0 127 0 0 empty empty empty -2 -8 0 10 -260097
-1 -1 0 1;
#N canvas 650 187 450 300 randomcolor 0;
#X obj 88 84 random 255;
#X obj 164 84 random 255;
#X obj 245 83 random 255;
#X obj 87 38 metro 100;
#X obj 90 60 t b b b;
#X obj 93 152 outlet;
#X obj 92 14 inlet;
#X obj 91 113 #pack 3;
#X floatatom 168 142 5 0 0 0 - - -;
#X floatatom 212 142 5 0 0 0 - - -;
#X floatatom 252 142 5 0 0 0 - - -;
#X obj 138 13 inlet;
#X connect 0 0 7 1;
#X connect 0 0 8 0;
#X connect 1 0 7 2;
#X connect 1 0 9 0;
#X connect 2 0 7 3;
#X connect 2 0 10 0;
#X connect 3 0 4 0;
#X connect 4 0 0 0;
#X connect 4 1 1 0;
#X connect 4 2 2 0;
#X connect 6 0 3 0;
#X connect 7 0 5 0;
#X connect 11 0 3 1;
#X restore -473 46 pd randomcolor;
#X obj -473 25 tgl 15 0 empty empty empty 17 7 0 10 -262144 -1 -1 0
1;
#X msg -380 70 100;
#X msg -380 93 300;
#X msg -380 116 500;
#X msg -380 47 10;
#X msg -380 139 1000;
#X msg -94 -244 0 2000;
#X obj -1109 -359 openpanel;
#X msg -1109 -336 open \$1;
#X obj -1109 -380 bng 15 250 50 0 empty empty open 17 7 0 10 -159808
-1 -1;
#X obj -1109 -488 tgl 30 0 empty empty start 35 15 0 10 -258113 -1
-1 0 1;
#X msg -1109 -403 1;
#X msg -1005 -403 2;
#X msg -903 -403 3;
#X obj -1005 -359 openpanel;
#X msg -1005 -336 open \$1;
#X obj -1005 -380 bng 15 250 50 0 empty empty open 17 7 0 10 -159808
-1 -1;
#X obj -903 -359 openpanel;
#X msg -903 -336 open \$1;
#X obj -903 -380 bng 15 250 50 0 empty empty open 17 7 0 10 -159808
-1 -1;
#X msg -801 -403 4;
#X obj -801 -359 openpanel;
#X msg -801 -336 open \$1;
#X obj -801 -380 bng 15 250 50 0 empty empty open 17 7 0 10 -159808
-1 -1;
#X obj -1109 -313 #in;
#X obj -1005 -313 #in;
#X obj -903 -313 #in;
#X obj -801 -313 #in;
#X obj -1109 -290 #downscale_by 8;
#X obj -1005 -290 #downscale_by 8;
#X obj -903 -290 #downscale_by 8;
#X obj -801 -290 #downscale_by 8;
#X obj -1110 -267 #see;
#X obj -1005 -267 #see;
#X obj -903 -267 #see;
#X obj -801 -267 #see;
#X obj -700 -359 openpanel;
#X msg -700 -336 open \$1;
#X obj -700 -380 bng 15 250 50 0 empty empty open 17 7 0 10 -159808
-1 -1;
#X obj -700 -313 #in;
#X obj -700 -290 #downscale_by 8;
#X obj -700 -267 #see;
#X obj -598 -359 openpanel;
#X msg -598 -336 open \$1;
#X obj -598 -380 bng 15 250 50 0 empty empty open 17 7 0 10 -159808
-1 -1;
#X obj -598 -313 #in;
#X obj -598 -290 #downscale_by 8;
#X obj -598 -267 #see;
#X obj -1110 -172 switch 7;
#X msg -700 -403 5;
#X msg -598 -403 6;
#X msg -497 -403 7;
#X obj -1109 -450 metro 33.333;
#X obj -497 -359 openpanel;
#X msg -497 -336 open \$1;
#X obj -497 -380 bng 15 250 50 0 empty empty open 17 7 0 10 -159808
-1 -1;
#X obj -497 -313 #in;
#X obj -497 -290 #downscale_by 8;
#X obj -497 -267 #see;
#X obj -1110 -193 gate 7;
#X obj -265 -122 #out;
#X obj -265 -100 fps;
#X floatatom -264 -77 5 0 0 0 - - -;
#X obj -265 -267 #see;
#X msg -214 -81 destroy;
#X obj -265 -289 #downscale_by 4;
#X msg -94 -267 255 10000;
#X obj -265 -310 r preview;
#X obj -999 318 s preview;
#X obj -403 -328 bng 15 250 50 0 empty empty empty 17 7 0 10 -262144
-1 -1;
#X obj -795 -498 metro 100;
#X obj -796 -517 tgl 15 0 empty empty empty 17 7 0 10 -262144 -1 -1
0 1;
#X obj -795 -456 + 1;
#X obj -834 -435 shunt 7;
#X obj -834 -453 bng 15 250 50 0 empty empty empty 17 7 0 10 -262144
-1 -1;
#X msg -593 -498 500;
#X msg -623 -498 250;
#X msg -653 -498 125;
#X obj -795 -476 count 7;
#X msg -683 -498 62;
#X msg -527 -498 2000;
#X obj -932 113 line;
#X obj -932 70 t b b;
#X obj -933 47 bng 15 250 50 0 empty empty empty 17 7 0 10 -262144
-1 -1;
#X msg -932 93 0 250;
#X obj -889 71 delay 250;
#X msg -889 93 640 250;
#X obj -976 -149 tgl 15 0 empty video1 empty 0 -6 0 8 -261682 -1 -1
0 1;
#X obj -1026 -149 metro;
#X obj -1026 -125 random 400;
#X msg -713 -498 31;
#N canvas 565 136 450 300 greyscale 0;
#X obj -227 -43 #rgb_to_greyscale;
#X obj -227 -19 #greyscale_to_rgb;
#X obj -245 -78 inlet;
#X obj -241 7 outlet;
#X connect 0 0 1 1;
#X connect 1 0 3 0;
#X connect 2 0 0 1;
#X restore -706 -126 pd greyscale;
#X obj -707 -149 shunt;
#X obj -645 -149 tgl 15 0 empty empty empty 0 -6 0 8 -261682 -1 -1
0 1;
#X obj -731 -336 bng 15 250 50 0 empty empty empty 17 7 0 10 -258113
-1 -1;
#X obj -631 -336 bng 15 250 50 0 empty empty empty 17 7 0 10 -258113
-1 -1;
#X obj -531 -336 bng 15 250 50 0 empty empty empty 17 7 0 10 -258113
-1 -1;
#X obj -431 -336 bng 15 250 50 0 empty empty empty 17 7 0 10 -258113
-1 -1;
#X obj -833 -336 bng 15 250 50 0 empty empty empty 17 7 0 10 -258113
-1 -1;
#X obj -936 -336 bng 15 250 50 0 empty empty empty 17 7 0 10 -258113
-1 -1;
#X obj -1039 -336 bng 15 250 50 0 empty empty empty 17 7 0 10 -258113
-1 -1;
#X msg -686 47 255 5000;
#X msg -687 70 0 2000;
#X msg -563 -498 700;
#X obj -80 -328 import gridflow;
#X connect 0 0 27 1;
#X connect 1 0 2 2;
#X connect 2 0 27 1;
#X connect 2 1 0 1;
#X connect 3 0 6 0;
#X connect 4 0 3 1;
#X connect 5 0 3 2;
#X connect 5 0 3 3;
#X connect 6 0 48 0;
#X connect 7 0 6 1;
#X connect 8 0 6 2;
#X connect 9 0 12 0;
#X connect 10 0 9 1;
#X connect 11 0 9 2;
#X connect 12 0 16 0;
#X connect 13 0 12 1;
#X connect 14 0 12 2;
#X connect 15 0 3 0;
#X connect 16 0 42 0;
#X connect 16 1 17 0;
#X connect 17 0 16 2;
#X connect 18 0 16 1;
#X connect 19 0 16 3;
#X connect 20 0 16 5;
#X connect 21 0 16 4;
#X connect 22 0 24 0;
#X connect 23 0 24 0;
#X connect 25 0 24 0;
#X connect 26 0 27 2;
#X connect 27 0 55 1;
#X connect 27 1 35 1;
#X connect 28 0 16 4;
#X connect 29 0 31 0;
#X connect 30 0 29 0;
#X connect 31 0 17 0;
#X connect 34 0 38 0;
#X connect 35 0 55 1;
#X connect 36 0 48 2;
#X connect 39 0 11 0;
#X connect 42 0 131 0;
#X connect 43 0 42 2;
#X connect 44 0 42 1;
#X connect 48 0 9 0;
#X connect 49 0 48 1;
#X connect 50 0 16 4;
#X connect 51 0 54 2;
#X connect 52 0 55 2;
#X connect 53 0 54 1;
#X connect 54 0 155 1;
#X connect 55 0 155 1;
#X connect 55 1 54 0;
#X connect 56 0 48 3;
#X connect 57 0 48 3;
#X connect 58 0 48 3;
#X connect 59 0 48 3;
#X connect 60 0 48 3;
#X connect 61 0 42 2;
#X connect 62 0 43 1;
#X connect 63 0 62 0;
#X connect 64 0 62 1;
#X connect 65 0 62 1;
#X connect 66 0 62 1;
#X connect 67 0 62 1;
#X connect 68 0 62 1;
#X connect 69 0 34 0;
#X connect 70 0 71 0;
#X connect 71 0 87 1;
#X connect 71 0 163 0;
#X connect 72 0 70 0;
#X connect 73 0 115 0;
#X connect 74 0 111 0;
#X connect 74 0 122 0;
#X connect 75 0 111 0;
#X connect 75 0 122 0;
#X connect 76 0 111 0;
#X connect 76 0 122 0;
#X connect 77 0 78 0;
#X connect 78 0 88 1;
#X connect 78 0 162 0;
#X connect 79 0 77 0;
#X connect 80 0 81 0;
#X connect 81 0 89 1;
#X connect 81 0 161 0;
#X connect 82 0 80 0;
#X connect 83 0 111 0;
#X connect 83 0 122 0;
#X connect 84 0 85 0;
#X connect 85 0 90 1;
#X connect 85 0 157 0;
#X connect 86 0 84 0;
#X connect 87 0 91 1;
#X connect 87 0 111 1;
#X connect 88 0 92 1;
#X connect 88 0 111 2;
#X connect 89 0 93 1;
#X connect 89 0 111 3;
#X connect 90 0 94 1;
#X connect 90 0 111 4;
#X connect 91 0 95 1;
#X connect 92 0 96 1;
#X connect 93 0 97 1;
#X connect 94 0 98 1;
#X connect 99 0 100 0;
#X connect 100 0 102 1;
#X connect 100 0 158 0;
#X connect 101 0 99 0;
#X connect 102 0 103 1;
#X connect 102 0 111 5;
#X connect 103 0 104 1;
#X connect 105 0 106 0;
#X connect 106 0 108 1;
#X connect 106 0 159 0;
#X connect 107 0 105 0;
#X connect 108 0 109 1;
#X connect 108 0 111 6;
#X connect 109 0 110 1;
#X connect 111 0 2 1;
#X connect 112 0 111 0;
#X connect 112 0 122 0;
#X connect 113 0 111 0;
#X connect 113 0 122 0;
#X connect 114 0 111 0;
#X connect 114 0 122 0;
#X connect 115 0 122 1;
#X connect 116 0 117 0;
#X connect 117 0 119 1;
#X connect 117 0 160 0;
#X connect 118 0 116 0;
#X connect 119 0 120 1;
#X connect 119 0 111 7;
#X connect 120 0 121 1;
#X connect 122 0 87 1;
#X connect 122 1 88 1;
#X connect 122 2 89 1;
#X connect 122 3 90 1;
#X connect 122 4 102 1;
#X connect 122 5 108 1;
#X connect 122 6 119 1;
#X connect 123 0 124 1;
#X connect 124 0 125 0;
#X connect 127 0 24 0;
#X connect 128 0 126 1;
#X connect 129 0 34 0;
#X connect 130 0 128 1;
#X connect 130 0 123 1;
#X connect 130 0 22 1;
#X connect 132 0 119 1;
#X connect 132 0 108 1;
#X connect 132 0 102 1;
#X connect 132 0 90 1;
#X connect 132 0 89 1;
#X connect 132 0 88 1;
#X connect 132 0 87 1;
#X connect 133 0 137 0;
#X connect 133 0 141 0;
#X connect 134 0 133 0;
#X connect 135 0 136 2;
#X connect 136 0 74 0;
#X connect 136 1 75 0;
#X connect 136 2 76 0;
#X connect 136 3 83 0;
#X connect 136 4 112 0;
#X connect 136 5 113 0;
#X connect 136 6 114 0;
#X connect 137 0 136 1;
#X connect 138 0 133 1;
#X connect 139 0 133 1;
#X connect 140 0 133 1;
#X connect 141 0 135 0;
#X connect 142 0 133 1;
#X connect 143 0 133 1;
#X connect 144 0 14 0;
#X connect 145 0 147 0;
#X connect 145 1 148 0;
#X connect 146 0 145 0;
#X connect 147 0 144 0;
#X connect 148 0 149 0;
#X connect 149 0 144 0;
#X connect 150 0 151 0;
#X connect 151 0 152 0;
#X connect 152 0 151 1;
#X connect 152 0 122 1;
#X connect 153 0 133 1;
#X connect 154 0 47 0;
#X connect 155 0 47 0;
#X connect 155 1 154 0;
#X connect 156 0 155 2;
#X connect 157 0 90 1;
#X connect 158 0 102 1;
#X connect 159 0 108 1;
#X connect 160 0 119 1;
#X connect 161 0 89 1;
#X connect 162 0 88 1;
#X connect 163 0 87 1;
#X connect 164 0 39 0;
#X connect 165 0 39 0;
#X connect 166 0 133 1;
