#N canvas 1 56 1313 668 10;
#X obj 122 409 pix_mix;
#X obj 111 5 hsl 128 40 0 1 0 0 empty empty mix_baby! 0 -20 0 20 -260097
-1 -1 12700 1;
#X obj -199 400 #to_pix;
#X obj 189 540 #from_pix \, colorspace rgb;
#X obj -289 -238 tgl 30 0 empty empty start_2 35 15 0 10 -260097 -1
-1 1 1;
#X obj -199 339 metro 33.33;
#X obj -199 424 shunt;
#X obj -199 469 pix_puzzle;
#X obj -151 -49 tgl 30 0 empty empty glitch! 35 12 0 10 -258113 -1
-1 0 1;
#X msg -199 443 size 80 60;
#X obj 240 596 #to_pdp;
#X msg 291 619 create;
#X obj 240 619 pdp_xv;
#X msg 291 596 fullscreen;
#X msg 291 570 destroy;
#X obj -477 570 # inv+ 255;
#X obj -428 547 tgl 15 0 empty empty empty 18 8 0 8 -261682 -1 -1 0
1;
#X obj -477 547 shunt;
#X obj -242 547 tgl 15 0 empty video1 empty 0 -6 0 8 -261682 -1 -1
0 1;
#X obj -315 547 shunt;
#X text -477 592 negative;
#X text -390 587 nervous;
#X obj -315 570 #fade (16 8 4);
#X text -315 592 color fade;
#X obj -118 570 tgl 15 0 empty empty empty 0 -6 0 8 -261682 -1 -1 0
1;
#X obj -136 547 tgl 15 0 empty empty empty 0 -6 0 8 -261682 -1 -1 0
1;
#X obj -210 593 hradio 15 1 0 4 empty empty empty 0 -6 0 8 -261682
-1 -1 0;
#N canvas 352 214 480 500 sort_me_out 0;
#X obj 196 295 # * 255;
#X obj 117 472 outlet;
#X obj 192 9 inlet;
#X obj 235 257 # / 2;
#X obj 17 343 # +;
#X obj 44 9 inlet;
#X obj 331 277 # - 1;
#X obj 17 362 #store;
#X obj 17 82 #grade;
#X obj 44 120 #grade;
#X obj 156 9 inlet;
#X text 271 108 extract width;
#X obj 17 286 #finished;
#X obj 283 277 # * 255;
#X obj 17 63 #fold +;
#X obj 17 150 shunt 4;
#X obj 117 399 shunt 4;
#X msg 235 106 \$2;
#X obj 211 45 #dim;
#X obj 44 28 t a a;
#X msg 186 107 \$1 \$2;
#X obj 211 64 #to_list;
#X obj 17 180 t a a;
#X obj 44 343 #outer & (0 -1);
#X obj 17 305 #for (0 0) (240 320);
#X obj 17 101 shunt;
#X obj 283 296 # / 320;
#X obj 17 324 # * (1 0);
#X obj 283 335 #outer ignore (3 #);
#X obj 196 276 # < 160;
#X obj 130 434 # avg;
#X connect 0 0 28 0;
#X connect 2 0 25 1;
#X connect 3 0 29 1;
#X connect 4 0 7 0;
#X connect 5 0 19 0;
#X connect 6 0 26 1;
#X connect 7 0 16 0;
#X connect 8 0 25 0;
#X connect 9 0 15 0;
#X connect 10 0 15 1;
#X connect 10 0 16 1;
#X connect 12 0 24 0;
#X connect 13 0 26 0;
#X connect 14 0 8 0;
#X connect 15 0 22 0;
#X connect 15 1 22 0;
#X connect 15 2 29 0;
#X connect 15 3 13 0;
#X connect 16 0 1 0;
#X connect 16 1 30 0;
#X connect 17 0 3 0;
#X connect 17 0 6 0;
#X connect 18 0 21 0;
#X connect 19 0 14 0;
#X connect 19 1 7 1;
#X connect 19 1 18 0;
#X connect 19 1 30 1;
#X connect 20 0 24 1;
#X connect 21 0 17 0;
#X connect 21 0 20 0;
#X connect 22 0 12 0;
#X connect 22 1 23 0;
#X connect 23 0 4 1;
#X connect 24 0 27 0;
#X connect 25 0 15 0;
#X connect 25 1 9 0;
#X connect 26 0 28 0;
#X connect 27 0 4 0;
#X connect 28 0 1 0;
#X connect 29 0 0 0;
#X connect 30 0 1 0;
#X restore -210 570 pd sort_me_out;
#X obj -210 547 shunt;
#X obj -477 -151 openpanel;
#X msg -388 -129 open \$1;
#X obj -477 -172 bng 15 250 50 0 empty empty open 17 7 0 10 -258113
-1 -1;
#X obj -406 -238 tgl 30 0 empty empty start 35 15 0 10 -258113 -1 -1
1 1;
#X msg -477 -195 1;
#X msg -477 -50 2;
#X msg -477 92 3;
#X obj -477 -6 openpanel;
#X msg -388 15 open \$1;
#X obj -477 -27 bng 15 250 50 0 empty empty open 17 7 0 10 -258113
-1 -1;
#X obj -477 136 openpanel;
#X msg -388 156 open \$1;
#X obj -477 115 bng 15 250 50 0 empty empty open 17 7 0 10 -258113
-1 -1;
#X msg -476 231 4;
#X obj -476 275 openpanel;
#X msg -387 296 open \$1;
#X obj -476 254 bng 15 250 50 0 empty empty open 17 7 0 10 -258113
-1 -1;
#X obj -388 -106 #in;
#X obj -388 38 #in;
#X obj -388 179 #in;
#X obj -387 319 #in;
#X obj -388 -83 #downscale_by 8;
#X obj -388 61 #downscale_by 8;
#X obj -388 202 #downscale_by 8;
#X obj -387 342 #downscale_by 8;
#X obj -478 -129 #see;
#X obj -477 16 #see;
#X obj -477 158 #see;
#X obj -476 297 #see;
#X obj -406 -200 metro 33.333;
#X obj -438 -283 metro 100;
#X obj -439 -302 tgl 15 0 empty empty empty 17 7 0 10 -262144 -1 -1
0 1;
#X obj -438 -241 + 1;
#X obj -477 -238 bng 15 250 50 0 empty empty empty 17 7 0 10 -262144
-1 -1;
#X msg -236 -283 500;
#X msg -266 -283 250;
#X msg -296 -283 125;
#X msg -326 -283 62;
#X msg -170 -283 2000;
#X obj -343 547 tgl 15 0 empty video1 empty 0 -6 0 8 -261682 -1 -1
0 1;
#X obj -393 547 metro;
#X obj -393 571 random 400;
#X msg -356 -283 31;
#N canvas 565 136 450 300 greyscale 0;
#X obj -227 -43 #rgb_to_greyscale;
#X obj -227 -19 #greyscale_to_rgb;
#X obj -245 -78 inlet;
#X obj -241 7 outlet;
#X connect 0 0 1 0;
#X connect 1 0 3 0;
#X connect 2 0 0 0;
#X restore -73 570 pd greyscale;
#X obj -74 547 shunt;
#X obj -12 547 tgl 15 0 empty empty empty 0 -6 0 8 -261682 -1 -1 0
1;
#X obj -317 296 bng 15 250 50 0 empty empty empty 17 7 0 10 -262144
-1 -1;
#X obj -318 156 bng 15 250 50 0 empty empty empty 17 7 0 10 -262144
-1 -1;
#X obj -319 15 bng 15 250 50 0 empty empty empty 17 7 0 10 -262144
-1 -1;
#X obj -318 -129 bng 15 250 50 0 empty empty empty 17 7 0 10 -262144
-1 -1;
#X msg -206 -283 700;
#X obj -476 494 gate 4;
#X obj -477 523 switch 4;
#X obj -477 -221 shunt 4;
#N canvas 30 220 450 300 gamma 0;
#X obj 136 153 shunt;
#X obj 136 122 inlet;
#X obj 188 119 inlet;
#X obj 221 149 inlet;
#X obj 136 252 outlet;
#X obj 164 199 # - 0;
#X obj 162 227 #clip;
#X connect 0 0 4 0;
#X connect 0 1 5 0;
#X connect 1 0 0 0;
#X connect 2 0 0 1;
#X connect 3 0 5 1;
#X connect 5 0 6 0;
#X connect 6 0 4 0;
#X restore -288 400 pd gamma;
#X obj -148 12 tgl 15 0 empty empty fade 18 7 0 8 -4032 -1 -1 1 1;
#X obj -148 36 vsl 15 128 0 255 0 0 empty fadeout empty 0 -9 0 10 -4032
-1 -1 12700 1;
#N canvas 373 285 450 300 redim 0;
#X obj -199 140 shunt;
#X obj -172 163 #redim;
#X msg -73 137 576 \$1 3;
#X obj -199 108 inlet;
#X obj -153 105 inlet;
#X obj -72 110 inlet;
#X obj -199 222 outlet;
#X obj -174 186 #scale_to (480 640);
#X connect 0 0 6 0;
#X connect 0 1 1 0;
#X connect 1 0 7 0;
#X connect 2 0 1 1;
#X connect 3 0 0 0;
#X connect 4 0 0 1;
#X connect 5 0 2 0;
#X connect 7 0 6 0;
#X restore -288 423 pd redim;
#X obj -289 12 tgl 15 0 empty empty redim 18 8 0 8 -159808 -1 -1 0
1;
#X obj -289 35 vsl 15 128 0 640 0 0 empty empty empty 0 -9 0 10 -159808
-1 -1 12700 1;
#X obj -230 -115 r continue1;
#N canvas 7 227 450 300 rotate 0;
#X obj -13 37 #rotate;
#X obj -113 37 #remap_image;
#X obj -142 -7 shunt;
#X obj -139 73 outlet;
#X obj -142 -40 inlet;
#X obj -94 -41 inlet;
#X obj 25 0 inlet;
#X obj 99 28 f;
#X obj 103 56 pingpong 35999;
#X obj 117 -36 inlet;
#X floatatom 164 89 5 0 0 0 - - -;
#X obj 146 28 + 10;
#X obj 103 89 outlet;
#X obj 117 -11 metro 33.333;
#X obj 226 -1 inlet;
#X obj 196 28 inlet;
#X connect 0 0 1 1;
#X connect 1 0 3 0;
#X connect 1 1 0 0;
#X connect 2 0 3 0;
#X connect 2 1 1 0;
#X connect 4 0 2 0;
#X connect 5 0 2 1;
#X connect 6 0 0 1;
#X connect 7 0 8 0;
#X connect 7 0 10 0;
#X connect 7 0 11 0;
#X connect 8 0 12 0;
#X connect 9 0 13 0;
#X connect 11 0 7 1;
#X connect 13 0 7 0;
#X connect 14 0 11 1;
#X connect 15 0 8 0;
#X restore -288 446 pd rotate;
#X obj -289 237 vsl 15 128 0 35999 0 0 empty empty empty 0 -9 0 10
-204786 -1 -1 0 1;
#X obj -289 176 tgl 15 0 empty empty rotate_start 17 7 0 8 -204786
-1 -1 0 1;
#X obj -289 197 tgl 15 0 empty empty bounce 18 8 0 8 -204786 -1 -1
0 1;
#X floatatom -267 350 5 0 0 0 - - -;
#X msg -267 327 0;
#X msg -267 281 18000;
#X obj -267 235 metro 100;
#X obj -267 214 tgl 15 0 empty empty random_rotation 17 7 0 8 -204786
-1 -1 0 1;
#X obj -267 258 random 36000;
#X obj -288 -127 vsl 15 128 2 16 0 0 empty empty empty 0 -9 0 10 -4034
-1 -1 0 1;
#X obj -126 80 line;
#X text -66 33 fade out;
#X text -65 55 fade in;
#N canvas 4 143 450 300 color 0;
#X obj -235 174 #clip;
#X obj -210 117 inlet;
#X obj -251 201 outlet;
#X obj -258 113 shunt;
#X obj -279 84 inlet;
#X obj -225 83 inlet;
#X obj -235 144 # + 0;
#X connect 0 0 2 0;
#X connect 1 0 6 1;
#X connect 3 0 2 0;
#X connect 3 1 6 0;
#X connect 4 0 3 0;
#X connect 5 0 3 1;
#X connect 6 0 0 0;
#X restore -288 469 pd color;
#X obj -476 427 #color;
#X obj -476 385 tgl 15 0 empty empty colourise 18 8 0 8 -191407 -262144
-1 0 1;
#N canvas 538 287 450 300 8bit 0;
#X obj 58 52 #scale_by;
#X obj 205 -22 t a a;
#X floatatom 127 113 5 0 0 0 - - -;
#X obj 58 0 #downscale_by \, smoothly;
#X obj 58 133 #posterize 2;
#X obj 29 163 outlet;
#X obj 29 -32 shunt;
#X obj 27 -66 inlet;
#X obj 76 -67 inlet;
#X obj 252 -82 inlet;
#X obj 126 87 inlet;
#X obj 205 -44 + 0;
#X connect 0 0 4 0;
#X connect 1 0 3 1;
#X connect 1 1 0 1;
#X connect 2 0 4 1;
#X connect 3 0 0 0;
#X connect 4 0 5 0;
#X connect 6 0 5 0;
#X connect 6 1 3 0;
#X connect 7 0 6 0;
#X connect 8 0 6 1;
#X connect 9 0 11 0;
#X connect 10 0 2 0;
#X connect 11 0 1 0;
#X restore -231 -85 pd 8bit;
#X obj -288 -171 tgl 15 0 empty video1 8_bit 17 8 0 8 -4034 -1 -1 0
1;
#X msg -267 304 9000;
#X msg -267 -13 20;
#X msg -267 -91 8;
#X msg -267 -36 16;
#X msg -267 -68 10;
#X msg -267 -114 4;
#X obj -473 406 hsl 128 15 0 127 0 0 empty empty empty -2 -8 0 10 -260097
-1 -1 0 1;
#N canvas 651 216 450 300 randomcolor 0;
#X obj 88 84 random 255;
#X obj 164 84 random 255;
#X obj 245 83 random 255;
#X obj 87 38 metro 100;
#X obj 90 60 t b b b;
#X obj 93 152 outlet;
#X obj 92 14 inlet;
#X obj 91 113 #pack 3;
#X floatatom 168 142 5 0 0 0 - - -;
#X floatatom 212 142 5 0 0 0 - - -;
#X floatatom 252 142 5 0 0 0 - - -;
#X obj 138 13 inlet;
#X connect 0 0 7 0;
#X connect 0 0 8 0;
#X connect 1 0 7 1;
#X connect 1 0 9 0;
#X connect 2 0 7 2;
#X connect 2 0 10 0;
#X connect 3 0 4 0;
#X connect 4 0 0 0;
#X connect 4 1 1 0;
#X connect 4 2 2 0;
#X connect 6 0 3 0;
#X connect 7 0 5 0;
#X connect 11 0 3 1;
#X restore -396 384 pd randomcolor;
#X obj -304 385 tgl 15 0 empty empty empty 17 7 0 10 -262144 -1 -1
0 1;
#X obj -265 99 line;
#X obj -265 56 t b b;
#X obj -266 33 bng 15 250 50 0 empty empty empty 17 7 0 10 -262144
-1 -1;
#X msg -265 79 0 250;
#X obj -222 57 delay 250;
#X msg -222 79 640 250;
#X msg -127 57 0 2000;
#X obj 20 604 s continue1;
#X obj 661 400 #to_pix;
#X obj 571 -238 tgl 30 0 empty empty start_2 35 15 0 10 -260097 -1
-1 1 1;
#X obj 661 339 metro 33.33;
#X obj 661 367 gemdead;
#X obj 661 424 shunt;
#X obj 661 469 pix_puzzle;
#X obj 709 -49 tgl 30 0 empty empty glitch! 35 12 0 10 -258113 -1 -1
1 1;
#X obj 383 570 # inv+ 255;
#X obj 432 547 tgl 15 0 empty empty empty 18 8 0 8 -261682 -1 -1 1
1;
#X obj 383 547 shunt;
#X obj 618 547 tgl 15 0 empty video1 empty 0 -6 0 8 -261682 -1 -1 0
1;
#X obj 545 547 shunt;
#X text 383 592 negative;
#X text 470 587 nervous;
#X obj 545 570 #fade (16 8 4);
#X text 545 592 color fade;
#X obj 742 570 tgl 15 0 empty empty empty 0 -6 0 8 -261682 -1 -1 0
1;
#X obj 724 547 tgl 15 0 empty empty empty 0 -6 0 8 -261682 -1 -1 0
1;
#X obj 650 593 hradio 15 1 0 4 empty empty empty 0 -6 0 8 -261682 -1
-1 0;
#N canvas 352 214 480 500 sort_me_out 0;
#X obj 196 295 # * 255;
#X obj 117 472 outlet;
#X obj 192 9 inlet;
#X obj 235 257 # / 2;
#X obj 17 343 # +;
#X obj 44 9 inlet;
#X obj 331 277 # - 1;
#X obj 17 362 #store;
#X obj 17 82 #grade;
#X obj 44 120 #grade;
#X obj 156 9 inlet;
#X text 271 108 extract width;
#X obj 17 286 #finished;
#X obj 283 277 # * 255;
#X obj 17 63 #fold +;
#X obj 17 150 shunt 4;
#X obj 117 399 shunt 4;
#X msg 235 106 \$2;
#X obj 211 45 #dim;
#X obj 44 28 t a a;
#X msg 186 107 \$1 \$2;
#X obj 211 64 #to_list;
#X obj 17 180 t a a;
#X obj 44 343 #outer & (0 -1);
#X obj 17 305 #for (0 0) (240 320);
#X obj 17 101 shunt;
#X obj 283 296 # / 320;
#X obj 17 324 # * (1 0);
#X obj 283 335 #outer ignore (3 #);
#X obj 196 276 # < 160;
#X obj 130 434 # avg;
#X connect 0 0 28 0;
#X connect 2 0 25 1;
#X connect 3 0 29 1;
#X connect 4 0 7 0;
#X connect 5 0 19 0;
#X connect 6 0 26 1;
#X connect 7 0 16 0;
#X connect 8 0 25 0;
#X connect 9 0 15 0;
#X connect 10 0 15 1;
#X connect 10 0 16 1;
#X connect 12 0 24 0;
#X connect 13 0 26 0;
#X connect 14 0 8 0;
#X connect 15 0 22 0;
#X connect 15 1 22 0;
#X connect 15 2 29 0;
#X connect 15 3 13 0;
#X connect 16 0 1 0;
#X connect 16 1 30 0;
#X connect 17 0 3 0;
#X connect 17 0 6 0;
#X connect 18 0 21 0;
#X connect 19 0 14 0;
#X connect 19 1 7 1;
#X connect 19 1 18 0;
#X connect 19 1 30 1;
#X connect 20 0 24 1;
#X connect 21 0 17 0;
#X connect 21 0 20 0;
#X connect 22 0 12 0;
#X connect 22 1 23 0;
#X connect 23 0 4 1;
#X connect 24 0 27 0;
#X connect 25 0 15 0;
#X connect 25 1 9 0;
#X connect 26 0 28 0;
#X connect 27 0 4 0;
#X connect 28 0 1 0;
#X connect 29 0 0 0;
#X connect 30 0 1 0;
#X restore 650 570 pd sort_me_out;
#X obj 650 547 shunt;
#X obj 383 -151 openpanel;
#X msg 472 -129 open \$1;
#X obj 383 -172 bng 15 250 50 0 empty empty open 17 7 0 10 -258113
-1 -1;
#X obj 454 -238 tgl 30 0 empty empty start 35 15 0 10 -258113 -1 -1
1 1;
#X msg 383 -195 1;
#X msg 383 -50 2;
#X msg 383 92 3;
#X obj 383 -6 openpanel;
#X msg 472 15 open \$1;
#X obj 383 -27 bng 15 250 50 0 empty empty open 17 7 0 10 -258113 -1
-1;
#X obj 383 136 openpanel;
#X msg 472 156 open \$1;
#X obj 383 115 bng 15 250 50 0 empty empty open 17 7 0 10 -258113 -1
-1;
#X msg 384 231 4;
#X obj 384 275 openpanel;
#X msg 473 296 open \$1;
#X obj 384 254 bng 15 250 50 0 empty empty open 17 7 0 10 -258113 -1
-1;
#X obj 472 -106 #in;
#X obj 472 38 #in;
#X obj 472 179 #in;
#X obj 473 319 #in;
#X obj 472 -83 #downscale_by 8;
#X obj 472 61 #downscale_by 8;
#X obj 472 202 #downscale_by 8;
#X obj 473 342 #downscale_by 8;
#X obj 382 -129 #see;
#X obj 383 16 #see;
#X obj 383 158 #see;
#X obj 384 297 #see;
#X obj 454 -200 metro 33.333;
#X obj 422 -283 metro 100;
#X obj 421 -302 tgl 15 0 empty empty empty 17 7 0 10 -262144 -1 -1
0 1;
#X obj 422 -241 + 1;
#X obj 383 -238 bng 15 250 50 0 empty empty empty 17 7 0 10 -262144
-1 -1;
#X msg 624 -283 500;
#X msg 594 -283 250;
#X msg 564 -283 125;
#X msg 534 -283 62;
#X msg 690 -283 2000;
#X obj 517 547 tgl 15 0 empty video1 empty 0 -6 0 8 -261682 -1 -1 1
1;
#X obj 467 547 metro;
#X obj 467 571 random 400;
#X msg 504 -283 31;
#N canvas 565 136 450 300 greyscale 0;
#X obj -227 -43 #rgb_to_greyscale;
#X obj -227 -19 #greyscale_to_rgb;
#X obj -245 -78 inlet;
#X obj -241 7 outlet;
#X connect 0 0 1 0;
#X connect 1 0 3 0;
#X connect 2 0 0 0;
#X restore 787 570 pd greyscale;
#X obj 786 547 shunt;
#X obj 848 547 tgl 15 0 empty empty empty 0 -6 0 8 -261682 -1 -1 0
1;
#X obj 543 296 bng 15 250 50 0 empty empty empty 17 7 0 10 -262144
-1 -1;
#X obj 542 156 bng 15 250 50 0 empty empty empty 17 7 0 10 -262144
-1 -1;
#X obj 541 15 bng 15 250 50 0 empty empty empty 17 7 0 10 -262144 -1
-1;
#X obj 542 -129 bng 15 250 50 0 empty empty empty 17 7 0 10 -262144
-1 -1;
#X msg 654 -283 700;
#X obj 384 494 gate 4;
#X obj 383 523 switch 4;
#X obj 383 -221 shunt 4;
#N canvas 30 220 450 300 gamma 0;
#X obj 136 153 shunt;
#X obj 136 122 inlet;
#X obj 188 119 inlet;
#X obj 221 149 inlet;
#X obj 136 252 outlet;
#X obj 164 199 # - 0;
#X obj 162 227 #clip;
#X connect 0 0 4 0;
#X connect 0 1 5 0;
#X connect 1 0 0 0;
#X connect 2 0 0 1;
#X connect 3 0 5 1;
#X connect 5 0 6 0;
#X connect 6 0 4 0;
#X restore 572 400 pd gamma;
#X obj 712 12 tgl 15 0 empty empty fade 18 7 0 8 -4032 -1 -1 1 1;
#X obj 712 36 vsl 15 128 0 255 0 0 empty fadeout empty 0 -9 0 10 -4032
-1 -1 12700 1;
#N canvas 373 285 450 300 redim 0;
#X obj -199 140 shunt;
#X obj -172 163 #redim;
#X msg -73 137 576 \$1 3;
#X obj -199 108 inlet;
#X obj -153 105 inlet;
#X obj -72 110 inlet;
#X obj -199 222 outlet;
#X obj -174 186 #scale_to (480 640);
#X connect 0 0 6 0;
#X connect 0 1 1 0;
#X connect 1 0 7 0;
#X connect 2 0 1 1;
#X connect 3 0 0 0;
#X connect 4 0 0 1;
#X connect 5 0 2 0;
#X connect 7 0 6 0;
#X restore 572 423 pd redim;
#X obj 571 12 tgl 15 0 empty empty redim 18 8 0 8 -159808 -1 -1 0 1
;
#X obj 571 35 vsl 15 128 0 640 0 0 empty empty empty 0 -9 0 10 -159808
-1 -1 12700 1;
#N canvas 6 198 450 300 rotate 0;
#X obj -13 37 #rotate;
#X obj -113 37 #remap_image;
#X obj -142 -7 shunt;
#X obj -139 73 outlet;
#X obj -142 -40 inlet;
#X obj -94 -41 inlet;
#X obj 25 0 inlet;
#X obj 99 28 f;
#X obj 103 56 pingpong 35999;
#X obj 117 -36 inlet;
#X floatatom 164 89 5 0 0 0 - - -;
#X obj 146 28 + 10;
#X obj 103 89 outlet;
#X obj 117 -11 metro 33.333;
#X obj 226 -1 inlet;
#X obj 196 28 inlet;
#X connect 0 0 1 1;
#X connect 1 0 3 0;
#X connect 1 1 0 0;
#X connect 2 0 3 0;
#X connect 2 1 1 0;
#X connect 4 0 2 0;
#X connect 5 0 2 1;
#X connect 6 0 0 1;
#X connect 7 0 8 0;
#X connect 7 0 10 0;
#X connect 7 0 11 0;
#X connect 8 0 12 0;
#X connect 9 0 13 0;
#X connect 11 0 7 1;
#X connect 13 0 7 0;
#X connect 14 0 11 1;
#X connect 15 0 8 0;
#X restore 572 446 pd rotate;
#X obj 571 237 vsl 15 128 0 35999 0 0 empty empty empty 0 -9 0 10 -204786
-1 -1 0 1;
#X obj 571 176 tgl 15 0 empty empty rotate_start 17 7 0 8 -204786 -1
-1 0 1;
#X obj 571 197 tgl 15 0 empty empty bounce 18 8 0 8 -204786 -1 -1 0
1;
#X floatatom 593 350 5 0 0 0 - - -;
#X msg 593 327 0;
#X msg 593 281 18000;
#X obj 593 235 metro 100;
#X obj 593 214 tgl 15 0 empty empty random_rotation 17 7 0 8 -204786
-1 -1 0 1;
#X obj 593 258 random 36000;
#X obj 572 -127 vsl 15 128 2 16 0 0 empty empty empty 0 -9 0 10 -4034
-1 -1 0 1;
#X obj 734 80 line;
#X text 794 33 fade out;
#X text 794 53 fade in;
#N canvas 4 143 450 300 color 0;
#X obj -235 174 #clip;
#X obj -210 117 inlet;
#X obj -251 201 outlet;
#X obj -258 113 shunt;
#X obj -279 84 inlet;
#X obj -225 83 inlet;
#X obj -235 144 # + 0;
#X connect 0 0 2 0;
#X connect 1 0 6 1;
#X connect 3 0 2 0;
#X connect 3 1 6 0;
#X connect 4 0 3 0;
#X connect 5 0 3 1;
#X connect 6 0 0 0;
#X restore 572 469 pd color;
#X obj 384 427 #color;
#X obj 384 385 tgl 15 0 empty empty colourise 18 8 0 8 -191407 -262144
-1 0 1;
#N canvas 538 287 450 300 8bit 0;
#X obj 58 52 #scale_by;
#X obj 205 -22 t a a;
#X floatatom 127 113 5 0 0 0 - - -;
#X obj 58 0 #downscale_by \, smoothly;
#X obj 58 133 #posterize 2;
#X obj 29 163 outlet;
#X obj 29 -32 shunt;
#X obj 27 -66 inlet;
#X obj 76 -67 inlet;
#X obj 252 -82 inlet;
#X obj 126 87 inlet;
#X obj 205 -44 + 0;
#X connect 0 0 4 0;
#X connect 1 0 3 1;
#X connect 1 1 0 1;
#X connect 2 0 4 1;
#X connect 3 0 0 0;
#X connect 4 0 5 0;
#X connect 6 0 5 0;
#X connect 6 1 3 0;
#X connect 7 0 6 0;
#X connect 8 0 6 1;
#X connect 9 0 11 0;
#X connect 10 0 2 0;
#X connect 11 0 1 0;
#X restore 629 -85 pd 8bit;
#X obj 572 -171 tgl 15 0 empty video1 8_bit 17 8 0 8 -4034 -1 -1 0
1;
#X msg 593 304 9000;
#X msg 593 -13 20;
#X msg 593 -91 8;
#X msg 593 -36 16;
#X msg 593 -68 10;
#X msg 593 -114 4;
#X obj 387 406 hsl 128 15 0 127 0 0 empty empty empty -2 -8 0 10 -260097
-1 -1 12400 1;
#N canvas 650 187 450 300 randomcolor 0;
#X obj 88 84 random 255;
#X obj 164 84 random 255;
#X obj 245 83 random 255;
#X obj 87 38 metro 100;
#X obj 90 60 t b b b;
#X obj 93 152 outlet;
#X obj 92 14 inlet;
#X obj 91 113 #pack 3;
#X floatatom 168 142 5 0 0 0 - - -;
#X floatatom 212 142 5 0 0 0 - - -;
#X floatatom 252 142 5 0 0 0 - - -;
#X obj 138 13 inlet;
#X connect 0 0 7 0;
#X connect 0 0 8 0;
#X connect 1 0 7 1;
#X connect 1 0 9 0;
#X connect 2 0 7 2;
#X connect 2 0 10 0;
#X connect 3 0 4 0;
#X connect 4 0 0 0;
#X connect 4 1 1 0;
#X connect 4 2 2 0;
#X connect 6 0 3 0;
#X connect 7 0 5 0;
#X connect 11 0 3 1;
#X restore 464 384 pd randomcolor;
#X obj 556 385 tgl 15 0 empty empty empty 17 7 0 10 -262144 -1 -1 0
1;
#X obj 595 99 line;
#X obj 595 56 t b b;
#X obj 594 33 bng 15 250 50 0 empty empty empty 17 7 0 10 -262144 -1
-1;
#X msg 595 79 0 250;
#X obj 638 57 delay 250;
#X msg 638 79 640 250;
#X msg 733 57 0 2000;
#X obj 630 -115 r continue2;
#X obj 116 -182 #downscale_by 5;
#X obj 116 -156 #see;
#X obj -199 367 gemdead;
#X msg 661 443 size 8 60;
#X obj 205 437 pix_multiply;
#X obj 79 353 shunt;
#X obj 248 349 shunt;
#X obj 70 55 tgl 30 0 empty empty multiply_baby! 35 15 0 20 -260097
-1 -1 1 1;
#X obj 30 546 shunt;
#X obj 87 547 tgl 15 0 empty empty empty 17 7 0 10 -262144 -1 -1 0
1;
#X obj 121 453 vsl 15 128 0 127 0 0 empty empty empty 0 -9 0 10 -262144
-1 -1 8600 1;
#X obj 51 574 # *;
#X obj 747 387 shunt;
#X obj 748 337 tgl 15 0 empty empty empty 17 7 0 10 -262144 -1 -1 0
1;
#X obj 769 239 vsl 15 128 0 127 0 0 empty empty empty 0 -9 0 10 -262144
-1 -1 4200 1;
#X obj 768 415 # *;
#X obj 737 445 s continue2;
#X msg 277 -2 close \$1;
#X msg -117 -121 close \$1;
#X obj 422 -261 count 4;
#X obj -438 -261 count 4;
#X msg -389 -7 close \$1;
#X msg -389 -153 close \$1;
#X msg -386 273 close \$1;
#X msg 472 270 close \$1;
#X msg -125 34 255 3000;
#X msg 734 34 255 3000;
#X msg 473 -156 close \$1;
#X obj -92 274 bng 15 250 50 0 empty empty empty 17 7 0 10 -262144
-1 -1;
#X obj -92 219 tgl 15 0 empty empty empty 17 7 0 10 -262144 -1 -1 0
1;
#X obj -92 242 metro 10;
#X msg 473 -12 close \$1;
#X connect 0 0 3 0;
#X connect 1 0 0 2;
#X connect 2 0 6 0;
#X connect 3 0 243 0;
#X connect 3 0 10 0;
#X connect 4 0 5 0;
#X connect 5 0 245 0;
#X connect 6 0 248 0;
#X connect 6 1 7 0;
#X connect 7 0 248 0;
#X connect 8 0 6 1;
#X connect 9 0 7 0;
#X connect 10 0 12 0;
#X connect 11 0 12 0;
#X connect 13 0 12 0;
#X connect 14 0 12 0;
#X connect 15 0 19 0;
#X connect 16 0 17 1;
#X connect 17 0 19 0;
#X connect 17 1 15 0;
#X connect 18 0 19 1;
#X connect 19 0 28 0;
#X connect 19 1 22 0;
#X connect 22 0 28 0;
#X connect 24 0 27 2;
#X connect 25 0 28 1;
#X connect 26 0 27 1;
#X connect 27 0 73 0;
#X connect 28 0 73 0;
#X connect 28 1 27 0;
#X connect 29 0 30 0;
#X connect 30 0 46 0;
#X connect 30 0 78 0;
#X connect 31 0 29 0;
#X connect 32 0 58 0;
#X connect 33 0 80 0;
#X connect 33 0 81 0;
#X connect 34 0 80 0;
#X connect 34 0 81 0;
#X connect 35 0 80 0;
#X connect 35 0 81 0;
#X connect 36 0 37 0;
#X connect 37 0 47 0;
#X connect 37 0 77 0;
#X connect 38 0 36 0;
#X connect 39 0 40 0;
#X connect 40 0 48 0;
#X connect 40 0 76 0;
#X connect 41 0 39 0;
#X connect 42 0 80 0;
#X connect 42 0 81 0;
#X connect 43 0 44 0;
#X connect 44 0 49 0;
#X connect 44 0 75 0;
#X connect 45 0 43 0;
#X connect 46 0 50 0;
#X connect 46 0 81 1;
#X connect 47 0 51 0;
#X connect 47 0 81 2;
#X connect 48 0 52 0;
#X connect 48 0 81 3;
#X connect 49 0 53 0;
#X connect 49 0 81 4;
#X connect 50 0 54 0;
#X connect 51 0 55 0;
#X connect 52 0 56 0;
#X connect 53 0 57 0;
#X connect 58 0 80 1;
#X connect 59 0 62 0;
#X connect 59 0 263 0;
#X connect 60 0 59 0;
#X connect 61 0 82 1;
#X connect 62 0 82 0;
#X connect 63 0 59 1;
#X connect 64 0 59 1;
#X connect 65 0 59 1;
#X connect 66 0 59 1;
#X connect 67 0 59 1;
#X connect 68 0 69 0;
#X connect 69 0 70 0;
#X connect 70 0 69 1;
#X connect 70 0 80 1;
#X connect 71 0 59 1;
#X connect 72 0 251 0;
#X connect 73 0 251 0;
#X connect 73 1 72 0;
#X connect 74 0 73 1;
#X connect 75 0 49 0;
#X connect 76 0 48 0;
#X connect 77 0 47 0;
#X connect 78 0 46 0;
#X connect 79 0 59 1;
#X connect 80 0 46 0;
#X connect 80 1 47 0;
#X connect 80 2 48 0;
#X connect 80 3 49 0;
#X connect 81 0 17 0;
#X connect 82 0 33 0;
#X connect 82 1 34 0;
#X connect 82 2 35 0;
#X connect 82 3 42 0;
#X connect 83 0 86 0;
#X connect 84 0 83 1;
#X connect 85 0 83 2;
#X connect 86 0 90 0;
#X connect 87 0 86 1;
#X connect 88 0 86 2;
#X connect 89 0 107 0;
#X connect 90 0 104 0;
#X connect 90 1 91 0;
#X connect 91 0 90 2;
#X connect 92 0 90 1;
#X connect 93 0 90 3;
#X connect 94 0 90 5;
#X connect 95 0 90 4;
#X connect 96 0 90 4;
#X connect 97 0 99 0;
#X connect 98 0 97 0;
#X connect 99 0 91 0;
#X connect 100 0 107 2;
#X connect 101 0 85 0;
#X connect 104 0 2 1;
#X connect 105 0 104 2;
#X connect 106 0 104 1;
#X connect 107 0 83 0;
#X connect 108 0 107 1;
#X connect 109 0 90 4;
#X connect 110 0 107 3;
#X connect 111 0 107 3;
#X connect 112 0 107 3;
#X connect 113 0 107 3;
#X connect 114 0 107 3;
#X connect 115 0 104 2;
#X connect 116 0 105 0;
#X connect 117 0 116 0;
#X connect 118 0 88 0;
#X connect 119 0 121 0;
#X connect 119 1 122 0;
#X connect 120 0 119 0;
#X connect 121 0 118 0;
#X connect 122 0 123 0;
#X connect 123 0 118 0;
#X connect 124 0 101 0;
#X connect 126 0 130 0;
#X connect 127 0 128 0;
#X connect 128 0 129 0;
#X connect 129 0 126 0;
#X connect 130 0 249 0;
#X connect 130 1 131 0;
#X connect 131 0 249 0;
#X connect 132 0 130 1;
#X connect 133 0 137 0;
#X connect 134 0 135 1;
#X connect 135 0 137 0;
#X connect 135 1 133 0;
#X connect 136 0 137 1;
#X connect 137 0 146 0;
#X connect 137 1 140 0;
#X connect 140 0 146 0;
#X connect 142 0 145 2;
#X connect 143 0 146 1;
#X connect 144 0 145 1;
#X connect 145 0 191 0;
#X connect 146 0 191 0;
#X connect 146 1 145 0;
#X connect 147 0 148 0;
#X connect 148 0 164 0;
#X connect 148 0 196 0;
#X connect 149 0 147 0;
#X connect 150 0 176 0;
#X connect 151 0 198 0;
#X connect 151 0 199 0;
#X connect 152 0 198 0;
#X connect 152 0 199 0;
#X connect 153 0 198 0;
#X connect 153 0 199 0;
#X connect 154 0 155 0;
#X connect 155 0 165 0;
#X connect 155 0 195 0;
#X connect 156 0 154 0;
#X connect 157 0 158 0;
#X connect 158 0 166 0;
#X connect 158 0 194 0;
#X connect 159 0 157 0;
#X connect 160 0 198 0;
#X connect 160 0 199 0;
#X connect 161 0 162 0;
#X connect 162 0 167 0;
#X connect 162 0 193 0;
#X connect 163 0 161 0;
#X connect 164 0 168 0;
#X connect 164 0 199 1;
#X connect 165 0 169 0;
#X connect 165 0 199 2;
#X connect 166 0 170 0;
#X connect 166 0 199 3;
#X connect 167 0 171 0;
#X connect 167 0 199 4;
#X connect 168 0 172 0;
#X connect 169 0 173 0;
#X connect 170 0 174 0;
#X connect 171 0 175 0;
#X connect 176 0 198 1;
#X connect 177 0 180 0;
#X connect 177 0 262 0;
#X connect 178 0 177 0;
#X connect 179 0 200 1;
#X connect 180 0 200 0;
#X connect 181 0 177 1;
#X connect 182 0 177 1;
#X connect 183 0 177 1;
#X connect 184 0 177 1;
#X connect 185 0 177 1;
#X connect 186 0 187 0;
#X connect 187 0 188 0;
#X connect 188 0 187 1;
#X connect 188 0 198 1;
#X connect 189 0 177 1;
#X connect 190 0 255 0;
#X connect 191 0 255 0;
#X connect 191 1 190 0;
#X connect 192 0 191 1;
#X connect 193 0 167 0;
#X connect 194 0 166 0;
#X connect 195 0 165 0;
#X connect 196 0 164 0;
#X connect 197 0 177 1;
#X connect 198 0 164 0;
#X connect 198 1 165 0;
#X connect 198 2 166 0;
#X connect 198 3 167 0;
#X connect 199 0 135 0;
#X connect 200 0 151 0;
#X connect 200 1 152 0;
#X connect 200 2 153 0;
#X connect 200 3 160 0;
#X connect 201 0 204 0;
#X connect 202 0 201 1;
#X connect 203 0 201 2;
#X connect 204 0 207 0;
#X connect 205 0 204 1;
#X connect 206 0 204 2;
#X connect 207 0 221 0;
#X connect 207 1 208 0;
#X connect 208 0 207 2;
#X connect 209 0 207 1;
#X connect 210 0 207 3;
#X connect 211 0 207 5;
#X connect 212 0 207 4;
#X connect 213 0 207 4;
#X connect 214 0 216 0;
#X connect 215 0 214 0;
#X connect 216 0 208 0;
#X connect 217 0 224 2;
#X connect 218 0 203 0;
#X connect 221 0 126 1;
#X connect 222 0 221 2;
#X connect 223 0 221 1;
#X connect 224 0 201 0;
#X connect 225 0 224 1;
#X connect 226 0 207 4;
#X connect 227 0 224 3;
#X connect 228 0 224 3;
#X connect 229 0 224 3;
#X connect 230 0 224 3;
#X connect 231 0 224 3;
#X connect 232 0 221 2;
#X connect 233 0 222 0;
#X connect 234 0 233 0;
#X connect 235 0 206 0;
#X connect 236 0 238 0;
#X connect 236 1 239 0;
#X connect 237 0 236 0;
#X connect 238 0 235 0;
#X connect 239 0 240 0;
#X connect 240 0 235 0;
#X connect 241 0 218 0;
#X connect 242 0 224 0;
#X connect 243 0 244 0;
#X connect 245 0 2 0;
#X connect 246 0 131 0;
#X connect 247 0 3 0;
#X connect 248 0 0 0;
#X connect 248 1 247 0;
#X connect 249 0 0 1;
#X connect 249 1 247 1;
#X connect 250 0 248 1;
#X connect 250 0 249 1;
#X connect 251 0 125 0;
#X connect 251 1 254 0;
#X connect 252 0 251 1;
#X connect 253 0 254 1;
#X connect 254 0 125 0;
#X connect 255 0 259 0;
#X connect 255 1 258 0;
#X connect 256 0 255 1;
#X connect 257 0 258 1;
#X connect 258 0 259 0;
#X connect 260 0 164 0;
#X connect 260 0 165 0;
#X connect 260 0 166 0;
#X connect 260 0 167 0;
#X connect 261 0 46 0;
#X connect 261 0 47 0;
#X connect 261 0 48 0;
#X connect 261 0 49 0;
#X connect 262 0 179 0;
#X connect 263 0 61 0;
#X connect 264 0 47 0;
#X connect 265 0 46 0;
#X connect 266 0 49 0;
#X connect 267 0 167 0;
#X connect 268 0 101 0;
#X connect 269 0 218 0;
#X connect 270 0 164 0;
#X connect 271 0 7 0;
#X connect 271 0 131 0;
#X connect 272 0 273 0;
#X connect 273 0 271 0;
#X connect 274 0 165 0;
