#N canvas 0 24 1366 714 10;
#X obj 108 60 #from_pix \, colorspace rgb;
#X obj 108 109 #to_pdp;
#X msg 159 132 create;
#X obj 108 132 pdp_xv;
#X msg 159 109 fullscreen;
#X msg 159 83 destroy;
#X obj -398 -273 metro 100;
#X obj -399 -292 tgl 15 0 empty empty empty 17 7 0 10 -262144 -1 -1
0 1;
#X obj -398 -231 + 1;
#X obj -437 -228 bng 15 250 50 0 empty empty empty 17 7 0 10 -262144
-1 -1;
#X obj -437 -211 shunt 4;
#X obj 109 -182 #downscale_by 5;
#X obj 109 -156 #see;
#X obj -398 -251 count 4;
#N canvas 522 111 450 300 video 0;
#X obj -262 -108 openpanel;
#X msg -173 -86 open \$1;
#X obj -173 -63 #in;
#X obj -173 -40 #downscale_by 8;
#X msg -174 -110 close \$1;
#X obj -262 -137 t b b;
#X obj -142 -15 outlet;
#X obj -262 -15 outlet;
#X obj -262 -163 inlet;
#X obj -112 -163 inlet;
#X obj -82 -78 bng 15 250 50 0 empty empty empty 17 7 0 10 -262144
-1 -1;
#X connect 0 0 1 0;
#X connect 1 0 2 0;
#X connect 1 0 10 0;
#X connect 2 0 3 0;
#X connect 2 0 7 0;
#X connect 3 0 6 0;
#X connect 4 0 2 0;
#X connect 5 0 0 0;
#X connect 5 1 4 0;
#X connect 8 0 5 0;
#X connect 9 0 2 0;
#X connect 10 0 2 0;
#X restore -440 -145 pd video;
#X obj -440 -125 #see;
#X obj -440 -164 bng 15 250 50 0 empty empty open 17 7 0 10 -258113
-1 -1;
#X obj -326 -294 bng 15 250 50 0 empty empty empty 0 -6 0 10 -4034
-1 -1;
#X floatatom -326 -251 5 0 0 0 - - -;
#N canvas 345 154 450 300 taptimer 0;
#X obj -284 -98 sel 1 2;
#X floatatom -278 -16 5 0 0 0 - - -;
#X msg -285 -48 1;
#X msg -252 -48 0;
#X obj -252 -71 t b b;
#X obj -281 -124 +;
#X floatatom -253 -122 5 0 0 0 - - -;
#X obj -278 36 timer;
#X msg -283 -152 1;
#X obj -278 9 sel 1 0;
#X obj -280 -175 inlet;
#X obj -278 57 outlet;
#X msg -225 -97 0;
#X connect 0 0 2 0;
#X connect 0 1 4 0;
#X connect 1 0 9 0;
#X connect 2 0 1 0;
#X connect 3 0 1 0;
#X connect 4 0 3 0;
#X connect 4 1 12 0;
#X connect 5 0 6 0;
#X connect 6 0 5 1;
#X connect 6 0 0 0;
#X connect 7 0 11 0;
#X connect 8 0 5 0;
#X connect 9 0 7 0;
#X connect 9 1 7 1;
#X connect 10 0 8 0;
#X connect 12 0 6 0;
#X restore -326 -274 pd taptimer;
#X msg -387 -165 1;
#N canvas 523 140 450 300 video 0;
#X obj -262 -108 openpanel;
#X msg -173 -86 open \$1;
#X obj -173 -63 #in;
#X obj -173 -40 #downscale_by 8;
#X msg -174 -110 close \$1;
#X obj -262 -137 t b b;
#X obj -142 -15 outlet;
#X obj -262 -15 outlet;
#X obj -262 -163 inlet;
#X obj -99 -162 inlet;
#X obj -72 -78 bng 15 250 50 0 empty empty empty 17 7 0 10 -262144
-1 -1;
#X connect 0 0 1 0;
#X connect 1 0 2 0;
#X connect 1 0 10 0;
#X connect 2 0 3 0;
#X connect 2 0 7 0;
#X connect 3 0 6 0;
#X connect 4 0 2 0;
#X connect 5 0 0 0;
#X connect 5 1 4 0;
#X connect 8 0 5 0;
#X connect 9 0 2 0;
#X connect 10 0 2 0;
#X restore -340 -145 pd video;
#X obj -340 -125 #see;
#X obj -340 -164 bng 15 250 50 0 empty empty open 17 7 0 10 -258113
-1 -1;
#N canvas 522 111 450 300 video 0;
#X obj -262 -108 openpanel;
#X msg -173 -86 open \$1;
#X obj -173 -63 #in;
#X obj -173 -40 #downscale_by 8;
#X msg -174 -110 close \$1;
#X obj -262 -137 t b b;
#X obj -142 -15 outlet;
#X obj -262 -15 outlet;
#X obj -262 -163 inlet;
#X obj -89 -162 inlet;
#X obj -62 -78 bng 15 250 50 0 empty empty empty 17 7 0 10 -262144
-1 -1;
#X connect 0 0 1 0;
#X connect 1 0 2 0;
#X connect 1 0 10 0;
#X connect 2 0 3 0;
#X connect 2 0 7 0;
#X connect 3 0 6 0;
#X connect 4 0 2 0;
#X connect 5 0 0 0;
#X connect 5 1 4 0;
#X connect 8 0 5 0;
#X connect 9 0 2 0;
#X connect 10 0 2 0;
#X restore -240 -145 pd video;
#X obj -240 -125 #see;
#X obj -240 -164 bng 15 250 50 0 empty empty open 17 7 0 10 -258113
-1 -1;
#N canvas 522 111 450 300 video 0;
#X obj -262 -108 openpanel;
#X msg -173 -86 open \$1;
#X obj -173 -63 #in;
#X obj -173 -40 #downscale_by 8;
#X msg -174 -110 close \$1;
#X obj -262 -137 t b b;
#X obj -142 -15 outlet;
#X obj -262 -15 outlet;
#X obj -262 -163 inlet;
#X obj -92 -161 inlet;
#X obj -82 -78 bng 15 250 50 0 empty empty empty 17 7 0 10 -262144
-1 -1;
#X connect 0 0 1 0;
#X connect 1 0 2 0;
#X connect 1 0 10 0;
#X connect 2 0 3 0;
#X connect 2 0 7 0;
#X connect 3 0 6 0;
#X connect 4 0 2 0;
#X connect 5 0 0 0;
#X connect 5 1 4 0;
#X connect 8 0 5 0;
#X connect 9 0 2 0;
#X connect 10 0 2 0;
#X restore -140 -145 pd video;
#X obj -140 -125 #see;
#X obj -140 -164 bng 15 250 50 0 empty empty open 17 7 0 10 -258113
-1 -1;
#X msg -287 -165 2;
#X msg -187 -165 3;
#X msg -87 -165 4;
#X obj -438 -49 gate 4;
#X obj -229 -290 tgl 30 0 start empty start 35 15 0 10 -258113 -1 -1
0 1;
#X obj -439 -28 switch 4;
#N canvas 1 53 1364 684 effects 0;
#X obj 207 287 # inv+ 255;
#X obj 207 264 shunt;
#X obj 357 264 shunt;
#X text 207 309 negative;
#X text 254 392 nervous;
#X obj 357 287 #fade (16 8 4);
#X text 357 309 color fade;
#X obj 579 287 tgl 15 0 empty empty empty 0 -6 0 8 -261682 -1 -1 0
1;
#X obj 487 310 hradio 15 1 0 4 empty empty empty 0 -6 0 8 -261682 -1
-1 0;
#N canvas 352 214 480 500 sort_me_out 0;
#X obj 196 295 # * 255;
#X obj 117 472 outlet;
#X obj 192 9 inlet;
#X obj 235 257 # / 2;
#X obj 17 343 # +;
#X obj 44 9 inlet;
#X obj 331 277 # - 1;
#X obj 17 362 #store;
#X obj 17 82 #grade;
#X obj 44 120 #grade;
#X obj 156 9 inlet;
#X text 271 108 extract width;
#X obj 17 286 #finished;
#X obj 283 277 # * 255;
#X obj 17 63 #fold +;
#X obj 17 150 shunt 4;
#X obj 117 399 shunt 4;
#X msg 235 106 \$2;
#X obj 211 45 #dim;
#X obj 44 28 t a a;
#X msg 186 107 \$1 \$2;
#X obj 211 64 #to_list;
#X obj 17 180 t a a;
#X obj 44 343 #outer & (0 -1);
#X obj 17 305 #for (0 0) (240 320);
#X obj 17 101 shunt;
#X obj 283 296 # / 320;
#X obj 17 324 # * (1 0);
#X obj 283 335 #outer ignore (3 #);
#X obj 196 276 # < 160;
#X obj 130 434 # avg;
#X connect 0 0 28 0;
#X connect 2 0 25 1;
#X connect 3 0 29 1;
#X connect 4 0 7 0;
#X connect 5 0 19 0;
#X connect 6 0 26 1;
#X connect 7 0 16 0;
#X connect 8 0 25 0;
#X connect 9 0 15 0;
#X connect 10 0 15 1;
#X connect 10 0 16 1;
#X connect 12 0 24 0;
#X connect 13 0 26 0;
#X connect 14 0 8 0;
#X connect 15 0 22 0;
#X connect 15 1 22 0;
#X connect 15 2 29 0;
#X connect 15 3 13 0;
#X connect 16 0 1 0;
#X connect 16 1 30 0;
#X connect 17 0 3 0;
#X connect 17 0 6 0;
#X connect 18 0 21 0;
#X connect 19 0 14 0;
#X connect 19 1 7 1;
#X connect 19 1 18 0;
#X connect 19 1 30 1;
#X connect 20 0 24 1;
#X connect 21 0 17 0;
#X connect 21 0 20 0;
#X connect 22 0 12 0;
#X connect 22 1 23 0;
#X connect 23 0 4 1;
#X connect 24 0 27 0;
#X connect 25 0 15 0;
#X connect 25 1 9 0;
#X connect 26 0 28 0;
#X connect 27 0 4 0;
#X connect 28 0 1 0;
#X connect 29 0 0 0;
#X connect 30 0 1 0;
#X restore 487 287 pd sort_me_out;
#X obj 487 264 shunt;
#X obj 203 381 tgl 15 0 empty video1 empty 0 -6 0 8 -261682 -1 -1 0
1;
#X obj 248 350 metro;
#X obj 248 374 random 400;
#X obj 207 240 inlet;
#N canvas 565 136 450 300 greyscale 0;
#X obj -227 -43 #rgb_to_greyscale;
#X obj -227 -19 #greyscale_to_rgb;
#X obj -245 -78 inlet;
#X obj -241 7 outlet;
#X connect 0 0 1 0;
#X connect 1 0 3 0;
#X connect 2 0 0 0;
#X restore 625 286 pd greyscale;
#X obj 624 263 shunt;
#X obj 623 315 outlet;
#X obj 655 17 tgl 20 0 empty video1 empty 0 -6 0 8 -260097 -1 -1 0
1;
#X obj 655 43 tgl 20 0 empty video1 empty 0 -6 0 8 -260097 -1 -1 0
1;
#X obj 655 69 tgl 20 0 empty video1 empty 0 -6 0 8 -260097 -1 -1 0
1;
#X obj 655 95 tgl 20 0 empty video1 empty 0 -6 0 8 -260097 -1 -1 0
1;
#X text 679 19 negative;
#X text 679 43 fade;
#X text 679 69 sort out;
#X text 679 94 greyscale;
#X connect 0 0 2 0;
#X connect 1 0 2 0;
#X connect 1 1 0 0;
#X connect 2 0 10 0;
#X connect 2 1 5 0;
#X connect 5 0 10 0;
#X connect 7 0 9 2;
#X connect 8 0 9 1;
#X connect 9 0 16 0;
#X connect 10 0 16 0;
#X connect 10 1 9 0;
#X connect 11 0 12 0;
#X connect 12 0 13 0;
#X connect 13 0 12 1;
#X connect 14 0 1 0;
#X connect 15 0 17 0;
#X connect 16 0 17 0;
#X connect 16 1 15 0;
#X connect 18 0 1 1;
#X connect 19 0 2 1;
#X connect 20 0 10 1;
#X connect 21 0 16 1;
#X coords 0 -1 1 1 90 110 2 650 10;
#X restore -439 0 pd effects;
#N canvas 1 53 1364 684 sliders 0;
#N canvas 30 220 450 300 gamma 0;
#X obj 136 153 shunt;
#X obj 136 122 inlet;
#X obj 188 119 inlet;
#X obj 221 149 inlet;
#X obj 136 252 outlet;
#X obj 164 199 # - 0;
#X obj 162 227 #clip;
#X connect 0 0 4 0;
#X connect 0 1 5 0;
#X connect 1 0 0 0;
#X connect 2 0 0 1;
#X connect 3 0 5 1;
#X connect 5 0 6 0;
#X connect 6 0 4 0;
#X restore 181 224 pd gamma;
#N canvas 373 285 450 300 redim 0;
#X obj -199 140 shunt;
#X obj -172 163 #redim;
#X msg -73 137 576 \$1 3;
#X obj -199 108 inlet;
#X obj -153 105 inlet;
#X obj -72 110 inlet;
#X obj -199 222 outlet;
#X obj -174 186 #scale_to (480 640);
#X connect 0 0 6 0;
#X connect 0 1 1 0;
#X connect 1 0 7 0;
#X connect 2 0 1 1;
#X connect 3 0 0 0;
#X connect 4 0 0 1;
#X connect 5 0 2 0;
#X connect 7 0 6 0;
#X restore 285 223 pd redim;
#X obj 459 219 # *;
#X obj 181 14 tgl 20 0 empty empty empty 18 7 0 8 -4032 -1 -1 0 1;
#X obj 181 42 vsl 20 80 0 255 0 1 empty fadeout empty 0 -9 0 10 -4032
-1 -1 7900 1;
#X obj 289 14 tgl 20 0 empty empty empty 18 8 0 8 -159808 -1 -1 0 1
;
#X obj 288 42 vsl 20 80 0 640 0 1 empty empty empty 0 -9 0 10 -159808
-1 -1 7900 1;
#X obj 105 42 vsl 20 80 2 16 0 1 empty empty empty 0 -9 0 10 -4034
-1 -1 0 1;
#N canvas 538 287 450 300 8bit 0;
#X obj 58 52 #scale_by;
#X obj 205 -22 t a a;
#X floatatom 127 113 5 0 0 0 - - -;
#X obj 58 0 #downscale_by \, smoothly;
#X obj 58 133 #posterize 2;
#X obj 29 163 outlet;
#X obj 29 -32 shunt;
#X obj 27 -66 inlet;
#X obj 76 -67 inlet;
#X obj 252 -82 inlet;
#X obj 126 87 inlet;
#X obj 205 -44 + 0;
#X connect 0 0 4 0;
#X connect 1 0 3 1;
#X connect 1 1 0 1;
#X connect 2 0 4 1;
#X connect 3 0 0 0;
#X connect 4 0 5 0;
#X connect 6 0 5 0;
#X connect 6 1 3 0;
#X connect 7 0 6 0;
#X connect 8 0 6 1;
#X connect 9 0 11 0;
#X connect 10 0 2 0;
#X connect 11 0 1 0;
#X restore 99 223 pd 8bit;
#X obj 105 14 tgl 20 0 empty video1 empty 17 8 0 8 -4034 -1 -1 0 1
;
#X obj 424 195 shunt;
#X obj 368 14 tgl 20 0 empty empty empty 17 7 0 10 -257985 -1 -1 0
1;
#X obj 368 42 vsl 20 80 1 127 0 1 empty empty empty 0 -9 0 10 -257985
-1 -1 0 1;
#X text 261 39 out;
#X text 261 59 in;
#X obj 424 249 outlet;
#X text 314 15 redim;
#X text 207 15 fade;
#X text 128 14 8 bit;
#X text 397 15 multiply;
#X obj 27 154 inlet;
#X obj 131 -11 inlet;
#X obj 211 -11 inlet;
#X obj 311 -11 inlet;
#X connect 0 0 1 0;
#X connect 1 0 10 0;
#X connect 2 0 15 0;
#X connect 3 0 0 1;
#X connect 4 0 0 2;
#X connect 5 0 1 1;
#X connect 6 0 1 2;
#X connect 7 0 8 2;
#X connect 8 0 0 0;
#X connect 9 0 8 1;
#X connect 10 0 15 0;
#X connect 10 1 2 0;
#X connect 11 0 10 1;
#X connect 12 0 2 1;
#X connect 20 0 8 0;
#X connect 21 0 8 3;
#X connect 22 0 4 0;
#X connect 23 0 6 0;
#X coords 0 -1 1 1 350 120 2 100 10;
#X restore -343 -1 pd sliders;
#X obj -129 28 bng 15 250 50 0 empty empty empty 17 7 0 10 -262144
-1 -1;
#X obj -238 75 line;
#X msg -239 52 0 2000;
#X msg -238 29 255 3000;
#X msg -308 96 20;
#X msg -308 28 8;
#X msg -308 74 16;
#X msg -308 51 10;
#N canvas 708 153 450 300 glitch 0;
#X obj 105 104 tgl 30 0 empty empty empty 17 7 0 10 -258113 -1 -1 0
1;
#X obj 11 94 #to_pix;
#X obj 11 33 metro 33.33;
#X obj 11 118 shunt;
#X obj 11 163 pix_puzzle;
#X msg 11 137 size 80 60;
#X obj 11 61 gemdead;
#X obj 11 4 r start;
#X obj 11 197 outlet;
#X obj 77 72 inlet;
#X connect 0 0 3 1;
#X connect 1 0 3 0;
#X connect 2 0 6 0;
#X connect 3 0 8 0;
#X connect 3 1 4 0;
#X connect 4 0 8 0;
#X connect 5 0 4 0;
#X connect 6 0 1 0;
#X connect 7 0 2 0;
#X connect 9 0 1 1;
#X coords 0 -1 1 1 40 40 2 100 100;
#X restore -343 136 pd glitch;
#X text -292 146 glitch;
#N canvas 1 53 450 300 b 0;
#X obj 175 62 inlet;
#X obj 183 171 outlet;
#X obj 179 139 line;
#X obj 179 93 t b b;
#X msg 179 116 0 250;
#X obj 222 94 delay 250;
#X msg 222 116 640 250;
#X connect 0 0 3 0;
#X connect 2 0 1 0;
#X connect 3 0 4 0;
#X connect 3 1 5 0;
#X connect 4 0 2 0;
#X connect 5 0 6 0;
#X connect 6 0 2 0;
#X restore -129 48 pd b;
#N canvas 59 53 450 300 multiply 0;
#X obj 154 198 pix_mix;
#X obj 215 197 pix_multiply;
#X obj 154 108 shunt;
#X obj 257 108 shunt;
#X obj 144 5 hsl 128 40 0 1 0 0 empty empty empty 0 -20 0 20 -260097
-1 -1 0 1;
#X obj 280 5 tgl 40 0 empty empty empty 35 15 0 20 -260097 -1 -1 0
1;
#X obj 110 78 inlet;
#X obj 172 223 outlet;
#X obj 310 78 inlet;
#X connect 0 0 7 0;
#X connect 1 0 7 0;
#X connect 2 0 0 0;
#X connect 2 1 1 0;
#X connect 3 0 0 1;
#X connect 3 1 1 1;
#X connect 4 0 0 2;
#X connect 5 0 2 1;
#X connect 5 0 3 1;
#X connect 6 0 2 0;
#X connect 8 0 3 0;
#X coords 0 -1 1 1 190 50 2 135 0;
#X restore 108 -1 pd multiply;
#X obj 442 -273 metro 100;
#X obj 441 -292 tgl 15 0 empty empty empty 17 7 0 10 -262144 -1 -1
0 1;
#X obj 442 -231 + 1;
#X obj 403 -228 bng 15 250 50 0 empty empty empty 17 7 0 10 -262144
-1 -1;
#X obj 403 -211 shunt 4;
#X obj 442 -251 count 4;
#N canvas 522 111 450 300 video 0;
#X obj -262 -108 openpanel;
#X msg -173 -86 open \$1;
#X obj -173 -63 #in;
#X obj -173 -40 #downscale_by 8;
#X msg -174 -110 close \$1;
#X obj -262 -137 t b b;
#X obj -142 -15 outlet;
#X obj -262 -15 outlet;
#X obj -262 -163 inlet;
#X obj -112 -163 inlet;
#X obj -82 -78 bng 15 250 50 0 empty empty empty 17 7 0 10 -262144
-1 -1;
#X connect 0 0 1 0;
#X connect 1 0 2 0;
#X connect 1 0 10 0;
#X connect 2 0 3 0;
#X connect 2 0 7 0;
#X connect 3 0 6 0;
#X connect 4 0 2 0;
#X connect 5 0 0 0;
#X connect 5 1 4 0;
#X connect 8 0 5 0;
#X connect 9 0 2 0;
#X connect 10 0 2 0;
#X restore 400 -145 pd video;
#X obj 400 -125 #see;
#X obj 400 -164 bng 15 250 50 0 empty empty open 17 7 0 10 -258113
-1 -1;
#X obj 514 -294 bng 15 250 50 0 empty empty empty 0 -6 0 10 -4034 -1
-1;
#X floatatom 514 -251 5 0 0 0 - - -;
#N canvas 345 154 450 300 taptimer 0;
#X obj -284 -98 sel 1 2;
#X floatatom -278 -16 5 0 0 0 - - -;
#X msg -285 -48 1;
#X msg -252 -48 0;
#X obj -252 -71 t b b;
#X obj -281 -124 +;
#X floatatom -253 -122 5 0 0 0 - - -;
#X obj -278 36 timer;
#X msg -283 -152 1;
#X obj -278 9 sel 1 0;
#X obj -280 -175 inlet;
#X obj -278 57 outlet;
#X msg -225 -97 0;
#X connect 0 0 2 0;
#X connect 0 1 4 0;
#X connect 1 0 9 0;
#X connect 2 0 1 0;
#X connect 3 0 1 0;
#X connect 4 0 3 0;
#X connect 4 1 12 0;
#X connect 5 0 6 0;
#X connect 6 0 5 1;
#X connect 6 0 0 0;
#X connect 7 0 11 0;
#X connect 8 0 5 0;
#X connect 9 0 7 0;
#X connect 9 1 7 1;
#X connect 10 0 8 0;
#X connect 12 0 6 0;
#X restore 514 -274 pd taptimer;
#X msg 453 -165 1;
#N canvas 523 140 450 300 video 0;
#X obj -262 -108 openpanel;
#X msg -173 -86 open \$1;
#X obj -173 -63 #in;
#X obj -173 -40 #downscale_by 8;
#X msg -174 -110 close \$1;
#X obj -262 -137 t b b;
#X obj -142 -15 outlet;
#X obj -262 -15 outlet;
#X obj -262 -163 inlet;
#X obj -99 -162 inlet;
#X obj -72 -78 bng 15 250 50 0 empty empty empty 17 7 0 10 -262144
-1 -1;
#X connect 0 0 1 0;
#X connect 1 0 2 0;
#X connect 1 0 10 0;
#X connect 2 0 3 0;
#X connect 2 0 7 0;
#X connect 3 0 6 0;
#X connect 4 0 2 0;
#X connect 5 0 0 0;
#X connect 5 1 4 0;
#X connect 8 0 5 0;
#X connect 9 0 2 0;
#X connect 10 0 2 0;
#X restore 500 -145 pd video;
#X obj 500 -125 #see;
#X obj 500 -164 bng 15 250 50 0 empty empty open 17 7 0 10 -258113
-1 -1;
#N canvas 522 111 450 300 video 0;
#X obj -262 -108 openpanel;
#X msg -173 -86 open \$1;
#X obj -173 -63 #in;
#X obj -173 -40 #downscale_by 8;
#X msg -174 -110 close \$1;
#X obj -262 -137 t b b;
#X obj -142 -15 outlet;
#X obj -262 -15 outlet;
#X obj -262 -163 inlet;
#X obj -89 -162 inlet;
#X obj -62 -78 bng 15 250 50 0 empty empty empty 17 7 0 10 -262144
-1 -1;
#X connect 0 0 1 0;
#X connect 1 0 2 0;
#X connect 1 0 10 0;
#X connect 2 0 3 0;
#X connect 2 0 7 0;
#X connect 3 0 6 0;
#X connect 4 0 2 0;
#X connect 5 0 0 0;
#X connect 5 1 4 0;
#X connect 8 0 5 0;
#X connect 9 0 2 0;
#X connect 10 0 2 0;
#X restore 600 -145 pd video;
#X obj 600 -125 #see;
#X obj 600 -164 bng 15 250 50 0 empty empty open 17 7 0 10 -258113
-1 -1;
#N canvas 522 111 450 300 video 0;
#X obj -262 -108 openpanel;
#X msg -173 -86 open \$1;
#X obj -173 -63 #in;
#X obj -173 -40 #downscale_by 8;
#X msg -174 -110 close \$1;
#X obj -262 -137 t b b;
#X obj -142 -15 outlet;
#X obj -262 -15 outlet;
#X obj -262 -163 inlet;
#X obj -92 -161 inlet;
#X obj -82 -78 bng 15 250 50 0 empty empty empty 17 7 0 10 -262144
-1 -1;
#X connect 0 0 1 0;
#X connect 1 0 2 0;
#X connect 1 0 10 0;
#X connect 2 0 3 0;
#X connect 2 0 7 0;
#X connect 3 0 6 0;
#X connect 4 0 2 0;
#X connect 5 0 0 0;
#X connect 5 1 4 0;
#X connect 8 0 5 0;
#X connect 9 0 2 0;
#X connect 10 0 2 0;
#X restore 700 -145 pd video;
#X obj 700 -125 #see;
#X obj 700 -164 bng 15 250 50 0 empty empty open 17 7 0 10 -258113
-1 -1;
#X msg 553 -165 2;
#X msg 653 -165 3;
#X msg 753 -165 4;
#X obj 402 -49 gate 4;
#X obj 611 -290 tgl 30 0 start empty start 35 15 0 10 -258113 -1 -1
0 1;
#X obj 401 -28 switch 4;
#N canvas 1 53 1364 684 effects 0;
#X obj 207 287 # inv+ 255;
#X obj 207 264 shunt;
#X obj 357 264 shunt;
#X text 207 309 negative;
#X text 254 392 nervous;
#X obj 357 287 #fade (16 8 4);
#X text 357 309 color fade;
#X obj 579 287 tgl 15 0 empty empty empty 0 -6 0 8 -261682 -1 -1 0
1;
#X obj 487 310 hradio 15 1 0 4 empty empty empty 0 -6 0 8 -261682 -1
-1 0;
#N canvas 352 214 480 500 sort_me_out 0;
#X obj 196 295 # * 255;
#X obj 117 472 outlet;
#X obj 192 9 inlet;
#X obj 235 257 # / 2;
#X obj 17 343 # +;
#X obj 44 9 inlet;
#X obj 331 277 # - 1;
#X obj 17 362 #store;
#X obj 17 82 #grade;
#X obj 44 120 #grade;
#X obj 156 9 inlet;
#X text 271 108 extract width;
#X obj 17 286 #finished;
#X obj 283 277 # * 255;
#X obj 17 63 #fold +;
#X obj 17 150 shunt 4;
#X obj 117 399 shunt 4;
#X msg 235 106 \$2;
#X obj 211 45 #dim;
#X obj 44 28 t a a;
#X msg 186 107 \$1 \$2;
#X obj 211 64 #to_list;
#X obj 17 180 t a a;
#X obj 44 343 #outer & (0 -1);
#X obj 17 305 #for (0 0) (240 320);
#X obj 17 101 shunt;
#X obj 283 296 # / 320;
#X obj 17 324 # * (1 0);
#X obj 283 335 #outer ignore (3 #);
#X obj 196 276 # < 160;
#X obj 130 434 # avg;
#X connect 0 0 28 0;
#X connect 2 0 25 1;
#X connect 3 0 29 1;
#X connect 4 0 7 0;
#X connect 5 0 19 0;
#X connect 6 0 26 1;
#X connect 7 0 16 0;
#X connect 8 0 25 0;
#X connect 9 0 15 0;
#X connect 10 0 15 1;
#X connect 10 0 16 1;
#X connect 12 0 24 0;
#X connect 13 0 26 0;
#X connect 14 0 8 0;
#X connect 15 0 22 0;
#X connect 15 1 22 0;
#X connect 15 2 29 0;
#X connect 15 3 13 0;
#X connect 16 0 1 0;
#X connect 16 1 30 0;
#X connect 17 0 3 0;
#X connect 17 0 6 0;
#X connect 18 0 21 0;
#X connect 19 0 14 0;
#X connect 19 1 7 1;
#X connect 19 1 18 0;
#X connect 19 1 30 1;
#X connect 20 0 24 1;
#X connect 21 0 17 0;
#X connect 21 0 20 0;
#X connect 22 0 12 0;
#X connect 22 1 23 0;
#X connect 23 0 4 1;
#X connect 24 0 27 0;
#X connect 25 0 15 0;
#X connect 25 1 9 0;
#X connect 26 0 28 0;
#X connect 27 0 4 0;
#X connect 28 0 1 0;
#X connect 29 0 0 0;
#X connect 30 0 1 0;
#X restore 487 287 pd sort_me_out;
#X obj 487 264 shunt;
#X obj 203 381 tgl 15 0 empty video1 empty 0 -6 0 8 -261682 -1 -1 0
1;
#X obj 248 350 metro;
#X obj 248 374 random 400;
#X obj 207 240 inlet;
#N canvas 565 136 450 300 greyscale 0;
#X obj -227 -43 #rgb_to_greyscale;
#X obj -227 -19 #greyscale_to_rgb;
#X obj -245 -78 inlet;
#X obj -241 7 outlet;
#X connect 0 0 1 0;
#X connect 1 0 3 0;
#X connect 2 0 0 0;
#X restore 625 286 pd greyscale;
#X obj 624 263 shunt;
#X obj 623 315 outlet;
#X obj 655 17 tgl 20 0 empty video1 empty 0 -6 0 8 -260097 -1 -1 0
1;
#X obj 655 43 tgl 20 0 empty video1 empty 0 -6 0 8 -260097 -1 -1 0
1;
#X obj 655 69 tgl 20 0 empty video1 empty 0 -6 0 8 -260097 -1 -1 0
1;
#X obj 655 95 tgl 20 0 empty video1 empty 0 -6 0 8 -260097 -1 -1 0
1;
#X text 679 19 negative;
#X text 679 43 fade;
#X text 679 69 sort out;
#X text 679 94 greyscale;
#X connect 0 0 2 0;
#X connect 1 0 2 0;
#X connect 1 1 0 0;
#X connect 2 0 10 0;
#X connect 2 1 5 0;
#X connect 5 0 10 0;
#X connect 7 0 9 2;
#X connect 8 0 9 1;
#X connect 9 0 16 0;
#X connect 10 0 16 0;
#X connect 10 1 9 0;
#X connect 11 0 12 0;
#X connect 12 0 13 0;
#X connect 13 0 12 1;
#X connect 14 0 1 0;
#X connect 15 0 17 0;
#X connect 16 0 17 0;
#X connect 16 1 15 0;
#X connect 18 0 1 1;
#X connect 19 0 2 1;
#X connect 20 0 10 1;
#X connect 21 0 16 1;
#X coords 0 -1 1 1 90 110 2 650 10;
#X restore 401 0 pd effects;
#N canvas 1 53 1364 684 sliders 0;
#N canvas 30 220 450 300 gamma 0;
#X obj 136 153 shunt;
#X obj 136 122 inlet;
#X obj 188 119 inlet;
#X obj 221 149 inlet;
#X obj 136 252 outlet;
#X obj 164 199 # - 0;
#X obj 162 227 #clip;
#X connect 0 0 4 0;
#X connect 0 1 5 0;
#X connect 1 0 0 0;
#X connect 2 0 0 1;
#X connect 3 0 5 1;
#X connect 5 0 6 0;
#X connect 6 0 4 0;
#X restore 181 224 pd gamma;
#N canvas 373 285 450 300 redim 0;
#X obj -199 140 shunt;
#X obj -172 163 #redim;
#X msg -73 137 576 \$1 3;
#X obj -199 108 inlet;
#X obj -153 105 inlet;
#X obj -72 110 inlet;
#X obj -199 222 outlet;
#X obj -174 186 #scale_to (480 640);
#X connect 0 0 6 0;
#X connect 0 1 1 0;
#X connect 1 0 7 0;
#X connect 2 0 1 1;
#X connect 3 0 0 0;
#X connect 4 0 0 1;
#X connect 5 0 2 0;
#X connect 7 0 6 0;
#X restore 285 223 pd redim;
#X obj 459 219 # *;
#X obj 181 14 tgl 20 0 empty empty empty 18 7 0 8 -4032 -1 -1 0 1;
#X obj 181 42 vsl 20 80 0 255 0 0 empty fadeout empty 0 -9 0 10 -4032
-1 -1 0 1;
#X obj 289 14 tgl 20 0 empty empty empty 18 8 0 8 -159808 -1 -1 0 1
;
#X obj 288 42 vsl 20 80 0 640 0 0 empty empty empty 0 -9 0 10 -159808
-1 -1 0 1;
#X obj 105 42 vsl 20 80 2 16 0 0 empty empty empty 0 -9 0 10 -4034
-1 -1 0 1;
#N canvas 538 287 450 300 8bit 0;
#X obj 58 52 #scale_by;
#X obj 205 -22 t a a;
#X floatatom 127 113 5 0 0 0 - - -;
#X obj 58 0 #downscale_by \, smoothly;
#X obj 58 133 #posterize 2;
#X obj 29 163 outlet;
#X obj 29 -32 shunt;
#X obj 27 -66 inlet;
#X obj 76 -67 inlet;
#X obj 252 -82 inlet;
#X obj 126 87 inlet;
#X obj 205 -44 + 0;
#X connect 0 0 4 0;
#X connect 1 0 3 1;
#X connect 1 1 0 1;
#X connect 2 0 4 1;
#X connect 3 0 0 0;
#X connect 4 0 5 0;
#X connect 6 0 5 0;
#X connect 6 1 3 0;
#X connect 7 0 6 0;
#X connect 8 0 6 1;
#X connect 9 0 11 0;
#X connect 10 0 2 0;
#X connect 11 0 1 0;
#X restore 99 223 pd 8bit;
#X obj 105 14 tgl 20 0 empty video1 empty 17 8 0 8 -4034 -1 -1 0 1
;
#X obj 424 195 shunt;
#X obj 368 14 tgl 20 0 empty empty empty 17 7 0 10 -257985 -1 -1 0
1;
#X obj 368 42 vsl 20 80 1 127 0 0 empty empty empty 0 -9 0 10 -257985
-1 -1 0 1;
#X text 261 39 out;
#X text 261 59 in;
#X obj 424 249 outlet;
#X text 314 15 redim;
#X text 207 15 fade;
#X text 128 14 8 bit;
#X text 397 15 multiply;
#X obj 27 154 inlet;
#X obj 131 -11 inlet;
#X obj 211 -11 inlet;
#X obj 311 -11 inlet;
#X connect 0 0 1 0;
#X connect 1 0 10 0;
#X connect 2 0 15 0;
#X connect 3 0 0 1;
#X connect 4 0 0 2;
#X connect 5 0 1 1;
#X connect 6 0 1 2;
#X connect 7 0 8 2;
#X connect 8 0 0 0;
#X connect 9 0 8 1;
#X connect 10 0 15 0;
#X connect 10 1 2 0;
#X connect 11 0 10 1;
#X connect 12 0 2 1;
#X connect 20 0 8 0;
#X connect 21 0 8 3;
#X connect 22 0 4 0;
#X connect 23 0 6 0;
#X coords 0 -1 1 1 350 120 2 100 10;
#X restore 497 -1 pd sliders;
#X obj 711 28 bng 15 250 50 0 empty empty empty 17 7 0 10 -262144 -1
-1;
#X obj 602 75 line;
#X msg 602 29 255 3000;
#X msg 532 96 20;
#X msg 532 28 8;
#X msg 532 74 16;
#X msg 532 51 10;
#N canvas 403 191 450 300 glitch 0;
#X obj 105 104 tgl 30 0 empty empty empty 17 7 0 10 -258113 -1 -1 0
1;
#X obj 11 200 #to_pix;
#X obj 11 139 metro 33.33;
#X obj 11 224 shunt;
#X obj 11 269 pix_puzzle;
#X msg 11 243 size 80 60;
#X obj 11 167 gemdead;
#X obj 11 110 r start;
#X obj 11 291 outlet;
#X obj 77 178 inlet;
#X connect 0 0 3 1;
#X connect 1 0 3 0;
#X connect 2 0 6 0;
#X connect 3 0 8 0;
#X connect 3 1 4 0;
#X connect 4 0 8 0;
#X connect 5 0 4 0;
#X connect 6 0 1 0;
#X connect 7 0 2 0;
#X connect 9 0 1 1;
#X coords 0 -1 1 1 40 40 2 100 100;
#X restore 497 136 pd glitch;
#X text 548 146 glitch;
#N canvas 59 82 450 300 b 0;
#X obj 175 62 inlet;
#X obj 183 171 outlet;
#X obj 179 139 line;
#X obj 179 93 t b b;
#X obj 222 94 delay 250;
#X msg 179 116 0 150;
#X msg 221 117 640 150;
#X connect 0 0 3 0;
#X connect 2 0 1 0;
#X connect 3 0 5 0;
#X connect 3 1 4 0;
#X connect 4 0 6 0;
#X connect 5 0 2 0;
#X connect 6 0 2 0;
#X restore 711 48 pd b;
#X text 249 -27 multiply;
#X text 179 -27 mix;
#X obj -229 -258 metro 33.333;
#X obj -229 -239 shunt;
#X obj -202 -219 random 400;
#X obj -103 -251 tgl 20 0 empty empty empty 17 7 0 10 -260097 -1 -1
0 1;
#X text -78 -249 nervous;
#X obj 611 -232 shunt;
#X obj 611 -254 metro 33.3333;
#X obj 638 -210 random 400;
#X obj 726 -254 tgl 20 0 empty empty empty 17 7 0 10 -260097 -1 -1
0 1;
#X text 751 -252 nervous;
#X obj 61 -255 drunk;
#X msg 601 52 0 1000;
#X connect 0 0 11 0;
#X connect 0 0 1 0;
#X connect 1 0 3 0;
#X connect 2 0 3 0;
#X connect 4 0 3 0;
#X connect 5 0 3 0;
#X connect 6 0 9 0;
#X connect 6 0 13 0;
#X connect 7 0 6 0;
#X connect 8 0 10 1;
#X connect 9 0 10 0;
#X connect 10 0 20 0;
#X connect 10 1 30 0;
#X connect 10 2 31 0;
#X connect 10 3 32 0;
#X connect 11 0 12 0;
#X connect 13 0 8 0;
#X connect 14 0 35 1;
#X connect 14 1 15 0;
#X connect 16 0 14 0;
#X connect 17 0 19 0;
#X connect 18 0 6 1;
#X connect 19 0 18 0;
#X connect 20 0 33 0;
#X connect 20 0 35 0;
#X connect 21 0 35 2;
#X connect 21 1 22 0;
#X connect 23 0 21 0;
#X connect 24 0 35 3;
#X connect 24 1 25 0;
#X connect 26 0 24 0;
#X connect 27 0 35 4;
#X connect 27 1 28 0;
#X connect 29 0 27 0;
#X connect 30 0 33 0;
#X connect 30 0 35 0;
#X connect 31 0 33 0;
#X connect 31 0 35 0;
#X connect 32 0 33 0;
#X connect 32 0 35 0;
#X connect 33 0 14 1;
#X connect 33 1 21 1;
#X connect 33 2 24 1;
#X connect 33 3 27 1;
#X connect 34 0 92 0;
#X connect 35 0 36 0;
#X connect 36 0 37 0;
#X connect 37 0 46 0;
#X connect 38 0 48 0;
#X connect 39 0 37 2;
#X connect 40 0 39 0;
#X connect 41 0 39 0;
#X connect 42 0 37 1;
#X connect 43 0 37 1;
#X connect 44 0 37 1;
#X connect 45 0 37 1;
#X connect 46 0 49 0;
#X connect 48 0 37 3;
#X connect 49 0 0 0;
#X connect 50 0 53 0;
#X connect 50 0 55 0;
#X connect 51 0 50 0;
#X connect 52 0 54 1;
#X connect 53 0 54 0;
#X connect 54 0 62 0;
#X connect 54 1 72 0;
#X connect 54 2 73 0;
#X connect 54 3 74 0;
#X connect 55 0 52 0;
#X connect 56 0 77 1;
#X connect 56 1 57 0;
#X connect 58 0 56 0;
#X connect 59 0 61 0;
#X connect 60 0 50 1;
#X connect 61 0 60 0;
#X connect 62 0 75 0;
#X connect 62 0 77 0;
#X connect 63 0 77 2;
#X connect 63 1 64 0;
#X connect 65 0 63 0;
#X connect 66 0 77 3;
#X connect 66 1 67 0;
#X connect 68 0 66 0;
#X connect 69 0 77 4;
#X connect 69 1 70 0;
#X connect 71 0 69 0;
#X connect 72 0 75 0;
#X connect 72 0 77 0;
#X connect 73 0 75 0;
#X connect 73 0 77 0;
#X connect 74 0 75 0;
#X connect 74 0 77 0;
#X connect 75 0 56 1;
#X connect 75 1 63 1;
#X connect 75 2 66 1;
#X connect 75 3 69 1;
#X connect 76 0 98 0;
#X connect 77 0 78 0;
#X connect 78 0 79 0;
#X connect 79 0 87 0;
#X connect 80 0 89 0;
#X connect 81 0 79 2;
#X connect 82 0 81 0;
#X connect 83 0 79 1;
#X connect 84 0 79 1;
#X connect 85 0 79 1;
#X connect 86 0 79 1;
#X connect 87 0 49 1;
#X connect 89 0 79 3;
#X connect 92 0 93 0;
#X connect 93 0 33 1;
#X connect 93 1 94 0;
#X connect 94 0 33 1;
#X connect 95 0 93 1;
#X connect 97 0 75 1;
#X connect 97 1 99 0;
#X connect 98 0 97 0;
#X connect 99 0 75 1;
#X connect 100 0 97 1;
#X connect 103 0 81 0;
