#N canvas 119 37 682 671 10;
#X obj 320 83 gemwin;
#X msg 320 -6 create \, 1;
#X obj 265 115 gemhead;
#X obj 321 250 osc~;
#X floatatom 321 228 5 0 0 0 - - -;
#X floatatom 283 228 5 0 0 0 - - -;
#X obj 283 251 osc~;
#X obj 358 250 osc~;
#X floatatom 357 228 5 0 0 0 - - -;
#X msg 57 364 draw linestrip;
#X msg 57 342 draw fill;
#X msg 57 320 draw point;
#X msg 57 452 draw tri;
#X msg 57 408 draw quad;
#X msg 57 430 draw quadstrip;
#X msg 57 386 draw line;
#X obj 265 342 translateXYZ;
#X obj 50 29 world_light;
#X obj 50 7 gemhead;
#X msg 386 38 lighting 1;
#X obj 265 411 rotateXYZ;
#X msg 386 60 lighting 0;
#X obj 343 414 counter;
#X obj 343 436 % 360;
#X obj 343 372 tgl 15 0 empty empty empty 17 7 0 10 -262144 -1 -1 0
1;
#X text 361 370 constant rotation;
#X msg 334 321 2;
#X obj 334 298 loadbang;
#X obj 57 133 tgl 15 1 empty empty empty 17 7 0 10 -262144 -1 -1 1
1;
#X obj 57 211 line;
#X obj 137 133 tgl 15 1 empty empty empty 17 7 0 10 -262144 -1 -1 1
1;
#X obj 137 211 line;
#X obj 217 133 tgl 15 1 empty empty empty 17 7 0 10 -262144 -1 -1 1
1;
#X obj 217 211 line;
#X msg 320 16 0 \, destroy;
#X obj 57 151 metro 3000;
#X obj 137 151 metro 3000;
#X obj 217 151 metro 3000;
#X obj 265 378 color;
#X obj 57 231 / 100;
#X obj 137 231 / 100;
#X obj 217 231 / 100;
#X obj 101 265 pack f f f;
#X msg 57 191 \$1 1500;
#X msg 137 191 \$1 1500;
#X msg 217 191 \$1 1500;
#X msg 57 472 draw trifan;
#X text 55 109 click on all of these;
#X obj 217 171 random 100;
#X obj 137 171 random 100;
#X obj 57 171 random 100;
#X obj 486 28 cnv 15 250 350 empty empty empty 20 12 0 14 -228992 -66577
0;
#X obj 488 59 cnv 15 155 250 empty empty empty 20 12 0 14 -24198 -66577
0;
#X obj 488 34 gemhead;
#X obj 488 331 pix_texture;
#X obj 500 64 bng 25 250 50 0 empty empty empty 0 -6 0 8 -262144 -1
-1;
#X text 542 28 open a supported;
#X text 543 39 movie-clip;
#X obj 513 258 unpack 0 0 0;
#X floatatom 503 281 5 0 0 3 length - -;
#X floatatom 552 281 5 0 0 3 width - -;
#X obj 557 239 bng 15 250 50 0 empty empty end_reached 20 7 0 10 -262144
-1 -1;
#X floatatom 539 204 5 0 10000 1 frame# - -;
#X obj 500 93 openpanel;
#X msg 500 113 open \$1;
#X obj 488 222 pix_film;
#X msg 506 156 auto \$1;
#X obj 506 138 tgl 15 0 empty empty empty 0 -6 0 8 -262144 -1 -1 0
1;
#X msg 517 180 colorspace Grey;
#X obj 343 392 metro 50;
#X msg 57 530 length 17000;
#X msg 577 139 colorspace RGBA;
#X obj 417 319 * 1;
#X obj 171 64 tgl 15 0 empty empty empty 17 7 0 10 -262144 -1 -1 0
1;
#X msg 168 87 fullscreen \$1;
#X obj 173 -1 bng 15 250 50 0 empty empty empty 17 7 0 10 -262144 -1
-1;
#X obj 173 18 t b b;
#X obj 274 45 tgl 15 0 empty empty empty 17 7 0 10 -262144 -1 -1 0
1;
#X floatatom 384 336 5 0 0 0 - - -;
#X msg 405 121 dimen 800 450;
#X msg 522 448 repeat \$1;
#X obj 525 422 tgl 15 0 empty empty empty 17 7 0 10 -262144 -1 -1 0
1;
#X msg 522 498 quality \$1;
#X obj 526 477 tgl 15 0 empty empty empty 17 7 0 10 -262144 -1 -1 0
1;
#X floatatom 600 353 5 0 0 0 - - -;
#X obj 168 42 delay 10000;
#X msg 57 552 width 1;
#X obj 488 355 scaleXYZ;
#X obj 264 487 scopeXYZ~;
#X obj 488 382 rectangle 4 4;
#X obj 367 546 gemhead 99;
#X obj 367 615 pix_write;
#X obj 366 500 metro 33.333;
#X msg 434 593 auto \$1;
#X text 456 470 record;
#X msg 431 549 file /home/hellocatfood/Desktop/glitch%09d 0;
#X msg 511 584 2000 2000;
#X obj 431 528 loadbang;
#X obj 368 472 t b b;
#X obj 368 450 tgl 15 0 empty empty empty 17 7 0 10 -262144 -1 -1 0
1;
#X obj 434 574 tgl 15 0 empty empty empty 17 7 0 10 -262144 -1 -1 0
1;
#X msg 514 623;
#X connect 1 0 0 0;
#X connect 2 0 16 0;
#X connect 3 0 88 2;
#X connect 4 0 3 0;
#X connect 5 0 6 0;
#X connect 6 0 88 1;
#X connect 7 0 88 3;
#X connect 8 0 7 0;
#X connect 8 0 72 0;
#X connect 9 0 88 0;
#X connect 10 0 88 0;
#X connect 11 0 88 0;
#X connect 12 0 88 0;
#X connect 13 0 88 0;
#X connect 14 0 88 0;
#X connect 15 0 88 0;
#X connect 16 0 38 0;
#X connect 18 0 17 0;
#X connect 19 0 0 0;
#X connect 20 0 88 0;
#X connect 21 0 0 0;
#X connect 22 0 23 0;
#X connect 23 0 20 1;
#X connect 23 0 20 2;
#X connect 24 0 69 0;
#X connect 26 0 16 3;
#X connect 27 0 26 0;
#X connect 28 0 35 0;
#X connect 29 0 5 0;
#X connect 29 0 39 0;
#X connect 30 0 36 0;
#X connect 31 0 4 0;
#X connect 31 0 40 0;
#X connect 32 0 37 0;
#X connect 33 0 8 0;
#X connect 33 0 41 0;
#X connect 34 0 0 0;
#X connect 35 0 50 0;
#X connect 36 0 49 0;
#X connect 37 0 48 0;
#X connect 38 0 20 0;
#X connect 39 0 42 0;
#X connect 40 0 42 1;
#X connect 41 0 42 2;
#X connect 42 0 38 1;
#X connect 43 0 29 0;
#X connect 44 0 31 0;
#X connect 45 0 33 0;
#X connect 46 0 88 0;
#X connect 48 0 45 0;
#X connect 49 0 44 0;
#X connect 50 0 43 0;
#X connect 53 0 65 0;
#X connect 54 0 87 0;
#X connect 54 0 88 0;
#X connect 55 0 63 0;
#X connect 58 0 59 0;
#X connect 58 1 60 0;
#X connect 61 0 62 0;
#X connect 62 0 65 1;
#X connect 63 0 64 0;
#X connect 64 0 65 0;
#X connect 65 0 54 0;
#X connect 65 1 58 0;
#X connect 65 2 61 0;
#X connect 66 0 65 0;
#X connect 67 0 66 0;
#X connect 68 0 65 0;
#X connect 69 0 22 0;
#X connect 70 0 88 0;
#X connect 71 0 65 0;
#X connect 72 0 69 1;
#X connect 73 0 74 0;
#X connect 74 0 0 0;
#X connect 75 0 76 0;
#X connect 76 0 85 0;
#X connect 76 1 73 0;
#X connect 78 0 16 1;
#X connect 79 0 0 0;
#X connect 80 0 54 0;
#X connect 81 0 80 0;
#X connect 82 0 54 0;
#X connect 83 0 82 0;
#X connect 84 0 87 3;
#X connect 85 0 73 0;
#X connect 86 0 88 0;
#X connect 87 0 89 0;
#X connect 90 0 91 0;
#X connect 92 0 91 0;
#X connect 93 0 91 0;
#X connect 95 0 91 0;
#X connect 96 0 91 2;
#X connect 96 0 91 1;
#X connect 97 0 95 0;
#X connect 98 0 100 0;
#X connect 98 1 92 0;
#X connect 99 0 98 0;
#X connect 100 0 93 0;
