#N canvas 59 24 681 671 10;
#X obj 480 39 gemwin;
#X msg 480 -6 create \, 1;
#X obj 405 16 world_light;
#X msg 480 16 0 \, destroy;
#X floatatom 760 403 5 0 0 0 - - -;
#X obj 679 403 scaleXYZ;
#X obj 405 -6 gemhead 50;
#X obj 554 -6 tgl 15 1 empty empty empty 17 7 0 10 -262144 -1 -1 1
1;
#N canvas 0 0 450 300 text 0;
#X obj 22 21 cnv 15 170 270 empty empty empty 20 12 0 14 -228992 -66577
0;
#X obj 25 68 cnv 15 150 220 empty empty empty 20 12 0 14 -24198 -66577
0;
#X floatatom 73 243 5 0 100 1 size - -;
#X msg 46 108 font \$1;
#X obj 46 89 openpanel;
#X obj 46 72 bng 15 250 50 0 empty empty empty 0 -6 0 8 -262144 -1
-1;
#X msg 54 134 text hello world!;
#X msg 62 194 alias \$1;
#X obj 62 176 tgl 15 0 empty empty empty 0 -6 0 8 -262144 -1 -1 0 1
;
#X msg 63 220 justify left base;
#X obj 36 45 translateXYZ;
#X floatatom 140 28 5 -10 10 0 - - -;
#X floatatom 99 23 3 -3.5 3.5 0 - - -;
#X obj 36 264 text2d;
#X obj 36 24 gemhead;
#X obj 54 154 drip 50;
#X connect 2 0 13 1;
#X connect 3 0 13 0;
#X connect 4 0 3 0;
#X connect 5 0 4 0;
#X connect 6 0 15 0;
#X connect 7 0 13 0;
#X connect 8 0 7 0;
#X connect 9 0 13 0;
#X connect 10 0 13 0;
#X connect 11 0 10 3;
#X connect 12 0 10 1;
#X connect 14 0 10 0;
#X connect 15 0 13 0;
#X restore 455 521 pd text;
#X obj 911 29 soundvalues;
#N canvas 59 24 450 300 record 0;
#X obj 76 28 cnv 15 300 210 empty empty empty 20 12 0 14 -4034 -66577
0;
#X obj 86 135 gemhead 99;
#X obj 86 204 pix_write;
#X obj 85 89 metro 33.333;
#X msg 153 182 auto \$1;
#X text 175 59 record;
#X msg 150 138 file /home/hellocatfood/Desktop/glitch%09d 0;
#X obj 87 39 tgl 15 0 empty empty empty 17 7 0 10 -262144 -1 -1 0 1
;
#X obj 153 163 tgl 15 0 empty empty empty 17 7 0 10 -262144 -1 -1 0
1;
#X obj 87 61 t b b b;
#X connect 1 0 2 0;
#X connect 3 0 2 0;
#X connect 4 0 2 0;
#X connect 6 0 2 0;
#X connect 7 0 9 0;
#X connect 8 0 4 0;
#X connect 9 0 8 0;
#X connect 9 1 3 0;
#X connect 9 2 6 0;
#X restore 1064 404 pd record;
#X msg 554 16 lighting \$1;
#X obj 781 506 spigot;
#N canvas 0 24 1366 714 lines 0;
#X obj 283 103 cnv 15 135 100 empty empty empty 20 12 0 14 -228856
-66577 0;
#X obj 58 220 translateXYZ;
#X obj 58 279 rotateXYZ;
#X obj 176 232 counter;
#X obj 176 254 % 360;
#X obj 58 246 color;
#X obj 85 144 pack f f f;
#X obj 176 210 metro 50;
#X obj 58 307 scopeXYZ~;
#X obj 58 40 gemhead 60;
#X obj 120 109 osc~;
#X obj 76 109 osc~;
#X obj 166 108 osc~;
#X obj 75 64 r env1;
#X obj 167 89 * 1000;
#X obj 120 89 * 1000;
#X obj 76 89 * 1000;
#X obj 120 64 r env4;
#X obj 167 64 r env5;
#X obj 127 169 r env1;
#X obj 127 189 * 2;
#X obj 289 109 tgl 15 0 empty empty empty 17 7 0 10 -260097 -1 -1 0
1;
#X obj 176 277 spigot;
#X obj 226 277 spigot;
#X obj 276 277 spigot;
#X text 306 108 on/off;
#X obj 287 130 cnv 15 75 70 empty empty empty 20 12 0 14 -4034 -66577
0;
#X obj 289 152 tgl 15 0 empty empty empty 17 7 0 10 -262144 -1 -1 0
1;
#X obj 290 171 tgl 15 0 empty empty empty 17 7 0 10 -262144 -1 -1 0
1;
#X obj 310 171 tgl 15 0 empty empty empty 17 7 0 10 -262144 -1 -1 0
1;
#X obj 330 171 tgl 15 0 empty empty empty 17 7 0 10 -262144 -1 -1 0
1;
#X text 292 183 x;
#X text 312 183 y;
#X text 332 183 z;
#X obj 58 339 inlet;
#X text 287 131 rotate;
#X floatatom 328 133 5 0 360 0 - - -;
#X msg 356 221 draw fill;
#X msg 356 240 draw line;
#X msg 356 320 length 7000;
#X obj 356 297 loadbang;
#X msg 356 341 width 2;
#X obj 367 133 bng 15 250 50 0 empty empty empty 17 7 0 10 -262144
-1 -1;
#X obj 367 153 bng 15 250 50 0 empty empty empty 17 7 0 10 -262144
-1 -1;
#X obj 367 173 bng 15 250 50 0 empty empty empty 17 7 0 10 -262144
-1 -1;
#X msg 356 260 draw point;
#X text 384 132 line;
#X text 384 152 fill;
#X text 385 172 point;
#X text 307 150 auto rot;
#X connect 1 0 5 0;
#X connect 2 0 8 0;
#X connect 3 0 4 0;
#X connect 4 0 22 0;
#X connect 4 0 23 0;
#X connect 4 0 24 0;
#X connect 5 0 2 0;
#X connect 6 0 5 1;
#X connect 7 0 3 0;
#X connect 9 0 1 0;
#X connect 10 0 8 2;
#X connect 11 0 8 1;
#X connect 12 0 8 3;
#X connect 13 0 16 0;
#X connect 13 0 6 0;
#X connect 14 0 12 0;
#X connect 15 0 10 0;
#X connect 16 0 11 0;
#X connect 17 0 15 0;
#X connect 17 0 6 1;
#X connect 18 0 14 0;
#X connect 18 0 6 2;
#X connect 19 0 20 0;
#X connect 20 0 1 3;
#X connect 21 0 9 0;
#X connect 22 0 2 1;
#X connect 23 0 2 2;
#X connect 27 0 7 0;
#X connect 28 0 22 1;
#X connect 29 0 23 1;
#X connect 30 0 24 1;
#X connect 34 0 8 0;
#X connect 36 0 2 1;
#X connect 36 0 2 2;
#X connect 36 0 2 3;
#X connect 37 0 8 0;
#X connect 38 0 8 0;
#X connect 39 0 8 0;
#X connect 40 0 39 0;
#X connect 40 0 41 0;
#X connect 41 0 8 0;
#X connect 42 0 38 0;
#X connect 43 0 37 0;
#X connect 44 0 45 0;
#X connect 45 0 8 0;
#X coords 0 -1 1 1 140 105 2 280 100;
#X restore 246 220 pd lines;
#X text 244 201 lines;
#X obj 658 74 player;
#X obj 417 473 pix_motionblur;
#X obj 642 437 pix_texture;
#X obj 514 299 pix_aging;
#X obj 505 396 pix_duotone;
#X obj 541 447 pix_lumaoffset;
#X obj 538 518 pix_kaleidoscope;
#X msg 554 37 dimen 800 250;
#X obj 642 467 rectangle 10 4;
#X obj 661 278 pix_motionblur;
#X obj 661 255 shunt;
#X obj 528 273;
#X obj 812 254 tgl 15 0 empty empty empty 17 7 0 10 -262144 -1 -1 0
1;
#X floatatom 843 221 5 0 0 0 - - -;
#X obj 842 252 / 100;
#X obj 661 305 shunt;
#X obj 661 327 pix_aging;
#X obj 661 354 shunt;
#X obj 661 376 pix_duotone;
#X connect 1 0 0 0;
#X connect 3 0 0 0;
#X connect 4 0 5 3;
#X connect 6 0 2 0;
#X connect 7 0 11 0;
#X connect 11 0 0 0;
#X connect 17 0 23 0;
#X connect 22 0 0 0;
#X connect 25 1 24 0;
#X connect 28 0 29 0;
#X connect 30 1 31 0;
#X connect 32 1 33 0;
