#N canvas 61 24 681 671 10;
#X obj 100 19 gemwin;
#X msg 100 -26 create \, 1;
#X obj 25 -4 world_light;
#X msg 100 -4 0 \, destroy;
#X obj 25 -26 gemhead 50;
#X obj 174 -26 tgl 15 1 empty empty empty 17 7 0 10 -262144 -1 -1 1
1;
#N canvas 0 0 450 300 text 0;
#X obj 22 21 cnv 15 170 270 empty empty empty 20 12 0 14 -228992 -66577
0;
#X obj 25 68 cnv 15 150 220 empty empty empty 20 12 0 14 -24198 -66577
0;
#X floatatom 73 243 5 0 100 1 size - -;
#X msg 46 108 font \$1;
#X obj 46 89 openpanel;
#X obj 46 72 bng 15 250 50 0 empty empty empty 0 -6 0 8 -262144 -1
-1;
#X msg 54 134 text hello world!;
#X msg 62 194 alias \$1;
#X obj 62 176 tgl 15 0 empty empty empty 0 -6 0 8 -262144 -1 -1 0 1
;
#X msg 63 220 justify left base;
#X obj 36 45 translateXYZ;
#X floatatom 140 28 5 -10 10 0 - - -;
#X floatatom 99 23 3 -3.5 3.5 0 - - -;
#X obj 36 264 text2d;
#X obj 36 24 gemhead;
#X obj 54 154 drip 50;
#X connect 2 0 13 1;
#X connect 3 0 13 0;
#X connect 4 0 3 0;
#X connect 5 0 4 0;
#X connect 6 0 15 0;
#X connect 7 0 13 0;
#X connect 8 0 7 0;
#X connect 9 0 13 0;
#X connect 10 0 13 0;
#X connect 11 0 10 3;
#X connect 12 0 10 1;
#X connect 14 0 10 0;
#X connect 15 0 13 0;
#X restore 75 521 pd text;
#X obj 978 10 soundvalues;
#N canvas 59 24 450 300 record 0;
#X obj 76 28 cnv 15 300 210 empty empty empty 20 12 0 14 -4034 -66577
0;
#X obj 86 135 gemhead 99;
#X obj 86 204 pix_write;
#X obj 85 89 metro 33.333;
#X msg 153 182 auto \$1;
#X text 175 59 record;
#X msg 150 138 file /home/hellocatfood/Desktop/glitch%09d 0;
#X obj 87 39 tgl 15 0 empty empty empty 17 7 0 10 -262144 -1 -1 0 1
;
#X obj 153 163 tgl 15 0 empty empty empty 17 7 0 10 -262144 -1 -1 0
1;
#X obj 87 61 t b b b;
#X connect 1 0 2 0;
#X connect 3 0 2 0;
#X connect 4 0 2 0;
#X connect 6 0 2 0;
#X connect 7 0 9 0;
#X connect 8 0 4 0;
#X connect 9 0 8 0;
#X connect 9 1 3 0;
#X connect 9 2 6 0;
#X restore 684 554 pd record;
#X msg 174 -4 lighting \$1;
#N canvas 0 24 1366 714 lines 0;
#X obj 283 103 cnv 15 135 100 empty empty empty 20 12 0 14 -228856
-66577 0;
#X obj 58 220 translateXYZ;
#X obj 58 279 rotateXYZ;
#X obj 176 232 counter;
#X obj 176 254 % 360;
#X obj 58 246 color;
#X obj 85 144 pack f f f;
#X obj 176 210 metro 50;
#X obj 58 307 scopeXYZ~;
#X obj 58 40 gemhead 60;
#X obj 120 109 osc~;
#X obj 76 109 osc~;
#X obj 166 108 osc~;
#X obj 75 64 r env1;
#X obj 167 89 * 1000;
#X obj 120 89 * 1000;
#X obj 76 89 * 1000;
#X obj 120 64 r env4;
#X obj 167 64 r env5;
#X obj 127 169 r env1;
#X obj 127 189 * 2;
#X obj 289 109 tgl 15 0 empty empty empty 17 7 0 10 -260097 -1 -1 0
1;
#X obj 176 277 spigot;
#X obj 226 277 spigot;
#X obj 276 277 spigot;
#X text 306 108 on/off;
#X obj 287 130 cnv 15 75 70 empty empty empty 20 12 0 14 -4034 -66577
0;
#X obj 289 152 tgl 15 0 empty empty empty 17 7 0 10 -262144 -1 -1 0
1;
#X obj 290 171 tgl 15 0 empty empty empty 17 7 0 10 -262144 -1 -1 0
1;
#X obj 310 171 tgl 15 0 empty empty empty 17 7 0 10 -262144 -1 -1 0
1;
#X obj 330 171 tgl 15 0 empty empty empty 17 7 0 10 -262144 -1 -1 0
1;
#X text 292 183 x;
#X text 312 183 y;
#X text 332 183 z;
#X obj 58 339 inlet;
#X text 287 131 rotate;
#X floatatom 328 133 5 0 360 0 - - -;
#X msg 356 221 draw fill;
#X msg 356 240 draw line;
#X obj 356 297 loadbang;
#X msg 356 341 width 2;
#X obj 367 133 bng 15 250 50 0 empty empty empty 17 7 0 10 -262144
-1 -1;
#X obj 367 153 bng 15 250 50 0 empty empty empty 17 7 0 10 -262144
-1 -1;
#X obj 367 173 bng 15 250 50 0 empty empty empty 17 7 0 10 -262144
-1 -1;
#X msg 356 260 draw point;
#X text 384 132 line;
#X text 384 152 fill;
#X text 385 172 point;
#X text 307 150 auto rot;
#X msg 356 320 length 3000;
#X connect 1 0 5 0;
#X connect 2 0 8 0;
#X connect 3 0 4 0;
#X connect 4 0 22 0;
#X connect 4 0 23 0;
#X connect 4 0 24 0;
#X connect 5 0 2 0;
#X connect 6 0 5 1;
#X connect 7 0 3 0;
#X connect 9 0 1 0;
#X connect 10 0 8 2;
#X connect 11 0 8 1;
#X connect 12 0 8 3;
#X connect 13 0 16 0;
#X connect 13 0 6 0;
#X connect 14 0 12 0;
#X connect 15 0 10 0;
#X connect 16 0 11 0;
#X connect 17 0 15 0;
#X connect 17 0 6 1;
#X connect 18 0 14 0;
#X connect 18 0 6 2;
#X connect 19 0 20 0;
#X connect 20 0 1 3;
#X connect 21 0 9 0;
#X connect 22 0 2 1;
#X connect 23 0 2 2;
#X connect 27 0 7 0;
#X connect 28 0 22 1;
#X connect 29 0 23 1;
#X connect 30 0 24 1;
#X connect 34 0 8 0;
#X connect 36 0 2 1;
#X connect 36 0 2 2;
#X connect 36 0 2 3;
#X connect 37 0 8 0;
#X connect 38 0 8 0;
#X connect 39 0 49 0;
#X connect 39 0 40 0;
#X connect 40 0 8 0;
#X connect 41 0 38 0;
#X connect 42 0 37 0;
#X connect 43 0 44 0;
#X connect 44 0 8 0;
#X connect 49 0 8 0;
#X coords 0 -1 1 1 140 105 2 280 100;
#X restore 825 10 pd lines;
#X text 822 -9 lines;
#X obj 18 54 player;
#X obj 322 557 pix_texture;
#X msg 174 17 dimen 800 250;
#N canvas 740 181 450 300 effects 0;
#X obj 158 15 cnv 15 145 150 empty empty empty 20 12 0 14 -72832 -66577
0;
#X obj 48 70 cnv 15 100 60 empty empty empty 20 12 0 14 -233017 -66577
0;
#X obj 11 229 pix_motionblur;
#X obj 11 206 shunt;
#X obj 151 206 shunt;
#X obj 151 228 pix_aging;
#X obj 291 205 shunt;
#X obj 291 228 pix_duotone;
#X obj 371 205 shunt;
#X obj 371 227 pix_lumaoffset;
#X obj 471 205 shunt;
#X obj 471 227 pix_kaleidoscope;
#X obj 163 19 tgl 20 0 empty empty empty 17 7 0 10 -260097 -1 -1 0
1;
#X text 189 20 blur;
#X obj 163 49 tgl 20 0 empty empty empty 17 7 0 10 -260097 -1 -1 0
1;
#X text 189 50 age;
#X obj 163 79 tgl 20 0 empty empty empty 17 7 0 10 -260097 -1 -1 0
1;
#X obj 163 109 tgl 20 0 empty empty empty 17 7 0 10 -260097 -1 -1 0
1;
#X text 189 80 b/w;
#X text 189 110 offset;
#X obj 163 139 tgl 20 0 empty empty empty 17 7 0 10 -260097 -1 -1 0
1;
#X text 189 140 kaleido;
#X floatatom 238 19 5 0 99 0 - - -;
#X obj 65 206 / 100;
#X floatatom 238 49 5 0 10 0 - - -;
#X msg 196 206 scratch \$1;
#X floatatom 238 109 5 0 50 2 - - -;
#X msg 410 205 fill \$1;
#X obj 277 109 tgl 20 0 empty empty empty 0 -6 0 8 -262144 -1 -1 0
1;
#X text 274 93 fill;
#X floatatom 238 139 5 0 12 2 - - -;
#X obj 11 175 inlet;
#X obj 471 268 outlet;
#X connect 2 0 4 0;
#X connect 3 0 4 0;
#X connect 3 1 2 0;
#X connect 4 0 6 0;
#X connect 4 1 5 0;
#X connect 5 0 6 0;
#X connect 6 0 8 0;
#X connect 6 1 7 0;
#X connect 7 0 8 0;
#X connect 8 0 10 0;
#X connect 8 1 9 0;
#X connect 9 0 10 0;
#X connect 10 0 32 0;
#X connect 10 1 11 0;
#X connect 11 0 32 0;
#X connect 12 0 3 1;
#X connect 14 0 4 1;
#X connect 16 0 6 1;
#X connect 17 0 8 1;
#X connect 20 0 10 1;
#X connect 22 0 23 0;
#X connect 23 0 2 1;
#X connect 24 0 25 0;
#X connect 25 0 5 0;
#X connect 26 0 9 1;
#X connect 27 0 9 0;
#X connect 28 0 27 0;
#X connect 30 0 11 1;
#X connect 31 0 3 0;
#X coords 0 -1 1 1 150 156 2 155 12;
#X restore 168 54 pd effects;
#X obj 322 587 rectangle 4 4;
#X obj 1167 304 bng 15 250 50 0 amp1 empty empty 17 7 0 10 -260097
-1 -1;
#X text 1184 302 up;
#X obj 1167 324 bng 15 250 50 0 amp5 empty empty 17 7 0 10 -260097
-1 -1;
#X obj 1167 344 bng 15 250 50 0 amp10 empty empty 17 7 0 10 -260097
-1 -1;
#X text 1184 322 mid;
#X text 1184 342 down;
#N canvas 740 181 450 300 effects 0;
#X obj 158 15 cnv 15 145 150 empty empty empty 20 12 0 14 -72832 -66577
0;
#X obj 48 70 cnv 15 100 60 empty empty empty 20 12 0 14 -233017 -66577
0;
#X obj 11 229 pix_motionblur;
#X obj 11 206 shunt;
#X obj 151 206 shunt;
#X obj 151 228 pix_aging;
#X obj 291 205 shunt;
#X obj 291 228 pix_duotone;
#X obj 371 205 shunt;
#X obj 371 227 pix_lumaoffset;
#X obj 471 205 shunt;
#X obj 471 227 pix_kaleidoscope;
#X obj 163 19 tgl 20 0 empty empty empty 17 7 0 10 -260097 -1 -1 0
1;
#X text 189 20 blur;
#X obj 163 49 tgl 20 0 empty empty empty 17 7 0 10 -260097 -1 -1 0
1;
#X text 189 50 age;
#X obj 163 79 tgl 20 0 empty empty empty 17 7 0 10 -260097 -1 -1 0
1;
#X obj 163 109 tgl 20 0 empty empty empty 17 7 0 10 -260097 -1 -1 0
1;
#X text 189 80 b/w;
#X text 189 110 offset;
#X obj 163 139 tgl 20 0 empty empty empty 17 7 0 10 -260097 -1 -1 0
1;
#X text 189 140 kaleido;
#X floatatom 238 19 5 0 99 0 - - -;
#X obj 65 206 / 100;
#X floatatom 238 49 5 0 10 0 - - -;
#X msg 196 206 scratch \$1;
#X floatatom 238 109 5 0 50 2 - - -;
#X msg 410 205 fill \$1;
#X obj 277 109 tgl 20 0 empty empty empty 0 -6 0 8 -262144 -1 -1 0
1;
#X text 274 93 fill;
#X floatatom 238 139 5 0 12 2 - - -;
#X obj 11 175 inlet;
#X obj 471 268 outlet;
#X connect 2 0 4 0;
#X connect 3 0 4 0;
#X connect 3 1 2 0;
#X connect 4 0 6 0;
#X connect 4 1 5 0;
#X connect 5 0 6 0;
#X connect 6 0 8 0;
#X connect 6 1 7 0;
#X connect 7 0 8 0;
#X connect 8 0 10 0;
#X connect 8 1 9 0;
#X connect 9 0 10 0;
#X connect 10 0 32 0;
#X connect 10 1 11 0;
#X connect 11 0 32 0;
#X connect 12 0 3 1;
#X connect 14 0 4 1;
#X connect 16 0 6 1;
#X connect 17 0 8 1;
#X connect 20 0 10 1;
#X connect 22 0 23 0;
#X connect 23 0 2 1;
#X connect 24 0 25 0;
#X connect 25 0 5 0;
#X connect 26 0 9 1;
#X connect 27 0 9 0;
#X connect 28 0 27 0;
#X connect 30 0 11 1;
#X connect 31 0 3 0;
#X coords 0 -1 1 1 150 156 2 155 12;
#X restore 358 54 pd effects;
#X obj 326 263 #downscale_by 6;
#X obj 326 284 #see;
#N canvas 59 53 450 300 multiply 0;
#X obj 154 198 pix_mix;
#X obj 215 197 pix_multiply;
#X obj 154 108 shunt;
#X obj 257 108 shunt;
#X obj 144 5 hsl 128 40 0 1 0 0 empty empty empty 0 -20 0 20 -260097
-1 -1 0 1;
#X obj 280 5 tgl 40 0 empty empty empty 35 15 0 20 -260097 -1 -1 0
1;
#X obj 110 78 inlet;
#X obj 172 223 outlet;
#X obj 310 78 inlet;
#X connect 0 0 7 0;
#X connect 1 0 7 0;
#X connect 2 0 0 0;
#X connect 2 1 1 0;
#X connect 3 0 0 1;
#X connect 3 1 1 1;
#X connect 4 0 0 2;
#X connect 5 0 2 1;
#X connect 5 0 3 1;
#X connect 6 0 2 0;
#X connect 8 0 3 0;
#X coords 0 -1 1 1 190 50 2 135 0;
#X restore 250 374 pd multiply;
#X text 391 348 multiply;
#X text 321 348 mix;
#X floatatom 202 520 5 0 0 0 - - -;
#X msg 204 494 4;
#X obj 201 475 bng 15 250 50 0 empty switch1 empty 17 7 0 10 -262144
-1 -1;
#X obj 287 488 gate 3;
#X obj 168 253 bng 30 250 50 0 switchleft1 empty empty 17 7 0 10 -258113
-1 -1;
#X obj 168 293 bng 30 250 50 0 switchleft2 empty empty 17 7 0 10 -258113
-1 -1;
#X obj 168 333 bng 30 250 50 0 switchleft3 empty empty 17 7 0 10 -258113
-1 -1;
#N canvas 357 194 450 300 switch 0;
#X obj 127 102 switch 3;
#X msg 43 42 1;
#X msg 73 42 2;
#X msg 103 42 3;
#X obj 132 42 inlet;
#X obj 172 42 inlet;
#X obj 212 42 inlet;
#X obj 43 24 bng 15 250 50 0 empty switchleft1 empty 17 7 0 10 -262144
-1 -1;
#X obj 73 24 bng 15 250 50 0 empty switchleft2 empty 17 7 0 10 -262144
-1 -1;
#X obj 103 24 bng 15 250 50 0 empty switchleft3 empty 17 7 0 10 -262144
-1 -1;
#X obj 127 123 outlet;
#X connect 0 0 10 0;
#X connect 1 0 0 0;
#X connect 2 0 0 0;
#X connect 3 0 0 0;
#X connect 4 0 0 1;
#X connect 5 0 0 2;
#X connect 6 0 0 3;
#X connect 7 0 1 0;
#X connect 8 0 2 0;
#X connect 9 0 3 0;
#X restore 18 413 pd switch;
#X obj 18 174 player;
#X obj 18 294 player;
#X obj 518 54 player;
#X obj 518 174 player;
#X obj 518 294 player;
#X connect 1 0 0 0;
#X connect 3 0 0 0;
#X connect 4 0 2 0;
#X connect 5 0 9 0;
#X connect 9 0 0 0;
#X connect 12 0 36 0;
#X connect 13 0 16 0;
#X connect 14 0 0 0;
#X connect 15 0 13 0;
#X connect 24 0 25 0;
#X connect 30 0 29 0;
#X connect 31 0 30 0;
#X connect 36 0 15 0;
#X connect 37 0 36 1;
#X connect 38 0 36 2;
