#N canvas 680 170 648 660 10;
#X declare -lib mrpeach;
#X declare -lib gridflow;
#X declare -path /home/hellocatfood/pd-externals/hellocatfood;
#X obj 1026 10 soundvalues;
#N canvas 61 24 450 300 record 0;
#X obj 79 86 gemhead 99;
#X obj 79 180 pix_write;
#X msg 146 158 auto \$1;
#X text 168 35 record;
#X obj 80 10 tgl 20 0 empty empty empty 17 7 0 10 -4034 -1 -1 0 1;
#X obj 146 139 tgl 15 0 empty empty empty 17 7 0 10 -262144 -1 -1 0
1;
#X obj 80 37 t b b b;
#X msg 143 114 file /home/hellocatfood/Desktop/glitch 0;
#X obj 121 11 bng 20 250 50 0 empty empty empty 17 7 0 10 -4034 -1
-1;
#X connect 0 0 1 0;
#X connect 2 0 1 0;
#X connect 4 0 6 0;
#X connect 5 0 2 0;
#X connect 6 0 5 0;
#X connect 6 1 0 0;
#X connect 6 2 7 0;
#X connect 7 0 1 0;
#X coords 0 -1 1 1 20 20 2 80 10;
#X restore 497 343 pd record;
#N canvas 59 66 1366 714 lines 0;
#X obj 283 103 cnv 15 135 150 empty empty empty 20 12 0 14 -228856
-66577 0;
#X obj 58 300 translateXYZ;
#X obj 58 359 rotateXYZ;
#X obj 176 312 counter;
#X obj 176 334 % 360;
#X obj 58 326 color;
#X obj 85 184 pack f f f;
#X obj 176 290 metro 50;
#X obj 58 387 scopeXYZ~;
#X obj 58 40 gemhead 60;
#X obj 120 129 osc~;
#X obj 76 129 osc~;
#X obj 167 129 osc~;
#X obj 75 64 r env1;
#X obj 167 89 * 1000;
#X obj 120 89 * 1000;
#X obj 76 89 * 1000;
#X obj 120 64 r env4;
#X obj 167 64 r env5;
#X obj 127 209 r env1;
#X obj 127 229 * 2;
#X obj 289 109 tgl 15 0 empty empty empty 17 7 0 10 -260097 -1 -1 0
1;
#X obj 176 357 spigot;
#X obj 226 357 spigot;
#X obj 276 357 spigot;
#X text 306 108 on/off;
#X obj 287 130 cnv 15 75 70 empty empty empty 20 12 0 14 -4034 -66577
0;
#X obj 289 152 tgl 15 0 empty empty empty 17 7 0 10 -262144 -1 -1 0
1;
#X obj 290 171 tgl 15 0 empty empty empty 17 7 0 10 -262144 -1 -1 0
1;
#X obj 310 171 tgl 15 0 empty empty empty 17 7 0 10 -262144 -1 -1 0
1;
#X obj 330 171 tgl 15 0 empty empty empty 17 7 0 10 -262144 -1 -1 0
1;
#X text 292 183 x;
#X text 312 183 y;
#X text 332 183 z;
#X obj 58 419 inlet;
#X text 287 131 rotate;
#X floatatom 328 133 5 0 360 0 - - -;
#X msg 356 301 draw fill;
#X msg 356 320 draw line;
#X msg 356 421 width 2;
#X obj 367 133 bng 15 250 50 0 empty empty empty 17 7 0 10 -262144
-1 -1;
#X obj 367 153 bng 15 250 50 0 empty empty empty 17 7 0 10 -262144
-1 -1;
#X obj 367 173 bng 15 250 50 0 empty empty empty 17 7 0 10 -262144
-1 -1;
#X msg 356 340 draw point;
#X text 384 132 line;
#X text 384 152 fill;
#X text 385 172 point;
#X text 307 150 auto rot;
#X obj 366 107 cnv 15 50 20 empty empty empty 20 12 0 14 -257985 -66577
0;
#X text 370 107 lines;
#X floatatom 287 204 5 0 500 0 - - -;
#X msg 356 400 length \$1;
#X obj 445 371 * 100;
#X text 323 203 length;
#X obj 355 364 loadbang;
#X obj 167 109 spigot;
#X obj 287 225 tgl 15 0 empty empty empty 17 7 0 10 -262144 -1 -1 0
1;
#X obj 120 109 spigot;
#X obj 76 109 spigot;
#X obj 307 225 tgl 15 0 empty empty empty 17 7 0 10 -262144 -1 -1 0
1;
#X obj 327 225 tgl 15 0 empty empty empty 17 7 0 10 -262144 -1 -1 0
1;
#X text 289 236 x;
#X text 309 236 y;
#X text 329 236 z;
#X text 346 223 affect;
#X connect 1 0 5 0;
#X connect 2 0 8 0;
#X connect 3 0 4 0;
#X connect 4 0 22 0;
#X connect 4 0 23 0;
#X connect 4 0 24 0;
#X connect 5 0 2 0;
#X connect 6 0 5 1;
#X connect 7 0 3 0;
#X connect 9 0 1 0;
#X connect 10 0 8 2;
#X connect 11 0 8 1;
#X connect 12 0 8 3;
#X connect 13 0 16 0;
#X connect 13 0 6 0;
#X connect 14 0 55 0;
#X connect 15 0 57 0;
#X connect 16 0 58 0;
#X connect 17 0 15 0;
#X connect 17 0 6 1;
#X connect 18 0 14 0;
#X connect 18 0 6 2;
#X connect 19 0 20 0;
#X connect 20 0 1 3;
#X connect 21 0 9 0;
#X connect 22 0 2 1;
#X connect 23 0 2 2;
#X connect 27 0 7 0;
#X connect 28 0 22 1;
#X connect 29 0 23 1;
#X connect 30 0 24 1;
#X connect 34 0 8 0;
#X connect 36 0 2 1;
#X connect 36 0 2 2;
#X connect 36 0 2 3;
#X connect 37 0 8 0;
#X connect 38 0 8 0;
#X connect 39 0 8 0;
#X connect 40 0 38 0;
#X connect 41 0 37 0;
#X connect 42 0 43 0;
#X connect 43 0 8 0;
#X connect 50 0 52 0;
#X connect 51 0 8 0;
#X connect 52 0 51 0;
#X connect 54 0 39 0;
#X connect 55 0 12 0;
#X connect 56 0 55 1;
#X connect 57 0 10 0;
#X connect 58 0 11 0;
#X connect 59 0 57 1;
#X connect 60 0 58 1;
#X coords 0 -1 1 1 140 155 2 280 100;
#X restore 873 10 pd lines;
#X obj 1215 303 bng 15 250 50 0 amp1 empty empty 17 7 0 10 -260097
-1 -1;
#X text 1232 302 up;
#X obj 1215 324 bng 15 250 50 0 amp5 empty empty 17 7 0 10 -260097
-1 -1;
#X obj 1215 344 bng 15 250 50 0 amp10 empty empty 17 7 0 10 -260097
-1 -1;
#X text 1232 322 mid;
#X text 1232 342 down;
#N canvas 252 65 450 300 multiply 0;
#X obj 154 198 pix_mix;
#X obj 215 197 pix_multiply;
#X obj 154 108 shunt;
#X obj 257 108 shunt;
#X obj 144 5 hsl 180 40 0 1 0 0 empty empty empty 0 -20 0 20 -260097
-1 -1 0 1;
#X obj 330 5 tgl 40 0 empty empty empty 35 15 0 20 -260097 -1 -1 0
1;
#X obj 110 78 inlet;
#X obj 172 223 outlet;
#X obj 310 78 inlet;
#X obj 141 -25 spigot;
#X obj 184 -49 inlet;
#X obj 61 -48 r env4;
#X connect 0 0 7 0;
#X connect 1 0 7 0;
#X connect 2 0 0 0;
#X connect 2 1 1 0;
#X connect 3 0 0 1;
#X connect 3 1 1 1;
#X connect 4 0 0 2;
#X connect 5 0 2 1;
#X connect 5 0 3 1;
#X connect 6 0 2 0;
#X connect 8 0 3 0;
#X connect 9 0 4 0;
#X connect 10 0 9 1;
#X connect 11 0 9 0;
#X coords 0 -1 1 1 242 50 2 135 0;
#X restore 328 286 pd multiply;
#X text 518 266 multiply;
#X text 437 266 mix;
#N canvas 59 24 450 300 preview 0;
#X obj 222 14 cnv 15 120 143 empty empty empty 20 12 0 14 -85113 -66577
0;
#X obj 47 110 pix_texture;
#X obj 127 230 #downscale_by 6;
#X obj 127 197 #from_pix;
#X obj 47 85 inlet;
#X obj 226 18 tgl 20 0 previews empty empty 17 7 0 10 -260097 -1 -1
0 1;
#X text 250 17 preview on/off;
#X obj 127 152 spigot;
#X obj 47 257 scaleXYZ;
#X obj 47 280 outlet;
#X floatatom 226 138 5 0 0 0 - - -;
#X text 263 137 scale tex;
#X obj 225 43 #see;
#X obj 127 132 separator;
#X obj 47 132 separator;
#X connect 1 0 13 0;
#X connect 1 0 14 0;
#X connect 2 0 12 0;
#X connect 3 0 2 0;
#X connect 4 0 1 0;
#X connect 5 0 7 1;
#X connect 7 0 3 0;
#X connect 8 0 9 0;
#X connect 10 0 8 3;
#X connect 13 0 7 0;
#X connect 14 0 8 0;
#X coords 0 -1 1 1 124 147 2 220 12;
#X restore 366 343 pd preview;
#X obj 366 500 scaleXYZ;
#X obj 367 521 square;
#X obj 328 266 tgl 20 0 empty empty empty 17 7 0 10 -257985 -1 -1 0
1;
#N canvas 66 120 450 300 scaletext 0;
#X floatatom 103 103 3 0 15 0 - - -;
#X floatatom 103 124 3 0 5 0 - - -;
#X obj 54 105 line;
#X obj 54 155 line;
#X obj 24 194 outlet;
#X obj 74 194 outlet;
#X msg 54 84 \$1 200;
#X msg 54 133 \$1 200;
#X obj 132 40 loadbang;
#X msg 132 60 6;
#X msg 162 60 4;
#X connect 0 0 6 0;
#X connect 1 0 7 0;
#X connect 2 0 4 0;
#X connect 3 0 5 0;
#X connect 6 0 2 0;
#X connect 7 0 3 0;
#X connect 8 0 9 0;
#X connect 8 0 10 0;
#X connect 9 0 0 0;
#X connect 10 0 1 0;
#X coords 0 -1 1 1 25 43 2 100 100;
#X restore 426 498 pd scaletext;
#X text 452 501 x;
#X text 452 522 y;
#X text 519 343 record;
#X obj 622 412 udpreceive 57120;
#X obj 622 432 unpackOSC;
#X obj 35 10 videobrowse;
#X text 350 266 gen;
#N canvas 59 24 450 300 fading 0;
#X obj 102 63 bng 25 250 50 0 fading empty empty 17 7 0 10 -260097
-1 -1;
#X obj 102 33 bng 25 250 50 0 fading empty empty 17 7 0 10 -257985
-1 -1;
#X obj 163 124 line;
#X obj 163 165 s fading;
#X obj 163 145 / 100;
#X msg 103 103 0 1000;
#X msg 163 103 100 1000;
#X connect 0 0 5 0;
#X connect 1 0 6 0;
#X connect 2 0 4 0;
#X connect 4 0 3 0;
#X connect 5 0 2 0;
#X connect 6 0 2 0;
#X coords 0 -1 1 1 30 60 2 100 30;
#X restore 497 373 pd fading;
#X text 528 380 fade in;
#X text 528 407 fade out;
#X obj 622 452 routeOSC /bile;
#X obj 296 -10 somepixeffects;
#X msg 723 273 open \$1;
#X msg 35 272 open \$1;
#X obj 457 -10 somepixeffects;
#X obj 1026 -16 nbx 5 20 1 300 0 0 empty empty empty 0 -8 0 10 -260097
-1 -1 1 256;
#X obj 723 293 player;
#X obj 36 292 player;
#N canvas 59 34 450 300 Shelly 0;
#X obj 102 102 cnv 15 55 80 empty empty empty 20 12 0 14 -260097 -66577
0;
#X obj 107 29 inlet;
#X obj 107 50 routeOSC /Shelly;
#X floatatom 107 125 5 0 0 0 - - -;
#X floatatom 107 144 5 0 0 0 - - -;
#X floatatom 107 163 5 0 0 0 - - -;
#X obj 107 71 routeOSC /x;
#X obj 182 71 routeOSC /y;
#X obj 258 71 routeOSC /z;
#X obj 107 195 outlet;
#X obj 182 195 outlet;
#X obj 258 195 outlet;
#X text 107 102 Shelly;
#X text 141 124 x;
#X text 142 144 y;
#X text 141 161 z;
#X connect 1 0 2 0;
#X connect 2 0 6 0;
#X connect 2 0 7 0;
#X connect 2 0 8 0;
#X connect 3 0 9 0;
#X connect 4 0 10 0;
#X connect 5 0 11 0;
#X connect 6 0 3 0;
#X connect 7 0 4 0;
#X connect 8 0 5 0;
#X coords 0 -1 1 1 59 84 2 100 100;
#X restore 622 469 pd Shelly;
#N canvas 59 34 450 300 Shelly 0;
#X obj 102 102 cnv 15 55 80 empty empty empty 20 12 0 14 -260097 -66577
0;
#X obj 107 29 inlet;
#X floatatom 107 125 5 0 0 0 - - -;
#X floatatom 107 144 5 0 0 0 - - -;
#X floatatom 107 163 5 0 0 0 - - -;
#X obj 107 71 routeOSC /x;
#X obj 182 71 routeOSC /y;
#X obj 258 71 routeOSC /z;
#X obj 107 195 outlet;
#X obj 182 195 outlet;
#X obj 258 195 outlet;
#X text 141 124 x;
#X text 142 144 y;
#X text 141 161 z;
#X text 107 102 jorge;
#X obj 107 50 routeOSC /jorge;
#X connect 1 0 15 0;
#X connect 2 0 8 0;
#X connect 3 0 9 0;
#X connect 4 0 10 0;
#X connect 5 0 2 0;
#X connect 6 0 3 0;
#X connect 7 0 4 0;
#X connect 15 0 5 0;
#X connect 15 0 6 0;
#X connect 15 0 7 0;
#X coords 0 -1 1 1 59 84 2 100 100;
#X restore 684 469 pd Shelly;
#N canvas 59 34 450 300 Shelly 0;
#X obj 102 102 cnv 15 55 80 empty empty empty 20 12 0 14 -260097 -66577
0;
#X obj 107 29 inlet;
#X floatatom 107 125 5 0 0 0 - - -;
#X floatatom 107 144 5 0 0 0 - - -;
#X floatatom 107 163 5 0 0 0 - - -;
#X obj 107 71 routeOSC /x;
#X obj 182 71 routeOSC /y;
#X obj 258 71 routeOSC /z;
#X obj 107 195 outlet;
#X obj 182 195 outlet;
#X obj 258 195 outlet;
#X text 141 124 x;
#X text 142 144 y;
#X text 141 161 z;
#X text 107 102 norah;
#X obj 107 50 routeOSC /norah;
#X connect 1 0 15 0;
#X connect 2 0 8 0;
#X connect 3 0 9 0;
#X connect 4 0 10 0;
#X connect 5 0 2 0;
#X connect 6 0 3 0;
#X connect 7 0 4 0;
#X connect 15 0 5 0;
#X connect 15 0 6 0;
#X connect 15 0 7 0;
#X coords 0 -1 1 1 59 84 2 100 100;
#X restore 746 469 pd Shelly;
#N canvas 59 34 450 300 Shelly 0;
#X obj 102 102 cnv 15 55 80 empty empty empty 20 12 0 14 -260097 -66577
0;
#X obj 107 29 inlet;
#X floatatom 107 125 5 0 0 0 - - -;
#X floatatom 107 144 5 0 0 0 - - -;
#X floatatom 107 163 5 0 0 0 - - -;
#X obj 107 71 routeOSC /x;
#X obj 182 71 routeOSC /y;
#X obj 258 71 routeOSC /z;
#X obj 107 195 outlet;
#X obj 182 195 outlet;
#X obj 258 195 outlet;
#X text 141 124 x;
#X text 142 144 y;
#X text 141 161 z;
#X text 106 102 Julien;
#X obj 107 50 routeOSC /Julien;
#X connect 1 0 15 0;
#X connect 2 0 8 0;
#X connect 3 0 9 0;
#X connect 4 0 10 0;
#X connect 5 0 2 0;
#X connect 6 0 3 0;
#X connect 7 0 4 0;
#X connect 15 0 5 0;
#X connect 15 0 6 0;
#X connect 15 0 7 0;
#X coords 0 -1 1 1 59 84 2 100 100;
#X restore 808 469 pd Shelly;
#N canvas 59 34 450 300 Shelly 0;
#X obj 102 102 cnv 15 55 80 empty empty empty 20 12 0 14 -260097 -66577
0;
#X obj 107 29 inlet;
#X floatatom 107 125 5 0 0 0 - - -;
#X floatatom 107 144 5 0 0 0 - - -;
#X floatatom 107 163 5 0 0 0 - - -;
#X obj 107 71 routeOSC /x;
#X obj 182 71 routeOSC /y;
#X obj 258 71 routeOSC /z;
#X obj 107 195 outlet;
#X obj 182 195 outlet;
#X obj 258 195 outlet;
#X text 141 124 x;
#X text 142 144 y;
#X text 141 161 z;
#X text 107 102 chris;
#X obj 107 50 routeOSC /chris;
#X connect 1 0 15 0;
#X connect 2 0 8 0;
#X connect 3 0 9 0;
#X connect 4 0 10 0;
#X connect 5 0 2 0;
#X connect 6 0 3 0;
#X connect 7 0 4 0;
#X connect 15 0 5 0;
#X connect 15 0 6 0;
#X connect 15 0 7 0;
#X coords 0 -1 1 1 59 84 2 100 100;
#X restore 870 469 pd Shelly;
#N canvas 59 34 450 300 Shelly 0;
#X obj 102 102 cnv 15 55 80 empty empty empty 20 12 0 14 -260097 -66577
0;
#X obj 107 29 inlet;
#X obj 107 50 routeOSC /Shelly;
#X floatatom 107 125 5 0 0 0 - - -;
#X floatatom 107 144 5 0 0 0 - - -;
#X floatatom 107 163 5 0 0 0 - - -;
#X obj 107 71 routeOSC /x;
#X obj 182 71 routeOSC /y;
#X obj 258 71 routeOSC /z;
#X obj 107 195 outlet;
#X obj 182 195 outlet;
#X obj 258 195 outlet;
#X text 107 102 Shelly;
#X text 141 124 x;
#X text 142 144 y;
#X text 141 161 z;
#X connect 1 0 2 0;
#X connect 2 0 6 0;
#X connect 2 0 7 0;
#X connect 2 0 8 0;
#X connect 3 0 9 0;
#X connect 4 0 10 0;
#X connect 5 0 11 0;
#X connect 6 0 3 0;
#X connect 7 0 4 0;
#X connect 8 0 5 0;
#X coords 0 -1 1 1 59 84 2 100 100;
#X restore 932 469 pd Shelly;
#X text 476 501 7;
#X text 479 525 5;
#N canvas 348 120 681 684 text 0;
#X obj 272 102 cnv 15 250 70 empty empty empty 20 12 0 14 -203904 -66577
0;
#X obj 84 57 gemhead;
#X msg 94 141 font \$1;
#X obj 94 122 openpanel;
#X obj 331 109 bng 15 250 50 0 empty empty empty 0 -6 0 8 -262144 -1
-1;
#X obj 84 98 translateXYZ;
#X obj 84 356 text2d;
#X symbolatom 276 128 40 0 0 0 - - -;
#X text 349 106 open font;
#X obj 94 243 loadbang;
#X msg 94 262 font /home/hellocatfood/.fonts/Orbitron-Black.ttf;
#X obj 279 150 hsl 40 15 -4 4 0 0 empty empty x 30 7 0 10 -260097 -1
-1 1950 1;
#X obj 276 215 line;
#X obj 329 150 hsl 40 15 -4 4 0 0 empty empty y 30 7 0 10 -260097 -1
-1 1950 1;
#X obj 326 215 line;
#X obj 276 109 tgl 15 0 empty empty empty 17 7 0 10 -260097 -1 -1 0
1;
#X text 293 107 render;
#X msg 117 315 \$1 100;
#X obj 117 335 line;
#X obj 468 104 cnv 15 50 20 empty empty empty 20 12 0 14 -257985 -66577
0;
#X text 472 104 text;
#X obj 400 150 nbx 3 15 -1e+37 1e+37 0 0 empty empty empty 0 -8 0 10
-4034 -1 -1 0 256;
#X text 437 149 size;
#X obj 174 146 r displaytext;
#X obj 174 168 spigot;
#X obj 468 150 tgl 15 0 empty empty empty 17 7 0 10 -4034 -1 -1 0 1
;
#X text 485 148 irc;
#X symbolatom 158 230 10 0 0 0 - - -;
#X obj 201 195 bng 15 250 50 0 empty empty empty 17 7 0 10 -262144
-1 -1;
#X msg 276 243 text \$1;
#X obj 276 308 loadbang;
#X obj 378 150 bng 15 250 50 0 empty empty empty 0 -6 0 8 -258113 -1
-1;
#X msg 276 288 0;
#X msg 326 195 \$1 100;
#X msg 276 195 \$1 100;
#X obj 84 178 translateXYZ;
#X obj 521 276 / 100;
#X obj 521 215 tgl 15 0 empty empty empty 17 7 0 10 -262144 -1 -1 0
1;
#X obj 591 276 / 100;
#X obj 591 215 tgl 15 0 empty empty empty 17 7 0 10 -262144 -1 -1 0
1;
#X obj 521 254 random 30;
#X obj 591 255 random 30;
#X obj 521 234 metro 50;
#X obj 591 234 metro 50;
#X obj 414 109 tgl 15 0 empty empty empty 17 7 0 10 -260097 -1 -1 0
1;
#X text 431 107 shake;
#X obj 276 45 loadbang;
#X obj 276 67 t b b;
#X connect 1 0 5 0;
#X connect 2 0 6 0;
#X connect 3 0 2 0;
#X connect 4 0 3 0;
#X connect 5 0 35 0;
#X connect 7 0 29 0;
#X connect 9 0 10 0;
#X connect 10 0 6 0;
#X connect 11 0 34 0;
#X connect 12 0 5 1;
#X connect 13 0 33 0;
#X connect 14 0 5 2;
#X connect 15 0 1 0;
#X connect 17 0 18 0;
#X connect 18 0 6 1;
#X connect 21 0 17 0;
#X connect 23 0 24 0;
#X connect 24 0 27 0;
#X connect 24 0 28 0;
#X connect 25 0 24 1;
#X connect 27 0 29 0;
#X connect 28 0 27 0;
#X connect 29 0 6 0;
#X connect 30 0 32 0;
#X connect 31 0 32 0;
#X connect 32 0 13 0;
#X connect 32 0 11 0;
#X connect 33 0 14 0;
#X connect 34 0 12 0;
#X connect 35 0 6 0;
#X connect 36 0 35 1;
#X connect 37 0 42 0;
#X connect 38 0 35 2;
#X connect 39 0 43 0;
#X connect 40 0 36 0;
#X connect 41 0 38 0;
#X connect 42 0 40 0;
#X connect 43 0 41 0;
#X connect 44 0 37 0;
#X connect 44 0 39 0;
#X connect 46 0 47 0;
#X connect 47 0 15 0;
#X connect 47 0 44 0;
#X connect 47 1 15 0;
#X connect 47 1 44 0;
#X coords 0 -1 1 1 254 74 2 270 100;
#X restore 1001 384 pd text;
#N canvas 444 119 681 684 disk 0;
#X obj 283 103 cnv 15 135 100 empty empty empty 20 12 0 14 -228856
-66577 0;
#X obj 68 230 translateXYZ;
#X obj 68 289 rotateXYZ;
#X obj 186 192 counter;
#X obj 186 214 % 360;
#X obj 68 256 color;
#X obj 95 114 pack f f f;
#X obj 186 170 metro 50;
#X obj 85 74 r env1;
#X obj 130 74 r env4;
#X obj 177 74 r env5;
#X obj 137 159 r env1;
#X obj 289 109 tgl 15 1 empty empty empty 17 7 0 10 -260097 -1 -1 0
1;
#X obj 186 237 spigot;
#X text 306 108 on/off;
#X obj 287 130 cnv 15 75 70 empty empty empty 20 12 0 14 -4034 -66577
0;
#X obj 289 152 tgl 15 0 empty empty empty 17 7 0 10 -262144 -1 -1 0
1;
#X obj 289 171 tgl 15 0 empty empty empty 17 7 0 10 -262144 -1 -1 0
1;
#X text 291 183 z;
#X obj 42 353 inlet;
#X text 287 131 rotate;
#X floatatom 328 133 5 0 360 0 - - -;
#X msg 366 231 draw fill;
#X msg 366 250 draw line;
#X obj 367 133 bng 15 250 50 0 empty empty empty 17 7 0 10 -262144
-1 -1;
#X obj 367 153 bng 15 250 50 0 empty empty empty 17 7 0 10 -262144
-1 -1;
#X obj 367 173 bng 15 250 50 0 empty empty empty 17 7 0 10 -262144
-1 -1;
#X msg 366 270 draw point;
#X text 384 132 line;
#X text 384 152 fill;
#X text 385 172 point;
#X text 307 150 auto rot;
#X floatatom 132 359 5 0 0 0 - - -;
#X obj 132 314 loadbang;
#X obj 197 314 r env1;
#X obj 366 107 cnv 15 50 20 empty empty empty 20 12 0 14 -257985 -66577
0;
#X obj 137 179 * 5;
#X obj 197 334 * 4;
#X floatatom 309 171 5 0 0 0 - - -;
#X obj 68 407 disk;
#X msg 132 336 3;
#X text 308 183 segments;
#X obj 69 50 gemhead 59;
#X obj 137 199 - 1;
#X text 370 107 disk;
#X connect 1 0 5 0;
#X connect 2 0 39 0;
#X connect 3 0 4 0;
#X connect 4 0 13 0;
#X connect 5 0 2 0;
#X connect 6 0 5 1;
#X connect 7 0 3 0;
#X connect 8 0 6 1;
#X connect 9 0 6 2;
#X connect 10 0 6 0;
#X connect 11 0 36 0;
#X connect 12 0 42 0;
#X connect 13 0 2 3;
#X connect 16 0 7 0;
#X connect 17 0 13 1;
#X connect 19 0 39 0;
#X connect 21 0 2 3;
#X connect 22 0 39 0;
#X connect 23 0 39 0;
#X connect 24 0 23 0;
#X connect 25 0 22 0;
#X connect 26 0 27 0;
#X connect 27 0 39 0;
#X connect 32 0 39 1;
#X connect 33 0 40 0;
#X connect 34 0 37 0;
#X connect 36 0 43 0;
#X connect 37 0 39 3;
#X connect 38 0 39 2;
#X connect 40 0 32 0;
#X connect 42 0 1 0;
#X connect 43 0 1 3;
#X coords 0 -1 1 1 140 105 2 280 100;
#X restore 873 172 pd disk;
#N canvas 354 304 450 300 messaging 0;
#X obj 63 33 cnv 15 242 80 empty empty empty 20 12 0 14 -228856 -66577
0;
#X obj 66 60 cnv 15 235 50 empty empty empty 20 12 0 14 -4034 -66577
0;
#X obj 225 254 udpsend;
#X obj 225 231 packOSC;
#X msg 225 206 connect 255.255.255.255 57120;
#X msg 225 180 disconnect;
#X obj 51 152 routeOSC /msg;
#X obj 51 173 print;
#X msg 51 194 set \$1;
#X msg 145 152 send /bile/msg Antonio \$1;
#X symbolatom 69 63 30 0 0 0 - - -;
#X symbolatom 115 88 30 0 0 0 - - -;
#X obj 12 152 inlet;
#X obj 66 36 bng 15 250 50 0 empty empty empty 17 7 0 10 -260097 -1
-1;
#X obj 156 36 bng 15 250 50 0 empty empty empty 17 7 0 10 -258113 -1
-1;
#X text 82 34 connect;
#X text 172 34 disconnect;
#X text 272 62 send;
#X text 65 88 recieve;
#X obj 251 36 cnv 15 50 20 empty empty empty 20 12 0 14 -257985 -66577
0;
#X text 256 36 irc;
#X obj 338 99 s displaytext;
#X connect 3 0 2 0;
#X connect 4 0 2 0;
#X connect 5 0 2 0;
#X connect 6 0 7 0;
#X connect 6 0 8 0;
#X connect 8 0 11 0;
#X connect 8 0 21 0;
#X connect 9 0 3 0;
#X connect 10 0 9 0;
#X connect 12 0 6 0;
#X connect 13 0 4 0;
#X connect 14 0 5 0;
#X coords 0 -1 1 1 248 86 2 60 30;
#X restore 1001 469 pd messaging;
#X obj 610 10 videobrowse;
#N canvas 624 227 450 300 starting 1;
#X obj 87 105 gemwin;
#X msg 87 0 create \, 1;
#X obj 12 22 world_light;
#X msg 87 22 0 \, destroy;
#X obj 12 0 gemhead 50;
#X obj 161 0 tgl 15 1 empty empty empty 17 7 0 10 -262144 -1 -1 1 1
;
#X msg 250 42 border 0;
#X msg 250 22 cursor 0;
#X obj 12 -22 import mrpeach;
#X msg 162 22 lighting \$1;
#X msg 311 22 offset 1366 0;
#X msg 161 42 dimen 1152 864;
#X obj 161 -110 inlet;
#X obj 211 -110 inlet;
#X obj 261 -110 inlet;
#X obj 12 -44 import gridflow;
#X obj 12 -64 path /home/hellocatfood/pd-externals/hellocatfood;
#X connect 1 0 0 0;
#X connect 3 0 0 0;
#X connect 4 0 2 0;
#X connect 5 0 9 0;
#X connect 6 0 0 0;
#X connect 7 0 0 0;
#X connect 9 0 0 0;
#X connect 10 0 0 0;
#X connect 11 0 0 0;
#X connect 12 0 11 0;
#X connect 12 0 6 0;
#X connect 12 0 10 0;
#X connect 13 0 1 0;
#X connect 14 0 3 0;
#X restore 416 -34 pd starting;
#X obj 416 -84 bng 20 250 50 0 empty empty empty 17 7 0 10 -258113
-1 -1;
#X text 445 -81 prepare;
#X obj 496 -84 bng 20 250 50 0 empty empty empty 17 7 0 10 -4034 -1
-1;
#X obj 416 -54 bng 15 250 50 0 empty empty empty 17 7 0 10 -4160 -1
-1;
#X text 436 -55 stop;
#X text 526 -81 go;
#X connect 9 0 12 0;
#X connect 12 0 13 0;
#X connect 13 0 14 0;
#X connect 15 0 9 1;
#X connect 16 0 13 1;
#X connect 16 1 13 2;
#X connect 20 0 21 0;
#X connect 21 0 27 0;
#X connect 22 0 30 0;
#X connect 27 0 35 0;
#X connect 27 0 36 0;
#X connect 27 0 37 0;
#X connect 27 0 38 0;
#X connect 27 0 39 0;
#X connect 27 0 40 0;
#X connect 27 0 45 0;
#X connect 28 0 9 0;
#X connect 29 0 33 0;
#X connect 30 0 34 0;
#X connect 31 0 9 2;
#X connect 32 0 0 0;
#X connect 33 0 31 0;
#X connect 34 0 28 0;
#X connect 46 0 29 0;
#X connect 48 0 47 0;
#X connect 50 0 47 1;
#X connect 51 0 47 2;
