#N canvas 335 452 595 653 10;
#X obj 161 17 gemhead;
#X obj 188 100 f;
#X obj 221 100 + 1;
#X obj 161 391 translateXYZ;
#X obj 161 71 t a b;
#X obj 202 280 sin;
#X obj 202 150 timer;
#X obj 161 125 separator;
#X obj 247 280 cos;
#X obj 202 308 *;
#X obj 247 308 *;
#X obj 202 251 +;
#X obj 217 227 *;
#X obj 202 178 / 5000;
#X obj 232 202 sin;
#X obj 202 338 * 0.1;
#X obj 247 338 * 0.1;
#X obj 161 43 repeat 20;
#X obj 254 99 % 20;
#X obj 292 307 *;
#X obj 161 453 rotateXYZ;
#X obj 178 421 * 30;
#X obj 214 421 * 45;
#X obj 161 551 color;
#X obj 161 524 alpha;
#X obj 260 511 hsv2rgb;
#X obj 161 618 cube 0.5;
#X msg 209 592 draw line;
#X msg 210 568 draw fill;
#X obj 188 502 tgl 15 0 empty empty empty 17 7 0 10 -262144 -1 -1 1
1;
#X obj 292 281 tan;
#X obj 250 421 * 15;
#X obj 292 337 * 0.1;
#X obj 260 483 pack 0 1 1 0.5;
#X obj 188 478 loadbang;
#X obj 103 578 scaleXYZ;
#X floatatom 125 518 5 0 0 0 - - -;
#X floatatom 81 453 5 0 0 0 - - -;
#X connect 0 0 17 0;
#X connect 1 0 2 0;
#X connect 2 0 18 0;
#X connect 3 0 20 0;
#X connect 4 0 7 0;
#X connect 4 1 1 0;
#X connect 4 1 6 1;
#X connect 5 0 9 0;
#X connect 6 0 13 0;
#X connect 7 0 3 0;
#X connect 8 0 10 0;
#X connect 9 0 15 0;
#X connect 10 0 16 0;
#X connect 11 0 5 0;
#X connect 11 0 8 0;
#X connect 11 0 30 0;
#X connect 12 0 11 1;
#X connect 13 0 11 0;
#X connect 13 0 14 0;
#X connect 14 0 12 1;
#X connect 15 0 3 1;
#X connect 15 0 21 0;
#X connect 15 0 33 0;
#X connect 16 0 3 2;
#X connect 16 0 22 0;
#X connect 17 0 4 0;
#X connect 18 0 1 1;
#X connect 18 0 10 1;
#X connect 18 0 9 1;
#X connect 18 0 12 0;
#X connect 18 0 19 1;
#X connect 19 0 32 0;
#X connect 20 0 24 0;
#X connect 21 0 20 1;
#X connect 22 0 20 2;
#X connect 23 0 35 0;
#X connect 24 0 23 0;
#X connect 25 0 23 1;
#X connect 27 0 26 0;
#X connect 28 0 26 0;
#X connect 29 0 24 1;
#X connect 30 0 19 0;
#X connect 31 0 20 3;
#X connect 32 0 3 3;
#X connect 32 0 31 0;
#X connect 33 0 25 0;
#X connect 34 0 29 0;
#X connect 35 0 26 0;
#X connect 36 0 35 2;
#X connect 37 0 35 1;
