#N canvas 57 54 1863 1026 10;
#X declare -path /home/hellocatfood/pd-externals/hellocatfood;
#X obj 174 704 scaleXYZ;
#N canvas 774 394 450 300 waves 0;
#X obj 100 50 cnv 15 80 40 empty empty empty 20 12 0 14 -233017 -66577
0;
#X msg 134 200 1;
#X obj 104 57 bng 11 250 50 0 empty empty empty 17 7 0 10 -262144 -1
-1;
#X obj 104 75 bng 11 250 50 0 empty empty empty 17 7 0 10 -258113 -1
-1;
#X text 117 53 Flat;
#X text 117 71 Noise!;
#X obj 164 300 outlet;
#X obj 104 300 outlet;
#X obj 134 160 loadbang;
#X obj 269 57 key;
#X obj 269 77 select 110;
#X obj 269 97 bng 15 250 50 0 empty empty empty 17 7 0 10 -262144 -1
-1;
#X obj 209 -3 key;
#X obj 209 37 bng 15 250 50 0 empty empty empty 17 7 0 10 -262144 -1
-1;
#X obj 209 17 select 102;
#X msg 104 250 noise 1;
#X obj 61 128 del 5000;
#X connect 1 0 6 0;
#X connect 2 0 1 0;
#X connect 3 0 15 0;
#X connect 3 0 16 0;
#X connect 8 0 1 0;
#X connect 9 0 10 0;
#X connect 10 0 11 0;
#X connect 11 0 3 0;
#X connect 12 0 14 0;
#X connect 13 0 2 0;
#X connect 14 0 13 0;
#X connect 15 0 7 0;
#X connect 16 0 2 0;
#X coords 0 -1 1 1 80 40 1 100 50;
#X restore 194 636 pd waves;
#X obj 174 724 t a b;
#N canvas 66 54 1300 714 speaker 0;
#X obj 600 100 cnv 15 170 210 empty empty empty 20 12 0 14 -233017
-66577 0;
#X obj -78 233 bp~ 100 10;
#X obj 3 233 bp~ 200 10;
#X obj 85 233 bp~ 400 10;
#X obj 166 233 bp~ 800 10;
#X obj 251 232 bp~ 1000 10;
#X obj 333 232 bp~ 1200 10;
#X obj 418 232 bp~ 1400 10;
#X obj 499 232 bp~ 12600 10;
#X obj 84 504 *~ 0.5;
#X obj 173 504 *~ 0.5;
#X obj 419 505 *~ 0.5;
#X obj 504 507 *~ 0.5;
#X obj 209 675 dac~;
#X obj -79 501 *~ 0.5;
#X obj -1 502 *~ 0.5;
#X obj 252 505 *~ 0.5;
#X obj 336 507 *~ 0.5;
#X obj -65 271 env~ 1024;
#X floatatom -65 323 5 0 0 0 - - -;
#X obj 607 152 vsl 15 80 0 1 0 0 env1 empty empty 0 -9 0 10 -257985
-1 -1 0 1;
#X obj -65 369 line;
#X obj -65 296 dbtorms;
#X obj 15 271 env~ 1024;
#X floatatom 15 323 5 0 0 0 - - -;
#X obj 627 152 vsl 15 80 0 1 0 0 env2 empty empty 0 -9 0 10 -257985
-1 -1 0 1;
#X obj 15 369 line;
#X obj 15 296 dbtorms;
#X obj 95 271 env~ 1024;
#X floatatom 95 323 5 0 0 0 - - -;
#X obj 647 152 vsl 15 80 0 1 0 0 env3 empty empty 0 -9 0 10 -257985
-1 -1 0 1;
#X obj 95 369 line;
#X obj 95 296 dbtorms;
#X obj 185 271 env~ 1024;
#X floatatom 185 323 5 0 0 0 - - -;
#X obj 668 152 vsl 15 80 0 1 0 0 env4 empty empty 0 -9 0 10 -257985
-1 -1 0 1;
#X obj 185 369 line;
#X obj 185 296 dbtorms;
#X obj 265 271 env~ 1024;
#X floatatom 265 323 5 0 0 0 - - -;
#X obj 687 152 vsl 15 80 0 1 0 0 env5 empty empty 0 -9 0 10 -257985
-1 -1 0 1;
#X obj 265 369 line;
#X obj 265 296 dbtorms;
#X obj 345 271 env~ 1024;
#X floatatom 345 323 5 0 0 0 - - -;
#X obj 707 152 vsl 15 80 0 1 0 0 env6 empty empty 0 -9 0 10 -257985
-1 -1 0 1;
#X obj 345 369 line;
#X obj 345 296 dbtorms;
#X obj 435 271 env~ 1024;
#X floatatom 435 323 5 0 0 0 - - -;
#X obj 727 152 vsl 15 80 0 1 0 0 env7 empty empty 0 -9 0 10 -257985
-1 -1 0 1;
#X obj 435 369 line;
#X obj 435 296 dbtorms;
#X obj 515 271 env~ 1024;
#X floatatom 515 323 5 0 0 0 - - -;
#X obj 747 152 vsl 15 80 0 1 0 0 env8 empty empty 0 -9 0 10 -257985
-1 -1 0 1;
#X obj 515 369 line;
#X obj 515 296 dbtorms;
#X obj 176 138 *~;
#X obj 246 138 *~;
#X obj 607 262 vsl 15 40 10 1 0 1 empty empty empty 0 -9 0 10 -262144
-1 -1 0 1;
#X obj 627 262 vsl 15 40 10 1 0 1 empty empty empty 0 -9 0 10 -262144
-1 -1 0 1;
#X obj 647 262 vsl 15 40 10 1 0 1 empty empty empty 0 -9 0 10 -262144
-1 -1 0 1;
#X obj 667 262 vsl 15 40 10 1 0 1 empty empty empty 0 -9 0 10 -262144
-1 -1 0 1;
#X obj 687 262 vsl 15 40 10 1 0 1 empty empty empty 0 -9 0 10 -262144
-1 -1 0 1;
#X obj 707 262 vsl 15 40 10 1 0 1 empty empty empty 0 -9 0 10 -262144
-1 -1 0 1;
#X obj 727 262 vsl 15 40 10 1 0 1 empty empty empty 0 -9 0 10 -262144
-1 -1 0 1;
#X obj 747 262 vsl 15 40 10 1 0 1 empty empty empty 0 -9 0 10 -262144
-1 -1 0 1;
#X obj 780 138 outlet;
#X obj 790 160 outlet;
#X obj 800 180 outlet;
#X obj 810 200 outlet;
#X obj 820 220 outlet;
#X obj 830 240 outlet;
#X obj 840 260 outlet;
#X obj 850 280 outlet;
#X obj 176 78 adc~;
#X obj 610 120 hsl 150 15 0.01 10 0 0 empty empty empty -2 -8 0 10
-260097 -1 -1 1477 1;
#X text 607 100 Microphone sensitivity;
#X text 607 240 Adjust sensitivity;
#X obj 210 634 *~ 0;
#X obj 607 48 loadbang;
#X msg 607 68 1;
#X msg -65 348 \$1 25;
#X msg 15 348 \$1 25;
#X msg 95 348 \$1 25;
#X msg 185 348 \$1 25;
#X msg 265 348 \$1 25;
#X msg 345 348 \$1 25;
#X msg 435 348 \$1 25;
#X msg 515 348 \$1 25;
#X connect 1 0 14 0;
#X connect 1 0 18 0;
#X connect 2 0 15 0;
#X connect 2 0 23 0;
#X connect 3 0 9 0;
#X connect 3 0 28 0;
#X connect 4 0 10 0;
#X connect 4 0 33 0;
#X connect 5 0 16 0;
#X connect 5 0 38 0;
#X connect 6 0 17 0;
#X connect 6 0 43 0;
#X connect 7 0 11 0;
#X connect 7 0 48 0;
#X connect 8 0 12 0;
#X connect 8 0 53 0;
#X connect 9 0 80 0;
#X connect 10 0 80 0;
#X connect 11 0 80 0;
#X connect 12 0 80 0;
#X connect 14 0 80 0;
#X connect 15 0 80 0;
#X connect 16 0 80 0;
#X connect 17 0 80 0;
#X connect 18 0 22 0;
#X connect 19 0 83 0;
#X connect 20 0 68 0;
#X connect 21 0 20 0;
#X connect 22 0 19 0;
#X connect 23 0 27 0;
#X connect 24 0 84 0;
#X connect 25 0 69 0;
#X connect 26 0 25 0;
#X connect 27 0 24 0;
#X connect 28 0 32 0;
#X connect 29 0 85 0;
#X connect 30 0 70 0;
#X connect 31 0 30 0;
#X connect 32 0 29 0;
#X connect 33 0 37 0;
#X connect 34 0 86 0;
#X connect 35 0 71 0;
#X connect 36 0 35 0;
#X connect 37 0 34 0;
#X connect 38 0 42 0;
#X connect 39 0 87 0;
#X connect 40 0 72 0;
#X connect 41 0 40 0;
#X connect 42 0 39 0;
#X connect 43 0 47 0;
#X connect 44 0 88 0;
#X connect 45 0 73 0;
#X connect 46 0 45 0;
#X connect 47 0 44 0;
#X connect 48 0 52 0;
#X connect 49 0 89 0;
#X connect 50 0 74 0;
#X connect 51 0 50 0;
#X connect 52 0 49 0;
#X connect 53 0 57 0;
#X connect 54 0 90 0;
#X connect 55 0 75 0;
#X connect 56 0 55 0;
#X connect 57 0 54 0;
#X connect 58 0 1 0;
#X connect 58 0 2 0;
#X connect 58 0 3 0;
#X connect 58 0 4 0;
#X connect 58 0 5 0;
#X connect 58 0 6 0;
#X connect 58 0 7 0;
#X connect 58 0 8 0;
#X connect 59 0 1 0;
#X connect 59 0 2 0;
#X connect 59 0 3 0;
#X connect 59 0 4 0;
#X connect 59 0 5 0;
#X connect 59 0 6 0;
#X connect 59 0 7 0;
#X connect 59 0 8 0;
#X connect 60 0 1 2;
#X connect 61 0 2 2;
#X connect 62 0 3 2;
#X connect 63 0 4 2;
#X connect 64 0 5 2;
#X connect 65 0 6 2;
#X connect 66 0 7 2;
#X connect 67 0 8 2;
#X connect 76 0 58 0;
#X connect 76 1 59 0;
#X connect 77 0 58 1;
#X connect 77 0 59 1;
#X connect 80 0 13 0;
#X connect 80 0 13 1;
#X connect 81 0 82 0;
#X connect 82 0 77 0;
#X connect 83 0 21 0;
#X connect 84 0 26 0;
#X connect 85 0 31 0;
#X connect 86 0 36 0;
#X connect 87 0 41 0;
#X connect 88 0 46 0;
#X connect 89 0 51 0;
#X connect 90 0 56 0;
#X coords 0 -1 1 1 170 210 1 600 100;
#X restore 798 461 pd speaker;
#N canvas 312 163 646 685 polys 0;
#X obj 200 100 cnv 15 160 160 empty empty empty 20 12 0 14 -233017
-66577 0;
#X obj 55 186 translateXYZ;
#X obj 78 166 r xpos;
#X obj 55 216 rotateXYZ 180 0 0;
#X obj 206 141 vsl 15 100 -5 5 0 0 empty empty empty 0 -9 0 10 -260097
-1 -1 0 1;
#X obj 135 156 line;
#X obj 55 296 rotateXYZ;
#X obj 55 246 repeat 10;
#X msg 199 339 draw fill;
#X msg 199 319 draw linestrip;
#X obj 55 516 translateXYZ;
#X obj 78 496 r xpos;
#X obj 55 576 rotateXYZ;
#X obj 135 486 line;
#X obj 55 546 repeat 10;
#X text 272 139 spacing;
#X obj 239 269 hsl 50 15 -15 5 0 0 xpos empty empty -2 -8 0 10 -260097
-1 -1 0 1;
#N canvas 623 168 450 300 poly 0;
#N canvas 299 189 450 309 p1 0;
#X obj 124 111 * 3;
#X obj 124 291 outlet;
#X obj 199 211 * 1;
#X obj 199 81 + 0.75;
#X obj 124 231 pack f f;
#X msg 124 261 \$2 \$1 0;
#X obj 174 31 r ppos;
#X obj 214 171 r spacing;
#X obj 209 121 outlet;
#X obj 209 61 inlet;
#X floatatom 209 101 5 0 0 0 - - -;
#X obj 214 191 t b f;
#X text 249 98 X position of polygon point;
#X text 218 32 Y position of polygon point;
#X obj 124 31 inlet;
#X connect 0 0 4 0;
#X connect 2 0 4 1;
#X connect 3 0 2 0;
#X connect 3 0 8 0;
#X connect 3 0 10 0;
#X connect 4 0 5 0;
#X connect 5 0 1 0;
#X connect 6 0 0 1;
#X connect 7 0 11 0;
#X connect 9 0 3 0;
#X connect 11 0 2 0;
#X connect 11 1 2 1;
#X connect 14 0 0 0;
#X restore 87 139 pd p1;
#X obj 16 159 polygon 10 _________________________________________________
;
#X obj 87 119 r env1;
#X obj 123 79 r env2;
#X obj 158 119 r env3;
#X obj 194 79 r env4;
#X obj 230 119 r env5;
#X obj 265 79 r env6;
#X obj 301 119 r env7;
#X obj 337 79 r env8;
#N canvas 179 157 450 309 p1 0;
#X obj 124 111 * 3;
#X obj 124 291 outlet;
#X obj 199 211 * 1;
#X obj 199 81 + 0.75;
#X obj 124 231 pack f f;
#X msg 124 261 \$2 \$1 0;
#X obj 174 31 r ppos;
#X obj 214 171 r spacing;
#X obj 209 121 outlet;
#X obj 209 61 inlet;
#X floatatom 209 101 5 0 0 0 - - -;
#X obj 214 191 t b f;
#X text 249 98 X position of polygon point;
#X text 218 32 Y position of polygon point;
#X obj 124 31 inlet;
#X connect 0 0 4 0;
#X connect 2 0 4 1;
#X connect 3 0 2 0;
#X connect 3 0 8 0;
#X connect 3 0 10 0;
#X connect 4 0 5 0;
#X connect 5 0 1 0;
#X connect 6 0 0 1;
#X connect 7 0 11 0;
#X connect 9 0 3 0;
#X connect 11 0 2 0;
#X connect 11 1 2 1;
#X connect 14 0 0 0;
#X restore 373 139 pd p1;
#N canvas 67 95 450 300 no 0;
#X obj 298 109 r env1;
#X obj 298 149 /;
#X obj 313 129 r env1;
#X obj 298 189 outlet;
#X obj 298 169 - 1;
#X connect 0 0 1 0;
#X connect 1 0 4 0;
#X connect 2 0 1 1;
#X connect 4 0 3 0;
#X restore 51 79 pd no;
#N canvas 67 83 450 300 no 0;
#X obj 298 109 r env1;
#X obj 298 149 /;
#X obj 313 129 r env1;
#X obj 298 169 - 1;
#X obj 298 189 outlet;
#X connect 0 0 1 0;
#X connect 1 0 3 0;
#X connect 2 0 1 1;
#X connect 3 0 4 0;
#X restore 373 119 pd no;
#N canvas 305 172 450 309 p1 0;
#X obj 124 111 * 3;
#X obj 124 291 outlet;
#X obj 199 211 * 1;
#X obj 199 81 + 0.75;
#X obj 124 231 pack f f;
#X msg 124 261 \$2 \$1 0;
#X obj 174 31 r ppos;
#X obj 214 171 r spacing;
#X obj 209 121 outlet;
#X obj 209 61 inlet;
#X floatatom 209 101 5 0 0 0 - - -;
#X obj 214 191 t b f;
#X text 249 98 X position of polygon point;
#X text 218 32 Y position of polygon point;
#X obj 124 31 inlet;
#X connect 0 0 4 0;
#X connect 2 0 4 1;
#X connect 3 0 2 0;
#X connect 3 0 8 0;
#X connect 3 0 10 0;
#X connect 4 0 5 0;
#X connect 5 0 1 0;
#X connect 6 0 0 1;
#X connect 7 0 11 0;
#X connect 9 0 3 0;
#X connect 11 0 2 0;
#X connect 11 1 2 1;
#X connect 14 0 0 0;
#X restore 123 99 pd p1;
#N canvas 305 172 450 309 p1 0;
#X obj 124 111 * 3;
#X obj 124 291 outlet;
#X obj 199 211 * 1;
#X obj 199 81 + 0.75;
#X obj 124 231 pack f f;
#X msg 124 261 \$2 \$1 0;
#X obj 174 31 r ppos;
#X obj 214 171 r spacing;
#X obj 209 121 outlet;
#X obj 209 61 inlet;
#X floatatom 209 101 5 0 0 0 - - -;
#X obj 214 191 t b f;
#X text 249 98 X position of polygon point;
#X text 218 32 Y position of polygon point;
#X obj 124 31 inlet;
#X connect 0 0 4 0;
#X connect 2 0 4 1;
#X connect 3 0 2 0;
#X connect 3 0 8 0;
#X connect 3 0 10 0;
#X connect 4 0 5 0;
#X connect 5 0 1 0;
#X connect 6 0 0 1;
#X connect 7 0 11 0;
#X connect 9 0 3 0;
#X connect 11 0 2 0;
#X connect 11 1 2 1;
#X connect 14 0 0 0;
#X restore 194 99 pd p1;
#N canvas 305 172 450 309 p1 0;
#X obj 124 111 * 3;
#X obj 124 291 outlet;
#X obj 199 211 * 1;
#X obj 199 81 + 0.75;
#X obj 124 231 pack f f;
#X msg 124 261 \$2 \$1 0;
#X obj 174 31 r ppos;
#X obj 214 171 r spacing;
#X obj 209 121 outlet;
#X obj 209 61 inlet;
#X floatatom 209 101 5 0 0 0 - - -;
#X obj 214 191 t b f;
#X text 249 98 X position of polygon point;
#X text 218 32 Y position of polygon point;
#X obj 124 31 inlet;
#X connect 0 0 4 0;
#X connect 2 0 4 1;
#X connect 3 0 2 0;
#X connect 3 0 8 0;
#X connect 3 0 10 0;
#X connect 4 0 5 0;
#X connect 5 0 1 0;
#X connect 6 0 0 1;
#X connect 7 0 11 0;
#X connect 9 0 3 0;
#X connect 11 0 2 0;
#X connect 11 1 2 1;
#X connect 14 0 0 0;
#X restore 265 99 pd p1;
#N canvas 305 172 450 309 p1 0;
#X obj 124 111 * 3;
#X obj 124 291 outlet;
#X obj 199 211 * 1;
#X obj 199 81 + 0.75;
#X obj 124 231 pack f f;
#X msg 124 261 \$2 \$1 0;
#X obj 174 31 r ppos;
#X obj 214 171 r spacing;
#X obj 209 121 outlet;
#X obj 209 61 inlet;
#X floatatom 209 101 5 0 0 0 - - -;
#X obj 214 191 t b f;
#X text 249 98 X position of polygon point;
#X text 218 32 Y position of polygon point;
#X obj 124 31 inlet;
#X connect 0 0 4 0;
#X connect 2 0 4 1;
#X connect 3 0 2 0;
#X connect 3 0 8 0;
#X connect 3 0 10 0;
#X connect 4 0 5 0;
#X connect 5 0 1 0;
#X connect 6 0 0 1;
#X connect 7 0 11 0;
#X connect 9 0 3 0;
#X connect 11 0 2 0;
#X connect 11 1 2 1;
#X connect 14 0 0 0;
#X restore 337 99 pd p1;
#N canvas 305 172 450 309 p1 0;
#X obj 124 111 * 3;
#X obj 124 291 outlet;
#X obj 199 211 * 1;
#X obj 199 81 + 0.75;
#X obj 124 231 pack f f;
#X msg 124 261 \$2 \$1 0;
#X obj 174 31 r ppos;
#X obj 214 171 r spacing;
#X obj 209 121 outlet;
#X obj 209 61 inlet;
#X floatatom 209 101 5 0 0 0 - - -;
#X obj 214 191 t b f;
#X text 249 98 X position of polygon point;
#X text 218 32 Y position of polygon point;
#X obj 124 31 inlet;
#X connect 0 0 4 0;
#X connect 2 0 4 1;
#X connect 3 0 2 0;
#X connect 3 0 8 0;
#X connect 3 0 10 0;
#X connect 4 0 5 0;
#X connect 5 0 1 0;
#X connect 6 0 0 1;
#X connect 7 0 11 0;
#X connect 9 0 3 0;
#X connect 11 0 2 0;
#X connect 11 1 2 1;
#X connect 14 0 0 0;
#X restore 158 139 pd p1;
#N canvas 305 172 450 309 p1 0;
#X obj 124 111 * 3;
#X obj 124 291 outlet;
#X obj 199 211 * 1;
#X obj 199 81 + 0.75;
#X obj 124 231 pack f f;
#X msg 124 261 \$2 \$1 0;
#X obj 174 31 r ppos;
#X obj 214 171 r spacing;
#X obj 209 121 outlet;
#X obj 209 61 inlet;
#X floatatom 209 101 5 0 0 0 - - -;
#X obj 214 191 t b f;
#X text 249 98 X position of polygon point;
#X text 218 32 Y position of polygon point;
#X obj 124 31 inlet;
#X connect 0 0 4 0;
#X connect 2 0 4 1;
#X connect 3 0 2 0;
#X connect 3 0 8 0;
#X connect 3 0 10 0;
#X connect 4 0 5 0;
#X connect 5 0 1 0;
#X connect 6 0 0 1;
#X connect 7 0 11 0;
#X connect 9 0 3 0;
#X connect 11 0 2 0;
#X connect 11 1 2 1;
#X connect 14 0 0 0;
#X restore 230 139 pd p1;
#N canvas 305 172 450 309 p1 0;
#X obj 124 111 * 3;
#X obj 124 291 outlet;
#X obj 199 211 * 1;
#X obj 199 81 + 0.75;
#X obj 124 231 pack f f;
#X msg 124 261 \$2 \$1 0;
#X obj 174 31 r ppos;
#X obj 214 171 r spacing;
#X obj 209 121 outlet;
#X obj 209 61 inlet;
#X floatatom 209 101 5 0 0 0 - - -;
#X obj 214 191 t b f;
#X text 249 98 X position of polygon point;
#X text 218 32 Y position of polygon point;
#X obj 124 31 inlet;
#X connect 0 0 4 0;
#X connect 2 0 4 1;
#X connect 3 0 2 0;
#X connect 3 0 8 0;
#X connect 3 0 10 0;
#X connect 4 0 5 0;
#X connect 5 0 1 0;
#X connect 6 0 0 1;
#X connect 7 0 11 0;
#X connect 9 0 3 0;
#X connect 11 0 2 0;
#X connect 11 1 2 1;
#X connect 14 0 0 0;
#X restore 301 139 pd p1;
#N canvas 305 172 450 309 p1 0;
#X obj 124 111 * 3;
#X obj 124 291 outlet;
#X obj 199 211 * 1;
#X obj 199 81 + 0.75;
#X obj 124 231 pack f f;
#X msg 124 261 \$2 \$1 0;
#X obj 174 31 r ppos;
#X obj 214 171 r spacing;
#X obj 209 121 outlet;
#X obj 209 61 inlet;
#X floatatom 209 101 5 0 0 0 - - -;
#X obj 214 191 t b f;
#X text 249 98 X position of polygon point;
#X text 218 32 Y position of polygon point;
#X obj 124 31 inlet;
#X connect 0 0 4 0;
#X connect 2 0 4 1;
#X connect 3 0 2 0;
#X connect 3 0 8 0;
#X connect 3 0 10 0;
#X connect 4 0 5 0;
#X connect 5 0 1 0;
#X connect 6 0 0 1;
#X connect 7 0 11 0;
#X connect 9 0 3 0;
#X connect 11 0 2 0;
#X connect 11 1 2 1;
#X connect 14 0 0 0;
#X restore 51 99 pd p1;
#X obj 16 39 inlet;
#X connect 0 0 1 2;
#X connect 0 1 13 1;
#X connect 2 0 0 0;
#X connect 3 0 13 0;
#X connect 4 0 17 0;
#X connect 5 0 14 0;
#X connect 6 0 18 0;
#X connect 7 0 15 0;
#X connect 8 0 19 0;
#X connect 9 0 16 0;
#X connect 10 0 1 10;
#X connect 11 0 20 0;
#X connect 11 0 20 1;
#X connect 12 0 10 0;
#X connect 13 0 1 3;
#X connect 13 1 17 1;
#X connect 14 0 1 5;
#X connect 14 1 18 1;
#X connect 15 0 1 7;
#X connect 15 1 19 1;
#X connect 16 0 1 9;
#X connect 16 1 10 1;
#X connect 17 0 1 4;
#X connect 17 1 14 1;
#X connect 18 0 1 6;
#X connect 18 1 15 1;
#X connect 19 0 1 8;
#X connect 19 1 16 1;
#X connect 20 0 1 1;
#X connect 20 1 0 1;
#X connect 21 0 1 0;
#X restore 55 327 pd poly;
#N canvas 627 157 450 300 poly 0;
#N canvas 299 189 450 309 p1 0;
#X obj 124 111 * 3;
#X obj 124 291 outlet;
#X obj 199 211 * 1;
#X obj 199 81 + 0.75;
#X obj 124 231 pack f f;
#X msg 124 261 \$2 \$1 0;
#X obj 174 31 r ppos;
#X obj 214 171 r spacing;
#X obj 209 121 outlet;
#X obj 209 61 inlet;
#X floatatom 209 101 5 0 0 0 - - -;
#X obj 214 191 t b f;
#X text 249 98 X position of polygon point;
#X text 218 32 Y position of polygon point;
#X obj 124 31 inlet;
#X connect 0 0 4 0;
#X connect 2 0 4 1;
#X connect 3 0 2 0;
#X connect 3 0 8 0;
#X connect 3 0 10 0;
#X connect 4 0 5 0;
#X connect 5 0 1 0;
#X connect 6 0 0 1;
#X connect 7 0 11 0;
#X connect 9 0 3 0;
#X connect 11 0 2 0;
#X connect 11 1 2 1;
#X connect 14 0 0 0;
#X restore 87 139 pd p1;
#X obj 16 159 polygon 10 _________________________________________________
;
#X obj 87 119 r env1;
#X obj 123 79 r env2;
#X obj 158 119 r env3;
#X obj 194 79 r env4;
#X obj 230 119 r env5;
#X obj 265 79 r env6;
#X obj 301 119 r env7;
#X obj 337 79 r env8;
#N canvas 179 157 450 309 p1 0;
#X obj 124 111 * 3;
#X obj 124 291 outlet;
#X obj 199 211 * 1;
#X obj 199 81 + 0.75;
#X obj 124 231 pack f f;
#X msg 124 261 \$2 \$1 0;
#X obj 174 31 r ppos;
#X obj 214 171 r spacing;
#X obj 209 121 outlet;
#X obj 209 61 inlet;
#X floatatom 209 101 5 0 0 0 - - -;
#X obj 214 191 t b f;
#X text 249 98 X position of polygon point;
#X text 218 32 Y position of polygon point;
#X obj 124 31 inlet;
#X connect 0 0 4 0;
#X connect 2 0 4 1;
#X connect 3 0 2 0;
#X connect 3 0 8 0;
#X connect 3 0 10 0;
#X connect 4 0 5 0;
#X connect 5 0 1 0;
#X connect 6 0 0 1;
#X connect 7 0 11 0;
#X connect 9 0 3 0;
#X connect 11 0 2 0;
#X connect 11 1 2 1;
#X connect 14 0 0 0;
#X restore 373 139 pd p1;
#N canvas 67 95 450 300 no 0;
#X obj 298 109 r env1;
#X obj 298 149 /;
#X obj 313 129 r env1;
#X obj 298 189 outlet;
#X obj 298 169 - 1;
#X connect 0 0 1 0;
#X connect 1 0 4 0;
#X connect 2 0 1 1;
#X connect 4 0 3 0;
#X restore 51 79 pd no;
#N canvas 67 83 450 300 no 0;
#X obj 298 109 r env1;
#X obj 298 149 /;
#X obj 313 129 r env1;
#X obj 298 169 - 1;
#X obj 298 189 outlet;
#X connect 0 0 1 0;
#X connect 1 0 3 0;
#X connect 2 0 1 1;
#X connect 3 0 4 0;
#X restore 373 119 pd no;
#N canvas 305 172 450 309 p1 0;
#X obj 124 111 * 3;
#X obj 124 291 outlet;
#X obj 199 211 * 1;
#X obj 199 81 + 0.75;
#X obj 124 231 pack f f;
#X msg 124 261 \$2 \$1 0;
#X obj 174 31 r ppos;
#X obj 214 171 r spacing;
#X obj 209 121 outlet;
#X obj 209 61 inlet;
#X floatatom 209 101 5 0 0 0 - - -;
#X obj 214 191 t b f;
#X text 249 98 X position of polygon point;
#X text 218 32 Y position of polygon point;
#X obj 124 31 inlet;
#X connect 0 0 4 0;
#X connect 2 0 4 1;
#X connect 3 0 2 0;
#X connect 3 0 8 0;
#X connect 3 0 10 0;
#X connect 4 0 5 0;
#X connect 5 0 1 0;
#X connect 6 0 0 1;
#X connect 7 0 11 0;
#X connect 9 0 3 0;
#X connect 11 0 2 0;
#X connect 11 1 2 1;
#X connect 14 0 0 0;
#X restore 123 99 pd p1;
#N canvas 305 172 450 309 p1 0;
#X obj 124 111 * 3;
#X obj 124 291 outlet;
#X obj 199 211 * 1;
#X obj 199 81 + 0.75;
#X obj 124 231 pack f f;
#X msg 124 261 \$2 \$1 0;
#X obj 174 31 r ppos;
#X obj 214 171 r spacing;
#X obj 209 121 outlet;
#X obj 209 61 inlet;
#X floatatom 209 101 5 0 0 0 - - -;
#X obj 214 191 t b f;
#X text 249 98 X position of polygon point;
#X text 218 32 Y position of polygon point;
#X obj 124 31 inlet;
#X connect 0 0 4 0;
#X connect 2 0 4 1;
#X connect 3 0 2 0;
#X connect 3 0 8 0;
#X connect 3 0 10 0;
#X connect 4 0 5 0;
#X connect 5 0 1 0;
#X connect 6 0 0 1;
#X connect 7 0 11 0;
#X connect 9 0 3 0;
#X connect 11 0 2 0;
#X connect 11 1 2 1;
#X connect 14 0 0 0;
#X restore 194 99 pd p1;
#N canvas 305 172 450 309 p1 0;
#X obj 124 111 * 3;
#X obj 124 291 outlet;
#X obj 199 211 * 1;
#X obj 199 81 + 0.75;
#X obj 124 231 pack f f;
#X msg 124 261 \$2 \$1 0;
#X obj 174 31 r ppos;
#X obj 214 171 r spacing;
#X obj 209 121 outlet;
#X obj 209 61 inlet;
#X floatatom 209 101 5 0 0 0 - - -;
#X obj 214 191 t b f;
#X text 249 98 X position of polygon point;
#X text 218 32 Y position of polygon point;
#X obj 124 31 inlet;
#X connect 0 0 4 0;
#X connect 2 0 4 1;
#X connect 3 0 2 0;
#X connect 3 0 8 0;
#X connect 3 0 10 0;
#X connect 4 0 5 0;
#X connect 5 0 1 0;
#X connect 6 0 0 1;
#X connect 7 0 11 0;
#X connect 9 0 3 0;
#X connect 11 0 2 0;
#X connect 11 1 2 1;
#X connect 14 0 0 0;
#X restore 265 99 pd p1;
#N canvas 305 172 450 309 p1 0;
#X obj 124 111 * 3;
#X obj 124 291 outlet;
#X obj 199 211 * 1;
#X obj 199 81 + 0.75;
#X obj 124 231 pack f f;
#X msg 124 261 \$2 \$1 0;
#X obj 174 31 r ppos;
#X obj 214 171 r spacing;
#X obj 209 121 outlet;
#X obj 209 61 inlet;
#X floatatom 209 101 5 0 0 0 - - -;
#X obj 214 191 t b f;
#X text 249 98 X position of polygon point;
#X text 218 32 Y position of polygon point;
#X obj 124 31 inlet;
#X connect 0 0 4 0;
#X connect 2 0 4 1;
#X connect 3 0 2 0;
#X connect 3 0 8 0;
#X connect 3 0 10 0;
#X connect 4 0 5 0;
#X connect 5 0 1 0;
#X connect 6 0 0 1;
#X connect 7 0 11 0;
#X connect 9 0 3 0;
#X connect 11 0 2 0;
#X connect 11 1 2 1;
#X connect 14 0 0 0;
#X restore 337 99 pd p1;
#N canvas 305 172 450 309 p1 0;
#X obj 124 111 * 3;
#X obj 124 291 outlet;
#X obj 199 211 * 1;
#X obj 199 81 + 0.75;
#X obj 124 231 pack f f;
#X msg 124 261 \$2 \$1 0;
#X obj 174 31 r ppos;
#X obj 214 171 r spacing;
#X obj 209 121 outlet;
#X obj 209 61 inlet;
#X floatatom 209 101 5 0 0 0 - - -;
#X obj 214 191 t b f;
#X text 249 98 X position of polygon point;
#X text 218 32 Y position of polygon point;
#X obj 124 31 inlet;
#X connect 0 0 4 0;
#X connect 2 0 4 1;
#X connect 3 0 2 0;
#X connect 3 0 8 0;
#X connect 3 0 10 0;
#X connect 4 0 5 0;
#X connect 5 0 1 0;
#X connect 6 0 0 1;
#X connect 7 0 11 0;
#X connect 9 0 3 0;
#X connect 11 0 2 0;
#X connect 11 1 2 1;
#X connect 14 0 0 0;
#X restore 158 139 pd p1;
#N canvas 305 172 450 309 p1 0;
#X obj 124 111 * 3;
#X obj 124 291 outlet;
#X obj 199 211 * 1;
#X obj 199 81 + 0.75;
#X obj 124 231 pack f f;
#X msg 124 261 \$2 \$1 0;
#X obj 174 31 r ppos;
#X obj 214 171 r spacing;
#X obj 209 121 outlet;
#X obj 209 61 inlet;
#X floatatom 209 101 5 0 0 0 - - -;
#X obj 214 191 t b f;
#X text 249 98 X position of polygon point;
#X text 218 32 Y position of polygon point;
#X obj 124 31 inlet;
#X connect 0 0 4 0;
#X connect 2 0 4 1;
#X connect 3 0 2 0;
#X connect 3 0 8 0;
#X connect 3 0 10 0;
#X connect 4 0 5 0;
#X connect 5 0 1 0;
#X connect 6 0 0 1;
#X connect 7 0 11 0;
#X connect 9 0 3 0;
#X connect 11 0 2 0;
#X connect 11 1 2 1;
#X connect 14 0 0 0;
#X restore 230 139 pd p1;
#N canvas 305 172 450 309 p1 0;
#X obj 124 111 * 3;
#X obj 124 291 outlet;
#X obj 199 211 * 1;
#X obj 199 81 + 0.75;
#X obj 124 231 pack f f;
#X msg 124 261 \$2 \$1 0;
#X obj 174 31 r ppos;
#X obj 214 171 r spacing;
#X obj 209 121 outlet;
#X obj 209 61 inlet;
#X floatatom 209 101 5 0 0 0 - - -;
#X obj 214 191 t b f;
#X text 249 98 X position of polygon point;
#X text 218 32 Y position of polygon point;
#X obj 124 31 inlet;
#X connect 0 0 4 0;
#X connect 2 0 4 1;
#X connect 3 0 2 0;
#X connect 3 0 8 0;
#X connect 3 0 10 0;
#X connect 4 0 5 0;
#X connect 5 0 1 0;
#X connect 6 0 0 1;
#X connect 7 0 11 0;
#X connect 9 0 3 0;
#X connect 11 0 2 0;
#X connect 11 1 2 1;
#X connect 14 0 0 0;
#X restore 301 139 pd p1;
#N canvas 305 172 450 309 p1 0;
#X obj 124 111 * 3;
#X obj 124 291 outlet;
#X obj 199 211 * 1;
#X obj 199 81 + 0.75;
#X obj 124 231 pack f f;
#X msg 124 261 \$2 \$1 0;
#X obj 174 31 r ppos;
#X obj 214 171 r spacing;
#X obj 209 121 outlet;
#X obj 209 61 inlet;
#X floatatom 209 101 5 0 0 0 - - -;
#X obj 214 191 t b f;
#X text 249 98 X position of polygon point;
#X text 218 32 Y position of polygon point;
#X obj 124 31 inlet;
#X connect 0 0 4 0;
#X connect 2 0 4 1;
#X connect 3 0 2 0;
#X connect 3 0 8 0;
#X connect 3 0 10 0;
#X connect 4 0 5 0;
#X connect 5 0 1 0;
#X connect 6 0 0 1;
#X connect 7 0 11 0;
#X connect 9 0 3 0;
#X connect 11 0 2 0;
#X connect 11 1 2 1;
#X connect 14 0 0 0;
#X restore 51 99 pd p1;
#X obj 16 39 inlet;
#X connect 0 0 1 2;
#X connect 0 1 13 1;
#X connect 2 0 0 0;
#X connect 3 0 13 0;
#X connect 4 0 17 0;
#X connect 5 0 14 0;
#X connect 6 0 18 0;
#X connect 7 0 15 0;
#X connect 8 0 19 0;
#X connect 9 0 16 0;
#X connect 10 0 1 10;
#X connect 11 0 20 0;
#X connect 11 0 20 1;
#X connect 12 0 10 0;
#X connect 13 0 1 3;
#X connect 13 1 17 1;
#X connect 14 0 1 5;
#X connect 14 1 18 1;
#X connect 15 0 1 7;
#X connect 15 1 19 1;
#X connect 16 0 1 9;
#X connect 16 1 10 1;
#X connect 17 0 1 4;
#X connect 17 1 14 1;
#X connect 18 0 1 6;
#X connect 18 1 15 1;
#X connect 19 0 1 8;
#X connect 19 1 16 1;
#X connect 20 0 1 1;
#X connect 20 1 0 1;
#X connect 21 0 1 0;
#X restore 55 606 pd poly;
#X floatatom 306 219 5 0 10 0 - - -;
#X obj 72 276 * -1;
#X text 234 286 position;
#X text 303 236 rotate;
#X obj 55 466 gemhead 160;
#X obj 206 109 tgl 15 0 empty empty empty 17 7 0 10 -258113 -1 -1 0
1;
#X text 224 106 render;
#X obj 206 56 loadbang;
#X obj 206 76 t b b;
#X msg 420 279 width \$1;
#X floatatom 236 179 5 0 10 0 - - -;
#X obj 151 293 * -1;
#X msg 135 466 \$1 15;
#X msg 135 136 \$1 15;
#X obj 315 105 tgl 15 0 empty empty empty 17 7 0 10 -257985 -1 -1 0
1;
#X obj 426 197 sel 0 1;
#X text 334 103 f/l;
#X floatatom 236 139 5 0 20 0 - - -;
#X obj 391 147 / 10;
#X obj 391 167 s spacing;
#X floatatom 236 159 5 0 15 0 - - ppos;
#X text 272 159 sensitivity;
#X text 272 179 width;
#X obj 55 136 gemhead 150;
#X connect 1 0 3 0;
#X connect 2 0 1 1;
#X connect 3 0 7 0;
#X connect 4 0 30 0;
#X connect 4 0 31 0;
#X connect 5 0 1 2;
#X connect 6 0 17 0;
#X connect 7 0 6 0;
#X connect 8 0 18 0;
#X connect 8 0 17 0;
#X connect 9 0 18 0;
#X connect 9 0 17 0;
#X connect 10 0 14 0;
#X connect 11 0 10 1;
#X connect 12 0 18 0;
#X connect 13 0 10 2;
#X connect 14 0 12 0;
#X connect 19 0 12 1;
#X connect 19 0 20 0;
#X connect 20 0 6 1;
#X connect 23 0 10 0;
#X connect 24 0 23 0;
#X connect 24 0 42 0;
#X connect 26 0 27 0;
#X connect 27 0 24 0;
#X connect 27 1 24 0;
#X connect 28 0 17 0;
#X connect 28 0 18 0;
#X connect 29 0 28 0;
#X connect 30 0 32 0;
#X connect 31 0 13 0;
#X connect 32 0 5 0;
#X connect 33 0 34 0;
#X connect 34 0 9 0;
#X connect 34 1 8 0;
#X connect 36 0 37 0;
#X connect 37 0 38 0;
#X connect 42 0 1 0;
#X coords 0 -1 1 1 160 160 2 200 100;
#X restore 623 445 pd polys;
#N canvas 1032 489 702 640 feedback 0;
#X obj 500 250 cnv 15 180 195 empty empty empty 20 12 0 14 -228856
-262144 0;
#X obj 64 230 pix_texture;
#X msg 157 152 snap;
#X obj 64 128 render_trigger;
#X obj 64 460 rotateXYZ;
#X obj 64 410 translateXYZ;
#X obj 504 275 grid grid1 100 0 10 100 0 10 0 0.1 0.1 10 10 1066 538
;
#N canvas 65 118 450 300 translated 0;
#X obj 119 196 line;
#X obj 192 196 line;
#X obj 119 156 inlet;
#X obj 192 156 inlet;
#X obj 119 236 outlet;
#X obj 192 236 outlet;
#X obj 119 216 - 5;
#X obj 192 216 - 5;
#X msg 192 176 \$1 25;
#X msg 119 176 \$1 25;
#X connect 0 0 6 0;
#X connect 1 0 7 0;
#X connect 2 0 9 0;
#X connect 3 0 8 0;
#X connect 6 0 4 0;
#X connect 7 0 5 0;
#X connect 8 0 1 0;
#X connect 9 0 0 0;
#X restore 87 380 pd translated;
#X obj 508 405 hsl 60 15 -2 2 0 0 empty empty empty -2 -8 0 10 -260097
-1 -1 4425 1;
#X obj 508 385 hsl 60 15 0 360 0 0 empty empty empty -2 -8 0 10 -260097
-1 -1 0 1;
#X text 570 384 rotate;
#X obj 64 580 spigot;
#X obj 505 425 tgl 15 0 empty empty empty 17 7 0 10 -4034 -1 -1 0 1
;
#X obj 64 250 separator;
#X obj 504 255 tgl 15 0 empty empty empty 17 7 0 10 -258113 -262144
-1 0 1;
#X text 570 403 size;
#X text 521 253 render;
#X text 521 423 sphere;
#X obj 504 200 loadbang;
#X obj 504 220 t b b;
#X obj 575 136 key;
#X obj 577 177 bng 15 250 50 0 empty empty empty 17 7 0 10 -262144
-1 -1;
#X obj 575 156 sel 101;
#X obj 87 151 gemhead 100;
#X obj 64 104 gemhead -1;
#X obj 62 600 sphere 6;
#X obj 614 276 vradio 15 1 0 3 empty empty empty 0 -8 0 10 -262144
-1 -1 0;
#X text 632 274 4/3;
#X text 632 289 16/9;
#X obj 204 500 * 1;
#X obj 261 500 * 1;
#X obj 83 530 rectangle;
#X text 632 304 4/4;
#X obj 204 440 unpack f f;
#X obj 204 340 sel 0 1 2;
#X msg 204 370 4 3;
#X msg 221 390 5.3 3;
#X msg 238 410 4 4;
#X floatatom 204 470 5 0 0 0 - - -;
#X floatatom 261 470 5 0 0 0 - - -;
#X obj 284 440 t b b f f;
#X msg 610 476 goto 50 50;
#X obj 615 336 bng 15 250 50 0 empty empty empty 17 7 0 10 -258113
-262144 -1;
#X text 632 334 cent;
#X obj 67 197 pix_snap 0 0 1024 768;
#X msg 596 224 1;
#X connect 1 0 13 0;
#X connect 2 0 44 0;
#X connect 3 0 44 0;
#X connect 3 2 2 0;
#X connect 4 0 11 0;
#X connect 4 0 31 0;
#X connect 5 0 4 0;
#X connect 6 0 7 0;
#X connect 6 1 7 1;
#X connect 7 0 5 1;
#X connect 7 1 5 2;
#X connect 8 0 40 0;
#X connect 9 0 4 3;
#X connect 11 0 25 0;
#X connect 12 0 11 1;
#X connect 13 0 5 0;
#X connect 14 0 23 0;
#X connect 14 0 24 0;
#X connect 18 0 19 0;
#X connect 18 0 45 0;
#X connect 19 0 14 0;
#X connect 19 1 14 0;
#X connect 20 0 22 0;
#X connect 21 0 14 0;
#X connect 22 0 21 0;
#X connect 23 0 44 0;
#X connect 24 0 3 0;
#X connect 26 0 34 0;
#X connect 29 0 31 1;
#X connect 30 0 31 2;
#X connect 33 0 38 0;
#X connect 33 1 39 0;
#X connect 34 0 35 0;
#X connect 34 1 36 0;
#X connect 34 2 37 0;
#X connect 35 0 33 0;
#X connect 36 0 33 0;
#X connect 37 0 33 0;
#X connect 38 0 29 0;
#X connect 39 0 30 0;
#X connect 40 0 38 0;
#X connect 40 1 39 0;
#X connect 40 2 29 1;
#X connect 40 3 30 1;
#X connect 41 0 6 0;
#X connect 42 0 41 0;
#X connect 44 0 1 0;
#X connect 45 0 8 0;
#X coords 0 -1 1 1 180 195 1 500 250;
#X restore 980 459 pd feedback;
#X obj 764 40 path /home/hellocatfood/pd-externals/hellocatfood;
#X obj 323 32 playlist all 260 220 {Courier 15 bold} #457782 yellow
black red;
#X obj 173 266 player;
#X obj 3 32 playlist all 260 220 {Courier 15 bold} #457782 yellow black
red;
#X text 973 95 t = text;
#X text 973 105 f = flat;
#X text 973 115 n = wave;
#X text 1043 95 1 = one screen;
#X text 1043 105 2 = split screen;
#X text 1043 115 3 = 3d;
#X text 1043 125 l = lighting;
#X text 893 95 e = feedback;
#X obj 3 266 somepixeffects;
#N canvas 58 82 1861 997 particles 0;
#X obj -47 200 part_head;
#X obj 100 100 cnv 15 230 190 empty empty empty 20 12 0 14 -228856
-66577 0;
#X obj 108 205 hsl 90 10 0 0.2 0 0 empty empty empty -2 -8 0 10 -260097
-1 -1 0 1;
#X obj 105 125 tgl 15 0 empty stoprotate empty 17 7 0 10 -4034 -1 -1
0 1;
#X text 105 184 spread;
#X text 125 124 rotate;
#X obj -32 160 loadbang;
#X obj 108 175 hsl 90 10 0 3 0 0 empty empty empty -2 -8 0 10 -260097
-1 -1 2967 1;
#X msg -32 180 speed \$1;
#X obj -47 350 part_targetcolor;
#X obj -1 330 pack f f f f;
#X obj -47 500 part_render;
#X obj 108 145 hsl 60 10 200 2 0 0 empty empty empty -2 -8 0 10 -260097
-1 -1 0 1;
#N canvas 496 159 450 300 rotate 0;
#X obj 111 111 f;
#X obj 137 111 + 1;
#X obj 111 91 metro 30;
#X obj 77 140 rotateXYZ;
#X obj 77 30 inlet;
#X obj 111 61 inlet;
#X obj 156 61 inlet;
#X obj 77 170 outlet;
#X obj 206 61 inlet;
#X connect 0 0 1 0;
#X connect 0 0 3 2;
#X connect 0 0 3 1;
#X connect 1 0 0 1;
#X connect 2 0 0 0;
#X connect 3 0 7 0;
#X connect 4 0 3 0;
#X connect 5 0 2 0;
#X connect 6 0 2 1;
#X connect 8 0 0 0;
#X restore -47 140 pd rotate;
#X text 105 154 speed;
#X msg 28 180 1;
#X obj -1 240 tgl 15 0 empty empty empty 17 7 0 10 -262144 -1 -1 1
1;
#X obj 108 235 hsl 90 10 0.01 1 0 0 empty empty empty -2 -8 0 10 -260097
-1 -1 0 1;
#X text 104 217 saturation;
#N canvas 312 264 450 300 spread 0;
#X obj 57 220 part_velocity;
#X msg 132 70 symbol sphere;
#X obj 132 -30 loadbang;
#X obj 132 -10 t b b;
#X obj 57 140 part_source 1;
#X msg 132 180 symbol sphere;
#X msg 132 120 0 0 0 0 \$1;
#X msg 132 200 0 0 0 0 \$1;
#X msg 159 10 0;
#X obj 57 -30 inlet;
#X obj 57 260 outlet;
#X obj 159 30 outlet;
#X obj 242 70 inlet;
#X connect 0 0 10 0;
#X connect 1 0 4 2;
#X connect 2 0 3 0;
#X connect 2 0 5 0;
#X connect 3 0 1 0;
#X connect 3 0 6 0;
#X connect 3 1 8 0;
#X connect 4 0 0 0;
#X connect 5 0 0 1;
#X connect 6 0 4 3;
#X connect 7 0 0 2;
#X connect 8 0 11 0;
#X connect 9 0 4 0;
#X connect 12 0 6 0;
#X connect 12 0 7 0;
#X restore -47 440 pd spread;
#N canvas 889 309 450 300 spreadpoint 0;
#X obj 57 220 part_velocity;
#X obj 94 -19 loadbang;
#X obj 57 140 part_source 1;
#X obj 57 -30 inlet;
#X obj 57 260 outlet;
#X msg 107 80 symbol point;
#X msg 94 180 symbol point;
#X msg 132 200 0 0 2;
#X msg 132 110 0 0 -20;
#X connect 0 0 4 0;
#X connect 1 0 6 0;
#X connect 1 0 5 0;
#X connect 1 0 8 0;
#X connect 1 0 7 0;
#X connect 2 0 0 0;
#X connect 3 0 2 0;
#X connect 5 0 2 2;
#X connect 6 0 0 1;
#X connect 7 0 0 2;
#X connect 8 0 2 3;
#X restore -20 460 pd spreadpoint;
#X obj 105 250 tgl 15 0 empty empty empty 17 7 0 10 -257985 -1 -1 0
1;
#X text 127 247 zoom;
#X msg 4 110 0;
#X obj 178 140 bng 15 250 50 0 empty empty empty 17 7 0 10 -258113
-1 -1;
#X obj -47 410 gate 2;
#X obj -47 390 + 1;
#X obj 105 105 tgl 15 0 empty stoprotate empty 17 7 0 10 -258113 -262144
-1 0 1;
#X text 125 104 render;
#X obj 99 63 t b b;
#X obj -47 80 gemhead 900;
#X obj 184 15 key;
#X obj 184 35 sel 112;
#X obj -47 480 part_killold 40;
#X obj -1 300 unpack f f f;
#X obj -1 280 tripleRand 1;
#X obj -1 260 metro 100;
#X msg 283 460 draw line;
#X obj 223 470 spigot;
#X msg 283 480 draw fill;
#X obj 223 500 cube;
#X obj 225 112 tgl 15 0 empty empty empty 17 7 0 10 -4034 -1 -1 0 1
;
#X obj 228 145 hsl 90 10 0.1 2 0 0 empty empty empty -2 -8 0 10 -260097
-1 -1 0 1;
#X text 224 127 size;
#X obj 265 112 tgl 15 0 empty empty empty 17 7 0 10 -257985 -1 -1 0
1;
#X obj 283 440 sel 0 1;
#X text 284 110 f/l;
#X obj 373 500 sphere;
#X msg 422 460 draw line;
#X obj 373 470 spigot;
#X msg 422 480 draw fill;
#X obj 422 440 sel 0 1;
#X obj 225 203 tgl 15 0 empty empty empty 17 7 0 10 -4034 -1 -1 0 1
;
#X obj 228 235 hsl 90 10 1 4 0 0 empty empty empty -2 -8 0 10 -260097
-1 -1 0 1;
#X text 224 217 size;
#X obj 228 259 hsl 90 10 2 10 0 0 empty empty empty -2 -8 0 10 -260097
-1 -1 0 1;
#X text 224 241 segments;
#X obj 275 203 tgl 15 0 empty empty empty 17 7 0 10 -257985 -1 -1 0
1;
#X text 294 201 f/l;
#X connect 0 0 9 0;
#X connect 2 0 19 1;
#X connect 3 0 13 1;
#X connect 6 0 8 0;
#X connect 6 0 15 0;
#X connect 6 0 29 0;
#X connect 6 0 16 0;
#X connect 7 0 8 0;
#X connect 8 0 0 0;
#X connect 9 0 25 1;
#X connect 10 0 9 1;
#X connect 11 0 38 0;
#X connect 11 0 49 0;
#X connect 12 0 13 2;
#X connect 13 0 0 0;
#X connect 15 0 7 0;
#X connect 16 0 36 0;
#X connect 17 0 9 2;
#X connect 19 0 33 0;
#X connect 19 1 2 0;
#X connect 20 0 33 0;
#X connect 21 0 26 0;
#X connect 23 0 13 3;
#X connect 23 0 3 0;
#X connect 24 0 23 0;
#X connect 25 0 19 0;
#X connect 25 1 20 0;
#X connect 26 0 25 0;
#X connect 27 0 30 0;
#X connect 29 0 27 0;
#X connect 29 1 27 0;
#X connect 30 0 13 0;
#X connect 31 0 32 0;
#X connect 32 0 27 0;
#X connect 33 0 11 0;
#X connect 34 0 10 0;
#X connect 34 1 10 1;
#X connect 34 2 10 2;
#X connect 35 0 34 0;
#X connect 36 0 35 0;
#X connect 37 0 40 0;
#X connect 38 0 40 0;
#X connect 39 0 40 0;
#X connect 41 0 38 1;
#X connect 42 0 40 1;
#X connect 44 0 45 0;
#X connect 45 0 37 0;
#X connect 45 1 39 0;
#X connect 48 0 47 0;
#X connect 49 0 47 0;
#X connect 50 0 47 0;
#X connect 51 0 48 0;
#X connect 51 1 50 0;
#X connect 52 0 49 1;
#X connect 53 0 47 1;
#X connect 55 0 47 2;
#X connect 57 0 51 0;
#X coords 0 -1 1 1 230 190 2 100 100;
#X restore 624 186 pd particles;
#N canvas 269 199 541 521 mixmodes 0;
#X obj 100 100 cnv 15 140 130 empty empty empty 20 12 0 14 -228856
-66577 0;
#X obj 105 104 vradio 15 1 0 5 empty empty empty 0 -8 0 10 -257985
-1 -1 0;
#X obj 105 247 + 1;
#X text 124 102 mix;
#X text 124 117 add;
#X text 124 131 multiply;
#X text 124 146 diff;
#X obj 105 24 loadbang;
#X msg 105 44 0;
#X text 184 102 z;
#X text 184 116 x;
#X text 184 131 c;
#X text 184 146 v;
#X obj 214 3 key;
#X obj 215 24 sel 122;
#X obj 274 3 key;
#X obj 275 24 sel 120;
#X obj 334 3 key;
#X obj 335 24 sel 99;
#X obj 384 3 key;
#X obj 385 24 sel 118;
#X msg 215 44 0;
#X msg 275 44 1;
#X msg 335 44 2;
#X msg 385 44 3;
#X obj 205 378 pix_mix;
#X obj 205 418 pix_multiply;
#X obj 205 398 pix_add;
#X obj 205 438 pix_diff;
#X obj 125 488 outlet;
#X obj 108 193 hsl 120 30 0 1 0 0 empty empty empty -2 -8 0 10 -260097
-1 -1 0 1;
#X obj 358 278 inlet;
#X obj 138 278 inlet;
#X obj 205 458 pix_chroma_key;
#X obj 325 308 gate 5;
#X obj 105 308 gate 5;
#X obj 424 291 metro 100;
#X obj 424 271 tgl 15 0 empty empty empty 17 7 0 10 -262144 -1 -1 1
1;
#X obj 454 316 tripleRand 1;
#X obj 424 366 tripleRand 1;
#X msg 424 211 direction \$1;
#X obj 204 166 tgl 15 0 empty empty empty 17 7 0 10 -262144 -1 -1 0
1;
#X msg 454 336 value \$1 \$2 \$3;
#X msg 424 386 range \$1 \$2 \$3;
#X text 124 162 chroma;
#X text 184 161 b;
#X msg 445 44 4;
#X obj 444 3 key;
#X obj 445 24 sel 98;
#X obj 424 251 loadbang;
#X connect 1 0 2 0;
#X connect 2 0 34 0;
#X connect 2 0 35 0;
#X connect 7 0 8 0;
#X connect 8 0 1 0;
#X connect 13 0 14 0;
#X connect 14 0 21 0;
#X connect 15 0 16 0;
#X connect 16 0 22 0;
#X connect 17 0 18 0;
#X connect 18 0 23 0;
#X connect 19 0 20 0;
#X connect 20 0 24 0;
#X connect 21 0 1 0;
#X connect 22 0 1 0;
#X connect 23 0 1 0;
#X connect 24 0 1 0;
#X connect 25 0 29 0;
#X connect 26 0 29 0;
#X connect 27 0 29 0;
#X connect 28 0 29 0;
#X connect 30 0 25 2;
#X connect 31 0 34 1;
#X connect 32 0 35 1;
#X connect 33 0 29 0;
#X connect 34 0 25 1;
#X connect 34 1 27 1;
#X connect 34 2 26 1;
#X connect 34 3 28 1;
#X connect 34 4 33 1;
#X connect 35 0 25 0;
#X connect 35 1 27 0;
#X connect 35 2 26 0;
#X connect 35 3 28 0;
#X connect 35 4 33 0;
#X connect 36 0 38 0;
#X connect 36 0 39 0;
#X connect 37 0 36 0;
#X connect 38 0 42 0;
#X connect 39 0 43 0;
#X connect 40 0 33 0;
#X connect 41 0 40 0;
#X connect 42 0 33 0;
#X connect 43 0 33 0;
#X connect 46 0 1 0;
#X connect 47 0 48 0;
#X connect 48 0 46 0;
#X connect 49 0 37 0;
#X coords 0 -1 1 1 140 130 2 100 100;
#X restore 173 415 pd mixmodes;
#X text 893 195 p = particles;
#X msg 764 20 location /home/hellocatfood/Desktop/;
#X obj 368 614 colorRGB;
#X obj 497 555 hsl 50 10 0 1 0 1 empty fading empty -2 -8 0 10 -258113
-1 -1 4900 1;
#X obj 497 565 hsl 50 10 0 1 0 1 empty fading empty -2 -8 0 10 -4034
-1 -1 4900 1;
#X obj 497 575 hsl 50 10 0 1 0 1 empty fading empty -2 -8 0 10 -4032
-1 -1 4900 1;
#X obj 284 678 loadbang;
#X obj 966 341 nanokontrol;
#X obj 453 266 somepixeffects;
#X obj 323 266 player;
#X obj 173 744 newWave 10 10;
#X obj 173 565 separator;
#X obj 173 595 pix_texture;
#N canvas 276 265 450 300 window 0;
#X obj 436 626 world_light;
#X obj 436 596 gemhead;
#X obj 320 300 cnv 15 130 150 empty empty empty 20 12 0 14 -261234
-66577 0;
#X obj 24 385 gemwin;
#X msg 244 54 0 \, destroy;
#X msg 144 114 border 0;
#X msg 24 55 FSAA 8 \, create \, 1;
#X msg 324 54 lighting \$1;
#X obj 324 344 tgl 15 0 empty empty empty 17 7 0 10 -257985 -1 -1 0
1;
#X obj 324 -6 key;
#X obj 324 14 sel 108;
#X text 344 343 lighting;
#X obj 364 324 bng 15 250 50 0 empty empty empty 17 7 0 10 -258113
-1 -1;
#X text 384 322 destroy;
#X obj 364 305 bng 15 250 50 0 empty empty empty 17 7 0 10 -4032 -1
-1;
#X obj 324 305 bng 30 250 50 0 empty empty empty 17 7 0 10 -4034 -1
-1;
#X msg 468 109 stereo \$1;
#X obj 325 401 vradio 15 1 0 3 empty empty empty 0 -8 0 10 -262144
-1 -1 0;
#X text 348 399 off;
#X msg 468 159 stereoSep \$1;
#X floatatom 325 373 3 -20 50 0 - - -;
#X msg 468 229 stereoFoc \$1;
#X floatatom 386 373 3 -20 35 0 - - -;
#X obj 468 209 / 10;
#X obj 578 -9 key;
#X msg 578 31 2;
#X obj 468 -9 key;
#X msg 468 31 0;
#X obj 468 11 sel 49;
#X obj 578 11 sel 51;
#X obj 528 -9 key;
#X msg 528 31 1;
#X obj 528 11 sel 50;
#X text 384 302 prepare;
#X text 348 414 2 screen;
#X text 347 430 Red/Green;
#X text 348 371 Sep;
#X text 409 371 Foc;
#X msg 144 84 offset 1920 0;
#X msg 144 54 dimen 1024 768;
#X connect 1 0 0 0;
#X connect 4 0 3 0;
#X connect 5 0 3 0;
#X connect 6 0 3 0;
#X connect 7 0 3 0;
#X connect 8 0 7 0;
#X connect 9 0 10 0;
#X connect 10 0 8 0;
#X connect 12 0 4 0;
#X connect 14 0 38 0;
#X connect 14 0 5 0;
#X connect 14 0 3 0;
#X connect 14 0 39 0;
#X connect 15 0 6 0;
#X connect 16 0 3 0;
#X connect 17 0 16 0;
#X connect 19 0 3 0;
#X connect 20 0 19 0;
#X connect 21 0 3 0;
#X connect 22 0 23 0;
#X connect 23 0 21 0;
#X connect 24 0 29 0;
#X connect 25 0 17 0;
#X connect 26 0 28 0;
#X connect 27 0 17 0;
#X connect 28 0 27 0;
#X connect 29 0 25 0;
#X connect 30 0 32 0;
#X connect 31 0 17 0;
#X connect 32 0 31 0;
#X connect 38 0 3 0;
#X connect 39 0 3 0;
#X coords 0 -1 1 1 130 150 1 320 300;
#X restore 623 33 pd window;
#X msg 284 708 5;
#X msg 314 708 4;
#X obj 1309 115 gemhead;
#X obj 1336 198 f;
#X obj 1369 198 + 1;
#X obj 1309 489 translateXYZ;
#X obj 1309 169 t a b;
#X obj 1350 378 sin;
#X obj 1350 248 timer;
#X obj 1309 223 separator;
#X obj 1395 378 cos;
#X obj 1350 406 *;
#X obj 1395 406 *;
#X obj 1350 349 +;
#X obj 1365 325 *;
#X obj 1350 276 / 5000;
#X obj 1380 300 sin;
#X obj 1350 436 * 0.1;
#X obj 1395 436 * 0.1;
#X obj 1309 141 repeat 20;
#X obj 1402 197 % 20;
#X obj 1440 405 *;
#X obj 1309 551 rotateXYZ;
#X obj 1326 519 * 30;
#X obj 1362 519 * 45;
#X obj 1309 649 color;
#X obj 1309 622 alpha;
#X obj 1408 609 hsv2rgb;
#X obj 1309 716 cube 0.5;
#X msg 1357 690 draw line;
#X msg 1358 666 draw fill;
#X obj 1336 600 tgl 15 0 empty empty empty 17 7 0 10 -262144 -1 -1
1 1;
#X obj 1440 379 tan;
#X obj 1398 519 * 15;
#X obj 1440 435 * 0.1;
#X obj 1408 581 pack 0 1 1 0.5;
#X obj 1336 576 loadbang;
#X obj 1251 676 scaleXYZ;
#X floatatom 1273 616 5 0 0 0 - - -;
#X floatatom 1229 551 5 0 0 0 - - -;
#X obj 1307 73 tgl 15 0 empty empty empty 17 7 0 10 -262144 -1 -1 0
1;
#X obj 1019 203 pix_video;
#X obj 1019 168 gemhead;
#X floatatom 311 739 5 0 0 0 - - -;
#X msg 1079 175 device /dev/video2;
#X obj 1683 299 pix_image;
#X obj 1681 178 gemhead;
#X obj 1683 391 pix_texture;
#X obj 1714 237 openpanel;
#X msg 1713 256 open \$1;
#X obj 1714 211 bng 15 250 50 0 empty empty empty 17 7 0 10 -262144
-1 -1;
#N canvas 1578 239 450 300 flash 0;
#X obj 72 199 line;
#X obj 135 89 f;
#X msg 72 169 set \$1;
#X msg 72 119 1 100;
#X obj 42 249 outlet;
#X obj 42 -1 inlet;
#X msg 135 119 \$1 250;
#X obj 73 29 keyblast 104;
#X connect 0 0 4 0;
#X connect 1 0 6 0;
#X connect 2 0 0 0;
#X connect 3 0 0 0;
#X connect 5 0 4 0;
#X connect 5 0 1 1;
#X connect 5 0 2 0;
#X connect 6 0 0 0;
#X connect 7 0 3 0;
#X connect 7 1 1 0;
#X restore 1729 329 pd flash;
#X obj 1615 265 vsl 15 128 0 1 0 0 empty empty empty 0 -9 0 10 -262144
-1 -1 0 1;
#X obj 1684 434 translateXYZ 0 0 2;
#X obj 1684 362 colorRGB;
#X obj 1683 329 alpha;
#X obj 1684 474 rectangle 7 4;
#X obj 1786 55 gemhead;
#X obj 1787 521 repeat 20;
#X obj 1787 281 t a b;
#X obj 1787 612 cube;
#X obj 1787 186 alpha;
#X obj 1848 161 pix_video;
#X msg 1849 132 device 1;
#X obj 1787 216 colorRGB 1 1 1 0.4;
#X obj 1814 341 change;
#X obj 1814 371 metro 1000;
#X obj 1814 431 / 100;
#X msg 1814 311 1;
#X msg 1814 461 \$1 1000;
#X obj 1814 491 line;
#X obj 1787 581 translateXYZ;
#X obj 1787 246 pix_texture;
#X obj 1814 401 random 200;
#X obj 1766 109 scaleXYZ 1.5 3 1;
#X obj 1787 551 rotateXYZ;
#X msg 1894 461 \$1 1000;
#X obj 1894 491 line;
#X obj 1894 401 random 360;
#X obj 1763 17 tgl 15 0 empty empty empty 17 7 0 10 -262144 -1 -1 0
1;
#X obj 1784 80 translateXYZ -6 0 0;
#X obj 1548 292 hsl 50 10 0 1 0 1 empty fading empty -2 -8 0 10 -258113
-1 -1 4900 1;
#X obj 1548 302 hsl 50 10 0 1 0 1 empty fading empty -2 -8 0 10 -4034
-1 -1 4900 1;
#X obj 1548 312 hsl 50 10 0 1 0 1 empty fading empty -2 -8 0 10 -4032
-1 -1 4900 1;
#X obj 1615 231 tgl 15 0 empty empty empty 17 7 0 10 -262144 -1 -1
0 1;
#X connect 0 0 2 0;
#X connect 1 0 31 0;
#X connect 1 1 31 3;
#X connect 2 0 31 0;
#X connect 2 1 31 0;
#X connect 7 0 30 0;
#X connect 8 0 18 0;
#X connect 9 0 8 0;
#X connect 18 0 20 0;
#X connect 20 0 32 0;
#X connect 22 0 7 0;
#X connect 22 0 9 0;
#X connect 24 0 23 1;
#X connect 25 0 23 2;
#X connect 26 0 23 3;
#X connect 27 0 36 0;
#X connect 27 0 35 0;
#X connect 29 0 20 1;
#X connect 32 0 33 0;
#X connect 33 0 0 0;
#X connect 35 0 0 1;
#X connect 36 0 0 2;
#X connect 37 0 54 0;
#X connect 38 0 39 0;
#X connect 39 0 55 0;
#X connect 40 0 57 0;
#X connect 41 0 44 0;
#X connect 41 1 38 0;
#X connect 41 1 43 1;
#X connect 42 0 46 0;
#X connect 43 0 50 0;
#X connect 44 0 40 0;
#X connect 45 0 47 0;
#X connect 46 0 52 0;
#X connect 47 0 53 0;
#X connect 48 0 42 0;
#X connect 48 0 45 0;
#X connect 48 0 67 0;
#X connect 49 0 48 1;
#X connect 50 0 48 0;
#X connect 50 0 51 0;
#X connect 51 0 49 1;
#X connect 52 0 40 1;
#X connect 52 0 58 0;
#X connect 52 0 70 0;
#X connect 53 0 40 2;
#X connect 53 0 59 0;
#X connect 54 0 41 0;
#X connect 55 0 38 1;
#X connect 55 0 47 1;
#X connect 55 0 46 1;
#X connect 55 0 49 0;
#X connect 55 0 56 1;
#X connect 56 0 69 0;
#X connect 57 0 61 0;
#X connect 58 0 57 1;
#X connect 59 0 57 2;
#X connect 60 0 72 0;
#X connect 61 0 60 0;
#X connect 62 0 60 1;
#X connect 64 0 63 0;
#X connect 65 0 63 0;
#X connect 66 0 61 1;
#X connect 67 0 56 0;
#X connect 68 0 57 3;
#X connect 69 0 40 3;
#X connect 69 0 68 0;
#X connect 70 0 62 0;
#X connect 71 0 66 0;
#X connect 72 0 63 0;
#X connect 73 0 72 2;
#X connect 74 0 72 1;
#X connect 75 0 37 0;
#X connect 76 0 29 0;
#X connect 77 0 76 0;
#X connect 78 0 0 1;
#X connect 79 0 76 0;
#X connect 80 0 90 0;
#X connect 81 0 80 0;
#X connect 82 0 88 0;
#X connect 83 0 84 0;
#X connect 84 0 80 0;
#X connect 85 0 83 0;
#X connect 86 0 89 4;
#X connect 87 0 86 0;
#X connect 88 0 91 0;
#X connect 89 0 82 0;
#X connect 90 0 89 0;
#X connect 92 0 115 0;
#X connect 93 0 110 0;
#X connect 94 0 93 0;
#X connect 94 1 103 0;
#X connect 96 0 99 0;
#X connect 97 0 96 0;
#X connect 98 0 97 0;
#X connect 99 0 107 0;
#X connect 100 0 101 0;
#X connect 101 0 108 0;
#X connect 101 0 113 0;
#X connect 102 0 104 0;
#X connect 103 0 100 0;
#X connect 104 0 105 0;
#X connect 105 0 106 1;
#X connect 106 0 95 0;
#X connect 107 0 94 0;
#X connect 108 0 102 0;
#X connect 109 0 97 0;
#X connect 110 0 106 0;
#X connect 111 0 112 0;
#X connect 112 0 110 1;
#X connect 113 0 111 0;
#X connect 114 0 92 0;
#X connect 115 0 109 0;
#X connect 116 0 89 1;
#X connect 117 0 89 2;
#X connect 118 0 89 3;
#X connect 119 0 81 0;
