#N canvas 65 54 1301 714 10;
#X declare -path /home/hellocatfood/pd-externals/hellocatfood;
#X declare -path /homeee/hellocatfood/pd-externals/gridflow;
#X obj 218 623 pix_texture;
#X obj 18 662 scaleXYZ;
#X msg 1033 104 stereo \$1;
#X obj 1033 56 vradio 15 1 0 3 empty empty empty 0 -8 0 10 -262144
-1 -1 0;
#X text 1056 73 2 screen mode;
#X text 1055 87 Red / Green mode;
#X text 1056 57 off;
#X msg 1033 154 stereoSep \$1;
#X floatatom 1033 132 5 -20 50 0 - - -;
#X msg 1033 224 stereoFoc \$1;
#X floatatom 1033 184 5 -20 35 0 - - -;
#N canvas 67 233 450 300 waves 0;
#X obj 100 50 cnv 15 80 80 empty empty empty 20 12 0 14 -233017 -66577
0;
#X msg 134 250 10;
#X msg 104 200 0;
#X msg 134 200 1;
#X msg 104 250 7;
#X obj 104 55 bng 11 250 50 0 empty empty empty 17 7 0 10 -262144 -1
-1;
#X obj 104 67 bng 11 250 50 0 empty empty empty 17 7 0 10 -262144 -1
-1;
#X obj 104 79 bng 11 250 50 0 empty empty empty 17 7 0 10 -262144 -1
-1;
#X obj 104 91 bng 11 250 50 0 empty empty empty 17 7 0 10 -262144 -1
-1;
#X obj 104 103 bng 11 250 50 0 empty empty empty 17 7 0 10 -262144
-1 -1;
#X obj 104 115 bng 11 250 50 0 empty empty empty 17 7 0 10 -258113
-1 -1;
#X text 117 50 Render;
#X text 117 63 Flat;
#X text 117 74 Middle;
#X text 117 88 Diagonal;
#X text 117 98 Hill;
#X text 117 111 Noise!;
#X obj 164 300 outlet;
#X obj 104 300 outlet;
#X msg 164 200 6;
#X obj 134 160 loadbang;
#X obj 269 57 key;
#X obj 269 77 select 110;
#X obj 269 97 bng 15 250 50 0 empty empty empty 17 7 0 10 -262144 -1
-1;
#X obj 209 -3 key;
#X obj 209 37 bng 15 250 50 0 empty empty empty 17 7 0 10 -262144 -1
-1;
#X obj 209 17 select 102;
#X msg 164 250 noise 1;
#X connect 1 0 17 0;
#X connect 2 0 17 0;
#X connect 3 0 17 0;
#X connect 4 0 17 0;
#X connect 5 0 2 0;
#X connect 6 0 3 0;
#X connect 7 0 19 0;
#X connect 8 0 4 0;
#X connect 9 0 1 0;
#X connect 10 0 27 0;
#X connect 19 0 17 0;
#X connect 20 0 3 0;
#X connect 21 0 22 0;
#X connect 22 0 23 0;
#X connect 23 0 10 0;
#X connect 24 0 26 0;
#X connect 25 0 6 0;
#X connect 26 0 25 0;
#X connect 27 0 18 0;
#X coords 0 -1 1 1 80 80 1 100 50;
#X restore 27 579 pd waves;
#X obj 18 682 t a b;
#X obj 865 141 bng 30 250 50 0 empty empty empty 17 7 0 10 -4034 -1
-1;
#X obj 905 161 bng 15 250 50 0 empty empty empty 17 7 0 10 -258113
-1 -1;
#X obj 905 141 bng 15 250 50 0 empty empty empty 17 7 0 10 -4032 -1
-1;
#N canvas 171 230 450 300 window 0;
#X obj 30 149 gemwin;
#X msg 320 39 0 \, destroy;
#X obj 30 19 inlet;
#X obj 150 19 inlet;
#X obj 320 19 inlet;
#X msg 151 109 offset 1366 0;
#X msg 260 108 border 0;
#X msg 30 39 FSAA 8 \, create \, 1;
#X obj 332 162 world_light;
#X msg 150 169 lighting \$1;
#X obj 150 149 inlet;
#X obj 332 132 gemhead;
#X msg 161 78 dimen 1440 900;
#X connect 1 0 0 0;
#X connect 2 0 7 0;
#X connect 3 0 5 0;
#X connect 3 0 6 0;
#X connect 3 0 0 0;
#X connect 3 0 12 0;
#X connect 4 0 1 0;
#X connect 5 0 0 0;
#X connect 6 0 0 0;
#X connect 7 0 0 0;
#X connect 9 0 0 0;
#X connect 10 0 9 0;
#X connect 11 0 8 0;
#X connect 12 0 0 0;
#X restore 865 180 pd window;
#X text 925 139 press this first;
#X text 925 159 destroy window;
#X text 862 119 create window;
#X obj 935 198 tgl 15 0 empty empty empty 17 7 0 10 -257985 -1 -1 1
1;
#X text 955 197 lighting;
#N canvas 66 54 1300 714 speaker 0;
#X obj 600 100 cnv 15 170 210 empty empty empty 20 12 0 14 -233017
-66577 0;
#X obj -78 233 bp~ 100 10;
#X obj 3 233 bp~ 200 10;
#X obj 85 233 bp~ 400 10;
#X obj 166 233 bp~ 800 10;
#X obj 251 232 bp~ 1000 10;
#X obj 333 232 bp~ 1200 10;
#X obj 418 232 bp~ 1400 10;
#X obj 499 232 bp~ 12600 10;
#X obj 84 504 *~ 0.5;
#X obj 173 504 *~ 0.5;
#X obj 419 505 *~ 0.5;
#X obj 504 507 *~ 0.5;
#X obj 209 675 dac~;
#X obj -79 501 *~ 0.5;
#X obj -1 502 *~ 0.5;
#X obj 252 505 *~ 0.5;
#X obj 336 507 *~ 0.5;
#X obj -65 271 env~ 1024;
#X floatatom -65 323 5 0 0 0 - - -;
#X obj 607 152 vsl 15 80 0 1 0 0 env1 empty empty 0 -9 0 10 -257985
-1 -1 0 1;
#X obj -65 369 line;
#X obj -65 296 dbtorms;
#X obj 15 271 env~ 1024;
#X floatatom 15 323 5 0 0 0 - - -;
#X obj 627 152 vsl 15 80 0 1 0 0 env2 empty empty 0 -9 0 10 -257985
-1 -1 0 1;
#X obj 15 369 line;
#X obj 15 296 dbtorms;
#X obj 95 271 env~ 1024;
#X floatatom 95 323 5 0 0 0 - - -;
#X obj 647 152 vsl 15 80 0 1 0 0 env3 empty empty 0 -9 0 10 -257985
-1 -1 0 1;
#X obj 95 369 line;
#X obj 95 296 dbtorms;
#X obj 185 271 env~ 1024;
#X floatatom 185 323 5 0 0 0 - - -;
#X obj 668 152 vsl 15 80 0 1 0 0 env4 empty empty 0 -9 0 10 -257985
-1 -1 0 1;
#X obj 185 369 line;
#X obj 185 296 dbtorms;
#X obj 265 271 env~ 1024;
#X floatatom 265 323 5 0 0 0 - - -;
#X obj 687 152 vsl 15 80 0 1 0 0 env5 empty empty 0 -9 0 10 -257985
-1 -1 0 1;
#X obj 265 369 line;
#X obj 265 296 dbtorms;
#X obj 345 271 env~ 1024;
#X floatatom 345 323 5 0 0 0 - - -;
#X obj 707 152 vsl 15 80 0 1 0 0 env6 empty empty 0 -9 0 10 -257985
-1 -1 0 1;
#X obj 345 369 line;
#X obj 345 296 dbtorms;
#X obj 435 271 env~ 1024;
#X floatatom 435 323 5 0 0 0 - - -;
#X obj 727 152 vsl 15 80 0 1 0 0 env7 empty empty 0 -9 0 10 -257985
-1 -1 0 1;
#X obj 435 369 line;
#X obj 435 296 dbtorms;
#X obj 515 271 env~ 1024;
#X floatatom 515 323 5 0 0 0 - - -;
#X obj 747 152 vsl 15 80 0 1 0 0 env8 empty empty 0 -9 0 10 -257985
-1 -1 0 1;
#X obj 515 369 line;
#X obj 515 296 dbtorms;
#X obj 176 138 *~;
#X obj 246 138 *~;
#X obj 607 262 vsl 15 40 10 1 0 1 empty empty empty 0 -9 0 10 -262144
-1 -1 0 1;
#X obj 627 262 vsl 15 40 10 1 0 1 empty empty empty 0 -9 0 10 -262144
-1 -1 0 1;
#X obj 647 262 vsl 15 40 10 1 0 1 empty empty empty 0 -9 0 10 -262144
-1 -1 0 1;
#X obj 667 262 vsl 15 40 10 1 0 1 empty empty empty 0 -9 0 10 -262144
-1 -1 0 1;
#X obj 687 262 vsl 15 40 10 1 0 1 empty empty empty 0 -9 0 10 -262144
-1 -1 0 1;
#X obj 707 262 vsl 15 40 10 1 0 1 empty empty empty 0 -9 0 10 -262144
-1 -1 0 1;
#X obj 727 262 vsl 15 40 10 1 0 1 empty empty empty 0 -9 0 10 -262144
-1 -1 0 1;
#X obj 747 262 vsl 15 40 10 1 0 1 empty empty empty 0 -9 0 10 -262144
-1 -1 0 1;
#X obj 780 138 outlet;
#X obj 790 160 outlet;
#X obj 800 180 outlet;
#X obj 810 200 outlet;
#X obj 820 220 outlet;
#X obj 830 240 outlet;
#X obj 840 260 outlet;
#X obj 850 280 outlet;
#X obj 176 78 adc~;
#X obj 610 120 hsl 150 15 0.01 10 0 0 empty empty empty -2 -8 0 10
-260097 -1 -1 1477 1;
#X text 607 100 Microphone sensitivity;
#X text 607 240 Adjust sensitivity;
#X obj 210 634 *~ 0;
#X obj 607 48 loadbang;
#X msg 607 68 1;
#X msg -65 348 \$1 25;
#X msg 15 348 \$1 25;
#X msg 95 348 \$1 25;
#X msg 185 348 \$1 25;
#X msg 265 348 \$1 25;
#X msg 345 348 \$1 25;
#X msg 435 348 \$1 25;
#X msg 515 348 \$1 25;
#X connect 1 0 14 0;
#X connect 1 0 18 0;
#X connect 2 0 15 0;
#X connect 2 0 23 0;
#X connect 3 0 9 0;
#X connect 3 0 28 0;
#X connect 4 0 10 0;
#X connect 4 0 33 0;
#X connect 5 0 16 0;
#X connect 5 0 38 0;
#X connect 6 0 17 0;
#X connect 6 0 43 0;
#X connect 7 0 11 0;
#X connect 7 0 48 0;
#X connect 8 0 12 0;
#X connect 8 0 53 0;
#X connect 9 0 80 0;
#X connect 10 0 80 0;
#X connect 11 0 80 0;
#X connect 12 0 80 0;
#X connect 14 0 80 0;
#X connect 15 0 80 0;
#X connect 16 0 80 0;
#X connect 17 0 80 0;
#X connect 18 0 22 0;
#X connect 19 0 83 0;
#X connect 20 0 68 0;
#X connect 21 0 20 0;
#X connect 22 0 19 0;
#X connect 23 0 27 0;
#X connect 24 0 84 0;
#X connect 25 0 69 0;
#X connect 26 0 25 0;
#X connect 27 0 24 0;
#X connect 28 0 32 0;
#X connect 29 0 85 0;
#X connect 30 0 70 0;
#X connect 31 0 30 0;
#X connect 32 0 29 0;
#X connect 33 0 37 0;
#X connect 34 0 86 0;
#X connect 35 0 71 0;
#X connect 36 0 35 0;
#X connect 37 0 34 0;
#X connect 38 0 42 0;
#X connect 39 0 87 0;
#X connect 40 0 72 0;
#X connect 41 0 40 0;
#X connect 42 0 39 0;
#X connect 43 0 47 0;
#X connect 44 0 88 0;
#X connect 45 0 73 0;
#X connect 46 0 45 0;
#X connect 47 0 44 0;
#X connect 48 0 52 0;
#X connect 49 0 89 0;
#X connect 50 0 74 0;
#X connect 51 0 50 0;
#X connect 52 0 49 0;
#X connect 53 0 57 0;
#X connect 54 0 90 0;
#X connect 55 0 75 0;
#X connect 56 0 55 0;
#X connect 57 0 54 0;
#X connect 58 0 1 0;
#X connect 58 0 2 0;
#X connect 58 0 3 0;
#X connect 58 0 4 0;
#X connect 58 0 5 0;
#X connect 58 0 6 0;
#X connect 58 0 7 0;
#X connect 58 0 8 0;
#X connect 59 0 1 0;
#X connect 59 0 2 0;
#X connect 59 0 3 0;
#X connect 59 0 4 0;
#X connect 59 0 5 0;
#X connect 59 0 6 0;
#X connect 59 0 7 0;
#X connect 59 0 8 0;
#X connect 60 0 1 2;
#X connect 61 0 2 2;
#X connect 62 0 3 2;
#X connect 63 0 4 2;
#X connect 64 0 5 2;
#X connect 65 0 6 2;
#X connect 66 0 7 2;
#X connect 67 0 8 2;
#X connect 76 0 58 0;
#X connect 76 1 59 0;
#X connect 77 0 58 1;
#X connect 77 0 59 1;
#X connect 80 0 13 0;
#X connect 80 0 13 1;
#X connect 81 0 82 0;
#X connect 82 0 77 0;
#X connect 83 0 21 0;
#X connect 84 0 26 0;
#X connect 85 0 31 0;
#X connect 86 0 36 0;
#X connect 87 0 41 0;
#X connect 88 0 46 0;
#X connect 89 0 51 0;
#X connect 90 0 56 0;
#X coords 0 -1 1 1 170 210 1 600 100;
#X restore 798 461 pd speaker;
#X obj 1033 204 / 10;
#N canvas 620 82 646 685 polys 0;
#X obj 200 100 cnv 15 160 160 empty empty empty 20 12 0 14 -233017
-66577 0;
#X obj 55 186 translateXYZ;
#X obj 78 166 r xpos;
#X obj 55 216 rotateXYZ 180 0 0;
#X obj 206 141 vsl 15 50 -5 5 0 0 empty empty empty 0 -9 0 10 -260097
-1 -1 0 1;
#X msg 135 136 \$1 50;
#X obj 135 156 line;
#X obj 55 296 rotateXYZ;
#X obj 55 357 pix_texture;
#X obj 55 326 pix_film;
#X obj 115 326 f;
#X obj 55 246 repeat 10;
#X msg 199 339 draw fill;
#X msg 199 319 draw linestrip;
#X obj 55 516 translateXYZ;
#X obj 78 496 r xpos;
#X obj 55 576 rotateXYZ;
#X obj 206 201 vsl 15 50 -5 5 0 0 empty empty empty 0 -9 0 10 -260097
-1 -1 0 1;
#X msg 135 466 \$1 50;
#X obj 135 486 line;
#X obj 55 636 pix_texture;
#X obj 55 606 pix_film;
#X obj 115 606 f;
#X obj 55 546 repeat 10;
#X obj 239 139 hsl 50 15 0.01 3 0 0 spacing empty empty -2 -8 0 10
-260097 -1 -1 0 1;
#X obj 239 179 hsl 50 15 0 15 0 0 ppos empty empty -2 -8 0 10 -260097
-1 -1 0 1;
#X text 234 155 spacing;
#X obj 239 219 hsl 50 15 -15 5 0 0 xpos empty empty -2 -8 0 10 -260097
-1 -1 0 1;
#N canvas 625 163 450 300 poly 0;
#N canvas 301 184 450 309 p1 0;
#X obj 124 111 * 3;
#X obj 124 291 outlet;
#X obj 199 211 * 1;
#X obj 199 81 + 0.75;
#X obj 124 231 pack f f;
#X msg 124 261 \$2 \$1 0;
#X obj 174 31 r ppos;
#X obj 214 171 r spacing;
#X obj 209 121 outlet;
#X obj 209 61 inlet;
#X floatatom 209 101 5 0 0 0 - - -;
#X obj 214 191 t b f;
#X text 249 98 X position of polygon point;
#X text 218 32 Y position of polygon point;
#X obj 124 31 inlet;
#X connect 0 0 4 0;
#X connect 2 0 4 1;
#X connect 3 0 2 0;
#X connect 3 0 8 0;
#X connect 3 0 10 0;
#X connect 4 0 5 0;
#X connect 5 0 1 0;
#X connect 6 0 0 1;
#X connect 7 0 11 0;
#X connect 9 0 3 0;
#X connect 11 0 2 0;
#X connect 11 1 2 1;
#X connect 14 0 0 0;
#X restore 87 139 pd p1;
#X obj 16 159 polygon 10 _________________________________________________
;
#X obj 87 119 r env1;
#X obj 123 79 r env2;
#X obj 158 119 r env3;
#X obj 194 79 r env4;
#X obj 230 119 r env5;
#X obj 265 79 r env6;
#X obj 301 119 r env7;
#X obj 337 79 r env8;
#N canvas 179 157 450 309 p1 0;
#X obj 124 111 * 3;
#X obj 124 291 outlet;
#X obj 199 211 * 1;
#X obj 199 81 + 0.75;
#X obj 124 231 pack f f;
#X msg 124 261 \$2 \$1 0;
#X obj 174 31 r ppos;
#X obj 214 171 r spacing;
#X obj 209 121 outlet;
#X obj 209 61 inlet;
#X floatatom 209 101 5 0 0 0 - - -;
#X obj 214 191 t b f;
#X text 249 98 X position of polygon point;
#X text 218 32 Y position of polygon point;
#X obj 124 31 inlet;
#X connect 0 0 4 0;
#X connect 2 0 4 1;
#X connect 3 0 2 0;
#X connect 3 0 8 0;
#X connect 3 0 10 0;
#X connect 4 0 5 0;
#X connect 5 0 1 0;
#X connect 6 0 0 1;
#X connect 7 0 11 0;
#X connect 9 0 3 0;
#X connect 11 0 2 0;
#X connect 11 1 2 1;
#X connect 14 0 0 0;
#X restore 373 139 pd p1;
#N canvas 67 95 450 300 no 0;
#X obj 298 109 r env1;
#X obj 298 149 /;
#X obj 313 129 r env1;
#X obj 298 189 outlet;
#X obj 298 169 - 1;
#X connect 0 0 1 0;
#X connect 1 0 4 0;
#X connect 2 0 1 1;
#X connect 4 0 3 0;
#X restore 51 79 pd no;
#N canvas 67 83 450 300 no 0;
#X obj 298 109 r env1;
#X obj 298 149 /;
#X obj 313 129 r env1;
#X obj 298 169 - 1;
#X obj 298 189 outlet;
#X connect 0 0 1 0;
#X connect 1 0 3 0;
#X connect 2 0 1 1;
#X connect 3 0 4 0;
#X restore 373 119 pd no;
#N canvas 305 172 450 309 p1 0;
#X obj 124 111 * 3;
#X obj 124 291 outlet;
#X obj 199 211 * 1;
#X obj 199 81 + 0.75;
#X obj 124 231 pack f f;
#X msg 124 261 \$2 \$1 0;
#X obj 174 31 r ppos;
#X obj 214 171 r spacing;
#X obj 209 121 outlet;
#X obj 209 61 inlet;
#X floatatom 209 101 5 0 0 0 - - -;
#X obj 214 191 t b f;
#X text 249 98 X position of polygon point;
#X text 218 32 Y position of polygon point;
#X obj 124 31 inlet;
#X connect 0 0 4 0;
#X connect 2 0 4 1;
#X connect 3 0 2 0;
#X connect 3 0 8 0;
#X connect 3 0 10 0;
#X connect 4 0 5 0;
#X connect 5 0 1 0;
#X connect 6 0 0 1;
#X connect 7 0 11 0;
#X connect 9 0 3 0;
#X connect 11 0 2 0;
#X connect 11 1 2 1;
#X connect 14 0 0 0;
#X restore 123 99 pd p1;
#N canvas 305 172 450 309 p1 0;
#X obj 124 111 * 3;
#X obj 124 291 outlet;
#X obj 199 211 * 1;
#X obj 199 81 + 0.75;
#X obj 124 231 pack f f;
#X msg 124 261 \$2 \$1 0;
#X obj 174 31 r ppos;
#X obj 214 171 r spacing;
#X obj 209 121 outlet;
#X obj 209 61 inlet;
#X floatatom 209 101 5 0 0 0 - - -;
#X obj 214 191 t b f;
#X text 249 98 X position of polygon point;
#X text 218 32 Y position of polygon point;
#X obj 124 31 inlet;
#X connect 0 0 4 0;
#X connect 2 0 4 1;
#X connect 3 0 2 0;
#X connect 3 0 8 0;
#X connect 3 0 10 0;
#X connect 4 0 5 0;
#X connect 5 0 1 0;
#X connect 6 0 0 1;
#X connect 7 0 11 0;
#X connect 9 0 3 0;
#X connect 11 0 2 0;
#X connect 11 1 2 1;
#X connect 14 0 0 0;
#X restore 194 99 pd p1;
#N canvas 305 172 450 309 p1 0;
#X obj 124 111 * 3;
#X obj 124 291 outlet;
#X obj 199 211 * 1;
#X obj 199 81 + 0.75;
#X obj 124 231 pack f f;
#X msg 124 261 \$2 \$1 0;
#X obj 174 31 r ppos;
#X obj 214 171 r spacing;
#X obj 209 121 outlet;
#X obj 209 61 inlet;
#X floatatom 209 101 5 0 0 0 - - -;
#X obj 214 191 t b f;
#X text 249 98 X position of polygon point;
#X text 218 32 Y position of polygon point;
#X obj 124 31 inlet;
#X connect 0 0 4 0;
#X connect 2 0 4 1;
#X connect 3 0 2 0;
#X connect 3 0 8 0;
#X connect 3 0 10 0;
#X connect 4 0 5 0;
#X connect 5 0 1 0;
#X connect 6 0 0 1;
#X connect 7 0 11 0;
#X connect 9 0 3 0;
#X connect 11 0 2 0;
#X connect 11 1 2 1;
#X connect 14 0 0 0;
#X restore 265 99 pd p1;
#N canvas 305 172 450 309 p1 0;
#X obj 124 111 * 3;
#X obj 124 291 outlet;
#X obj 199 211 * 1;
#X obj 199 81 + 0.75;
#X obj 124 231 pack f f;
#X msg 124 261 \$2 \$1 0;
#X obj 174 31 r ppos;
#X obj 214 171 r spacing;
#X obj 209 121 outlet;
#X obj 209 61 inlet;
#X floatatom 209 101 5 0 0 0 - - -;
#X obj 214 191 t b f;
#X text 249 98 X position of polygon point;
#X text 218 32 Y position of polygon point;
#X obj 124 31 inlet;
#X connect 0 0 4 0;
#X connect 2 0 4 1;
#X connect 3 0 2 0;
#X connect 3 0 8 0;
#X connect 3 0 10 0;
#X connect 4 0 5 0;
#X connect 5 0 1 0;
#X connect 6 0 0 1;
#X connect 7 0 11 0;
#X connect 9 0 3 0;
#X connect 11 0 2 0;
#X connect 11 1 2 1;
#X connect 14 0 0 0;
#X restore 337 99 pd p1;
#N canvas 305 172 450 309 p1 0;
#X obj 124 111 * 3;
#X obj 124 291 outlet;
#X obj 199 211 * 1;
#X obj 199 81 + 0.75;
#X obj 124 231 pack f f;
#X msg 124 261 \$2 \$1 0;
#X obj 174 31 r ppos;
#X obj 214 171 r spacing;
#X obj 209 121 outlet;
#X obj 209 61 inlet;
#X floatatom 209 101 5 0 0 0 - - -;
#X obj 214 191 t b f;
#X text 249 98 X position of polygon point;
#X text 218 32 Y position of polygon point;
#X obj 124 31 inlet;
#X connect 0 0 4 0;
#X connect 2 0 4 1;
#X connect 3 0 2 0;
#X connect 3 0 8 0;
#X connect 3 0 10 0;
#X connect 4 0 5 0;
#X connect 5 0 1 0;
#X connect 6 0 0 1;
#X connect 7 0 11 0;
#X connect 9 0 3 0;
#X connect 11 0 2 0;
#X connect 11 1 2 1;
#X connect 14 0 0 0;
#X restore 158 139 pd p1;
#N canvas 305 172 450 309 p1 0;
#X obj 124 111 * 3;
#X obj 124 291 outlet;
#X obj 199 211 * 1;
#X obj 199 81 + 0.75;
#X obj 124 231 pack f f;
#X msg 124 261 \$2 \$1 0;
#X obj 174 31 r ppos;
#X obj 214 171 r spacing;
#X obj 209 121 outlet;
#X obj 209 61 inlet;
#X floatatom 209 101 5 0 0 0 - - -;
#X obj 214 191 t b f;
#X text 249 98 X position of polygon point;
#X text 218 32 Y position of polygon point;
#X obj 124 31 inlet;
#X connect 0 0 4 0;
#X connect 2 0 4 1;
#X connect 3 0 2 0;
#X connect 3 0 8 0;
#X connect 3 0 10 0;
#X connect 4 0 5 0;
#X connect 5 0 1 0;
#X connect 6 0 0 1;
#X connect 7 0 11 0;
#X connect 9 0 3 0;
#X connect 11 0 2 0;
#X connect 11 1 2 1;
#X connect 14 0 0 0;
#X restore 230 139 pd p1;
#N canvas 305 172 450 309 p1 0;
#X obj 124 111 * 3;
#X obj 124 291 outlet;
#X obj 199 211 * 1;
#X obj 199 81 + 0.75;
#X obj 124 231 pack f f;
#X msg 124 261 \$2 \$1 0;
#X obj 174 31 r ppos;
#X obj 214 171 r spacing;
#X obj 209 121 outlet;
#X obj 209 61 inlet;
#X floatatom 209 101 5 0 0 0 - - -;
#X obj 214 191 t b f;
#X text 249 98 X position of polygon point;
#X text 218 32 Y position of polygon point;
#X obj 124 31 inlet;
#X connect 0 0 4 0;
#X connect 2 0 4 1;
#X connect 3 0 2 0;
#X connect 3 0 8 0;
#X connect 3 0 10 0;
#X connect 4 0 5 0;
#X connect 5 0 1 0;
#X connect 6 0 0 1;
#X connect 7 0 11 0;
#X connect 9 0 3 0;
#X connect 11 0 2 0;
#X connect 11 1 2 1;
#X connect 14 0 0 0;
#X restore 301 139 pd p1;
#N canvas 305 172 450 309 p1 0;
#X obj 124 111 * 3;
#X obj 124 291 outlet;
#X obj 199 211 * 1;
#X obj 199 81 + 0.75;
#X obj 124 231 pack f f;
#X msg 124 261 \$2 \$1 0;
#X obj 174 31 r ppos;
#X obj 214 171 r spacing;
#X obj 209 121 outlet;
#X obj 209 61 inlet;
#X floatatom 209 101 5 0 0 0 - - -;
#X obj 214 191 t b f;
#X text 249 98 X position of polygon point;
#X text 218 32 Y position of polygon point;
#X obj 124 31 inlet;
#X connect 0 0 4 0;
#X connect 2 0 4 1;
#X connect 3 0 2 0;
#X connect 3 0 8 0;
#X connect 3 0 10 0;
#X connect 4 0 5 0;
#X connect 5 0 1 0;
#X connect 6 0 0 1;
#X connect 7 0 11 0;
#X connect 9 0 3 0;
#X connect 11 0 2 0;
#X connect 11 1 2 1;
#X connect 14 0 0 0;
#X restore 51 99 pd p1;
#X obj 16 39 inlet;
#X connect 0 0 1 2;
#X connect 0 1 13 1;
#X connect 2 0 0 0;
#X connect 3 0 13 0;
#X connect 4 0 17 0;
#X connect 5 0 14 0;
#X connect 6 0 18 0;
#X connect 7 0 15 0;
#X connect 8 0 19 0;
#X connect 9 0 16 0;
#X connect 10 0 1 10;
#X connect 11 0 20 0;
#X connect 11 0 20 1;
#X connect 12 0 10 0;
#X connect 13 0 1 3;
#X connect 13 1 17 1;
#X connect 14 0 1 5;
#X connect 14 1 18 1;
#X connect 15 0 1 7;
#X connect 15 1 19 1;
#X connect 16 0 1 9;
#X connect 16 1 10 1;
#X connect 17 0 1 4;
#X connect 17 1 14 1;
#X connect 18 0 1 6;
#X connect 18 1 15 1;
#X connect 19 0 1 8;
#X connect 19 1 16 1;
#X connect 20 0 1 1;
#X connect 20 1 0 1;
#X connect 21 0 1 0;
#X restore 55 387 pd poly;
#N canvas 629 152 450 300 poly 0;
#N canvas 301 184 450 309 p1 0;
#X obj 124 111 * 3;
#X obj 124 291 outlet;
#X obj 199 211 * 1;
#X obj 199 81 + 0.75;
#X obj 124 231 pack f f;
#X msg 124 261 \$2 \$1 0;
#X obj 174 31 r ppos;
#X obj 214 171 r spacing;
#X obj 209 121 outlet;
#X obj 209 61 inlet;
#X floatatom 209 101 5 0 0 0 - - -;
#X obj 214 191 t b f;
#X text 249 98 X position of polygon point;
#X text 218 32 Y position of polygon point;
#X obj 124 31 inlet;
#X connect 0 0 4 0;
#X connect 2 0 4 1;
#X connect 3 0 2 0;
#X connect 3 0 8 0;
#X connect 3 0 10 0;
#X connect 4 0 5 0;
#X connect 5 0 1 0;
#X connect 6 0 0 1;
#X connect 7 0 11 0;
#X connect 9 0 3 0;
#X connect 11 0 2 0;
#X connect 11 1 2 1;
#X connect 14 0 0 0;
#X restore 87 139 pd p1;
#X obj 16 159 polygon 10 _________________________________________________
;
#X obj 87 119 r env1;
#X obj 123 79 r env2;
#X obj 158 119 r env3;
#X obj 194 79 r env4;
#X obj 230 119 r env5;
#X obj 265 79 r env6;
#X obj 301 119 r env7;
#X obj 337 79 r env8;
#N canvas 179 157 450 309 p1 0;
#X obj 124 111 * 3;
#X obj 124 291 outlet;
#X obj 199 211 * 1;
#X obj 199 81 + 0.75;
#X obj 124 231 pack f f;
#X msg 124 261 \$2 \$1 0;
#X obj 174 31 r ppos;
#X obj 214 171 r spacing;
#X obj 209 121 outlet;
#X obj 209 61 inlet;
#X floatatom 209 101 5 0 0 0 - - -;
#X obj 214 191 t b f;
#X text 249 98 X position of polygon point;
#X text 218 32 Y position of polygon point;
#X obj 124 31 inlet;
#X connect 0 0 4 0;
#X connect 2 0 4 1;
#X connect 3 0 2 0;
#X connect 3 0 8 0;
#X connect 3 0 10 0;
#X connect 4 0 5 0;
#X connect 5 0 1 0;
#X connect 6 0 0 1;
#X connect 7 0 11 0;
#X connect 9 0 3 0;
#X connect 11 0 2 0;
#X connect 11 1 2 1;
#X connect 14 0 0 0;
#X restore 373 139 pd p1;
#N canvas 67 95 450 300 no 0;
#X obj 298 109 r env1;
#X obj 298 149 /;
#X obj 313 129 r env1;
#X obj 298 189 outlet;
#X obj 298 169 - 1;
#X connect 0 0 1 0;
#X connect 1 0 4 0;
#X connect 2 0 1 1;
#X connect 4 0 3 0;
#X restore 51 79 pd no;
#N canvas 67 83 450 300 no 0;
#X obj 298 109 r env1;
#X obj 298 149 /;
#X obj 313 129 r env1;
#X obj 298 169 - 1;
#X obj 298 189 outlet;
#X connect 0 0 1 0;
#X connect 1 0 3 0;
#X connect 2 0 1 1;
#X connect 3 0 4 0;
#X restore 373 119 pd no;
#N canvas 305 172 450 309 p1 0;
#X obj 124 111 * 3;
#X obj 124 291 outlet;
#X obj 199 211 * 1;
#X obj 199 81 + 0.75;
#X obj 124 231 pack f f;
#X msg 124 261 \$2 \$1 0;
#X obj 174 31 r ppos;
#X obj 214 171 r spacing;
#X obj 209 121 outlet;
#X obj 209 61 inlet;
#X floatatom 209 101 5 0 0 0 - - -;
#X obj 214 191 t b f;
#X text 249 98 X position of polygon point;
#X text 218 32 Y position of polygon point;
#X obj 124 31 inlet;
#X connect 0 0 4 0;
#X connect 2 0 4 1;
#X connect 3 0 2 0;
#X connect 3 0 8 0;
#X connect 3 0 10 0;
#X connect 4 0 5 0;
#X connect 5 0 1 0;
#X connect 6 0 0 1;
#X connect 7 0 11 0;
#X connect 9 0 3 0;
#X connect 11 0 2 0;
#X connect 11 1 2 1;
#X connect 14 0 0 0;
#X restore 123 99 pd p1;
#N canvas 305 172 450 309 p1 0;
#X obj 124 111 * 3;
#X obj 124 291 outlet;
#X obj 199 211 * 1;
#X obj 199 81 + 0.75;
#X obj 124 231 pack f f;
#X msg 124 261 \$2 \$1 0;
#X obj 174 31 r ppos;
#X obj 214 171 r spacing;
#X obj 209 121 outlet;
#X obj 209 61 inlet;
#X floatatom 209 101 5 0 0 0 - - -;
#X obj 214 191 t b f;
#X text 249 98 X position of polygon point;
#X text 218 32 Y position of polygon point;
#X obj 124 31 inlet;
#X connect 0 0 4 0;
#X connect 2 0 4 1;
#X connect 3 0 2 0;
#X connect 3 0 8 0;
#X connect 3 0 10 0;
#X connect 4 0 5 0;
#X connect 5 0 1 0;
#X connect 6 0 0 1;
#X connect 7 0 11 0;
#X connect 9 0 3 0;
#X connect 11 0 2 0;
#X connect 11 1 2 1;
#X connect 14 0 0 0;
#X restore 194 99 pd p1;
#N canvas 305 172 450 309 p1 0;
#X obj 124 111 * 3;
#X obj 124 291 outlet;
#X obj 199 211 * 1;
#X obj 199 81 + 0.75;
#X obj 124 231 pack f f;
#X msg 124 261 \$2 \$1 0;
#X obj 174 31 r ppos;
#X obj 214 171 r spacing;
#X obj 209 121 outlet;
#X obj 209 61 inlet;
#X floatatom 209 101 5 0 0 0 - - -;
#X obj 214 191 t b f;
#X text 249 98 X position of polygon point;
#X text 218 32 Y position of polygon point;
#X obj 124 31 inlet;
#X connect 0 0 4 0;
#X connect 2 0 4 1;
#X connect 3 0 2 0;
#X connect 3 0 8 0;
#X connect 3 0 10 0;
#X connect 4 0 5 0;
#X connect 5 0 1 0;
#X connect 6 0 0 1;
#X connect 7 0 11 0;
#X connect 9 0 3 0;
#X connect 11 0 2 0;
#X connect 11 1 2 1;
#X connect 14 0 0 0;
#X restore 265 99 pd p1;
#N canvas 305 172 450 309 p1 0;
#X obj 124 111 * 3;
#X obj 124 291 outlet;
#X obj 199 211 * 1;
#X obj 199 81 + 0.75;
#X obj 124 231 pack f f;
#X msg 124 261 \$2 \$1 0;
#X obj 174 31 r ppos;
#X obj 214 171 r spacing;
#X obj 209 121 outlet;
#X obj 209 61 inlet;
#X floatatom 209 101 5 0 0 0 - - -;
#X obj 214 191 t b f;
#X text 249 98 X position of polygon point;
#X text 218 32 Y position of polygon point;
#X obj 124 31 inlet;
#X connect 0 0 4 0;
#X connect 2 0 4 1;
#X connect 3 0 2 0;
#X connect 3 0 8 0;
#X connect 3 0 10 0;
#X connect 4 0 5 0;
#X connect 5 0 1 0;
#X connect 6 0 0 1;
#X connect 7 0 11 0;
#X connect 9 0 3 0;
#X connect 11 0 2 0;
#X connect 11 1 2 1;
#X connect 14 0 0 0;
#X restore 337 99 pd p1;
#N canvas 305 172 450 309 p1 0;
#X obj 124 111 * 3;
#X obj 124 291 outlet;
#X obj 199 211 * 1;
#X obj 199 81 + 0.75;
#X obj 124 231 pack f f;
#X msg 124 261 \$2 \$1 0;
#X obj 174 31 r ppos;
#X obj 214 171 r spacing;
#X obj 209 121 outlet;
#X obj 209 61 inlet;
#X floatatom 209 101 5 0 0 0 - - -;
#X obj 214 191 t b f;
#X text 249 98 X position of polygon point;
#X text 218 32 Y position of polygon point;
#X obj 124 31 inlet;
#X connect 0 0 4 0;
#X connect 2 0 4 1;
#X connect 3 0 2 0;
#X connect 3 0 8 0;
#X connect 3 0 10 0;
#X connect 4 0 5 0;
#X connect 5 0 1 0;
#X connect 6 0 0 1;
#X connect 7 0 11 0;
#X connect 9 0 3 0;
#X connect 11 0 2 0;
#X connect 11 1 2 1;
#X connect 14 0 0 0;
#X restore 158 139 pd p1;
#N canvas 305 172 450 309 p1 0;
#X obj 124 111 * 3;
#X obj 124 291 outlet;
#X obj 199 211 * 1;
#X obj 199 81 + 0.75;
#X obj 124 231 pack f f;
#X msg 124 261 \$2 \$1 0;
#X obj 174 31 r ppos;
#X obj 214 171 r spacing;
#X obj 209 121 outlet;
#X obj 209 61 inlet;
#X floatatom 209 101 5 0 0 0 - - -;
#X obj 214 191 t b f;
#X text 249 98 X position of polygon point;
#X text 218 32 Y position of polygon point;
#X obj 124 31 inlet;
#X connect 0 0 4 0;
#X connect 2 0 4 1;
#X connect 3 0 2 0;
#X connect 3 0 8 0;
#X connect 3 0 10 0;
#X connect 4 0 5 0;
#X connect 5 0 1 0;
#X connect 6 0 0 1;
#X connect 7 0 11 0;
#X connect 9 0 3 0;
#X connect 11 0 2 0;
#X connect 11 1 2 1;
#X connect 14 0 0 0;
#X restore 230 139 pd p1;
#N canvas 305 172 450 309 p1 0;
#X obj 124 111 * 3;
#X obj 124 291 outlet;
#X obj 199 211 * 1;
#X obj 199 81 + 0.75;
#X obj 124 231 pack f f;
#X msg 124 261 \$2 \$1 0;
#X obj 174 31 r ppos;
#X obj 214 171 r spacing;
#X obj 209 121 outlet;
#X obj 209 61 inlet;
#X floatatom 209 101 5 0 0 0 - - -;
#X obj 214 191 t b f;
#X text 249 98 X position of polygon point;
#X text 218 32 Y position of polygon point;
#X obj 124 31 inlet;
#X connect 0 0 4 0;
#X connect 2 0 4 1;
#X connect 3 0 2 0;
#X connect 3 0 8 0;
#X connect 3 0 10 0;
#X connect 4 0 5 0;
#X connect 5 0 1 0;
#X connect 6 0 0 1;
#X connect 7 0 11 0;
#X connect 9 0 3 0;
#X connect 11 0 2 0;
#X connect 11 1 2 1;
#X connect 14 0 0 0;
#X restore 301 139 pd p1;
#N canvas 305 172 450 309 p1 0;
#X obj 124 111 * 3;
#X obj 124 291 outlet;
#X obj 199 211 * 1;
#X obj 199 81 + 0.75;
#X obj 124 231 pack f f;
#X msg 124 261 \$2 \$1 0;
#X obj 174 31 r ppos;
#X obj 214 171 r spacing;
#X obj 209 121 outlet;
#X obj 209 61 inlet;
#X floatatom 209 101 5 0 0 0 - - -;
#X obj 214 191 t b f;
#X text 249 98 X position of polygon point;
#X text 218 32 Y position of polygon point;
#X obj 124 31 inlet;
#X connect 0 0 4 0;
#X connect 2 0 4 1;
#X connect 3 0 2 0;
#X connect 3 0 8 0;
#X connect 3 0 10 0;
#X connect 4 0 5 0;
#X connect 5 0 1 0;
#X connect 6 0 0 1;
#X connect 7 0 11 0;
#X connect 9 0 3 0;
#X connect 11 0 2 0;
#X connect 11 1 2 1;
#X connect 14 0 0 0;
#X restore 51 99 pd p1;
#X obj 16 39 inlet;
#X connect 0 0 1 2;
#X connect 0 1 13 1;
#X connect 2 0 0 0;
#X connect 3 0 13 0;
#X connect 4 0 17 0;
#X connect 5 0 14 0;
#X connect 6 0 18 0;
#X connect 7 0 15 0;
#X connect 8 0 19 0;
#X connect 9 0 16 0;
#X connect 10 0 1 10;
#X connect 11 0 20 0;
#X connect 11 0 20 1;
#X connect 12 0 10 0;
#X connect 13 0 1 3;
#X connect 13 1 17 1;
#X connect 14 0 1 5;
#X connect 14 1 18 1;
#X connect 15 0 1 7;
#X connect 15 1 19 1;
#X connect 16 0 1 9;
#X connect 16 1 10 1;
#X connect 17 0 1 4;
#X connect 17 1 14 1;
#X connect 18 0 1 6;
#X connect 18 1 15 1;
#X connect 19 0 1 8;
#X connect 19 1 16 1;
#X connect 20 0 1 1;
#X connect 20 1 0 1;
#X connect 21 0 1 0;
#X restore 55 666 pd poly;
#X floatatom 306 219 5 0 10 0 - - -;
#X obj 72 276 * -1;
#X obj 306 139 bng 15 250 50 0 empty empty empty 17 7 0 10 -258113
-1 -1;
#X obj 306 159 bng 15 250 50 0 empty empty empty 17 7 0 10 -258113
-1 -1;
#X text 234 193 sensitivity;
#X text 234 236 position;
#X text 323 137 fill;
#X text 323 157 line;
#X text 303 236 rotate;
#X obj 55 136 gemhead 150;
#X obj 55 466 gemhead 160;
#X obj 206 109 tgl 15 0 empty empty empty 17 7 0 10 -258113 -1 -1 0
1;
#X text 224 106 render;
#X obj 206 56 loadbang;
#X obj 206 76 t b b;
#X obj 362 352 inlet;
#X msg 420 279 width \$1;
#X obj 421 251 inlet;
#X connect 1 0 3 0;
#X connect 2 0 1 1;
#X connect 3 0 11 0;
#X connect 4 0 5 0;
#X connect 5 0 6 0;
#X connect 6 0 1 2;
#X connect 7 0 9 0;
#X connect 8 0 28 0;
#X connect 9 0 8 0;
#X connect 9 2 10 0;
#X connect 10 0 9 1;
#X connect 11 0 7 0;
#X connect 12 0 29 0;
#X connect 12 0 28 0;
#X connect 13 0 29 0;
#X connect 13 0 28 0;
#X connect 14 0 23 0;
#X connect 15 0 14 1;
#X connect 16 0 21 0;
#X connect 17 0 18 0;
#X connect 18 0 19 0;
#X connect 19 0 14 2;
#X connect 20 0 29 0;
#X connect 21 0 20 0;
#X connect 21 2 22 0;
#X connect 22 0 21 1;
#X connect 23 0 16 0;
#X connect 30 0 16 1;
#X connect 30 0 31 0;
#X connect 31 0 7 1;
#X connect 32 0 12 0;
#X connect 33 0 13 0;
#X connect 39 0 1 0;
#X connect 40 0 14 0;
#X connect 41 0 39 0;
#X connect 41 0 40 0;
#X connect 43 0 44 0;
#X connect 44 0 41 0;
#X connect 44 1 41 0;
#X connect 45 0 8 1;
#X connect 45 0 20 1;
#X connect 46 0 28 0;
#X connect 46 0 29 0;
#X connect 47 0 46 0;
#X coords 0 -1 1 1 160 160 2 200 100;
#X restore 623 445 pd polys;
#N canvas 66 127 702 640 feedback 0;
#X obj 500 250 cnv 15 110 195 empty empty empty 20 12 0 14 -233017
-66577 0;
#X obj 274 230 pix_texture;
#X msg 367 152 snap;
#X obj 274 128 render_trigger;
#X obj 274 460 rotateXYZ;
#X obj 274 410 translateXYZ;
#X obj 504 275 grid grid1 100 0 10 100 0 10 0 0.1 0.1 10 10 227 421
;
#N canvas 67 113 450 300 translated 0;
#X obj 119 196 line;
#X msg 119 176 \$1 100;
#X obj 192 196 line;
#X msg 192 176 \$1 100;
#X obj 119 156 inlet;
#X obj 192 156 inlet;
#X obj 119 236 outlet;
#X obj 192 236 outlet;
#X obj 119 216 - 5;
#X obj 192 216 - 5;
#X connect 0 0 8 0;
#X connect 1 0 0 0;
#X connect 2 0 9 0;
#X connect 3 0 2 0;
#X connect 4 0 1 0;
#X connect 5 0 3 0;
#X connect 8 0 6 0;
#X connect 9 0 7 0;
#X restore 297 380 pd translated;
#X obj 508 405 hsl 60 15 -10 10 0 0 empty empty empty -2 -8 0 10 -260097
-1 -1 3835 1;
#X obj 508 385 hsl 60 15 0 360 0 0 empty empty empty -2 -8 0 10 -260097
-1 -1 0 1;
#X text 570 384 rotate;
#X obj 274 580 spigot;
#X obj 505 425 tgl 15 0 empty empty empty 17 7 0 10 -4034 -1 -1 0 1
;
#X obj 274 250 separator;
#X obj 504 255 tgl 15 0 empty empty empty 17 7 0 10 -258113 -1 -1 0
1;
#X obj 294 530 square;
#X text 570 403 size;
#X text 521 253 render;
#X text 521 423 sphere;
#X obj 504 200 loadbang;
#X obj 504 220 t b b;
#X msg 597 224 3;
#X obj 575 136 key;
#X obj 577 177 bng 15 250 50 0 empty empty empty 17 7 0 10 -262144
-1 -1;
#X obj 575 156 sel 101;
#X obj 297 151 gemhead 100;
#X obj 274 104 gemhead -1;
#X obj 294 500 scaleXYZ;
#X obj 272 600 sphere 6;
#X obj 631 361 inlet;
#X msg 413 433 1.5;
#X obj 274 199 pix_snap 0 0 1440 900;
#X connect 1 0 13 0;
#X connect 2 0 31 0;
#X connect 3 0 31 0;
#X connect 3 2 2 0;
#X connect 4 0 11 0;
#X connect 4 0 27 0;
#X connect 5 0 4 0;
#X connect 6 0 7 0;
#X connect 6 1 7 1;
#X connect 7 0 5 1;
#X connect 7 1 5 2;
#X connect 8 0 15 1;
#X connect 9 0 4 3;
#X connect 11 0 28 0;
#X connect 12 0 11 1;
#X connect 13 0 5 0;
#X connect 14 0 25 0;
#X connect 14 0 26 0;
#X connect 19 0 20 0;
#X connect 19 0 21 0;
#X connect 19 0 30 0;
#X connect 20 0 14 0;
#X connect 20 1 14 0;
#X connect 21 0 8 0;
#X connect 22 0 24 0;
#X connect 23 0 14 0;
#X connect 24 0 23 0;
#X connect 25 0 31 0;
#X connect 26 0 3 0;
#X connect 27 0 15 0;
#X connect 29 0 9 0;
#X connect 30 0 27 1;
#X connect 31 0 1 0;
#X coords 0 -1 1 1 110 195 1 500 250;
#X restore 174 346 pd feedback;
#X obj 18 702 newWave 25 10;
#X obj 944 55 key;
#X msg 944 95 2;
#X obj 834 55 key;
#X msg 834 95 0;
#X obj 834 75 sel 49;
#X obj 944 75 sel 51;
#N canvas 709 154 450 300 slidesquaress 0;
#X obj 170 0 cnv 15 100 70 empty empty empty 20 12 0 14 -233017 -66577
0;
#X obj 16 301 slideSquares 5 5;
#X obj 176 26 tgl 15 0 empty empty empty 17 7 0 10 -260097 -1 -1 0
1;
#X obj 176 301 slideSquares 5 5;
#X obj 176 46 tgl 15 0 empty empty empty 17 7 0 10 -260097 -1 -1 0
1;
#X obj 16 181 rotateXYZ 0 15 0;
#X obj 176 181 rotateXYZ 0 -15 270;
#X obj 62 281 line;
#X floatatom 226 45 5 0 0 0 - - -;
#X obj 222 281 line;
#X msg 62 261 \$1 100;
#X msg 222 261 \$1 100;
#X obj 16 20 sel 0 1;
#X obj 176 6 tgl 15 0 empty empty empty 17 7 0 10 -258113 -1 -1 0 1
;
#X msg 16 40 0;
#X msg 35 60 1;
#X obj 16 84 loadbang;
#X obj 16 104 t b b;
#X msg 62 214 5;
#X text 195 4 render;
#X text 195 24 1;
#X text 195 44 2;
#X text 223 26 size;
#X obj 16 151 gemhead 230;
#X obj 176 151 gemhead 240;
#X connect 2 0 23 0;
#X connect 4 0 24 0;
#X connect 5 0 1 0;
#X connect 6 0 3 0;
#X connect 7 0 1 1;
#X connect 7 0 1 2;
#X connect 8 0 10 0;
#X connect 8 0 11 0;
#X connect 9 0 3 1;
#X connect 9 0 3 2;
#X connect 10 0 7 0;
#X connect 11 0 9 0;
#X connect 12 0 14 0;
#X connect 12 1 15 0;
#X connect 13 0 12 0;
#X connect 14 0 2 0;
#X connect 14 0 4 0;
#X connect 15 0 2 0;
#X connect 15 0 4 0;
#X connect 16 0 17 0;
#X connect 16 0 18 0;
#X connect 17 0 2 0;
#X connect 17 0 4 0;
#X connect 17 1 2 0;
#X connect 17 1 4 0;
#X connect 18 0 8 0;
#X connect 23 0 5 0;
#X connect 24 0 6 0;
#X coords 0 -1 1 1 100 70 1 170 0;
#X restore 323 366 pd slidesquaress;
#X obj 864 0 path /home/hellocatfood/pd-externals/hellocatfood;
#X obj 323 266 player;
#X obj 323 32 playlist all 260 220 {Helvetica 10 bold} #457782 yellow
black red;
#X obj 173 266 player;
#X obj 3 32 playlist all 260 220 {Helvetica 10 bold} #457782 yellow
black red;
#X obj 177 552 hsl 120 30 0 1 0 0 empty empty empty -2 -8 0 10 -260097
-1 -1 0 1;
#X obj 894 55 key;
#X msg 894 95 1;
#X obj 894 75 sel 50;
#X text 1073 275 t = text;
#X text 1073 285 f = flat;
#X text 1073 295 n = wave;
#X text 1143 275 1 = one screen;
#X text 1143 285 2 = split screen;
#X text 1143 295 3 = 3d;
#X obj 804 115 key;
#X obj 804 155 bng 15 250 50 0 empty empty empty 17 7 0 10 -262144
-1 -1;
#X obj 804 135 sel 108;
#X text 1143 305 l = lighting;
#X text 323 345 slidesquares;
#X text 993 275 e = feedback;
#X obj 467 612 pix_contrast;
#X obj 464 634 pix_texture;
#X floatatom 548 640 5 -10 10 0 - - -;
#X obj 453 266 somepixeffects;
#X obj 3 266 somepixeffects;
#N canvas 66 97 450 300 mixing 0;
#X obj 208 138 pix_mix;
#X obj 208 178 pix_multiply;
#X obj 208 158 pix_add;
#X obj 108 118 gate 4;
#X obj 328 118 gate 4;
#X obj 208 198 pix_diff;
#X obj 208 228 outlet;
#X obj 108 98 inlet;
#X obj 328 98 inlet;
#X obj 361 98 inlet;
#X obj 141 98 inlet;
#X obj 247 98 inlet;
#X connect 0 0 6 0;
#X connect 1 0 6 0;
#X connect 2 0 6 0;
#X connect 3 0 0 0;
#X connect 3 1 2 0;
#X connect 3 2 1 0;
#X connect 3 3 5 0;
#X connect 4 0 0 1;
#X connect 4 1 2 1;
#X connect 4 2 1 1;
#X connect 4 3 5 1;
#X connect 5 0 6 0;
#X connect 7 0 3 0;
#X connect 8 0 4 0;
#X connect 9 0 4 1;
#X connect 10 0 3 1;
#X connect 11 0 0 2;
#X restore 218 603 pd mixing;
#X obj 351 653 multiscreen;
#X obj 414 633 bng 15 250 50 0 empty empty empty 17 7 0 10 -258113
-1 -1;
#X obj 351 633 tgl 15 0 empty empty empty 17 7 0 10 -262144 -1 -1 1
1;
#X obj 368 596 key;
#X obj 368 616 sel 109;
#X text 993 335 m = multiple squares;
#X floatatom 718 419 5 0 20 0 - - -;
#X obj 191 632 bng 15 250 50 0 empty empty empty 17 7 0 10 -262144
-1 -1;
#X obj 418 591 key;
#X obj 418 612 sel 114;
#X text 993 345 r = randomise squares;
#X obj 658 418 tgl 15 0 empty empty empty 17 7 0 10 -262144 -1 -1 0
1;
#N canvas 662 163 450 300 cube___ 0;
#X msg 166 217 draw line;
#X obj 106 227 spigot;
#X msg 166 237 draw fill;
#X obj 106 257 cube;
#X obj 100 100 cnv 15 110 60 empty stoprotate empty 20 12 0 14 -191407
-66577 0;
#X obj 105 105 tgl 15 0 empty empty empty 17 7 0 10 -4034 -1 -1 0 1
;
#X obj 108 145 hsl 90 10 1 4 0 0 empty empty empty -2 -8 0 10 -260097
-1 -1 4700 1;
#X text 104 127 size;
#X obj 155 105 bng 13 250 50 0 empty empty empty 17 7 0 10 -258113
-1 -1;
#X obj 155 125 bng 13 250 50 0 empty empty empty 17 7 0 10 -258113
-1 -1;
#X text 174 103 line;
#X text 174 123 fill;
#X obj 106 197 inlet;
#X connect 0 0 3 0;
#X connect 1 0 3 0;
#X connect 2 0 3 0;
#X connect 5 0 1 1;
#X connect 6 0 3 1;
#X connect 8 0 0 0;
#X connect 9 0 2 0;
#X connect 12 0 1 0;
#X coords 0 -1 1 1 110 60 2 100 100;
#X restore 744 196 pd cube___;
#N canvas 358 155 450 300 sphere 0;
#X obj 100 100 cnv 15 110 90 empty stoprotate empty 20 12 0 14 -191407
-66577 0;
#X obj 105 106 tgl 15 0 empty empty empty 17 7 0 10 -4034 -1 -1 1 1
;
#X obj 108 145 hsl 90 10 1 4 0 0 empty empty empty -2 -8 0 10 -260097
-1 -1 100 1;
#X text 104 127 size;
#X obj 108 169 hsl 90 10 2 10 0 0 empty empty empty -2 -8 0 10 -260097
-1 -1 0 1;
#X text 104 151 segments;
#X obj 155 107 bng 13 250 50 0 empty empty empty 17 7 0 10 -258113
-1 -1;
#X obj 155 124 bng 13 250 50 0 empty empty empty 17 7 0 10 -258113
-1 -1;
#X text 174 105 line;
#X text 174 122 fill;
#X obj 106 264 sphere;
#X msg 155 224 draw line;
#X obj 106 234 spigot;
#X msg 155 244 draw fill;
#X obj 106 204 inlet;
#X connect 1 0 12 1;
#X connect 2 0 10 1;
#X connect 4 0 10 2;
#X connect 6 0 11 0;
#X connect 7 0 13 0;
#X connect 11 0 10 0;
#X connect 12 0 10 0;
#X connect 13 0 10 0;
#X connect 14 0 12 0;
#X coords 0 -1 1 1 110 90 2 100 100;
#X restore 744 286 pd sphere;
#X text 773 491 sphere;
#X text 742 179 cube;
#N canvas 533 391 450 300 particles 0;
#X obj -27 200 part_head;
#X obj 100 100 cnv 15 110 220 empty stoprotate empty 20 12 0 14 -191407
-66577 0;
#X obj 108 205 hsl 90 10 0 1.5 0 0 empty empty empty -2 -8 0 10 -260097
-1 -1 3800 1;
#X obj 105 125 tgl 15 0 empty stoprotate empty 17 7 0 10 -4034 -1 -1
1 1;
#X text 105 184 spread;
#X text 125 124 rotate;
#X obj -12 160 loadbang;
#X obj 108 175 hsl 90 10 0 5 0 0 empty empty empty -2 -8 0 10 -260097
-1 -1 2180 1;
#X msg -12 180 speed \$1;
#X obj -27 390 part_killold 10;
#X obj 108 235 hsl 90 10 1 50 0 0 empty empty empty -2 -8 0 10 -260097
-1 -1 8900 1;
#X obj -27 260 part_targetcolor;
#X obj 19 240 pack f f f f;
#N canvas 129 154 450 300 rand 0;
#X obj 60 89 random 100;
#X obj 140 69 metro;
#X obj 140 89 random 100;
#X obj 220 69 metro;
#X obj 220 89 random 100;
#X obj 60 69 metro 50;
#X obj 60 149 /;
#X obj 140 149 /;
#X obj 220 149 /;
#X obj 60 199 outlet;
#X obj 140 199 outlet;
#X obj 220 199 outlet;
#X obj 80 119 * 5;
#X obj 160 119 * 5;
#X obj 240 119 * 5;
#X obj 60 29 inlet;
#X connect 0 0 3 1;
#X connect 0 0 6 0;
#X connect 0 0 12 0;
#X connect 1 0 2 0;
#X connect 2 0 5 1;
#X connect 2 0 7 0;
#X connect 2 0 13 0;
#X connect 3 0 4 0;
#X connect 4 0 1 1;
#X connect 4 0 8 0;
#X connect 4 0 14 0;
#X connect 5 0 0 0;
#X connect 6 0 9 0;
#X connect 7 0 10 0;
#X connect 8 0 11 0;
#X connect 12 0 8 1;
#X connect 13 0 6 1;
#X connect 14 0 7 1;
#X connect 15 0 5 0;
#X connect 15 0 1 0;
#X connect 15 0 3 0;
#X restore 19 219 pd rand;
#X obj -27 410 part_render;
#X obj 108 145 hsl 60 10 200 2 0 0 empty empty empty -2 -8 0 10 -260097
-1 -1 5300 1;
#X text 105 217 amount;
#N canvas 496 159 450 300 rotate 0;
#X obj 111 111 f;
#X obj 137 111 + 1;
#X obj 111 91 metro 30;
#X obj 77 140 rotateXYZ;
#X obj 77 30 inlet;
#X obj 111 61 inlet;
#X obj 156 61 inlet;
#X obj 77 170 outlet;
#X obj 206 61 inlet;
#X connect 0 0 1 0;
#X connect 0 0 3 2;
#X connect 0 0 3 1;
#X connect 1 0 0 1;
#X connect 2 0 0 0;
#X connect 3 0 7 0;
#X connect 4 0 3 0;
#X connect 5 0 2 0;
#X connect 6 0 2 1;
#X connect 8 0 0 0;
#X restore -27 140 pd rotate;
#X text 105 154 speed;
#X msg 48 180 1;
#X obj 105 252 tgl 15 0 empty empty empty 17 7 0 10 -4034 -1 -1 1 1
;
#X obj 108 285 hsl 90 10 0.01 1 0 0 empty empty empty -2 -8 0 10 -260097
-1 -1 0 1;
#X text 125 250 color;
#X text 104 267 saturation;
#N canvas 312 264 450 300 spread 0;
#X obj 57 220 part_velocity;
#X msg 132 70 symbol sphere;
#X obj 132 -30 loadbang;
#X obj 132 -10 t b b;
#X obj 57 140 part_source 1;
#X msg 132 180 symbol sphere;
#X msg 132 120 0 0 0 0 \$1;
#X msg 132 200 0 0 0 0 \$1;
#X msg 159 10 0;
#X obj 57 -30 inlet;
#X obj 57 260 outlet;
#X obj 159 30 outlet;
#X obj 242 70 inlet;
#X connect 0 0 10 0;
#X connect 1 0 4 2;
#X connect 2 0 3 0;
#X connect 2 0 5 0;
#X connect 3 0 1 0;
#X connect 3 0 6 0;
#X connect 3 1 8 0;
#X connect 4 0 0 0;
#X connect 5 0 0 1;
#X connect 6 0 4 3;
#X connect 7 0 0 2;
#X connect 8 0 11 0;
#X connect 9 0 4 0;
#X connect 12 0 6 0;
#X connect 12 0 7 0;
#X restore -27 350 pd spread;
#N canvas 893 299 450 300 spreadpoint 0;
#X obj 57 220 part_velocity;
#X obj 94 -19 loadbang;
#X obj 57 140 part_source 1;
#X obj 57 -30 inlet;
#X obj 57 260 outlet;
#X msg 107 80 symbol point;
#X msg 94 180 symbol point;
#X msg 132 200 0 0 2;
#X msg 132 110 0 0 -20;
#X connect 0 0 4 0;
#X connect 1 0 6 0;
#X connect 1 0 5 0;
#X connect 1 0 8 0;
#X connect 1 0 7 0;
#X connect 2 0 0 0;
#X connect 3 0 2 0;
#X connect 5 0 2 2;
#X connect 6 0 0 1;
#X connect 7 0 0 2;
#X connect 8 0 2 3;
#X restore 0 370 pd spreadpoint;
#X obj 105 300 tgl 15 0 empty empty empty 17 7 0 10 -257985 -1 -1 0
1;
#X text 127 297 zoom;
#X msg 24 110 0;
#X obj 178 140 bng 15 250 50 0 empty empty empty 17 7 0 10 -258113
-1 -1;
#X obj -27 320 gate 2;
#X obj -27 300 + 1;
#X obj -27 440 outlet;
#X obj 105 105 tgl 15 0 empty stoprotate empty 17 7 0 10 -258113 -1
-1 1 1;
#X text 125 104 render;
#X obj 99 63 t b b;
#X obj -27 80 gemhead 900;
#X obj 184 15 key;
#X obj 184 35 sel 112;
#X connect 0 0 11 0;
#X connect 2 0 24 1;
#X connect 3 0 17 1;
#X connect 6 0 8 0;
#X connect 6 0 19 0;
#X connect 6 0 35 0;
#X connect 7 0 8 0;
#X connect 8 0 0 0;
#X connect 9 0 14 0;
#X connect 10 0 9 1;
#X connect 11 0 30 1;
#X connect 12 0 11 1;
#X connect 13 0 12 0;
#X connect 13 1 12 1;
#X connect 13 2 12 2;
#X connect 14 0 32 0;
#X connect 15 0 17 2;
#X connect 17 0 0 0;
#X connect 19 0 7 0;
#X connect 20 0 13 0;
#X connect 21 0 11 2;
#X connect 24 0 9 0;
#X connect 24 1 2 0;
#X connect 25 0 9 0;
#X connect 26 0 31 0;
#X connect 28 0 17 3;
#X connect 28 0 3 0;
#X connect 29 0 28 0;
#X connect 30 0 24 0;
#X connect 30 1 25 0;
#X connect 31 0 30 0;
#X connect 33 0 36 0;
#X connect 35 0 33 0;
#X connect 35 1 33 0;
#X connect 36 0 17 0;
#X connect 37 0 38 0;
#X connect 38 0 33 0;
#X coords 0 -1 1 1 110 220 2 100 100;
#X restore 624 186 pd particles;
#X text 741 269 sphere;
#N canvas 527 172 450 300 mixmodes 0;
#X obj 100 100 cnv 15 115 70 empty empty empty 20 12 0 14 -233017 -66577
0;
#X obj 105 104 vradio 15 1 0 4 empty empty empty 0 -8 0 10 -257985
-1 -1 1;
#X obj 105 177 + 1;
#X text 124 102 mix;
#X text 124 117 add;
#X text 124 131 multiply;
#X text 124 146 diff;
#X obj 105 44 loadbang;
#X msg 105 64 0;
#X text 184 102 z;
#X text 184 116 x;
#X text 184 131 c;
#X text 184 146 v;
#X obj 105 197 outlet;
#X obj 248 138 key;
#X obj 249 159 sel 122;
#X obj 308 138 key;
#X obj 309 159 sel 120;
#X obj 368 138 key;
#X obj 369 159 sel 99;
#X obj 418 138 key;
#X obj 419 159 sel 118;
#X msg 249 179 0;
#X msg 309 179 1;
#X msg 369 179 2;
#X msg 419 179 3;
#X connect 1 0 2 0;
#X connect 2 0 13 0;
#X connect 7 0 8 0;
#X connect 8 0 1 0;
#X connect 14 0 15 0;
#X connect 15 0 22 0;
#X connect 16 0 17 0;
#X connect 17 0 23 0;
#X connect 18 0 19 0;
#X connect 19 0 24 0;
#X connect 20 0 21 0;
#X connect 21 0 25 0;
#X connect 22 0 1 0;
#X connect 23 0 1 0;
#X connect 24 0 1 0;
#X connect 25 0 1 0;
#X coords 0 -1 1 1 115 70 2 100 100;
#X restore 308 514 pd mixmodes;
#X msg 603 36 location /home/hellocatfood/Desktop/vids;
#X text 993 375 p = particles;
#X msg 285 350 90;
#X obj 144 614 loadbang;
#X msg 157 653 6;
#X obj 155 677 * 1.2;
#X obj 203 680 * 1.2;
#X msg 186 653 4;
#X floatatom 221 644 5 0 0 0 - - -;
#X floatatom 263 669 5 0 0 0 - - -;
#X obj 723 630 bng 15 250 50 0 empty empty empty 17 7 0 10 -262144
-1 -1;
#X obj 570 605 tgl 15 0 empty empty empty 17 7 0 10 -262144 -1 -1 0
1;
#X obj 607 628 metro 400;
#X obj 864 19 path /homeee/hellocatfood/pd-externals/gridflow;
#X connect 0 0 1 0;
#X connect 0 1 61 1;
#X connect 1 0 12 0;
#X connect 2 0 16 2;
#X connect 3 0 2 0;
#X connect 7 0 16 2;
#X connect 8 0 7 0;
#X connect 9 0 16 2;
#X connect 10 0 23 0;
#X connect 11 0 26 0;
#X connect 11 1 26 3;
#X connect 12 0 26 0;
#X connect 12 1 26 0;
#X connect 13 0 16 0;
#X connect 14 0 16 3;
#X connect 15 0 16 2;
#X connect 20 0 16 1;
#X connect 23 0 9 0;
#X connect 27 0 32 0;
#X connect 28 0 3 0;
#X connect 29 0 31 0;
#X connect 30 0 3 0;
#X connect 31 0 30 0;
#X connect 32 0 28 0;
#X connect 35 0 58 0;
#X connect 36 0 35 0;
#X connect 38 0 37 0;
#X connect 39 0 60 2;
#X connect 40 0 42 0;
#X connect 41 0 3 0;
#X connect 42 0 41 0;
#X connect 49 0 51 0;
#X connect 50 0 20 0;
#X connect 51 0 50 0;
#X connect 55 0 56 0;
#X connect 56 0 24 0;
#X connect 57 0 55 2;
#X connect 58 0 60 4;
#X connect 60 0 0 0;
#X connect 60 0 55 0;
#X connect 62 0 61 2;
#X connect 63 0 61 0;
#X connect 64 0 65 0;
#X connect 65 0 63 0;
#X connect 67 0 24 1;
#X connect 68 0 84 0;
#X connect 68 0 87 0;
#X connect 69 0 70 0;
#X connect 70 0 62 0;
#X connect 72 0 56 0;
#X connect 77 0 74 0;
#X connect 77 0 73 0;
#X connect 79 0 60 3;
#X connect 79 0 60 0;
#X connect 80 0 36 0;
#X connect 80 0 38 0;
#X connect 82 0 25 0;
#X connect 83 0 68 0;
#X connect 84 0 85 0;
#X connect 85 0 1 1;
#X connect 86 0 1 2;
#X connect 87 0 86 0;
#X connect 88 0 85 0;
#X connect 89 0 86 0;
#X connect 90 0 62 0;
#X connect 91 0 92 0;
#X connect 92 0 90 0;
