#N canvas 65 54 1301 714 10;
#X obj 30 308 square;
#X obj 30 268 translateXYZ;
#N canvas 709 131 450 300 rpos 0;
#X obj 124 150 random 100;
#X obj 124 170 / 16;
#X obj 124 190 - 3;
#X obj 124 120 inlet;
#X obj 124 220 outlet;
#X connect 0 0 1 0;
#X connect 1 0 2 0;
#X connect 2 0 4 0;
#X connect 3 0 0 0;
#X restore 53 228 pd rpos;
#N canvas 707 136 450 300 rpos 0;
#X obj 124 150 random 100;
#X obj 124 170 / 16;
#X obj 124 190 - 3;
#X obj 124 120 inlet;
#X obj 124 220 outlet;
#X connect 0 0 1 0;
#X connect 1 0 2 0;
#X connect 2 0 4 0;
#X connect 3 0 0 0;
#X restore 76 248 pd rpos;
#X obj 130 308 square;
#X obj 130 268 translateXYZ;
#N canvas 709 131 450 300 rpos 0;
#X obj 124 150 random 100;
#X obj 124 170 / 16;
#X obj 124 190 - 3;
#X obj 124 120 inlet;
#X obj 124 220 outlet;
#X connect 0 0 1 0;
#X connect 1 0 2 0;
#X connect 2 0 4 0;
#X connect 3 0 0 0;
#X restore 153 228 pd rpos;
#N canvas 707 136 450 300 rpos 0;
#X obj 124 150 random 100;
#X obj 124 170 / 16;
#X obj 124 190 - 3;
#X obj 124 120 inlet;
#X obj 124 220 outlet;
#X connect 0 0 1 0;
#X connect 1 0 2 0;
#X connect 2 0 4 0;
#X connect 3 0 0 0;
#X restore 176 248 pd rpos;
#X obj 30 149 pix_texture;
#N canvas 705 141 450 300 rsize 0;
#X obj 124 120 inlet;
#X obj 124 220 outlet;
#X obj 124 150 random 300;
#X obj 124 170 / 100;
#X connect 0 0 2 0;
#X connect 2 0 3 0;
#X connect 3 0 1 0;
#X restore 163 288 pd rsize;
#N canvas 703 146 450 300 rsize 0;
#X obj 124 120 inlet;
#X obj 124 220 outlet;
#X obj 124 150 random 300;
#X obj 124 170 / 100;
#X connect 0 0 2 0;
#X connect 2 0 3 0;
#X connect 3 0 1 0;
#X restore 63 288 pd rsize;
#X obj 230 308 square;
#X obj 230 268 translateXYZ;
#N canvas 709 131 450 300 rpos 0;
#X obj 124 150 random 100;
#X obj 124 170 / 16;
#X obj 124 190 - 3;
#X obj 124 120 inlet;
#X obj 124 220 outlet;
#X connect 0 0 1 0;
#X connect 1 0 2 0;
#X connect 2 0 4 0;
#X connect 3 0 0 0;
#X restore 253 228 pd rpos;
#N canvas 707 136 450 300 rpos 0;
#X obj 124 150 random 100;
#X obj 124 170 / 16;
#X obj 124 190 - 3;
#X obj 124 120 inlet;
#X obj 124 220 outlet;
#X connect 0 0 1 0;
#X connect 1 0 2 0;
#X connect 2 0 4 0;
#X connect 3 0 0 0;
#X restore 276 248 pd rpos;
#N canvas 705 141 450 300 rsize 0;
#X obj 124 120 inlet;
#X obj 124 220 outlet;
#X obj 124 150 random 300;
#X obj 124 170 / 100;
#X connect 0 0 2 0;
#X connect 2 0 3 0;
#X connect 3 0 1 0;
#X restore 263 288 pd rsize;
#X obj 330 308 square;
#X obj 330 268 translateXYZ;
#N canvas 709 131 450 300 rpos 0;
#X obj 124 150 random 100;
#X obj 124 170 / 16;
#X obj 124 190 - 3;
#X obj 124 120 inlet;
#X obj 124 220 outlet;
#X connect 0 0 1 0;
#X connect 1 0 2 0;
#X connect 2 0 4 0;
#X connect 3 0 0 0;
#X restore 353 228 pd rpos;
#N canvas 707 136 450 300 rpos 0;
#X obj 124 150 random 100;
#X obj 124 170 / 16;
#X obj 124 190 - 3;
#X obj 124 120 inlet;
#X obj 124 220 outlet;
#X connect 0 0 1 0;
#X connect 1 0 2 0;
#X connect 2 0 4 0;
#X connect 3 0 0 0;
#X restore 376 248 pd rpos;
#N canvas 705 141 450 300 rsize 0;
#X obj 124 120 inlet;
#X obj 124 220 outlet;
#X obj 124 150 random 300;
#X obj 124 170 / 100;
#X connect 0 0 2 0;
#X connect 2 0 3 0;
#X connect 3 0 1 0;
#X restore 363 288 pd rsize;
#X obj 430 308 square;
#X obj 430 268 translateXYZ;
#N canvas 709 131 450 300 rpos 0;
#X obj 124 150 random 100;
#X obj 124 170 / 16;
#X obj 124 190 - 3;
#X obj 124 120 inlet;
#X obj 124 220 outlet;
#X connect 0 0 1 0;
#X connect 1 0 2 0;
#X connect 2 0 4 0;
#X connect 3 0 0 0;
#X restore 453 228 pd rpos;
#N canvas 707 136 450 300 rpos 0;
#X obj 124 150 random 100;
#X obj 124 170 / 16;
#X obj 124 190 - 3;
#X obj 124 120 inlet;
#X obj 124 220 outlet;
#X connect 0 0 1 0;
#X connect 1 0 2 0;
#X connect 2 0 4 0;
#X connect 3 0 0 0;
#X restore 476 248 pd rpos;
#X obj 530 308 square;
#X obj 530 268 translateXYZ;
#N canvas 709 131 450 300 rpos 0;
#X obj 124 150 random 100;
#X obj 124 170 / 16;
#X obj 124 190 - 3;
#X obj 124 120 inlet;
#X obj 124 220 outlet;
#X connect 0 0 1 0;
#X connect 1 0 2 0;
#X connect 2 0 4 0;
#X connect 3 0 0 0;
#X restore 553 228 pd rpos;
#N canvas 707 136 450 300 rpos 0;
#X obj 124 150 random 100;
#X obj 124 170 / 16;
#X obj 124 190 - 3;
#X obj 124 120 inlet;
#X obj 124 220 outlet;
#X connect 0 0 1 0;
#X connect 1 0 2 0;
#X connect 2 0 4 0;
#X connect 3 0 0 0;
#X restore 576 248 pd rpos;
#N canvas 705 141 450 300 rsize 0;
#X obj 124 120 inlet;
#X obj 124 220 outlet;
#X obj 124 150 random 300;
#X obj 124 170 / 100;
#X connect 0 0 2 0;
#X connect 2 0 3 0;
#X connect 3 0 1 0;
#X restore 563 288 pd rsize;
#N canvas 703 146 450 300 rsize 0;
#X obj 124 120 inlet;
#X obj 124 220 outlet;
#X obj 124 150 random 300;
#X obj 124 170 / 100;
#X connect 0 0 2 0;
#X connect 2 0 3 0;
#X connect 3 0 1 0;
#X restore 463 288 pd rsize;
#X obj 630 308 square;
#X obj 630 268 translateXYZ;
#N canvas 709 131 450 300 rpos 0;
#X obj 124 150 random 100;
#X obj 124 170 / 16;
#X obj 124 190 - 3;
#X obj 124 120 inlet;
#X obj 124 220 outlet;
#X connect 0 0 1 0;
#X connect 1 0 2 0;
#X connect 2 0 4 0;
#X connect 3 0 0 0;
#X restore 653 228 pd rpos;
#N canvas 707 136 450 300 rpos 0;
#X obj 124 150 random 100;
#X obj 124 170 / 16;
#X obj 124 190 - 3;
#X obj 124 120 inlet;
#X obj 124 220 outlet;
#X connect 0 0 1 0;
#X connect 1 0 2 0;
#X connect 2 0 4 0;
#X connect 3 0 0 0;
#X restore 676 248 pd rpos;
#N canvas 705 141 450 300 rsize 0;
#X obj 124 120 inlet;
#X obj 124 220 outlet;
#X obj 124 150 random 300;
#X obj 124 170 / 100;
#X connect 0 0 2 0;
#X connect 2 0 3 0;
#X connect 3 0 1 0;
#X restore 663 288 pd rsize;
#X obj 730 308 square;
#X obj 730 268 translateXYZ;
#N canvas 709 131 450 300 rpos 0;
#X obj 124 150 random 100;
#X obj 124 170 / 16;
#X obj 124 190 - 3;
#X obj 124 120 inlet;
#X obj 124 220 outlet;
#X connect 0 0 1 0;
#X connect 1 0 2 0;
#X connect 2 0 4 0;
#X connect 3 0 0 0;
#X restore 753 228 pd rpos;
#N canvas 707 136 450 300 rpos 0;
#X obj 124 150 random 100;
#X obj 124 170 / 16;
#X obj 124 190 - 3;
#X obj 124 120 inlet;
#X obj 124 220 outlet;
#X connect 0 0 1 0;
#X connect 1 0 2 0;
#X connect 2 0 4 0;
#X connect 3 0 0 0;
#X restore 776 248 pd rpos;
#N canvas 705 141 450 300 rsize 0;
#X obj 124 120 inlet;
#X obj 124 220 outlet;
#X obj 124 150 random 300;
#X obj 124 170 / 100;
#X connect 0 0 2 0;
#X connect 2 0 3 0;
#X connect 3 0 1 0;
#X restore 763 288 pd rsize;
#X obj 753 118 inlet;
#X obj 30 79 gemhead 1000;
#X obj 93 129 inlet;
#X obj 30 49 inlet;
#X connect 1 0 0 0;
#X connect 2 0 1 1;
#X connect 3 0 1 2;
#X connect 5 0 4 0;
#X connect 6 0 5 1;
#X connect 7 0 5 2;
#X connect 8 0 1 0;
#X connect 8 0 5 0;
#X connect 8 0 12 0;
#X connect 8 0 17 0;
#X connect 8 0 22 0;
#X connect 8 0 26 0;
#X connect 8 0 32 0;
#X connect 8 0 37 0;
#X connect 9 0 4 1;
#X connect 10 0 0 1;
#X connect 12 0 11 0;
#X connect 13 0 12 1;
#X connect 14 0 12 2;
#X connect 15 0 11 1;
#X connect 17 0 16 0;
#X connect 18 0 17 1;
#X connect 19 0 17 2;
#X connect 20 0 16 1;
#X connect 22 0 21 0;
#X connect 23 0 22 1;
#X connect 24 0 22 2;
#X connect 26 0 25 0;
#X connect 27 0 26 1;
#X connect 28 0 26 2;
#X connect 29 0 25 1;
#X connect 30 0 21 1;
#X connect 32 0 31 0;
#X connect 33 0 32 1;
#X connect 34 0 32 2;
#X connect 35 0 31 1;
#X connect 37 0 36 0;
#X connect 38 0 37 1;
#X connect 39 0 37 2;
#X connect 40 0 36 1;
#X connect 41 0 2 0;
#X connect 41 0 6 0;
#X connect 41 0 18 0;
#X connect 41 0 23 0;
#X connect 41 0 27 0;
#X connect 41 0 33 0;
#X connect 41 0 38 0;
#X connect 41 0 3 0;
#X connect 41 0 7 0;
#X connect 41 0 13 0;
#X connect 41 0 14 0;
#X connect 41 0 19 0;
#X connect 41 0 24 0;
#X connect 41 0 28 0;
#X connect 41 0 34 0;
#X connect 41 0 39 0;
#X connect 41 0 10 0;
#X connect 41 0 9 0;
#X connect 41 0 15 0;
#X connect 41 0 20 0;
#X connect 41 0 30 0;
#X connect 41 0 29 0;
#X connect 41 0 35 0;
#X connect 41 0 40 0;
#X connect 42 0 8 0;
#X connect 43 0 8 1;
#X connect 44 0 42 0;
